%TF.GenerationSoftware,KiCad,Pcbnew,10.0.6*%
%TF.CreationDate,2026-10-06T17:11:12-04:00*%
%TF.ProjectId,launch-relay,6c61756e-6368-42d7-9265-6c61792e6b69,rev?*%
%TF.SameCoordinates,Original*%
%TF.FileFunction,Legend,Top*%
%TF.FilePolarity,Positive*%
%FSLAX46Y46*%
G04 Gerber Fmt 4.6, Leading zero omitted, Abs format (unit mm)*
G04 Created by KiCad (PCBNEW 10.0.6) date 2026-10-06 17:11:12*
%MOMM*%
%LPD*%
G01*
G04 APERTURE LIST*
%ADD10C,0.150000*%
%ADD11C,0.120000*%
%ADD12C,0.152400*%
%ADD13C,0.273607*%
G04 APERTURE END LIST*
D10*
X93070112Y-78146009D02*
X93212969Y-78193628D01*
X93212969Y-78193628D02*
X93260588Y-78241247D01*
X93260588Y-78241247D02*
X93308207Y-78336485D01*
X93308207Y-78336485D02*
X93308207Y-78479342D01*
X93308207Y-78479342D02*
X93260588Y-78574580D01*
X93260588Y-78574580D02*
X93212969Y-78622200D01*
X93212969Y-78622200D02*
X93117731Y-78669819D01*
X93117731Y-78669819D02*
X92736779Y-78669819D01*
X92736779Y-78669819D02*
X92736779Y-77669819D01*
X92736779Y-77669819D02*
X93070112Y-77669819D01*
X93070112Y-77669819D02*
X93165350Y-77717438D01*
X93165350Y-77717438D02*
X93212969Y-77765057D01*
X93212969Y-77765057D02*
X93260588Y-77860295D01*
X93260588Y-77860295D02*
X93260588Y-77955533D01*
X93260588Y-77955533D02*
X93212969Y-78050771D01*
X93212969Y-78050771D02*
X93165350Y-78098390D01*
X93165350Y-78098390D02*
X93070112Y-78146009D01*
X93070112Y-78146009D02*
X92736779Y-78146009D01*
X93689160Y-78384104D02*
X94165350Y-78384104D01*
X93593922Y-78669819D02*
X93927255Y-77669819D01*
X93927255Y-77669819D02*
X94260588Y-78669819D01*
X94451065Y-77669819D02*
X95022493Y-77669819D01*
X94736779Y-78669819D02*
X94736779Y-77669819D01*
X95212970Y-77669819D02*
X95784398Y-77669819D01*
X95498684Y-78669819D02*
X95498684Y-77669819D01*
X96879637Y-78288866D02*
X97641542Y-78288866D01*
X97260589Y-78669819D02*
X97260589Y-77907914D01*
X93657142Y-73059875D02*
X93180952Y-73059875D01*
X93180952Y-73059875D02*
X93180952Y-72059875D01*
X94180952Y-72059875D02*
X94371428Y-72059875D01*
X94371428Y-72059875D02*
X94466666Y-72107494D01*
X94466666Y-72107494D02*
X94561904Y-72202732D01*
X94561904Y-72202732D02*
X94609523Y-72393208D01*
X94609523Y-72393208D02*
X94609523Y-72726541D01*
X94609523Y-72726541D02*
X94561904Y-72917017D01*
X94561904Y-72917017D02*
X94466666Y-73012256D01*
X94466666Y-73012256D02*
X94371428Y-73059875D01*
X94371428Y-73059875D02*
X94180952Y-73059875D01*
X94180952Y-73059875D02*
X94085714Y-73012256D01*
X94085714Y-73012256D02*
X93990476Y-72917017D01*
X93990476Y-72917017D02*
X93942857Y-72726541D01*
X93942857Y-72726541D02*
X93942857Y-72393208D01*
X93942857Y-72393208D02*
X93990476Y-72202732D01*
X93990476Y-72202732D02*
X94085714Y-72107494D01*
X94085714Y-72107494D02*
X94180952Y-72059875D01*
X94990476Y-72774160D02*
X95466666Y-72774160D01*
X94895238Y-73059875D02*
X95228571Y-72059875D01*
X95228571Y-72059875D02*
X95561904Y-73059875D01*
X95895238Y-73059875D02*
X95895238Y-72059875D01*
X95895238Y-72059875D02*
X96133333Y-72059875D01*
X96133333Y-72059875D02*
X96276190Y-72107494D01*
X96276190Y-72107494D02*
X96371428Y-72202732D01*
X96371428Y-72202732D02*
X96419047Y-72297970D01*
X96419047Y-72297970D02*
X96466666Y-72488446D01*
X96466666Y-72488446D02*
X96466666Y-72631303D01*
X96466666Y-72631303D02*
X96419047Y-72821779D01*
X96419047Y-72821779D02*
X96371428Y-72917017D01*
X96371428Y-72917017D02*
X96276190Y-73012256D01*
X96276190Y-73012256D02*
X96133333Y-73059875D01*
X96133333Y-73059875D02*
X95895238Y-73059875D01*
X94038095Y-73717438D02*
X93942857Y-73669819D01*
X93942857Y-73669819D02*
X93800000Y-73669819D01*
X93800000Y-73669819D02*
X93657143Y-73717438D01*
X93657143Y-73717438D02*
X93561905Y-73812676D01*
X93561905Y-73812676D02*
X93514286Y-73907914D01*
X93514286Y-73907914D02*
X93466667Y-74098390D01*
X93466667Y-74098390D02*
X93466667Y-74241247D01*
X93466667Y-74241247D02*
X93514286Y-74431723D01*
X93514286Y-74431723D02*
X93561905Y-74526961D01*
X93561905Y-74526961D02*
X93657143Y-74622200D01*
X93657143Y-74622200D02*
X93800000Y-74669819D01*
X93800000Y-74669819D02*
X93895238Y-74669819D01*
X93895238Y-74669819D02*
X94038095Y-74622200D01*
X94038095Y-74622200D02*
X94085714Y-74574580D01*
X94085714Y-74574580D02*
X94085714Y-74241247D01*
X94085714Y-74241247D02*
X93895238Y-74241247D01*
X94514286Y-74669819D02*
X94514286Y-73669819D01*
X94514286Y-73669819D02*
X95085714Y-74669819D01*
X95085714Y-74669819D02*
X95085714Y-73669819D01*
X95561905Y-74669819D02*
X95561905Y-73669819D01*
X95561905Y-73669819D02*
X95800000Y-73669819D01*
X95800000Y-73669819D02*
X95942857Y-73717438D01*
X95942857Y-73717438D02*
X96038095Y-73812676D01*
X96038095Y-73812676D02*
X96085714Y-73907914D01*
X96085714Y-73907914D02*
X96133333Y-74098390D01*
X96133333Y-74098390D02*
X96133333Y-74241247D01*
X96133333Y-74241247D02*
X96085714Y-74431723D01*
X96085714Y-74431723D02*
X96038095Y-74526961D01*
X96038095Y-74526961D02*
X95942857Y-74622200D01*
X95942857Y-74622200D02*
X95800000Y-74669819D01*
X95800000Y-74669819D02*
X95561905Y-74669819D01*
X92990952Y-68506009D02*
X93133809Y-68553628D01*
X93133809Y-68553628D02*
X93181428Y-68601247D01*
X93181428Y-68601247D02*
X93229047Y-68696485D01*
X93229047Y-68696485D02*
X93229047Y-68839342D01*
X93229047Y-68839342D02*
X93181428Y-68934580D01*
X93181428Y-68934580D02*
X93133809Y-68982200D01*
X93133809Y-68982200D02*
X93038571Y-69029819D01*
X93038571Y-69029819D02*
X92657619Y-69029819D01*
X92657619Y-69029819D02*
X92657619Y-68029819D01*
X92657619Y-68029819D02*
X92990952Y-68029819D01*
X92990952Y-68029819D02*
X93086190Y-68077438D01*
X93086190Y-68077438D02*
X93133809Y-68125057D01*
X93133809Y-68125057D02*
X93181428Y-68220295D01*
X93181428Y-68220295D02*
X93181428Y-68315533D01*
X93181428Y-68315533D02*
X93133809Y-68410771D01*
X93133809Y-68410771D02*
X93086190Y-68458390D01*
X93086190Y-68458390D02*
X92990952Y-68506009D01*
X92990952Y-68506009D02*
X92657619Y-68506009D01*
X93610000Y-68744104D02*
X94086190Y-68744104D01*
X93514762Y-69029819D02*
X93848095Y-68029819D01*
X93848095Y-68029819D02*
X94181428Y-69029819D01*
X94371905Y-68029819D02*
X94943333Y-68029819D01*
X94657619Y-69029819D02*
X94657619Y-68029819D01*
X95133810Y-68029819D02*
X95705238Y-68029819D01*
X95419524Y-69029819D02*
X95419524Y-68029819D01*
X96800477Y-68648866D02*
X97562382Y-68648866D01*
X104523810Y-44869819D02*
X104523810Y-43869819D01*
X104523810Y-43869819D02*
X104904762Y-43869819D01*
X104904762Y-43869819D02*
X105000000Y-43917438D01*
X105000000Y-43917438D02*
X105047619Y-43965057D01*
X105047619Y-43965057D02*
X105095238Y-44060295D01*
X105095238Y-44060295D02*
X105095238Y-44203152D01*
X105095238Y-44203152D02*
X105047619Y-44298390D01*
X105047619Y-44298390D02*
X105000000Y-44346009D01*
X105000000Y-44346009D02*
X104904762Y-44393628D01*
X104904762Y-44393628D02*
X104523810Y-44393628D01*
X105428572Y-43869819D02*
X105666667Y-44869819D01*
X105666667Y-44869819D02*
X105857143Y-44155533D01*
X105857143Y-44155533D02*
X106047619Y-44869819D01*
X106047619Y-44869819D02*
X106285715Y-43869819D01*
X107238095Y-44869819D02*
X106904762Y-44393628D01*
X106666667Y-44869819D02*
X106666667Y-43869819D01*
X106666667Y-43869819D02*
X107047619Y-43869819D01*
X107047619Y-43869819D02*
X107142857Y-43917438D01*
X107142857Y-43917438D02*
X107190476Y-43965057D01*
X107190476Y-43965057D02*
X107238095Y-44060295D01*
X107238095Y-44060295D02*
X107238095Y-44203152D01*
X107238095Y-44203152D02*
X107190476Y-44298390D01*
X107190476Y-44298390D02*
X107142857Y-44346009D01*
X107142857Y-44346009D02*
X107047619Y-44393628D01*
X107047619Y-44393628D02*
X106666667Y-44393628D01*
X108428572Y-44869819D02*
X108428572Y-43869819D01*
X108904762Y-44869819D02*
X108904762Y-43869819D01*
X108904762Y-43869819D02*
X109476190Y-44869819D01*
X109476190Y-44869819D02*
X109476190Y-43869819D01*
X89217438Y-39839411D02*
X89169819Y-39934649D01*
X89169819Y-39934649D02*
X89169819Y-40077506D01*
X89169819Y-40077506D02*
X89217438Y-40220363D01*
X89217438Y-40220363D02*
X89312676Y-40315601D01*
X89312676Y-40315601D02*
X89407914Y-40363220D01*
X89407914Y-40363220D02*
X89598390Y-40410839D01*
X89598390Y-40410839D02*
X89741247Y-40410839D01*
X89741247Y-40410839D02*
X89931723Y-40363220D01*
X89931723Y-40363220D02*
X90026961Y-40315601D01*
X90026961Y-40315601D02*
X90122200Y-40220363D01*
X90122200Y-40220363D02*
X90169819Y-40077506D01*
X90169819Y-40077506D02*
X90169819Y-39982268D01*
X90169819Y-39982268D02*
X90122200Y-39839411D01*
X90122200Y-39839411D02*
X90074580Y-39791792D01*
X90074580Y-39791792D02*
X89741247Y-39791792D01*
X89741247Y-39791792D02*
X89741247Y-39982268D01*
X90169819Y-39363220D02*
X89169819Y-39363220D01*
X89169819Y-39363220D02*
X90169819Y-38791792D01*
X90169819Y-38791792D02*
X89169819Y-38791792D01*
X90169819Y-38315601D02*
X89169819Y-38315601D01*
X89169819Y-38315601D02*
X89169819Y-38077506D01*
X89169819Y-38077506D02*
X89217438Y-37934649D01*
X89217438Y-37934649D02*
X89312676Y-37839411D01*
X89312676Y-37839411D02*
X89407914Y-37791792D01*
X89407914Y-37791792D02*
X89598390Y-37744173D01*
X89598390Y-37744173D02*
X89741247Y-37744173D01*
X89741247Y-37744173D02*
X89931723Y-37791792D01*
X89931723Y-37791792D02*
X90026961Y-37839411D01*
X90026961Y-37839411D02*
X90122200Y-37934649D01*
X90122200Y-37934649D02*
X90169819Y-38077506D01*
X90169819Y-38077506D02*
X90169819Y-38315601D01*
X91669819Y-40406077D02*
X91669819Y-39834649D01*
X92669819Y-40120363D02*
X91669819Y-40120363D01*
X91669819Y-39596553D02*
X92669819Y-38929887D01*
X91669819Y-38929887D02*
X92669819Y-39596553D01*
X95169819Y-39791792D02*
X94693628Y-40125125D01*
X95169819Y-40363220D02*
X94169819Y-40363220D01*
X94169819Y-40363220D02*
X94169819Y-39982268D01*
X94169819Y-39982268D02*
X94217438Y-39887030D01*
X94217438Y-39887030D02*
X94265057Y-39839411D01*
X94265057Y-39839411D02*
X94360295Y-39791792D01*
X94360295Y-39791792D02*
X94503152Y-39791792D01*
X94503152Y-39791792D02*
X94598390Y-39839411D01*
X94598390Y-39839411D02*
X94646009Y-39887030D01*
X94646009Y-39887030D02*
X94693628Y-39982268D01*
X94693628Y-39982268D02*
X94693628Y-40363220D01*
X94169819Y-39458458D02*
X95169819Y-38791792D01*
X94169819Y-38791792D02*
X95169819Y-39458458D01*
X97769819Y-40363220D02*
X96769819Y-40363220D01*
X96769819Y-40363220D02*
X96769819Y-40125125D01*
X96769819Y-40125125D02*
X96817438Y-39982268D01*
X96817438Y-39982268D02*
X96912676Y-39887030D01*
X96912676Y-39887030D02*
X97007914Y-39839411D01*
X97007914Y-39839411D02*
X97198390Y-39791792D01*
X97198390Y-39791792D02*
X97341247Y-39791792D01*
X97341247Y-39791792D02*
X97531723Y-39839411D01*
X97531723Y-39839411D02*
X97626961Y-39887030D01*
X97626961Y-39887030D02*
X97722200Y-39982268D01*
X97722200Y-39982268D02*
X97769819Y-40125125D01*
X97769819Y-40125125D02*
X97769819Y-40363220D01*
X96769819Y-39363220D02*
X97579342Y-39363220D01*
X97579342Y-39363220D02*
X97674580Y-39315601D01*
X97674580Y-39315601D02*
X97722200Y-39267982D01*
X97722200Y-39267982D02*
X97769819Y-39172744D01*
X97769819Y-39172744D02*
X97769819Y-38982268D01*
X97769819Y-38982268D02*
X97722200Y-38887030D01*
X97722200Y-38887030D02*
X97674580Y-38839411D01*
X97674580Y-38839411D02*
X97579342Y-38791792D01*
X97579342Y-38791792D02*
X96769819Y-38791792D01*
X97769819Y-38315601D02*
X96769819Y-38315601D01*
X96769819Y-38315601D02*
X97484104Y-37982268D01*
X97484104Y-37982268D02*
X96769819Y-37648935D01*
X96769819Y-37648935D02*
X97769819Y-37648935D01*
X97769819Y-37172744D02*
X96769819Y-37172744D01*
X96769819Y-37172744D02*
X96769819Y-36791792D01*
X96769819Y-36791792D02*
X96817438Y-36696554D01*
X96817438Y-36696554D02*
X96865057Y-36648935D01*
X96865057Y-36648935D02*
X96960295Y-36601316D01*
X96960295Y-36601316D02*
X97103152Y-36601316D01*
X97103152Y-36601316D02*
X97198390Y-36648935D01*
X97198390Y-36648935D02*
X97246009Y-36696554D01*
X97246009Y-36696554D02*
X97293628Y-36791792D01*
X97293628Y-36791792D02*
X97293628Y-37172744D01*
X103138095Y-84254819D02*
X103138095Y-83254819D01*
X103138095Y-83731009D02*
X103709523Y-83731009D01*
X103709523Y-84254819D02*
X103709523Y-83254819D01*
X104614285Y-83588152D02*
X104614285Y-84254819D01*
X104376190Y-83207200D02*
X104138095Y-83921485D01*
X104138095Y-83921485D02*
X104757142Y-83921485D01*
X85238095Y-84054819D02*
X85238095Y-83054819D01*
X85238095Y-83531009D02*
X85809523Y-83531009D01*
X85809523Y-84054819D02*
X85809523Y-83054819D01*
X86190476Y-83054819D02*
X86809523Y-83054819D01*
X86809523Y-83054819D02*
X86476190Y-83435771D01*
X86476190Y-83435771D02*
X86619047Y-83435771D01*
X86619047Y-83435771D02*
X86714285Y-83483390D01*
X86714285Y-83483390D02*
X86761904Y-83531009D01*
X86761904Y-83531009D02*
X86809523Y-83626247D01*
X86809523Y-83626247D02*
X86809523Y-83864342D01*
X86809523Y-83864342D02*
X86761904Y-83959580D01*
X86761904Y-83959580D02*
X86714285Y-84007200D01*
X86714285Y-84007200D02*
X86619047Y-84054819D01*
X86619047Y-84054819D02*
X86333333Y-84054819D01*
X86333333Y-84054819D02*
X86238095Y-84007200D01*
X86238095Y-84007200D02*
X86190476Y-83959580D01*
X102838095Y-36754819D02*
X102838095Y-35754819D01*
X102838095Y-36231009D02*
X103409523Y-36231009D01*
X103409523Y-36754819D02*
X103409523Y-35754819D01*
X103838095Y-35850057D02*
X103885714Y-35802438D01*
X103885714Y-35802438D02*
X103980952Y-35754819D01*
X103980952Y-35754819D02*
X104219047Y-35754819D01*
X104219047Y-35754819D02*
X104314285Y-35802438D01*
X104314285Y-35802438D02*
X104361904Y-35850057D01*
X104361904Y-35850057D02*
X104409523Y-35945295D01*
X104409523Y-35945295D02*
X104409523Y-36040533D01*
X104409523Y-36040533D02*
X104361904Y-36183390D01*
X104361904Y-36183390D02*
X103790476Y-36754819D01*
X103790476Y-36754819D02*
X104409523Y-36754819D01*
X85238095Y-36554819D02*
X85238095Y-35554819D01*
X85238095Y-36031009D02*
X85809523Y-36031009D01*
X85809523Y-36554819D02*
X85809523Y-35554819D01*
X86809523Y-36554819D02*
X86238095Y-36554819D01*
X86523809Y-36554819D02*
X86523809Y-35554819D01*
X86523809Y-35554819D02*
X86428571Y-35697676D01*
X86428571Y-35697676D02*
X86333333Y-35792914D01*
X86333333Y-35792914D02*
X86238095Y-35840533D01*
X100624819Y-52976666D02*
X100148628Y-53309999D01*
X100624819Y-53548094D02*
X99624819Y-53548094D01*
X99624819Y-53548094D02*
X99624819Y-53167142D01*
X99624819Y-53167142D02*
X99672438Y-53071904D01*
X99672438Y-53071904D02*
X99720057Y-53024285D01*
X99720057Y-53024285D02*
X99815295Y-52976666D01*
X99815295Y-52976666D02*
X99958152Y-52976666D01*
X99958152Y-52976666D02*
X100053390Y-53024285D01*
X100053390Y-53024285D02*
X100101009Y-53071904D01*
X100101009Y-53071904D02*
X100148628Y-53167142D01*
X100148628Y-53167142D02*
X100148628Y-53548094D01*
X99958152Y-52119523D02*
X100624819Y-52119523D01*
X99577200Y-52357618D02*
X100291485Y-52595713D01*
X100291485Y-52595713D02*
X100291485Y-51976666D01*
X85227033Y-61434870D02*
X85227033Y-62244393D01*
X85227033Y-62244393D02*
X85274652Y-62339631D01*
X85274652Y-62339631D02*
X85322271Y-62387251D01*
X85322271Y-62387251D02*
X85417509Y-62434870D01*
X85417509Y-62434870D02*
X85607985Y-62434870D01*
X85607985Y-62434870D02*
X85703223Y-62387251D01*
X85703223Y-62387251D02*
X85750842Y-62339631D01*
X85750842Y-62339631D02*
X85798461Y-62244393D01*
X85798461Y-62244393D02*
X85798461Y-61434870D01*
X86798461Y-62434870D02*
X86227033Y-62434870D01*
X86512747Y-62434870D02*
X86512747Y-61434870D01*
X86512747Y-61434870D02*
X86417509Y-61577727D01*
X86417509Y-61577727D02*
X86322271Y-61672965D01*
X86322271Y-61672965D02*
X86227033Y-61720584D01*
X87179414Y-61530108D02*
X87227033Y-61482489D01*
X87227033Y-61482489D02*
X87322271Y-61434870D01*
X87322271Y-61434870D02*
X87560366Y-61434870D01*
X87560366Y-61434870D02*
X87655604Y-61482489D01*
X87655604Y-61482489D02*
X87703223Y-61530108D01*
X87703223Y-61530108D02*
X87750842Y-61625346D01*
X87750842Y-61625346D02*
X87750842Y-61720584D01*
X87750842Y-61720584D02*
X87703223Y-61863441D01*
X87703223Y-61863441D02*
X87131795Y-62434870D01*
X87131795Y-62434870D02*
X87750842Y-62434870D01*
X99813267Y-56469466D02*
X99765648Y-56517086D01*
X99765648Y-56517086D02*
X99622791Y-56564705D01*
X99622791Y-56564705D02*
X99527553Y-56564705D01*
X99527553Y-56564705D02*
X99384696Y-56517086D01*
X99384696Y-56517086D02*
X99289458Y-56421847D01*
X99289458Y-56421847D02*
X99241839Y-56326609D01*
X99241839Y-56326609D02*
X99194220Y-56136133D01*
X99194220Y-56136133D02*
X99194220Y-55993276D01*
X99194220Y-55993276D02*
X99241839Y-55802800D01*
X99241839Y-55802800D02*
X99289458Y-55707562D01*
X99289458Y-55707562D02*
X99384696Y-55612324D01*
X99384696Y-55612324D02*
X99527553Y-55564705D01*
X99527553Y-55564705D02*
X99622791Y-55564705D01*
X99622791Y-55564705D02*
X99765648Y-55612324D01*
X99765648Y-55612324D02*
X99813267Y-55659943D01*
X100765648Y-56564705D02*
X100194220Y-56564705D01*
X100479934Y-56564705D02*
X100479934Y-55564705D01*
X100479934Y-55564705D02*
X100384696Y-55707562D01*
X100384696Y-55707562D02*
X100289458Y-55802800D01*
X100289458Y-55802800D02*
X100194220Y-55850419D01*
X101241839Y-56564705D02*
X101432315Y-56564705D01*
X101432315Y-56564705D02*
X101527553Y-56517086D01*
X101527553Y-56517086D02*
X101575172Y-56469466D01*
X101575172Y-56469466D02*
X101670410Y-56326609D01*
X101670410Y-56326609D02*
X101718029Y-56136133D01*
X101718029Y-56136133D02*
X101718029Y-55755181D01*
X101718029Y-55755181D02*
X101670410Y-55659943D01*
X101670410Y-55659943D02*
X101622791Y-55612324D01*
X101622791Y-55612324D02*
X101527553Y-55564705D01*
X101527553Y-55564705D02*
X101337077Y-55564705D01*
X101337077Y-55564705D02*
X101241839Y-55612324D01*
X101241839Y-55612324D02*
X101194220Y-55659943D01*
X101194220Y-55659943D02*
X101146601Y-55755181D01*
X101146601Y-55755181D02*
X101146601Y-55993276D01*
X101146601Y-55993276D02*
X101194220Y-56088514D01*
X101194220Y-56088514D02*
X101241839Y-56136133D01*
X101241839Y-56136133D02*
X101337077Y-56183752D01*
X101337077Y-56183752D02*
X101527553Y-56183752D01*
X101527553Y-56183752D02*
X101622791Y-56136133D01*
X101622791Y-56136133D02*
X101670410Y-56088514D01*
X101670410Y-56088514D02*
X101718029Y-55993276D01*
X85733333Y-46009580D02*
X85685714Y-46057200D01*
X85685714Y-46057200D02*
X85542857Y-46104819D01*
X85542857Y-46104819D02*
X85447619Y-46104819D01*
X85447619Y-46104819D02*
X85304762Y-46057200D01*
X85304762Y-46057200D02*
X85209524Y-45961961D01*
X85209524Y-45961961D02*
X85161905Y-45866723D01*
X85161905Y-45866723D02*
X85114286Y-45676247D01*
X85114286Y-45676247D02*
X85114286Y-45533390D01*
X85114286Y-45533390D02*
X85161905Y-45342914D01*
X85161905Y-45342914D02*
X85209524Y-45247676D01*
X85209524Y-45247676D02*
X85304762Y-45152438D01*
X85304762Y-45152438D02*
X85447619Y-45104819D01*
X85447619Y-45104819D02*
X85542857Y-45104819D01*
X85542857Y-45104819D02*
X85685714Y-45152438D01*
X85685714Y-45152438D02*
X85733333Y-45200057D01*
X86066667Y-45104819D02*
X86733333Y-45104819D01*
X86733333Y-45104819D02*
X86304762Y-46104819D01*
X101233333Y-44359580D02*
X101185714Y-44407200D01*
X101185714Y-44407200D02*
X101042857Y-44454819D01*
X101042857Y-44454819D02*
X100947619Y-44454819D01*
X100947619Y-44454819D02*
X100804762Y-44407200D01*
X100804762Y-44407200D02*
X100709524Y-44311961D01*
X100709524Y-44311961D02*
X100661905Y-44216723D01*
X100661905Y-44216723D02*
X100614286Y-44026247D01*
X100614286Y-44026247D02*
X100614286Y-43883390D01*
X100614286Y-43883390D02*
X100661905Y-43692914D01*
X100661905Y-43692914D02*
X100709524Y-43597676D01*
X100709524Y-43597676D02*
X100804762Y-43502438D01*
X100804762Y-43502438D02*
X100947619Y-43454819D01*
X100947619Y-43454819D02*
X101042857Y-43454819D01*
X101042857Y-43454819D02*
X101185714Y-43502438D01*
X101185714Y-43502438D02*
X101233333Y-43550057D01*
X102090476Y-43454819D02*
X101900000Y-43454819D01*
X101900000Y-43454819D02*
X101804762Y-43502438D01*
X101804762Y-43502438D02*
X101757143Y-43550057D01*
X101757143Y-43550057D02*
X101661905Y-43692914D01*
X101661905Y-43692914D02*
X101614286Y-43883390D01*
X101614286Y-43883390D02*
X101614286Y-44264342D01*
X101614286Y-44264342D02*
X101661905Y-44359580D01*
X101661905Y-44359580D02*
X101709524Y-44407200D01*
X101709524Y-44407200D02*
X101804762Y-44454819D01*
X101804762Y-44454819D02*
X101995238Y-44454819D01*
X101995238Y-44454819D02*
X102090476Y-44407200D01*
X102090476Y-44407200D02*
X102138095Y-44359580D01*
X102138095Y-44359580D02*
X102185714Y-44264342D01*
X102185714Y-44264342D02*
X102185714Y-44026247D01*
X102185714Y-44026247D02*
X102138095Y-43931009D01*
X102138095Y-43931009D02*
X102090476Y-43883390D01*
X102090476Y-43883390D02*
X101995238Y-43835771D01*
X101995238Y-43835771D02*
X101804762Y-43835771D01*
X101804762Y-43835771D02*
X101709524Y-43883390D01*
X101709524Y-43883390D02*
X101661905Y-43931009D01*
X101661905Y-43931009D02*
X101614286Y-44026247D01*
X99757142Y-62295924D02*
X99423809Y-61819733D01*
X99185714Y-62295924D02*
X99185714Y-61295924D01*
X99185714Y-61295924D02*
X99566666Y-61295924D01*
X99566666Y-61295924D02*
X99661904Y-61343543D01*
X99661904Y-61343543D02*
X99709523Y-61391162D01*
X99709523Y-61391162D02*
X99757142Y-61486400D01*
X99757142Y-61486400D02*
X99757142Y-61629257D01*
X99757142Y-61629257D02*
X99709523Y-61724495D01*
X99709523Y-61724495D02*
X99661904Y-61772114D01*
X99661904Y-61772114D02*
X99566666Y-61819733D01*
X99566666Y-61819733D02*
X99185714Y-61819733D01*
X100709523Y-62295924D02*
X100138095Y-62295924D01*
X100423809Y-62295924D02*
X100423809Y-61295924D01*
X100423809Y-61295924D02*
X100328571Y-61438781D01*
X100328571Y-61438781D02*
X100233333Y-61534019D01*
X100233333Y-61534019D02*
X100138095Y-61581638D01*
X101280952Y-61724495D02*
X101185714Y-61676876D01*
X101185714Y-61676876D02*
X101138095Y-61629257D01*
X101138095Y-61629257D02*
X101090476Y-61534019D01*
X101090476Y-61534019D02*
X101090476Y-61486400D01*
X101090476Y-61486400D02*
X101138095Y-61391162D01*
X101138095Y-61391162D02*
X101185714Y-61343543D01*
X101185714Y-61343543D02*
X101280952Y-61295924D01*
X101280952Y-61295924D02*
X101471428Y-61295924D01*
X101471428Y-61295924D02*
X101566666Y-61343543D01*
X101566666Y-61343543D02*
X101614285Y-61391162D01*
X101614285Y-61391162D02*
X101661904Y-61486400D01*
X101661904Y-61486400D02*
X101661904Y-61534019D01*
X101661904Y-61534019D02*
X101614285Y-61629257D01*
X101614285Y-61629257D02*
X101566666Y-61676876D01*
X101566666Y-61676876D02*
X101471428Y-61724495D01*
X101471428Y-61724495D02*
X101280952Y-61724495D01*
X101280952Y-61724495D02*
X101185714Y-61772114D01*
X101185714Y-61772114D02*
X101138095Y-61819733D01*
X101138095Y-61819733D02*
X101090476Y-61914971D01*
X101090476Y-61914971D02*
X101090476Y-62105447D01*
X101090476Y-62105447D02*
X101138095Y-62200685D01*
X101138095Y-62200685D02*
X101185714Y-62248305D01*
X101185714Y-62248305D02*
X101280952Y-62295924D01*
X101280952Y-62295924D02*
X101471428Y-62295924D01*
X101471428Y-62295924D02*
X101566666Y-62248305D01*
X101566666Y-62248305D02*
X101614285Y-62200685D01*
X101614285Y-62200685D02*
X101661904Y-62105447D01*
X101661904Y-62105447D02*
X101661904Y-61914971D01*
X101661904Y-61914971D02*
X101614285Y-61819733D01*
X101614285Y-61819733D02*
X101566666Y-61772114D01*
X101566666Y-61772114D02*
X101471428Y-61724495D01*
X84499580Y-64356666D02*
X84547200Y-64404285D01*
X84547200Y-64404285D02*
X84594819Y-64547142D01*
X84594819Y-64547142D02*
X84594819Y-64642380D01*
X84594819Y-64642380D02*
X84547200Y-64785237D01*
X84547200Y-64785237D02*
X84451961Y-64880475D01*
X84451961Y-64880475D02*
X84356723Y-64928094D01*
X84356723Y-64928094D02*
X84166247Y-64975713D01*
X84166247Y-64975713D02*
X84023390Y-64975713D01*
X84023390Y-64975713D02*
X83832914Y-64928094D01*
X83832914Y-64928094D02*
X83737676Y-64880475D01*
X83737676Y-64880475D02*
X83642438Y-64785237D01*
X83642438Y-64785237D02*
X83594819Y-64642380D01*
X83594819Y-64642380D02*
X83594819Y-64547142D01*
X83594819Y-64547142D02*
X83642438Y-64404285D01*
X83642438Y-64404285D02*
X83690057Y-64356666D01*
X84594819Y-63880475D02*
X84594819Y-63689999D01*
X84594819Y-63689999D02*
X84547200Y-63594761D01*
X84547200Y-63594761D02*
X84499580Y-63547142D01*
X84499580Y-63547142D02*
X84356723Y-63451904D01*
X84356723Y-63451904D02*
X84166247Y-63404285D01*
X84166247Y-63404285D02*
X83785295Y-63404285D01*
X83785295Y-63404285D02*
X83690057Y-63451904D01*
X83690057Y-63451904D02*
X83642438Y-63499523D01*
X83642438Y-63499523D02*
X83594819Y-63594761D01*
X83594819Y-63594761D02*
X83594819Y-63785237D01*
X83594819Y-63785237D02*
X83642438Y-63880475D01*
X83642438Y-63880475D02*
X83690057Y-63928094D01*
X83690057Y-63928094D02*
X83785295Y-63975713D01*
X83785295Y-63975713D02*
X84023390Y-63975713D01*
X84023390Y-63975713D02*
X84118628Y-63928094D01*
X84118628Y-63928094D02*
X84166247Y-63880475D01*
X84166247Y-63880475D02*
X84213866Y-63785237D01*
X84213866Y-63785237D02*
X84213866Y-63594761D01*
X84213866Y-63594761D02*
X84166247Y-63499523D01*
X84166247Y-63499523D02*
X84118628Y-63451904D01*
X84118628Y-63451904D02*
X84023390Y-63404285D01*
X100283333Y-50754819D02*
X99950000Y-50278628D01*
X99711905Y-50754819D02*
X99711905Y-49754819D01*
X99711905Y-49754819D02*
X100092857Y-49754819D01*
X100092857Y-49754819D02*
X100188095Y-49802438D01*
X100188095Y-49802438D02*
X100235714Y-49850057D01*
X100235714Y-49850057D02*
X100283333Y-49945295D01*
X100283333Y-49945295D02*
X100283333Y-50088152D01*
X100283333Y-50088152D02*
X100235714Y-50183390D01*
X100235714Y-50183390D02*
X100188095Y-50231009D01*
X100188095Y-50231009D02*
X100092857Y-50278628D01*
X100092857Y-50278628D02*
X99711905Y-50278628D01*
X100616667Y-49754819D02*
X101283333Y-49754819D01*
X101283333Y-49754819D02*
X100854762Y-50754819D01*
X92997142Y-57119580D02*
X92949523Y-57167200D01*
X92949523Y-57167200D02*
X92806666Y-57214819D01*
X92806666Y-57214819D02*
X92711428Y-57214819D01*
X92711428Y-57214819D02*
X92568571Y-57167200D01*
X92568571Y-57167200D02*
X92473333Y-57071961D01*
X92473333Y-57071961D02*
X92425714Y-56976723D01*
X92425714Y-56976723D02*
X92378095Y-56786247D01*
X92378095Y-56786247D02*
X92378095Y-56643390D01*
X92378095Y-56643390D02*
X92425714Y-56452914D01*
X92425714Y-56452914D02*
X92473333Y-56357676D01*
X92473333Y-56357676D02*
X92568571Y-56262438D01*
X92568571Y-56262438D02*
X92711428Y-56214819D01*
X92711428Y-56214819D02*
X92806666Y-56214819D01*
X92806666Y-56214819D02*
X92949523Y-56262438D01*
X92949523Y-56262438D02*
X92997142Y-56310057D01*
X93949523Y-57214819D02*
X93378095Y-57214819D01*
X93663809Y-57214819D02*
X93663809Y-56214819D01*
X93663809Y-56214819D02*
X93568571Y-56357676D01*
X93568571Y-56357676D02*
X93473333Y-56452914D01*
X93473333Y-56452914D02*
X93378095Y-56500533D01*
X94282857Y-56214819D02*
X94901904Y-56214819D01*
X94901904Y-56214819D02*
X94568571Y-56595771D01*
X94568571Y-56595771D02*
X94711428Y-56595771D01*
X94711428Y-56595771D02*
X94806666Y-56643390D01*
X94806666Y-56643390D02*
X94854285Y-56691009D01*
X94854285Y-56691009D02*
X94901904Y-56786247D01*
X94901904Y-56786247D02*
X94901904Y-57024342D01*
X94901904Y-57024342D02*
X94854285Y-57119580D01*
X94854285Y-57119580D02*
X94806666Y-57167200D01*
X94806666Y-57167200D02*
X94711428Y-57214819D01*
X94711428Y-57214819D02*
X94425714Y-57214819D01*
X94425714Y-57214819D02*
X94330476Y-57167200D01*
X94330476Y-57167200D02*
X94282857Y-57119580D01*
X90854819Y-53161904D02*
X91664342Y-53161904D01*
X91664342Y-53161904D02*
X91759580Y-53114285D01*
X91759580Y-53114285D02*
X91807200Y-53066666D01*
X91807200Y-53066666D02*
X91854819Y-52971428D01*
X91854819Y-52971428D02*
X91854819Y-52780952D01*
X91854819Y-52780952D02*
X91807200Y-52685714D01*
X91807200Y-52685714D02*
X91759580Y-52638095D01*
X91759580Y-52638095D02*
X91664342Y-52590476D01*
X91664342Y-52590476D02*
X90854819Y-52590476D01*
X90950057Y-52161904D02*
X90902438Y-52114285D01*
X90902438Y-52114285D02*
X90854819Y-52019047D01*
X90854819Y-52019047D02*
X90854819Y-51780952D01*
X90854819Y-51780952D02*
X90902438Y-51685714D01*
X90902438Y-51685714D02*
X90950057Y-51638095D01*
X90950057Y-51638095D02*
X91045295Y-51590476D01*
X91045295Y-51590476D02*
X91140533Y-51590476D01*
X91140533Y-51590476D02*
X91283390Y-51638095D01*
X91283390Y-51638095D02*
X91854819Y-52209523D01*
X91854819Y-52209523D02*
X91854819Y-51590476D01*
X81247142Y-57029580D02*
X81199523Y-57077200D01*
X81199523Y-57077200D02*
X81056666Y-57124819D01*
X81056666Y-57124819D02*
X80961428Y-57124819D01*
X80961428Y-57124819D02*
X80818571Y-57077200D01*
X80818571Y-57077200D02*
X80723333Y-56981961D01*
X80723333Y-56981961D02*
X80675714Y-56886723D01*
X80675714Y-56886723D02*
X80628095Y-56696247D01*
X80628095Y-56696247D02*
X80628095Y-56553390D01*
X80628095Y-56553390D02*
X80675714Y-56362914D01*
X80675714Y-56362914D02*
X80723333Y-56267676D01*
X80723333Y-56267676D02*
X80818571Y-56172438D01*
X80818571Y-56172438D02*
X80961428Y-56124819D01*
X80961428Y-56124819D02*
X81056666Y-56124819D01*
X81056666Y-56124819D02*
X81199523Y-56172438D01*
X81199523Y-56172438D02*
X81247142Y-56220057D01*
X82199523Y-57124819D02*
X81628095Y-57124819D01*
X81913809Y-57124819D02*
X81913809Y-56124819D01*
X81913809Y-56124819D02*
X81818571Y-56267676D01*
X81818571Y-56267676D02*
X81723333Y-56362914D01*
X81723333Y-56362914D02*
X81628095Y-56410533D01*
X82818571Y-56124819D02*
X82913809Y-56124819D01*
X82913809Y-56124819D02*
X83009047Y-56172438D01*
X83009047Y-56172438D02*
X83056666Y-56220057D01*
X83056666Y-56220057D02*
X83104285Y-56315295D01*
X83104285Y-56315295D02*
X83151904Y-56505771D01*
X83151904Y-56505771D02*
X83151904Y-56743866D01*
X83151904Y-56743866D02*
X83104285Y-56934342D01*
X83104285Y-56934342D02*
X83056666Y-57029580D01*
X83056666Y-57029580D02*
X83009047Y-57077200D01*
X83009047Y-57077200D02*
X82913809Y-57124819D01*
X82913809Y-57124819D02*
X82818571Y-57124819D01*
X82818571Y-57124819D02*
X82723333Y-57077200D01*
X82723333Y-57077200D02*
X82675714Y-57029580D01*
X82675714Y-57029580D02*
X82628095Y-56934342D01*
X82628095Y-56934342D02*
X82580476Y-56743866D01*
X82580476Y-56743866D02*
X82580476Y-56505771D01*
X82580476Y-56505771D02*
X82628095Y-56315295D01*
X82628095Y-56315295D02*
X82675714Y-56220057D01*
X82675714Y-56220057D02*
X82723333Y-56172438D01*
X82723333Y-56172438D02*
X82818571Y-56124819D01*
X107857142Y-57759580D02*
X107809523Y-57807200D01*
X107809523Y-57807200D02*
X107666666Y-57854819D01*
X107666666Y-57854819D02*
X107571428Y-57854819D01*
X107571428Y-57854819D02*
X107428571Y-57807200D01*
X107428571Y-57807200D02*
X107333333Y-57711961D01*
X107333333Y-57711961D02*
X107285714Y-57616723D01*
X107285714Y-57616723D02*
X107238095Y-57426247D01*
X107238095Y-57426247D02*
X107238095Y-57283390D01*
X107238095Y-57283390D02*
X107285714Y-57092914D01*
X107285714Y-57092914D02*
X107333333Y-56997676D01*
X107333333Y-56997676D02*
X107428571Y-56902438D01*
X107428571Y-56902438D02*
X107571428Y-56854819D01*
X107571428Y-56854819D02*
X107666666Y-56854819D01*
X107666666Y-56854819D02*
X107809523Y-56902438D01*
X107809523Y-56902438D02*
X107857142Y-56950057D01*
X108809523Y-57854819D02*
X108238095Y-57854819D01*
X108523809Y-57854819D02*
X108523809Y-56854819D01*
X108523809Y-56854819D02*
X108428571Y-56997676D01*
X108428571Y-56997676D02*
X108333333Y-57092914D01*
X108333333Y-57092914D02*
X108238095Y-57140533D01*
X109666666Y-56854819D02*
X109476190Y-56854819D01*
X109476190Y-56854819D02*
X109380952Y-56902438D01*
X109380952Y-56902438D02*
X109333333Y-56950057D01*
X109333333Y-56950057D02*
X109238095Y-57092914D01*
X109238095Y-57092914D02*
X109190476Y-57283390D01*
X109190476Y-57283390D02*
X109190476Y-57664342D01*
X109190476Y-57664342D02*
X109238095Y-57759580D01*
X109238095Y-57759580D02*
X109285714Y-57807200D01*
X109285714Y-57807200D02*
X109380952Y-57854819D01*
X109380952Y-57854819D02*
X109571428Y-57854819D01*
X109571428Y-57854819D02*
X109666666Y-57807200D01*
X109666666Y-57807200D02*
X109714285Y-57759580D01*
X109714285Y-57759580D02*
X109761904Y-57664342D01*
X109761904Y-57664342D02*
X109761904Y-57426247D01*
X109761904Y-57426247D02*
X109714285Y-57331009D01*
X109714285Y-57331009D02*
X109666666Y-57283390D01*
X109666666Y-57283390D02*
X109571428Y-57235771D01*
X109571428Y-57235771D02*
X109380952Y-57235771D01*
X109380952Y-57235771D02*
X109285714Y-57283390D01*
X109285714Y-57283390D02*
X109238095Y-57331009D01*
X109238095Y-57331009D02*
X109190476Y-57426247D01*
X84607142Y-56154819D02*
X84273809Y-55678628D01*
X84035714Y-56154819D02*
X84035714Y-55154819D01*
X84035714Y-55154819D02*
X84416666Y-55154819D01*
X84416666Y-55154819D02*
X84511904Y-55202438D01*
X84511904Y-55202438D02*
X84559523Y-55250057D01*
X84559523Y-55250057D02*
X84607142Y-55345295D01*
X84607142Y-55345295D02*
X84607142Y-55488152D01*
X84607142Y-55488152D02*
X84559523Y-55583390D01*
X84559523Y-55583390D02*
X84511904Y-55631009D01*
X84511904Y-55631009D02*
X84416666Y-55678628D01*
X84416666Y-55678628D02*
X84035714Y-55678628D01*
X85559523Y-56154819D02*
X84988095Y-56154819D01*
X85273809Y-56154819D02*
X85273809Y-55154819D01*
X85273809Y-55154819D02*
X85178571Y-55297676D01*
X85178571Y-55297676D02*
X85083333Y-55392914D01*
X85083333Y-55392914D02*
X84988095Y-55440533D01*
X86511904Y-56154819D02*
X85940476Y-56154819D01*
X86226190Y-56154819D02*
X86226190Y-55154819D01*
X86226190Y-55154819D02*
X86130952Y-55297676D01*
X86130952Y-55297676D02*
X86035714Y-55392914D01*
X86035714Y-55392914D02*
X85940476Y-55440533D01*
X105557142Y-64659580D02*
X105509523Y-64707200D01*
X105509523Y-64707200D02*
X105366666Y-64754819D01*
X105366666Y-64754819D02*
X105271428Y-64754819D01*
X105271428Y-64754819D02*
X105128571Y-64707200D01*
X105128571Y-64707200D02*
X105033333Y-64611961D01*
X105033333Y-64611961D02*
X104985714Y-64516723D01*
X104985714Y-64516723D02*
X104938095Y-64326247D01*
X104938095Y-64326247D02*
X104938095Y-64183390D01*
X104938095Y-64183390D02*
X104985714Y-63992914D01*
X104985714Y-63992914D02*
X105033333Y-63897676D01*
X105033333Y-63897676D02*
X105128571Y-63802438D01*
X105128571Y-63802438D02*
X105271428Y-63754819D01*
X105271428Y-63754819D02*
X105366666Y-63754819D01*
X105366666Y-63754819D02*
X105509523Y-63802438D01*
X105509523Y-63802438D02*
X105557142Y-63850057D01*
X106509523Y-64754819D02*
X105938095Y-64754819D01*
X106223809Y-64754819D02*
X106223809Y-63754819D01*
X106223809Y-63754819D02*
X106128571Y-63897676D01*
X106128571Y-63897676D02*
X106033333Y-63992914D01*
X106033333Y-63992914D02*
X105938095Y-64040533D01*
X107414285Y-63754819D02*
X106938095Y-63754819D01*
X106938095Y-63754819D02*
X106890476Y-64231009D01*
X106890476Y-64231009D02*
X106938095Y-64183390D01*
X106938095Y-64183390D02*
X107033333Y-64135771D01*
X107033333Y-64135771D02*
X107271428Y-64135771D01*
X107271428Y-64135771D02*
X107366666Y-64183390D01*
X107366666Y-64183390D02*
X107414285Y-64231009D01*
X107414285Y-64231009D02*
X107461904Y-64326247D01*
X107461904Y-64326247D02*
X107461904Y-64564342D01*
X107461904Y-64564342D02*
X107414285Y-64659580D01*
X107414285Y-64659580D02*
X107366666Y-64707200D01*
X107366666Y-64707200D02*
X107271428Y-64754819D01*
X107271428Y-64754819D02*
X107033333Y-64754819D01*
X107033333Y-64754819D02*
X106938095Y-64707200D01*
X106938095Y-64707200D02*
X106890476Y-64659580D01*
X99066666Y-81254819D02*
X99066666Y-81969104D01*
X99066666Y-81969104D02*
X99019047Y-82111961D01*
X99019047Y-82111961D02*
X98923809Y-82207200D01*
X98923809Y-82207200D02*
X98780952Y-82254819D01*
X98780952Y-82254819D02*
X98685714Y-82254819D01*
X99971428Y-81254819D02*
X99780952Y-81254819D01*
X99780952Y-81254819D02*
X99685714Y-81302438D01*
X99685714Y-81302438D02*
X99638095Y-81350057D01*
X99638095Y-81350057D02*
X99542857Y-81492914D01*
X99542857Y-81492914D02*
X99495238Y-81683390D01*
X99495238Y-81683390D02*
X99495238Y-82064342D01*
X99495238Y-82064342D02*
X99542857Y-82159580D01*
X99542857Y-82159580D02*
X99590476Y-82207200D01*
X99590476Y-82207200D02*
X99685714Y-82254819D01*
X99685714Y-82254819D02*
X99876190Y-82254819D01*
X99876190Y-82254819D02*
X99971428Y-82207200D01*
X99971428Y-82207200D02*
X100019047Y-82159580D01*
X100019047Y-82159580D02*
X100066666Y-82064342D01*
X100066666Y-82064342D02*
X100066666Y-81826247D01*
X100066666Y-81826247D02*
X100019047Y-81731009D01*
X100019047Y-81731009D02*
X99971428Y-81683390D01*
X99971428Y-81683390D02*
X99876190Y-81635771D01*
X99876190Y-81635771D02*
X99685714Y-81635771D01*
X99685714Y-81635771D02*
X99590476Y-81683390D01*
X99590476Y-81683390D02*
X99542857Y-81731009D01*
X99542857Y-81731009D02*
X99495238Y-81826247D01*
X91223896Y-47161626D02*
X90890563Y-46685435D01*
X90652468Y-47161626D02*
X90652468Y-46161626D01*
X90652468Y-46161626D02*
X91033420Y-46161626D01*
X91033420Y-46161626D02*
X91128658Y-46209245D01*
X91128658Y-46209245D02*
X91176277Y-46256864D01*
X91176277Y-46256864D02*
X91223896Y-46352102D01*
X91223896Y-46352102D02*
X91223896Y-46494959D01*
X91223896Y-46494959D02*
X91176277Y-46590197D01*
X91176277Y-46590197D02*
X91128658Y-46637816D01*
X91128658Y-46637816D02*
X91033420Y-46685435D01*
X91033420Y-46685435D02*
X90652468Y-46685435D01*
X92176277Y-47161626D02*
X91604849Y-47161626D01*
X91890563Y-47161626D02*
X91890563Y-46161626D01*
X91890563Y-46161626D02*
X91795325Y-46304483D01*
X91795325Y-46304483D02*
X91700087Y-46399721D01*
X91700087Y-46399721D02*
X91604849Y-46447340D01*
X92795325Y-46161626D02*
X92890563Y-46161626D01*
X92890563Y-46161626D02*
X92985801Y-46209245D01*
X92985801Y-46209245D02*
X93033420Y-46256864D01*
X93033420Y-46256864D02*
X93081039Y-46352102D01*
X93081039Y-46352102D02*
X93128658Y-46542578D01*
X93128658Y-46542578D02*
X93128658Y-46780673D01*
X93128658Y-46780673D02*
X93081039Y-46971149D01*
X93081039Y-46971149D02*
X93033420Y-47066387D01*
X93033420Y-47066387D02*
X92985801Y-47114007D01*
X92985801Y-47114007D02*
X92890563Y-47161626D01*
X92890563Y-47161626D02*
X92795325Y-47161626D01*
X92795325Y-47161626D02*
X92700087Y-47114007D01*
X92700087Y-47114007D02*
X92652468Y-47066387D01*
X92652468Y-47066387D02*
X92604849Y-46971149D01*
X92604849Y-46971149D02*
X92557230Y-46780673D01*
X92557230Y-46780673D02*
X92557230Y-46542578D01*
X92557230Y-46542578D02*
X92604849Y-46352102D01*
X92604849Y-46352102D02*
X92652468Y-46256864D01*
X92652468Y-46256864D02*
X92700087Y-46209245D01*
X92700087Y-46209245D02*
X92795325Y-46161626D01*
X96461905Y-47354819D02*
X96461905Y-46354819D01*
X96461905Y-46354819D02*
X96700000Y-46354819D01*
X96700000Y-46354819D02*
X96842857Y-46402438D01*
X96842857Y-46402438D02*
X96938095Y-46497676D01*
X96938095Y-46497676D02*
X96985714Y-46592914D01*
X96985714Y-46592914D02*
X97033333Y-46783390D01*
X97033333Y-46783390D02*
X97033333Y-46926247D01*
X97033333Y-46926247D02*
X96985714Y-47116723D01*
X96985714Y-47116723D02*
X96938095Y-47211961D01*
X96938095Y-47211961D02*
X96842857Y-47307200D01*
X96842857Y-47307200D02*
X96700000Y-47354819D01*
X96700000Y-47354819D02*
X96461905Y-47354819D01*
X97414286Y-46450057D02*
X97461905Y-46402438D01*
X97461905Y-46402438D02*
X97557143Y-46354819D01*
X97557143Y-46354819D02*
X97795238Y-46354819D01*
X97795238Y-46354819D02*
X97890476Y-46402438D01*
X97890476Y-46402438D02*
X97938095Y-46450057D01*
X97938095Y-46450057D02*
X97985714Y-46545295D01*
X97985714Y-46545295D02*
X97985714Y-46640533D01*
X97985714Y-46640533D02*
X97938095Y-46783390D01*
X97938095Y-46783390D02*
X97366667Y-47354819D01*
X97366667Y-47354819D02*
X97985714Y-47354819D01*
X95654819Y-65838094D02*
X96464342Y-65838094D01*
X96464342Y-65838094D02*
X96559580Y-65790475D01*
X96559580Y-65790475D02*
X96607200Y-65742856D01*
X96607200Y-65742856D02*
X96654819Y-65647618D01*
X96654819Y-65647618D02*
X96654819Y-65457142D01*
X96654819Y-65457142D02*
X96607200Y-65361904D01*
X96607200Y-65361904D02*
X96559580Y-65314285D01*
X96559580Y-65314285D02*
X96464342Y-65266666D01*
X96464342Y-65266666D02*
X95654819Y-65266666D01*
X96654819Y-64266666D02*
X96654819Y-64838094D01*
X96654819Y-64552380D02*
X95654819Y-64552380D01*
X95654819Y-64552380D02*
X95797676Y-64647618D01*
X95797676Y-64647618D02*
X95892914Y-64742856D01*
X95892914Y-64742856D02*
X95940533Y-64838094D01*
X96654819Y-63314285D02*
X96654819Y-63885713D01*
X96654819Y-63599999D02*
X95654819Y-63599999D01*
X95654819Y-63599999D02*
X95797676Y-63695237D01*
X95797676Y-63695237D02*
X95892914Y-63790475D01*
X95892914Y-63790475D02*
X95940533Y-63885713D01*
X103566666Y-39354819D02*
X103566666Y-40069104D01*
X103566666Y-40069104D02*
X103519047Y-40211961D01*
X103519047Y-40211961D02*
X103423809Y-40307200D01*
X103423809Y-40307200D02*
X103280952Y-40354819D01*
X103280952Y-40354819D02*
X103185714Y-40354819D01*
X104566666Y-40354819D02*
X103995238Y-40354819D01*
X104280952Y-40354819D02*
X104280952Y-39354819D01*
X104280952Y-39354819D02*
X104185714Y-39497676D01*
X104185714Y-39497676D02*
X104090476Y-39592914D01*
X104090476Y-39592914D02*
X103995238Y-39640533D01*
X95757142Y-67054819D02*
X95423809Y-66578628D01*
X95185714Y-67054819D02*
X95185714Y-66054819D01*
X95185714Y-66054819D02*
X95566666Y-66054819D01*
X95566666Y-66054819D02*
X95661904Y-66102438D01*
X95661904Y-66102438D02*
X95709523Y-66150057D01*
X95709523Y-66150057D02*
X95757142Y-66245295D01*
X95757142Y-66245295D02*
X95757142Y-66388152D01*
X95757142Y-66388152D02*
X95709523Y-66483390D01*
X95709523Y-66483390D02*
X95661904Y-66531009D01*
X95661904Y-66531009D02*
X95566666Y-66578628D01*
X95566666Y-66578628D02*
X95185714Y-66578628D01*
X96709523Y-67054819D02*
X96138095Y-67054819D01*
X96423809Y-67054819D02*
X96423809Y-66054819D01*
X96423809Y-66054819D02*
X96328571Y-66197676D01*
X96328571Y-66197676D02*
X96233333Y-66292914D01*
X96233333Y-66292914D02*
X96138095Y-66340533D01*
X97185714Y-67054819D02*
X97376190Y-67054819D01*
X97376190Y-67054819D02*
X97471428Y-67007200D01*
X97471428Y-67007200D02*
X97519047Y-66959580D01*
X97519047Y-66959580D02*
X97614285Y-66816723D01*
X97614285Y-66816723D02*
X97661904Y-66626247D01*
X97661904Y-66626247D02*
X97661904Y-66245295D01*
X97661904Y-66245295D02*
X97614285Y-66150057D01*
X97614285Y-66150057D02*
X97566666Y-66102438D01*
X97566666Y-66102438D02*
X97471428Y-66054819D01*
X97471428Y-66054819D02*
X97280952Y-66054819D01*
X97280952Y-66054819D02*
X97185714Y-66102438D01*
X97185714Y-66102438D02*
X97138095Y-66150057D01*
X97138095Y-66150057D02*
X97090476Y-66245295D01*
X97090476Y-66245295D02*
X97090476Y-66483390D01*
X97090476Y-66483390D02*
X97138095Y-66578628D01*
X97138095Y-66578628D02*
X97185714Y-66626247D01*
X97185714Y-66626247D02*
X97280952Y-66673866D01*
X97280952Y-66673866D02*
X97471428Y-66673866D01*
X97471428Y-66673866D02*
X97566666Y-66626247D01*
X97566666Y-66626247D02*
X97614285Y-66578628D01*
X97614285Y-66578628D02*
X97661904Y-66483390D01*
X86054819Y-58761904D02*
X86864342Y-58761904D01*
X86864342Y-58761904D02*
X86959580Y-58714285D01*
X86959580Y-58714285D02*
X87007200Y-58666666D01*
X87007200Y-58666666D02*
X87054819Y-58571428D01*
X87054819Y-58571428D02*
X87054819Y-58380952D01*
X87054819Y-58380952D02*
X87007200Y-58285714D01*
X87007200Y-58285714D02*
X86959580Y-58238095D01*
X86959580Y-58238095D02*
X86864342Y-58190476D01*
X86864342Y-58190476D02*
X86054819Y-58190476D01*
X86054819Y-57238095D02*
X86054819Y-57714285D01*
X86054819Y-57714285D02*
X86531009Y-57761904D01*
X86531009Y-57761904D02*
X86483390Y-57714285D01*
X86483390Y-57714285D02*
X86435771Y-57619047D01*
X86435771Y-57619047D02*
X86435771Y-57380952D01*
X86435771Y-57380952D02*
X86483390Y-57285714D01*
X86483390Y-57285714D02*
X86531009Y-57238095D01*
X86531009Y-57238095D02*
X86626247Y-57190476D01*
X86626247Y-57190476D02*
X86864342Y-57190476D01*
X86864342Y-57190476D02*
X86959580Y-57238095D01*
X86959580Y-57238095D02*
X87007200Y-57285714D01*
X87007200Y-57285714D02*
X87054819Y-57380952D01*
X87054819Y-57380952D02*
X87054819Y-57619047D01*
X87054819Y-57619047D02*
X87007200Y-57714285D01*
X87007200Y-57714285D02*
X86959580Y-57761904D01*
X105134661Y-55340166D02*
X105944184Y-55340166D01*
X105944184Y-55340166D02*
X106039422Y-55292547D01*
X106039422Y-55292547D02*
X106087042Y-55244928D01*
X106087042Y-55244928D02*
X106134661Y-55149690D01*
X106134661Y-55149690D02*
X106134661Y-54959214D01*
X106134661Y-54959214D02*
X106087042Y-54863976D01*
X106087042Y-54863976D02*
X106039422Y-54816357D01*
X106039422Y-54816357D02*
X105944184Y-54768738D01*
X105944184Y-54768738D02*
X105134661Y-54768738D01*
X106134661Y-54244928D02*
X106134661Y-54054452D01*
X106134661Y-54054452D02*
X106087042Y-53959214D01*
X106087042Y-53959214D02*
X106039422Y-53911595D01*
X106039422Y-53911595D02*
X105896565Y-53816357D01*
X105896565Y-53816357D02*
X105706089Y-53768738D01*
X105706089Y-53768738D02*
X105325137Y-53768738D01*
X105325137Y-53768738D02*
X105229899Y-53816357D01*
X105229899Y-53816357D02*
X105182280Y-53863976D01*
X105182280Y-53863976D02*
X105134661Y-53959214D01*
X105134661Y-53959214D02*
X105134661Y-54149690D01*
X105134661Y-54149690D02*
X105182280Y-54244928D01*
X105182280Y-54244928D02*
X105229899Y-54292547D01*
X105229899Y-54292547D02*
X105325137Y-54340166D01*
X105325137Y-54340166D02*
X105563232Y-54340166D01*
X105563232Y-54340166D02*
X105658470Y-54292547D01*
X105658470Y-54292547D02*
X105706089Y-54244928D01*
X105706089Y-54244928D02*
X105753708Y-54149690D01*
X105753708Y-54149690D02*
X105753708Y-53959214D01*
X105753708Y-53959214D02*
X105706089Y-53863976D01*
X105706089Y-53863976D02*
X105658470Y-53816357D01*
X105658470Y-53816357D02*
X105563232Y-53768738D01*
X100383333Y-45759580D02*
X100335714Y-45807200D01*
X100335714Y-45807200D02*
X100192857Y-45854819D01*
X100192857Y-45854819D02*
X100097619Y-45854819D01*
X100097619Y-45854819D02*
X99954762Y-45807200D01*
X99954762Y-45807200D02*
X99859524Y-45711961D01*
X99859524Y-45711961D02*
X99811905Y-45616723D01*
X99811905Y-45616723D02*
X99764286Y-45426247D01*
X99764286Y-45426247D02*
X99764286Y-45283390D01*
X99764286Y-45283390D02*
X99811905Y-45092914D01*
X99811905Y-45092914D02*
X99859524Y-44997676D01*
X99859524Y-44997676D02*
X99954762Y-44902438D01*
X99954762Y-44902438D02*
X100097619Y-44854819D01*
X100097619Y-44854819D02*
X100192857Y-44854819D01*
X100192857Y-44854819D02*
X100335714Y-44902438D01*
X100335714Y-44902438D02*
X100383333Y-44950057D01*
X101288095Y-44854819D02*
X100811905Y-44854819D01*
X100811905Y-44854819D02*
X100764286Y-45331009D01*
X100764286Y-45331009D02*
X100811905Y-45283390D01*
X100811905Y-45283390D02*
X100907143Y-45235771D01*
X100907143Y-45235771D02*
X101145238Y-45235771D01*
X101145238Y-45235771D02*
X101240476Y-45283390D01*
X101240476Y-45283390D02*
X101288095Y-45331009D01*
X101288095Y-45331009D02*
X101335714Y-45426247D01*
X101335714Y-45426247D02*
X101335714Y-45664342D01*
X101335714Y-45664342D02*
X101288095Y-45759580D01*
X101288095Y-45759580D02*
X101240476Y-45807200D01*
X101240476Y-45807200D02*
X101145238Y-45854819D01*
X101145238Y-45854819D02*
X100907143Y-45854819D01*
X100907143Y-45854819D02*
X100811905Y-45807200D01*
X100811905Y-45807200D02*
X100764286Y-45759580D01*
X104638095Y-46654819D02*
X104638095Y-47464342D01*
X104638095Y-47464342D02*
X104685714Y-47559580D01*
X104685714Y-47559580D02*
X104733333Y-47607200D01*
X104733333Y-47607200D02*
X104828571Y-47654819D01*
X104828571Y-47654819D02*
X105019047Y-47654819D01*
X105019047Y-47654819D02*
X105114285Y-47607200D01*
X105114285Y-47607200D02*
X105161904Y-47559580D01*
X105161904Y-47559580D02*
X105209523Y-47464342D01*
X105209523Y-47464342D02*
X105209523Y-46654819D01*
X106209523Y-47654819D02*
X105638095Y-47654819D01*
X105923809Y-47654819D02*
X105923809Y-46654819D01*
X105923809Y-46654819D02*
X105828571Y-46797676D01*
X105828571Y-46797676D02*
X105733333Y-46892914D01*
X105733333Y-46892914D02*
X105638095Y-46940533D01*
X91209580Y-59512857D02*
X91257200Y-59560476D01*
X91257200Y-59560476D02*
X91304819Y-59703333D01*
X91304819Y-59703333D02*
X91304819Y-59798571D01*
X91304819Y-59798571D02*
X91257200Y-59941428D01*
X91257200Y-59941428D02*
X91161961Y-60036666D01*
X91161961Y-60036666D02*
X91066723Y-60084285D01*
X91066723Y-60084285D02*
X90876247Y-60131904D01*
X90876247Y-60131904D02*
X90733390Y-60131904D01*
X90733390Y-60131904D02*
X90542914Y-60084285D01*
X90542914Y-60084285D02*
X90447676Y-60036666D01*
X90447676Y-60036666D02*
X90352438Y-59941428D01*
X90352438Y-59941428D02*
X90304819Y-59798571D01*
X90304819Y-59798571D02*
X90304819Y-59703333D01*
X90304819Y-59703333D02*
X90352438Y-59560476D01*
X90352438Y-59560476D02*
X90400057Y-59512857D01*
X91304819Y-58560476D02*
X91304819Y-59131904D01*
X91304819Y-58846190D02*
X90304819Y-58846190D01*
X90304819Y-58846190D02*
X90447676Y-58941428D01*
X90447676Y-58941428D02*
X90542914Y-59036666D01*
X90542914Y-59036666D02*
X90590533Y-59131904D01*
X91304819Y-57608095D02*
X91304819Y-58179523D01*
X91304819Y-57893809D02*
X90304819Y-57893809D01*
X90304819Y-57893809D02*
X90447676Y-57989047D01*
X90447676Y-57989047D02*
X90542914Y-58084285D01*
X90542914Y-58084285D02*
X90590533Y-58179523D01*
X102959580Y-62642857D02*
X103007200Y-62690476D01*
X103007200Y-62690476D02*
X103054819Y-62833333D01*
X103054819Y-62833333D02*
X103054819Y-62928571D01*
X103054819Y-62928571D02*
X103007200Y-63071428D01*
X103007200Y-63071428D02*
X102911961Y-63166666D01*
X102911961Y-63166666D02*
X102816723Y-63214285D01*
X102816723Y-63214285D02*
X102626247Y-63261904D01*
X102626247Y-63261904D02*
X102483390Y-63261904D01*
X102483390Y-63261904D02*
X102292914Y-63214285D01*
X102292914Y-63214285D02*
X102197676Y-63166666D01*
X102197676Y-63166666D02*
X102102438Y-63071428D01*
X102102438Y-63071428D02*
X102054819Y-62928571D01*
X102054819Y-62928571D02*
X102054819Y-62833333D01*
X102054819Y-62833333D02*
X102102438Y-62690476D01*
X102102438Y-62690476D02*
X102150057Y-62642857D01*
X103054819Y-61690476D02*
X103054819Y-62261904D01*
X103054819Y-61976190D02*
X102054819Y-61976190D01*
X102054819Y-61976190D02*
X102197676Y-62071428D01*
X102197676Y-62071428D02*
X102292914Y-62166666D01*
X102292914Y-62166666D02*
X102340533Y-62261904D01*
X102483390Y-61119047D02*
X102435771Y-61214285D01*
X102435771Y-61214285D02*
X102388152Y-61261904D01*
X102388152Y-61261904D02*
X102292914Y-61309523D01*
X102292914Y-61309523D02*
X102245295Y-61309523D01*
X102245295Y-61309523D02*
X102150057Y-61261904D01*
X102150057Y-61261904D02*
X102102438Y-61214285D01*
X102102438Y-61214285D02*
X102054819Y-61119047D01*
X102054819Y-61119047D02*
X102054819Y-60928571D01*
X102054819Y-60928571D02*
X102102438Y-60833333D01*
X102102438Y-60833333D02*
X102150057Y-60785714D01*
X102150057Y-60785714D02*
X102245295Y-60738095D01*
X102245295Y-60738095D02*
X102292914Y-60738095D01*
X102292914Y-60738095D02*
X102388152Y-60785714D01*
X102388152Y-60785714D02*
X102435771Y-60833333D01*
X102435771Y-60833333D02*
X102483390Y-60928571D01*
X102483390Y-60928571D02*
X102483390Y-61119047D01*
X102483390Y-61119047D02*
X102531009Y-61214285D01*
X102531009Y-61214285D02*
X102578628Y-61261904D01*
X102578628Y-61261904D02*
X102673866Y-61309523D01*
X102673866Y-61309523D02*
X102864342Y-61309523D01*
X102864342Y-61309523D02*
X102959580Y-61261904D01*
X102959580Y-61261904D02*
X103007200Y-61214285D01*
X103007200Y-61214285D02*
X103054819Y-61119047D01*
X103054819Y-61119047D02*
X103054819Y-60928571D01*
X103054819Y-60928571D02*
X103007200Y-60833333D01*
X103007200Y-60833333D02*
X102959580Y-60785714D01*
X102959580Y-60785714D02*
X102864342Y-60738095D01*
X102864342Y-60738095D02*
X102673866Y-60738095D01*
X102673866Y-60738095D02*
X102578628Y-60785714D01*
X102578628Y-60785714D02*
X102531009Y-60833333D01*
X102531009Y-60833333D02*
X102483390Y-60928571D01*
X89454819Y-45538094D02*
X88454819Y-45538094D01*
X88454819Y-45538094D02*
X88454819Y-45299999D01*
X88454819Y-45299999D02*
X88502438Y-45157142D01*
X88502438Y-45157142D02*
X88597676Y-45061904D01*
X88597676Y-45061904D02*
X88692914Y-45014285D01*
X88692914Y-45014285D02*
X88883390Y-44966666D01*
X88883390Y-44966666D02*
X89026247Y-44966666D01*
X89026247Y-44966666D02*
X89216723Y-45014285D01*
X89216723Y-45014285D02*
X89311961Y-45061904D01*
X89311961Y-45061904D02*
X89407200Y-45157142D01*
X89407200Y-45157142D02*
X89454819Y-45299999D01*
X89454819Y-45299999D02*
X89454819Y-45538094D01*
X89454819Y-44014285D02*
X89454819Y-44585713D01*
X89454819Y-44299999D02*
X88454819Y-44299999D01*
X88454819Y-44299999D02*
X88597676Y-44395237D01*
X88597676Y-44395237D02*
X88692914Y-44490475D01*
X88692914Y-44490475D02*
X88740533Y-44585713D01*
X103654819Y-65238094D02*
X104464342Y-65238094D01*
X104464342Y-65238094D02*
X104559580Y-65190475D01*
X104559580Y-65190475D02*
X104607200Y-65142856D01*
X104607200Y-65142856D02*
X104654819Y-65047618D01*
X104654819Y-65047618D02*
X104654819Y-64857142D01*
X104654819Y-64857142D02*
X104607200Y-64761904D01*
X104607200Y-64761904D02*
X104559580Y-64714285D01*
X104559580Y-64714285D02*
X104464342Y-64666666D01*
X104464342Y-64666666D02*
X103654819Y-64666666D01*
X104654819Y-63666666D02*
X104654819Y-64238094D01*
X104654819Y-63952380D02*
X103654819Y-63952380D01*
X103654819Y-63952380D02*
X103797676Y-64047618D01*
X103797676Y-64047618D02*
X103892914Y-64142856D01*
X103892914Y-64142856D02*
X103940533Y-64238094D01*
X103654819Y-63333332D02*
X103654819Y-62714285D01*
X103654819Y-62714285D02*
X104035771Y-63047618D01*
X104035771Y-63047618D02*
X104035771Y-62904761D01*
X104035771Y-62904761D02*
X104083390Y-62809523D01*
X104083390Y-62809523D02*
X104131009Y-62761904D01*
X104131009Y-62761904D02*
X104226247Y-62714285D01*
X104226247Y-62714285D02*
X104464342Y-62714285D01*
X104464342Y-62714285D02*
X104559580Y-62761904D01*
X104559580Y-62761904D02*
X104607200Y-62809523D01*
X104607200Y-62809523D02*
X104654819Y-62904761D01*
X104654819Y-62904761D02*
X104654819Y-63190475D01*
X104654819Y-63190475D02*
X104607200Y-63285713D01*
X104607200Y-63285713D02*
X104559580Y-63333332D01*
X105854819Y-59061904D02*
X106664342Y-59061904D01*
X106664342Y-59061904D02*
X106759580Y-59014285D01*
X106759580Y-59014285D02*
X106807200Y-58966666D01*
X106807200Y-58966666D02*
X106854819Y-58871428D01*
X106854819Y-58871428D02*
X106854819Y-58680952D01*
X106854819Y-58680952D02*
X106807200Y-58585714D01*
X106807200Y-58585714D02*
X106759580Y-58538095D01*
X106759580Y-58538095D02*
X106664342Y-58490476D01*
X106664342Y-58490476D02*
X105854819Y-58490476D01*
X106283390Y-57871428D02*
X106235771Y-57966666D01*
X106235771Y-57966666D02*
X106188152Y-58014285D01*
X106188152Y-58014285D02*
X106092914Y-58061904D01*
X106092914Y-58061904D02*
X106045295Y-58061904D01*
X106045295Y-58061904D02*
X105950057Y-58014285D01*
X105950057Y-58014285D02*
X105902438Y-57966666D01*
X105902438Y-57966666D02*
X105854819Y-57871428D01*
X105854819Y-57871428D02*
X105854819Y-57680952D01*
X105854819Y-57680952D02*
X105902438Y-57585714D01*
X105902438Y-57585714D02*
X105950057Y-57538095D01*
X105950057Y-57538095D02*
X106045295Y-57490476D01*
X106045295Y-57490476D02*
X106092914Y-57490476D01*
X106092914Y-57490476D02*
X106188152Y-57538095D01*
X106188152Y-57538095D02*
X106235771Y-57585714D01*
X106235771Y-57585714D02*
X106283390Y-57680952D01*
X106283390Y-57680952D02*
X106283390Y-57871428D01*
X106283390Y-57871428D02*
X106331009Y-57966666D01*
X106331009Y-57966666D02*
X106378628Y-58014285D01*
X106378628Y-58014285D02*
X106473866Y-58061904D01*
X106473866Y-58061904D02*
X106664342Y-58061904D01*
X106664342Y-58061904D02*
X106759580Y-58014285D01*
X106759580Y-58014285D02*
X106807200Y-57966666D01*
X106807200Y-57966666D02*
X106854819Y-57871428D01*
X106854819Y-57871428D02*
X106854819Y-57680952D01*
X106854819Y-57680952D02*
X106807200Y-57585714D01*
X106807200Y-57585714D02*
X106759580Y-57538095D01*
X106759580Y-57538095D02*
X106664342Y-57490476D01*
X106664342Y-57490476D02*
X106473866Y-57490476D01*
X106473866Y-57490476D02*
X106378628Y-57538095D01*
X106378628Y-57538095D02*
X106331009Y-57585714D01*
X106331009Y-57585714D02*
X106283390Y-57680952D01*
X99566666Y-40554819D02*
X99566666Y-41269104D01*
X99566666Y-41269104D02*
X99519047Y-41411961D01*
X99519047Y-41411961D02*
X99423809Y-41507200D01*
X99423809Y-41507200D02*
X99280952Y-41554819D01*
X99280952Y-41554819D02*
X99185714Y-41554819D01*
X99995238Y-40650057D02*
X100042857Y-40602438D01*
X100042857Y-40602438D02*
X100138095Y-40554819D01*
X100138095Y-40554819D02*
X100376190Y-40554819D01*
X100376190Y-40554819D02*
X100471428Y-40602438D01*
X100471428Y-40602438D02*
X100519047Y-40650057D01*
X100519047Y-40650057D02*
X100566666Y-40745295D01*
X100566666Y-40745295D02*
X100566666Y-40840533D01*
X100566666Y-40840533D02*
X100519047Y-40983390D01*
X100519047Y-40983390D02*
X99947619Y-41554819D01*
X99947619Y-41554819D02*
X100566666Y-41554819D01*
X90366666Y-81354819D02*
X90366666Y-82069104D01*
X90366666Y-82069104D02*
X90319047Y-82211961D01*
X90319047Y-82211961D02*
X90223809Y-82307200D01*
X90223809Y-82307200D02*
X90080952Y-82354819D01*
X90080952Y-82354819D02*
X89985714Y-82354819D01*
X91319047Y-81354819D02*
X90842857Y-81354819D01*
X90842857Y-81354819D02*
X90795238Y-81831009D01*
X90795238Y-81831009D02*
X90842857Y-81783390D01*
X90842857Y-81783390D02*
X90938095Y-81735771D01*
X90938095Y-81735771D02*
X91176190Y-81735771D01*
X91176190Y-81735771D02*
X91271428Y-81783390D01*
X91271428Y-81783390D02*
X91319047Y-81831009D01*
X91319047Y-81831009D02*
X91366666Y-81926247D01*
X91366666Y-81926247D02*
X91366666Y-82164342D01*
X91366666Y-82164342D02*
X91319047Y-82259580D01*
X91319047Y-82259580D02*
X91271428Y-82307200D01*
X91271428Y-82307200D02*
X91176190Y-82354819D01*
X91176190Y-82354819D02*
X90938095Y-82354819D01*
X90938095Y-82354819D02*
X90842857Y-82307200D01*
X90842857Y-82307200D02*
X90795238Y-82259580D01*
X96710940Y-61726202D02*
X96663321Y-61773822D01*
X96663321Y-61773822D02*
X96520464Y-61821441D01*
X96520464Y-61821441D02*
X96425226Y-61821441D01*
X96425226Y-61821441D02*
X96282369Y-61773822D01*
X96282369Y-61773822D02*
X96187131Y-61678583D01*
X96187131Y-61678583D02*
X96139512Y-61583345D01*
X96139512Y-61583345D02*
X96091893Y-61392869D01*
X96091893Y-61392869D02*
X96091893Y-61250012D01*
X96091893Y-61250012D02*
X96139512Y-61059536D01*
X96139512Y-61059536D02*
X96187131Y-60964298D01*
X96187131Y-60964298D02*
X96282369Y-60869060D01*
X96282369Y-60869060D02*
X96425226Y-60821441D01*
X96425226Y-60821441D02*
X96520464Y-60821441D01*
X96520464Y-60821441D02*
X96663321Y-60869060D01*
X96663321Y-60869060D02*
X96710940Y-60916679D01*
X97091893Y-60916679D02*
X97139512Y-60869060D01*
X97139512Y-60869060D02*
X97234750Y-60821441D01*
X97234750Y-60821441D02*
X97472845Y-60821441D01*
X97472845Y-60821441D02*
X97568083Y-60869060D01*
X97568083Y-60869060D02*
X97615702Y-60916679D01*
X97615702Y-60916679D02*
X97663321Y-61011917D01*
X97663321Y-61011917D02*
X97663321Y-61107155D01*
X97663321Y-61107155D02*
X97615702Y-61250012D01*
X97615702Y-61250012D02*
X97044274Y-61821441D01*
X97044274Y-61821441D02*
X97663321Y-61821441D01*
X98282369Y-60821441D02*
X98377607Y-60821441D01*
X98377607Y-60821441D02*
X98472845Y-60869060D01*
X98472845Y-60869060D02*
X98520464Y-60916679D01*
X98520464Y-60916679D02*
X98568083Y-61011917D01*
X98568083Y-61011917D02*
X98615702Y-61202393D01*
X98615702Y-61202393D02*
X98615702Y-61440488D01*
X98615702Y-61440488D02*
X98568083Y-61630964D01*
X98568083Y-61630964D02*
X98520464Y-61726202D01*
X98520464Y-61726202D02*
X98472845Y-61773822D01*
X98472845Y-61773822D02*
X98377607Y-61821441D01*
X98377607Y-61821441D02*
X98282369Y-61821441D01*
X98282369Y-61821441D02*
X98187131Y-61773822D01*
X98187131Y-61773822D02*
X98139512Y-61726202D01*
X98139512Y-61726202D02*
X98091893Y-61630964D01*
X98091893Y-61630964D02*
X98044274Y-61440488D01*
X98044274Y-61440488D02*
X98044274Y-61202393D01*
X98044274Y-61202393D02*
X98091893Y-61011917D01*
X98091893Y-61011917D02*
X98139512Y-60916679D01*
X98139512Y-60916679D02*
X98187131Y-60869060D01*
X98187131Y-60869060D02*
X98282369Y-60821441D01*
X93968095Y-57544819D02*
X93968095Y-58354342D01*
X93968095Y-58354342D02*
X94015714Y-58449580D01*
X94015714Y-58449580D02*
X94063333Y-58497200D01*
X94063333Y-58497200D02*
X94158571Y-58544819D01*
X94158571Y-58544819D02*
X94349047Y-58544819D01*
X94349047Y-58544819D02*
X94444285Y-58497200D01*
X94444285Y-58497200D02*
X94491904Y-58449580D01*
X94491904Y-58449580D02*
X94539523Y-58354342D01*
X94539523Y-58354342D02*
X94539523Y-57544819D01*
X95444285Y-57544819D02*
X95253809Y-57544819D01*
X95253809Y-57544819D02*
X95158571Y-57592438D01*
X95158571Y-57592438D02*
X95110952Y-57640057D01*
X95110952Y-57640057D02*
X95015714Y-57782914D01*
X95015714Y-57782914D02*
X94968095Y-57973390D01*
X94968095Y-57973390D02*
X94968095Y-58354342D01*
X94968095Y-58354342D02*
X95015714Y-58449580D01*
X95015714Y-58449580D02*
X95063333Y-58497200D01*
X95063333Y-58497200D02*
X95158571Y-58544819D01*
X95158571Y-58544819D02*
X95349047Y-58544819D01*
X95349047Y-58544819D02*
X95444285Y-58497200D01*
X95444285Y-58497200D02*
X95491904Y-58449580D01*
X95491904Y-58449580D02*
X95539523Y-58354342D01*
X95539523Y-58354342D02*
X95539523Y-58116247D01*
X95539523Y-58116247D02*
X95491904Y-58021009D01*
X95491904Y-58021009D02*
X95444285Y-57973390D01*
X95444285Y-57973390D02*
X95349047Y-57925771D01*
X95349047Y-57925771D02*
X95158571Y-57925771D01*
X95158571Y-57925771D02*
X95063333Y-57973390D01*
X95063333Y-57973390D02*
X95015714Y-58021009D01*
X95015714Y-58021009D02*
X94968095Y-58116247D01*
X86087142Y-64889580D02*
X86039523Y-64937200D01*
X86039523Y-64937200D02*
X85896666Y-64984819D01*
X85896666Y-64984819D02*
X85801428Y-64984819D01*
X85801428Y-64984819D02*
X85658571Y-64937200D01*
X85658571Y-64937200D02*
X85563333Y-64841961D01*
X85563333Y-64841961D02*
X85515714Y-64746723D01*
X85515714Y-64746723D02*
X85468095Y-64556247D01*
X85468095Y-64556247D02*
X85468095Y-64413390D01*
X85468095Y-64413390D02*
X85515714Y-64222914D01*
X85515714Y-64222914D02*
X85563333Y-64127676D01*
X85563333Y-64127676D02*
X85658571Y-64032438D01*
X85658571Y-64032438D02*
X85801428Y-63984819D01*
X85801428Y-63984819D02*
X85896666Y-63984819D01*
X85896666Y-63984819D02*
X86039523Y-64032438D01*
X86039523Y-64032438D02*
X86087142Y-64080057D01*
X87039523Y-64984819D02*
X86468095Y-64984819D01*
X86753809Y-64984819D02*
X86753809Y-63984819D01*
X86753809Y-63984819D02*
X86658571Y-64127676D01*
X86658571Y-64127676D02*
X86563333Y-64222914D01*
X86563333Y-64222914D02*
X86468095Y-64270533D01*
X87420476Y-64080057D02*
X87468095Y-64032438D01*
X87468095Y-64032438D02*
X87563333Y-63984819D01*
X87563333Y-63984819D02*
X87801428Y-63984819D01*
X87801428Y-63984819D02*
X87896666Y-64032438D01*
X87896666Y-64032438D02*
X87944285Y-64080057D01*
X87944285Y-64080057D02*
X87991904Y-64175295D01*
X87991904Y-64175295D02*
X87991904Y-64270533D01*
X87991904Y-64270533D02*
X87944285Y-64413390D01*
X87944285Y-64413390D02*
X87372857Y-64984819D01*
X87372857Y-64984819D02*
X87991904Y-64984819D01*
X94753333Y-55869580D02*
X94705714Y-55917200D01*
X94705714Y-55917200D02*
X94562857Y-55964819D01*
X94562857Y-55964819D02*
X94467619Y-55964819D01*
X94467619Y-55964819D02*
X94324762Y-55917200D01*
X94324762Y-55917200D02*
X94229524Y-55821961D01*
X94229524Y-55821961D02*
X94181905Y-55726723D01*
X94181905Y-55726723D02*
X94134286Y-55536247D01*
X94134286Y-55536247D02*
X94134286Y-55393390D01*
X94134286Y-55393390D02*
X94181905Y-55202914D01*
X94181905Y-55202914D02*
X94229524Y-55107676D01*
X94229524Y-55107676D02*
X94324762Y-55012438D01*
X94324762Y-55012438D02*
X94467619Y-54964819D01*
X94467619Y-54964819D02*
X94562857Y-54964819D01*
X94562857Y-54964819D02*
X94705714Y-55012438D01*
X94705714Y-55012438D02*
X94753333Y-55060057D01*
X95086667Y-54964819D02*
X95705714Y-54964819D01*
X95705714Y-54964819D02*
X95372381Y-55345771D01*
X95372381Y-55345771D02*
X95515238Y-55345771D01*
X95515238Y-55345771D02*
X95610476Y-55393390D01*
X95610476Y-55393390D02*
X95658095Y-55441009D01*
X95658095Y-55441009D02*
X95705714Y-55536247D01*
X95705714Y-55536247D02*
X95705714Y-55774342D01*
X95705714Y-55774342D02*
X95658095Y-55869580D01*
X95658095Y-55869580D02*
X95610476Y-55917200D01*
X95610476Y-55917200D02*
X95515238Y-55964819D01*
X95515238Y-55964819D02*
X95229524Y-55964819D01*
X95229524Y-55964819D02*
X95134286Y-55917200D01*
X95134286Y-55917200D02*
X95086667Y-55869580D01*
X96454819Y-60388094D02*
X97264342Y-60388094D01*
X97264342Y-60388094D02*
X97359580Y-60340475D01*
X97359580Y-60340475D02*
X97407200Y-60292856D01*
X97407200Y-60292856D02*
X97454819Y-60197618D01*
X97454819Y-60197618D02*
X97454819Y-60007142D01*
X97454819Y-60007142D02*
X97407200Y-59911904D01*
X97407200Y-59911904D02*
X97359580Y-59864285D01*
X97359580Y-59864285D02*
X97264342Y-59816666D01*
X97264342Y-59816666D02*
X96454819Y-59816666D01*
X97454819Y-58816666D02*
X97454819Y-59388094D01*
X97454819Y-59102380D02*
X96454819Y-59102380D01*
X96454819Y-59102380D02*
X96597676Y-59197618D01*
X96597676Y-59197618D02*
X96692914Y-59292856D01*
X96692914Y-59292856D02*
X96740533Y-59388094D01*
X96454819Y-58197618D02*
X96454819Y-58102380D01*
X96454819Y-58102380D02*
X96502438Y-58007142D01*
X96502438Y-58007142D02*
X96550057Y-57959523D01*
X96550057Y-57959523D02*
X96645295Y-57911904D01*
X96645295Y-57911904D02*
X96835771Y-57864285D01*
X96835771Y-57864285D02*
X97073866Y-57864285D01*
X97073866Y-57864285D02*
X97264342Y-57911904D01*
X97264342Y-57911904D02*
X97359580Y-57959523D01*
X97359580Y-57959523D02*
X97407200Y-58007142D01*
X97407200Y-58007142D02*
X97454819Y-58102380D01*
X97454819Y-58102380D02*
X97454819Y-58197618D01*
X97454819Y-58197618D02*
X97407200Y-58292856D01*
X97407200Y-58292856D02*
X97359580Y-58340475D01*
X97359580Y-58340475D02*
X97264342Y-58388094D01*
X97264342Y-58388094D02*
X97073866Y-58435713D01*
X97073866Y-58435713D02*
X96835771Y-58435713D01*
X96835771Y-58435713D02*
X96645295Y-58388094D01*
X96645295Y-58388094D02*
X96550057Y-58340475D01*
X96550057Y-58340475D02*
X96502438Y-58292856D01*
X96502438Y-58292856D02*
X96454819Y-58197618D01*
X101109580Y-47166666D02*
X101157200Y-47214285D01*
X101157200Y-47214285D02*
X101204819Y-47357142D01*
X101204819Y-47357142D02*
X101204819Y-47452380D01*
X101204819Y-47452380D02*
X101157200Y-47595237D01*
X101157200Y-47595237D02*
X101061961Y-47690475D01*
X101061961Y-47690475D02*
X100966723Y-47738094D01*
X100966723Y-47738094D02*
X100776247Y-47785713D01*
X100776247Y-47785713D02*
X100633390Y-47785713D01*
X100633390Y-47785713D02*
X100442914Y-47738094D01*
X100442914Y-47738094D02*
X100347676Y-47690475D01*
X100347676Y-47690475D02*
X100252438Y-47595237D01*
X100252438Y-47595237D02*
X100204819Y-47452380D01*
X100204819Y-47452380D02*
X100204819Y-47357142D01*
X100204819Y-47357142D02*
X100252438Y-47214285D01*
X100252438Y-47214285D02*
X100300057Y-47166666D01*
X100538152Y-46309523D02*
X101204819Y-46309523D01*
X100157200Y-46547618D02*
X100871485Y-46785713D01*
X100871485Y-46785713D02*
X100871485Y-46166666D01*
X96327142Y-57114819D02*
X95993809Y-56638628D01*
X95755714Y-57114819D02*
X95755714Y-56114819D01*
X95755714Y-56114819D02*
X96136666Y-56114819D01*
X96136666Y-56114819D02*
X96231904Y-56162438D01*
X96231904Y-56162438D02*
X96279523Y-56210057D01*
X96279523Y-56210057D02*
X96327142Y-56305295D01*
X96327142Y-56305295D02*
X96327142Y-56448152D01*
X96327142Y-56448152D02*
X96279523Y-56543390D01*
X96279523Y-56543390D02*
X96231904Y-56591009D01*
X96231904Y-56591009D02*
X96136666Y-56638628D01*
X96136666Y-56638628D02*
X95755714Y-56638628D01*
X97279523Y-57114819D02*
X96708095Y-57114819D01*
X96993809Y-57114819D02*
X96993809Y-56114819D01*
X96993809Y-56114819D02*
X96898571Y-56257676D01*
X96898571Y-56257676D02*
X96803333Y-56352914D01*
X96803333Y-56352914D02*
X96708095Y-56400533D01*
X97612857Y-56114819D02*
X98231904Y-56114819D01*
X98231904Y-56114819D02*
X97898571Y-56495771D01*
X97898571Y-56495771D02*
X98041428Y-56495771D01*
X98041428Y-56495771D02*
X98136666Y-56543390D01*
X98136666Y-56543390D02*
X98184285Y-56591009D01*
X98184285Y-56591009D02*
X98231904Y-56686247D01*
X98231904Y-56686247D02*
X98231904Y-56924342D01*
X98231904Y-56924342D02*
X98184285Y-57019580D01*
X98184285Y-57019580D02*
X98136666Y-57067200D01*
X98136666Y-57067200D02*
X98041428Y-57114819D01*
X98041428Y-57114819D02*
X97755714Y-57114819D01*
X97755714Y-57114819D02*
X97660476Y-57067200D01*
X97660476Y-57067200D02*
X97612857Y-57019580D01*
X82807142Y-45104819D02*
X82473809Y-44628628D01*
X82235714Y-45104819D02*
X82235714Y-44104819D01*
X82235714Y-44104819D02*
X82616666Y-44104819D01*
X82616666Y-44104819D02*
X82711904Y-44152438D01*
X82711904Y-44152438D02*
X82759523Y-44200057D01*
X82759523Y-44200057D02*
X82807142Y-44295295D01*
X82807142Y-44295295D02*
X82807142Y-44438152D01*
X82807142Y-44438152D02*
X82759523Y-44533390D01*
X82759523Y-44533390D02*
X82711904Y-44581009D01*
X82711904Y-44581009D02*
X82616666Y-44628628D01*
X82616666Y-44628628D02*
X82235714Y-44628628D01*
X83759523Y-45104819D02*
X83188095Y-45104819D01*
X83473809Y-45104819D02*
X83473809Y-44104819D01*
X83473809Y-44104819D02*
X83378571Y-44247676D01*
X83378571Y-44247676D02*
X83283333Y-44342914D01*
X83283333Y-44342914D02*
X83188095Y-44390533D01*
X84140476Y-44200057D02*
X84188095Y-44152438D01*
X84188095Y-44152438D02*
X84283333Y-44104819D01*
X84283333Y-44104819D02*
X84521428Y-44104819D01*
X84521428Y-44104819D02*
X84616666Y-44152438D01*
X84616666Y-44152438D02*
X84664285Y-44200057D01*
X84664285Y-44200057D02*
X84711904Y-44295295D01*
X84711904Y-44295295D02*
X84711904Y-44390533D01*
X84711904Y-44390533D02*
X84664285Y-44533390D01*
X84664285Y-44533390D02*
X84092857Y-45104819D01*
X84092857Y-45104819D02*
X84711904Y-45104819D01*
X100283333Y-49404819D02*
X99950000Y-48928628D01*
X99711905Y-49404819D02*
X99711905Y-48404819D01*
X99711905Y-48404819D02*
X100092857Y-48404819D01*
X100092857Y-48404819D02*
X100188095Y-48452438D01*
X100188095Y-48452438D02*
X100235714Y-48500057D01*
X100235714Y-48500057D02*
X100283333Y-48595295D01*
X100283333Y-48595295D02*
X100283333Y-48738152D01*
X100283333Y-48738152D02*
X100235714Y-48833390D01*
X100235714Y-48833390D02*
X100188095Y-48881009D01*
X100188095Y-48881009D02*
X100092857Y-48928628D01*
X100092857Y-48928628D02*
X99711905Y-48928628D01*
X100854762Y-48833390D02*
X100759524Y-48785771D01*
X100759524Y-48785771D02*
X100711905Y-48738152D01*
X100711905Y-48738152D02*
X100664286Y-48642914D01*
X100664286Y-48642914D02*
X100664286Y-48595295D01*
X100664286Y-48595295D02*
X100711905Y-48500057D01*
X100711905Y-48500057D02*
X100759524Y-48452438D01*
X100759524Y-48452438D02*
X100854762Y-48404819D01*
X100854762Y-48404819D02*
X101045238Y-48404819D01*
X101045238Y-48404819D02*
X101140476Y-48452438D01*
X101140476Y-48452438D02*
X101188095Y-48500057D01*
X101188095Y-48500057D02*
X101235714Y-48595295D01*
X101235714Y-48595295D02*
X101235714Y-48642914D01*
X101235714Y-48642914D02*
X101188095Y-48738152D01*
X101188095Y-48738152D02*
X101140476Y-48785771D01*
X101140476Y-48785771D02*
X101045238Y-48833390D01*
X101045238Y-48833390D02*
X100854762Y-48833390D01*
X100854762Y-48833390D02*
X100759524Y-48881009D01*
X100759524Y-48881009D02*
X100711905Y-48928628D01*
X100711905Y-48928628D02*
X100664286Y-49023866D01*
X100664286Y-49023866D02*
X100664286Y-49214342D01*
X100664286Y-49214342D02*
X100711905Y-49309580D01*
X100711905Y-49309580D02*
X100759524Y-49357200D01*
X100759524Y-49357200D02*
X100854762Y-49404819D01*
X100854762Y-49404819D02*
X101045238Y-49404819D01*
X101045238Y-49404819D02*
X101140476Y-49357200D01*
X101140476Y-49357200D02*
X101188095Y-49309580D01*
X101188095Y-49309580D02*
X101235714Y-49214342D01*
X101235714Y-49214342D02*
X101235714Y-49023866D01*
X101235714Y-49023866D02*
X101188095Y-48928628D01*
X101188095Y-48928628D02*
X101140476Y-48881009D01*
X101140476Y-48881009D02*
X101045238Y-48833390D01*
X85937142Y-63734819D02*
X85603809Y-63258628D01*
X85365714Y-63734819D02*
X85365714Y-62734819D01*
X85365714Y-62734819D02*
X85746666Y-62734819D01*
X85746666Y-62734819D02*
X85841904Y-62782438D01*
X85841904Y-62782438D02*
X85889523Y-62830057D01*
X85889523Y-62830057D02*
X85937142Y-62925295D01*
X85937142Y-62925295D02*
X85937142Y-63068152D01*
X85937142Y-63068152D02*
X85889523Y-63163390D01*
X85889523Y-63163390D02*
X85841904Y-63211009D01*
X85841904Y-63211009D02*
X85746666Y-63258628D01*
X85746666Y-63258628D02*
X85365714Y-63258628D01*
X86889523Y-63734819D02*
X86318095Y-63734819D01*
X86603809Y-63734819D02*
X86603809Y-62734819D01*
X86603809Y-62734819D02*
X86508571Y-62877676D01*
X86508571Y-62877676D02*
X86413333Y-62972914D01*
X86413333Y-62972914D02*
X86318095Y-63020533D01*
X87794285Y-62734819D02*
X87318095Y-62734819D01*
X87318095Y-62734819D02*
X87270476Y-63211009D01*
X87270476Y-63211009D02*
X87318095Y-63163390D01*
X87318095Y-63163390D02*
X87413333Y-63115771D01*
X87413333Y-63115771D02*
X87651428Y-63115771D01*
X87651428Y-63115771D02*
X87746666Y-63163390D01*
X87746666Y-63163390D02*
X87794285Y-63211009D01*
X87794285Y-63211009D02*
X87841904Y-63306247D01*
X87841904Y-63306247D02*
X87841904Y-63544342D01*
X87841904Y-63544342D02*
X87794285Y-63639580D01*
X87794285Y-63639580D02*
X87746666Y-63687200D01*
X87746666Y-63687200D02*
X87651428Y-63734819D01*
X87651428Y-63734819D02*
X87413333Y-63734819D01*
X87413333Y-63734819D02*
X87318095Y-63687200D01*
X87318095Y-63687200D02*
X87270476Y-63639580D01*
X107054819Y-50566666D02*
X106578628Y-50899999D01*
X107054819Y-51138094D02*
X106054819Y-51138094D01*
X106054819Y-51138094D02*
X106054819Y-50757142D01*
X106054819Y-50757142D02*
X106102438Y-50661904D01*
X106102438Y-50661904D02*
X106150057Y-50614285D01*
X106150057Y-50614285D02*
X106245295Y-50566666D01*
X106245295Y-50566666D02*
X106388152Y-50566666D01*
X106388152Y-50566666D02*
X106483390Y-50614285D01*
X106483390Y-50614285D02*
X106531009Y-50661904D01*
X106531009Y-50661904D02*
X106578628Y-50757142D01*
X106578628Y-50757142D02*
X106578628Y-51138094D01*
X106054819Y-49661904D02*
X106054819Y-50138094D01*
X106054819Y-50138094D02*
X106531009Y-50185713D01*
X106531009Y-50185713D02*
X106483390Y-50138094D01*
X106483390Y-50138094D02*
X106435771Y-50042856D01*
X106435771Y-50042856D02*
X106435771Y-49804761D01*
X106435771Y-49804761D02*
X106483390Y-49709523D01*
X106483390Y-49709523D02*
X106531009Y-49661904D01*
X106531009Y-49661904D02*
X106626247Y-49614285D01*
X106626247Y-49614285D02*
X106864342Y-49614285D01*
X106864342Y-49614285D02*
X106959580Y-49661904D01*
X106959580Y-49661904D02*
X107007200Y-49709523D01*
X107007200Y-49709523D02*
X107054819Y-49804761D01*
X107054819Y-49804761D02*
X107054819Y-50042856D01*
X107054819Y-50042856D02*
X107007200Y-50138094D01*
X107007200Y-50138094D02*
X106959580Y-50185713D01*
X84244819Y-59621904D02*
X85054342Y-59621904D01*
X85054342Y-59621904D02*
X85149580Y-59574285D01*
X85149580Y-59574285D02*
X85197200Y-59526666D01*
X85197200Y-59526666D02*
X85244819Y-59431428D01*
X85244819Y-59431428D02*
X85244819Y-59240952D01*
X85244819Y-59240952D02*
X85197200Y-59145714D01*
X85197200Y-59145714D02*
X85149580Y-59098095D01*
X85149580Y-59098095D02*
X85054342Y-59050476D01*
X85054342Y-59050476D02*
X84244819Y-59050476D01*
X84578152Y-58145714D02*
X85244819Y-58145714D01*
X84197200Y-58383809D02*
X84911485Y-58621904D01*
X84911485Y-58621904D02*
X84911485Y-58002857D01*
X99157142Y-55254819D02*
X98823809Y-54778628D01*
X98585714Y-55254819D02*
X98585714Y-54254819D01*
X98585714Y-54254819D02*
X98966666Y-54254819D01*
X98966666Y-54254819D02*
X99061904Y-54302438D01*
X99061904Y-54302438D02*
X99109523Y-54350057D01*
X99109523Y-54350057D02*
X99157142Y-54445295D01*
X99157142Y-54445295D02*
X99157142Y-54588152D01*
X99157142Y-54588152D02*
X99109523Y-54683390D01*
X99109523Y-54683390D02*
X99061904Y-54731009D01*
X99061904Y-54731009D02*
X98966666Y-54778628D01*
X98966666Y-54778628D02*
X98585714Y-54778628D01*
X100109523Y-55254819D02*
X99538095Y-55254819D01*
X99823809Y-55254819D02*
X99823809Y-54254819D01*
X99823809Y-54254819D02*
X99728571Y-54397676D01*
X99728571Y-54397676D02*
X99633333Y-54492914D01*
X99633333Y-54492914D02*
X99538095Y-54540533D01*
X100966666Y-54254819D02*
X100776190Y-54254819D01*
X100776190Y-54254819D02*
X100680952Y-54302438D01*
X100680952Y-54302438D02*
X100633333Y-54350057D01*
X100633333Y-54350057D02*
X100538095Y-54492914D01*
X100538095Y-54492914D02*
X100490476Y-54683390D01*
X100490476Y-54683390D02*
X100490476Y-55064342D01*
X100490476Y-55064342D02*
X100538095Y-55159580D01*
X100538095Y-55159580D02*
X100585714Y-55207200D01*
X100585714Y-55207200D02*
X100680952Y-55254819D01*
X100680952Y-55254819D02*
X100871428Y-55254819D01*
X100871428Y-55254819D02*
X100966666Y-55207200D01*
X100966666Y-55207200D02*
X101014285Y-55159580D01*
X101014285Y-55159580D02*
X101061904Y-55064342D01*
X101061904Y-55064342D02*
X101061904Y-54826247D01*
X101061904Y-54826247D02*
X101014285Y-54731009D01*
X101014285Y-54731009D02*
X100966666Y-54683390D01*
X100966666Y-54683390D02*
X100871428Y-54635771D01*
X100871428Y-54635771D02*
X100680952Y-54635771D01*
X100680952Y-54635771D02*
X100585714Y-54683390D01*
X100585714Y-54683390D02*
X100538095Y-54731009D01*
X100538095Y-54731009D02*
X100490476Y-54826247D01*
X81454819Y-49816666D02*
X80978628Y-50149999D01*
X81454819Y-50388094D02*
X80454819Y-50388094D01*
X80454819Y-50388094D02*
X80454819Y-50007142D01*
X80454819Y-50007142D02*
X80502438Y-49911904D01*
X80502438Y-49911904D02*
X80550057Y-49864285D01*
X80550057Y-49864285D02*
X80645295Y-49816666D01*
X80645295Y-49816666D02*
X80788152Y-49816666D01*
X80788152Y-49816666D02*
X80883390Y-49864285D01*
X80883390Y-49864285D02*
X80931009Y-49911904D01*
X80931009Y-49911904D02*
X80978628Y-50007142D01*
X80978628Y-50007142D02*
X80978628Y-50388094D01*
X81454819Y-48864285D02*
X81454819Y-49435713D01*
X81454819Y-49149999D02*
X80454819Y-49149999D01*
X80454819Y-49149999D02*
X80597676Y-49245237D01*
X80597676Y-49245237D02*
X80692914Y-49340475D01*
X80692914Y-49340475D02*
X80740533Y-49435713D01*
X87933333Y-47354819D02*
X87600000Y-46878628D01*
X87361905Y-47354819D02*
X87361905Y-46354819D01*
X87361905Y-46354819D02*
X87742857Y-46354819D01*
X87742857Y-46354819D02*
X87838095Y-46402438D01*
X87838095Y-46402438D02*
X87885714Y-46450057D01*
X87885714Y-46450057D02*
X87933333Y-46545295D01*
X87933333Y-46545295D02*
X87933333Y-46688152D01*
X87933333Y-46688152D02*
X87885714Y-46783390D01*
X87885714Y-46783390D02*
X87838095Y-46831009D01*
X87838095Y-46831009D02*
X87742857Y-46878628D01*
X87742857Y-46878628D02*
X87361905Y-46878628D01*
X88314286Y-46450057D02*
X88361905Y-46402438D01*
X88361905Y-46402438D02*
X88457143Y-46354819D01*
X88457143Y-46354819D02*
X88695238Y-46354819D01*
X88695238Y-46354819D02*
X88790476Y-46402438D01*
X88790476Y-46402438D02*
X88838095Y-46450057D01*
X88838095Y-46450057D02*
X88885714Y-46545295D01*
X88885714Y-46545295D02*
X88885714Y-46640533D01*
X88885714Y-46640533D02*
X88838095Y-46783390D01*
X88838095Y-46783390D02*
X88266667Y-47354819D01*
X88266667Y-47354819D02*
X88885714Y-47354819D01*
X83904819Y-50811904D02*
X84714342Y-50811904D01*
X84714342Y-50811904D02*
X84809580Y-50764285D01*
X84809580Y-50764285D02*
X84857200Y-50716666D01*
X84857200Y-50716666D02*
X84904819Y-50621428D01*
X84904819Y-50621428D02*
X84904819Y-50430952D01*
X84904819Y-50430952D02*
X84857200Y-50335714D01*
X84857200Y-50335714D02*
X84809580Y-50288095D01*
X84809580Y-50288095D02*
X84714342Y-50240476D01*
X84714342Y-50240476D02*
X83904819Y-50240476D01*
X83904819Y-49859523D02*
X83904819Y-49240476D01*
X83904819Y-49240476D02*
X84285771Y-49573809D01*
X84285771Y-49573809D02*
X84285771Y-49430952D01*
X84285771Y-49430952D02*
X84333390Y-49335714D01*
X84333390Y-49335714D02*
X84381009Y-49288095D01*
X84381009Y-49288095D02*
X84476247Y-49240476D01*
X84476247Y-49240476D02*
X84714342Y-49240476D01*
X84714342Y-49240476D02*
X84809580Y-49288095D01*
X84809580Y-49288095D02*
X84857200Y-49335714D01*
X84857200Y-49335714D02*
X84904819Y-49430952D01*
X84904819Y-49430952D02*
X84904819Y-49716666D01*
X84904819Y-49716666D02*
X84857200Y-49811904D01*
X84857200Y-49811904D02*
X84809580Y-49859523D01*
X91984056Y-55887908D02*
X91936437Y-55935528D01*
X91936437Y-55935528D02*
X91793580Y-55983147D01*
X91793580Y-55983147D02*
X91698342Y-55983147D01*
X91698342Y-55983147D02*
X91555485Y-55935528D01*
X91555485Y-55935528D02*
X91460247Y-55840289D01*
X91460247Y-55840289D02*
X91412628Y-55745051D01*
X91412628Y-55745051D02*
X91365009Y-55554575D01*
X91365009Y-55554575D02*
X91365009Y-55411718D01*
X91365009Y-55411718D02*
X91412628Y-55221242D01*
X91412628Y-55221242D02*
X91460247Y-55126004D01*
X91460247Y-55126004D02*
X91555485Y-55030766D01*
X91555485Y-55030766D02*
X91698342Y-54983147D01*
X91698342Y-54983147D02*
X91793580Y-54983147D01*
X91793580Y-54983147D02*
X91936437Y-55030766D01*
X91936437Y-55030766D02*
X91984056Y-55078385D01*
X92365009Y-55078385D02*
X92412628Y-55030766D01*
X92412628Y-55030766D02*
X92507866Y-54983147D01*
X92507866Y-54983147D02*
X92745961Y-54983147D01*
X92745961Y-54983147D02*
X92841199Y-55030766D01*
X92841199Y-55030766D02*
X92888818Y-55078385D01*
X92888818Y-55078385D02*
X92936437Y-55173623D01*
X92936437Y-55173623D02*
X92936437Y-55268861D01*
X92936437Y-55268861D02*
X92888818Y-55411718D01*
X92888818Y-55411718D02*
X92317390Y-55983147D01*
X92317390Y-55983147D02*
X92936437Y-55983147D01*
X81559580Y-44766666D02*
X81607200Y-44814285D01*
X81607200Y-44814285D02*
X81654819Y-44957142D01*
X81654819Y-44957142D02*
X81654819Y-45052380D01*
X81654819Y-45052380D02*
X81607200Y-45195237D01*
X81607200Y-45195237D02*
X81511961Y-45290475D01*
X81511961Y-45290475D02*
X81416723Y-45338094D01*
X81416723Y-45338094D02*
X81226247Y-45385713D01*
X81226247Y-45385713D02*
X81083390Y-45385713D01*
X81083390Y-45385713D02*
X80892914Y-45338094D01*
X80892914Y-45338094D02*
X80797676Y-45290475D01*
X80797676Y-45290475D02*
X80702438Y-45195237D01*
X80702438Y-45195237D02*
X80654819Y-45052380D01*
X80654819Y-45052380D02*
X80654819Y-44957142D01*
X80654819Y-44957142D02*
X80702438Y-44814285D01*
X80702438Y-44814285D02*
X80750057Y-44766666D01*
X81083390Y-44195237D02*
X81035771Y-44290475D01*
X81035771Y-44290475D02*
X80988152Y-44338094D01*
X80988152Y-44338094D02*
X80892914Y-44385713D01*
X80892914Y-44385713D02*
X80845295Y-44385713D01*
X80845295Y-44385713D02*
X80750057Y-44338094D01*
X80750057Y-44338094D02*
X80702438Y-44290475D01*
X80702438Y-44290475D02*
X80654819Y-44195237D01*
X80654819Y-44195237D02*
X80654819Y-44004761D01*
X80654819Y-44004761D02*
X80702438Y-43909523D01*
X80702438Y-43909523D02*
X80750057Y-43861904D01*
X80750057Y-43861904D02*
X80845295Y-43814285D01*
X80845295Y-43814285D02*
X80892914Y-43814285D01*
X80892914Y-43814285D02*
X80988152Y-43861904D01*
X80988152Y-43861904D02*
X81035771Y-43909523D01*
X81035771Y-43909523D02*
X81083390Y-44004761D01*
X81083390Y-44004761D02*
X81083390Y-44195237D01*
X81083390Y-44195237D02*
X81131009Y-44290475D01*
X81131009Y-44290475D02*
X81178628Y-44338094D01*
X81178628Y-44338094D02*
X81273866Y-44385713D01*
X81273866Y-44385713D02*
X81464342Y-44385713D01*
X81464342Y-44385713D02*
X81559580Y-44338094D01*
X81559580Y-44338094D02*
X81607200Y-44290475D01*
X81607200Y-44290475D02*
X81654819Y-44195237D01*
X81654819Y-44195237D02*
X81654819Y-44004761D01*
X81654819Y-44004761D02*
X81607200Y-43909523D01*
X81607200Y-43909523D02*
X81559580Y-43861904D01*
X81559580Y-43861904D02*
X81464342Y-43814285D01*
X81464342Y-43814285D02*
X81273866Y-43814285D01*
X81273866Y-43814285D02*
X81178628Y-43861904D01*
X81178628Y-43861904D02*
X81131009Y-43909523D01*
X81131009Y-43909523D02*
X81083390Y-44004761D01*
X94559580Y-66742857D02*
X94607200Y-66790476D01*
X94607200Y-66790476D02*
X94654819Y-66933333D01*
X94654819Y-66933333D02*
X94654819Y-67028571D01*
X94654819Y-67028571D02*
X94607200Y-67171428D01*
X94607200Y-67171428D02*
X94511961Y-67266666D01*
X94511961Y-67266666D02*
X94416723Y-67314285D01*
X94416723Y-67314285D02*
X94226247Y-67361904D01*
X94226247Y-67361904D02*
X94083390Y-67361904D01*
X94083390Y-67361904D02*
X93892914Y-67314285D01*
X93892914Y-67314285D02*
X93797676Y-67266666D01*
X93797676Y-67266666D02*
X93702438Y-67171428D01*
X93702438Y-67171428D02*
X93654819Y-67028571D01*
X93654819Y-67028571D02*
X93654819Y-66933333D01*
X93654819Y-66933333D02*
X93702438Y-66790476D01*
X93702438Y-66790476D02*
X93750057Y-66742857D01*
X94654819Y-65790476D02*
X94654819Y-66361904D01*
X94654819Y-66076190D02*
X93654819Y-66076190D01*
X93654819Y-66076190D02*
X93797676Y-66171428D01*
X93797676Y-66171428D02*
X93892914Y-66266666D01*
X93892914Y-66266666D02*
X93940533Y-66361904D01*
X93988152Y-64933333D02*
X94654819Y-64933333D01*
X93607200Y-65171428D02*
X94321485Y-65409523D01*
X94321485Y-65409523D02*
X94321485Y-64790476D01*
X89754819Y-50766666D02*
X89278628Y-51099999D01*
X89754819Y-51338094D02*
X88754819Y-51338094D01*
X88754819Y-51338094D02*
X88754819Y-50957142D01*
X88754819Y-50957142D02*
X88802438Y-50861904D01*
X88802438Y-50861904D02*
X88850057Y-50814285D01*
X88850057Y-50814285D02*
X88945295Y-50766666D01*
X88945295Y-50766666D02*
X89088152Y-50766666D01*
X89088152Y-50766666D02*
X89183390Y-50814285D01*
X89183390Y-50814285D02*
X89231009Y-50861904D01*
X89231009Y-50861904D02*
X89278628Y-50957142D01*
X89278628Y-50957142D02*
X89278628Y-51338094D01*
X88754819Y-50433332D02*
X88754819Y-49814285D01*
X88754819Y-49814285D02*
X89135771Y-50147618D01*
X89135771Y-50147618D02*
X89135771Y-50004761D01*
X89135771Y-50004761D02*
X89183390Y-49909523D01*
X89183390Y-49909523D02*
X89231009Y-49861904D01*
X89231009Y-49861904D02*
X89326247Y-49814285D01*
X89326247Y-49814285D02*
X89564342Y-49814285D01*
X89564342Y-49814285D02*
X89659580Y-49861904D01*
X89659580Y-49861904D02*
X89707200Y-49909523D01*
X89707200Y-49909523D02*
X89754819Y-50004761D01*
X89754819Y-50004761D02*
X89754819Y-50290475D01*
X89754819Y-50290475D02*
X89707200Y-50385713D01*
X89707200Y-50385713D02*
X89659580Y-50433332D01*
X104233333Y-48854819D02*
X103900000Y-48378628D01*
X103661905Y-48854819D02*
X103661905Y-47854819D01*
X103661905Y-47854819D02*
X104042857Y-47854819D01*
X104042857Y-47854819D02*
X104138095Y-47902438D01*
X104138095Y-47902438D02*
X104185714Y-47950057D01*
X104185714Y-47950057D02*
X104233333Y-48045295D01*
X104233333Y-48045295D02*
X104233333Y-48188152D01*
X104233333Y-48188152D02*
X104185714Y-48283390D01*
X104185714Y-48283390D02*
X104138095Y-48331009D01*
X104138095Y-48331009D02*
X104042857Y-48378628D01*
X104042857Y-48378628D02*
X103661905Y-48378628D01*
X105090476Y-47854819D02*
X104900000Y-47854819D01*
X104900000Y-47854819D02*
X104804762Y-47902438D01*
X104804762Y-47902438D02*
X104757143Y-47950057D01*
X104757143Y-47950057D02*
X104661905Y-48092914D01*
X104661905Y-48092914D02*
X104614286Y-48283390D01*
X104614286Y-48283390D02*
X104614286Y-48664342D01*
X104614286Y-48664342D02*
X104661905Y-48759580D01*
X104661905Y-48759580D02*
X104709524Y-48807200D01*
X104709524Y-48807200D02*
X104804762Y-48854819D01*
X104804762Y-48854819D02*
X104995238Y-48854819D01*
X104995238Y-48854819D02*
X105090476Y-48807200D01*
X105090476Y-48807200D02*
X105138095Y-48759580D01*
X105138095Y-48759580D02*
X105185714Y-48664342D01*
X105185714Y-48664342D02*
X105185714Y-48426247D01*
X105185714Y-48426247D02*
X105138095Y-48331009D01*
X105138095Y-48331009D02*
X105090476Y-48283390D01*
X105090476Y-48283390D02*
X104995238Y-48235771D01*
X104995238Y-48235771D02*
X104804762Y-48235771D01*
X104804762Y-48235771D02*
X104709524Y-48283390D01*
X104709524Y-48283390D02*
X104661905Y-48331009D01*
X104661905Y-48331009D02*
X104614286Y-48426247D01*
X90809580Y-48316666D02*
X90857200Y-48364285D01*
X90857200Y-48364285D02*
X90904819Y-48507142D01*
X90904819Y-48507142D02*
X90904819Y-48602380D01*
X90904819Y-48602380D02*
X90857200Y-48745237D01*
X90857200Y-48745237D02*
X90761961Y-48840475D01*
X90761961Y-48840475D02*
X90666723Y-48888094D01*
X90666723Y-48888094D02*
X90476247Y-48935713D01*
X90476247Y-48935713D02*
X90333390Y-48935713D01*
X90333390Y-48935713D02*
X90142914Y-48888094D01*
X90142914Y-48888094D02*
X90047676Y-48840475D01*
X90047676Y-48840475D02*
X89952438Y-48745237D01*
X89952438Y-48745237D02*
X89904819Y-48602380D01*
X89904819Y-48602380D02*
X89904819Y-48507142D01*
X89904819Y-48507142D02*
X89952438Y-48364285D01*
X89952438Y-48364285D02*
X90000057Y-48316666D01*
X90904819Y-47364285D02*
X90904819Y-47935713D01*
X90904819Y-47649999D02*
X89904819Y-47649999D01*
X89904819Y-47649999D02*
X90047676Y-47745237D01*
X90047676Y-47745237D02*
X90142914Y-47840475D01*
X90142914Y-47840475D02*
X90190533Y-47935713D01*
X94207997Y-62723594D02*
X93874664Y-62247403D01*
X93636569Y-62723594D02*
X93636569Y-61723594D01*
X93636569Y-61723594D02*
X94017521Y-61723594D01*
X94017521Y-61723594D02*
X94112759Y-61771213D01*
X94112759Y-61771213D02*
X94160378Y-61818832D01*
X94160378Y-61818832D02*
X94207997Y-61914070D01*
X94207997Y-61914070D02*
X94207997Y-62056927D01*
X94207997Y-62056927D02*
X94160378Y-62152165D01*
X94160378Y-62152165D02*
X94112759Y-62199784D01*
X94112759Y-62199784D02*
X94017521Y-62247403D01*
X94017521Y-62247403D02*
X93636569Y-62247403D01*
X95160378Y-62723594D02*
X94588950Y-62723594D01*
X94874664Y-62723594D02*
X94874664Y-61723594D01*
X94874664Y-61723594D02*
X94779426Y-61866451D01*
X94779426Y-61866451D02*
X94684188Y-61961689D01*
X94684188Y-61961689D02*
X94588950Y-62009308D01*
X96017521Y-62056927D02*
X96017521Y-62723594D01*
X95779426Y-61675975D02*
X95541331Y-62390260D01*
X95541331Y-62390260D02*
X96160378Y-62390260D01*
X94482812Y-44940164D02*
X94149479Y-44463973D01*
X93911384Y-44940164D02*
X93911384Y-43940164D01*
X93911384Y-43940164D02*
X94292336Y-43940164D01*
X94292336Y-43940164D02*
X94387574Y-43987783D01*
X94387574Y-43987783D02*
X94435193Y-44035402D01*
X94435193Y-44035402D02*
X94482812Y-44130640D01*
X94482812Y-44130640D02*
X94482812Y-44273497D01*
X94482812Y-44273497D02*
X94435193Y-44368735D01*
X94435193Y-44368735D02*
X94387574Y-44416354D01*
X94387574Y-44416354D02*
X94292336Y-44463973D01*
X94292336Y-44463973D02*
X93911384Y-44463973D01*
X94959003Y-44940164D02*
X95149479Y-44940164D01*
X95149479Y-44940164D02*
X95244717Y-44892545D01*
X95244717Y-44892545D02*
X95292336Y-44844925D01*
X95292336Y-44844925D02*
X95387574Y-44702068D01*
X95387574Y-44702068D02*
X95435193Y-44511592D01*
X95435193Y-44511592D02*
X95435193Y-44130640D01*
X95435193Y-44130640D02*
X95387574Y-44035402D01*
X95387574Y-44035402D02*
X95339955Y-43987783D01*
X95339955Y-43987783D02*
X95244717Y-43940164D01*
X95244717Y-43940164D02*
X95054241Y-43940164D01*
X95054241Y-43940164D02*
X94959003Y-43987783D01*
X94959003Y-43987783D02*
X94911384Y-44035402D01*
X94911384Y-44035402D02*
X94863765Y-44130640D01*
X94863765Y-44130640D02*
X94863765Y-44368735D01*
X94863765Y-44368735D02*
X94911384Y-44463973D01*
X94911384Y-44463973D02*
X94959003Y-44511592D01*
X94959003Y-44511592D02*
X95054241Y-44559211D01*
X95054241Y-44559211D02*
X95244717Y-44559211D01*
X95244717Y-44559211D02*
X95339955Y-44511592D01*
X95339955Y-44511592D02*
X95387574Y-44463973D01*
X95387574Y-44463973D02*
X95435193Y-44368735D01*
X91386080Y-66530668D02*
X92195603Y-66530668D01*
X92195603Y-66530668D02*
X92290841Y-66483049D01*
X92290841Y-66483049D02*
X92338461Y-66435430D01*
X92338461Y-66435430D02*
X92386080Y-66340192D01*
X92386080Y-66340192D02*
X92386080Y-66149716D01*
X92386080Y-66149716D02*
X92338461Y-66054478D01*
X92338461Y-66054478D02*
X92290841Y-66006859D01*
X92290841Y-66006859D02*
X92195603Y-65959240D01*
X92195603Y-65959240D02*
X91386080Y-65959240D01*
X91386080Y-65578287D02*
X91386080Y-64911621D01*
X91386080Y-64911621D02*
X92386080Y-65340192D01*
%TO.C,R4*%
D11*
X98620000Y-52656359D02*
X98620000Y-52963641D01*
X99380000Y-52656359D02*
X99380000Y-52963641D01*
%TO.C,C19*%
X100811276Y-57735348D02*
X100811276Y-57519676D01*
X101531276Y-57735348D02*
X101531276Y-57519676D01*
%TO.C,C7*%
X85842164Y-44140000D02*
X86057836Y-44140000D01*
X85842164Y-44860000D02*
X86057836Y-44860000D01*
%TO.C,C6*%
X102092164Y-42440000D02*
X102307836Y-42440000D01*
X102092164Y-43160000D02*
X102307836Y-43160000D01*
%TO.C,R18*%
X99020000Y-63753641D02*
X99020000Y-63446359D01*
X99780000Y-63753641D02*
X99780000Y-63446359D01*
%TO.C,C9*%
X82432164Y-63850000D02*
X82647836Y-63850000D01*
X82432164Y-64570000D02*
X82647836Y-64570000D01*
%TO.C,R7*%
X102246359Y-49720000D02*
X102553641Y-49720000D01*
X102246359Y-50480000D02*
X102553641Y-50480000D01*
%TO.C,C13*%
X91377836Y-56680000D02*
X91162164Y-56680000D01*
X91377836Y-57400000D02*
X91162164Y-57400000D01*
%TO.C,U2*%
X92640000Y-47940000D02*
X93115000Y-47940000D01*
X92640000Y-48415000D02*
X92640000Y-47940000D01*
X92640000Y-53160000D02*
X92640000Y-52685000D01*
X93115000Y-53160000D02*
X92640000Y-53160000D01*
X97385000Y-47940000D02*
X97860000Y-47940000D01*
X97860000Y-47940000D02*
X97860000Y-48415000D01*
X97860000Y-52685000D02*
X97860000Y-53160000D01*
X97860000Y-53160000D02*
X97385000Y-53160000D01*
X93500000Y-53690000D02*
X93740000Y-54020000D01*
X93260000Y-54020000D01*
X93500000Y-53690000D01*
G36*
X93740000Y-54020000D02*
G01*
X93260000Y-54020000D01*
X93500000Y-53690000D01*
X93740000Y-54020000D01*
G37*
%TO.C,C10*%
X81782164Y-57470000D02*
X81997836Y-57470000D01*
X81782164Y-58190000D02*
X81997836Y-58190000D01*
%TO.C,C16*%
X108092164Y-58240000D02*
X108307836Y-58240000D01*
X108092164Y-58960000D02*
X108307836Y-58960000D01*
%TO.C,R11*%
X85146359Y-54070000D02*
X85453641Y-54070000D01*
X85146359Y-54830000D02*
X85453641Y-54830000D01*
%TO.C,C15*%
X108492164Y-63840000D02*
X108707836Y-63840000D01*
X108492164Y-64560000D02*
X108707836Y-64560000D01*
%TO.C,J6*%
X98880000Y-65580000D02*
X109320000Y-65580000D01*
X98880000Y-80820000D02*
X98880000Y-65580000D01*
X107600000Y-80820000D02*
X107600000Y-65580000D01*
X108700000Y-80820000D02*
X108700000Y-65580000D01*
X109320000Y-65580000D02*
X109320000Y-77900000D01*
X109320000Y-78500000D02*
X109320000Y-80820000D01*
X109320000Y-80820000D02*
X98880000Y-80820000D01*
X109320000Y-78200000D02*
X109930000Y-77760000D01*
X109930000Y-78640000D01*
X109320000Y-78200000D01*
G36*
X109930000Y-78640000D02*
G01*
X109320000Y-78200000D01*
X109930000Y-77760000D01*
X109930000Y-78640000D01*
G37*
%TO.C,R10*%
X93370000Y-46153641D02*
X93370000Y-45846359D01*
X94130000Y-46153641D02*
X94130000Y-45846359D01*
%TO.C,D2*%
X96250000Y-46110000D02*
X98935000Y-46110000D01*
X98935000Y-44190000D02*
X96250000Y-44190000D01*
X98935000Y-46110000D02*
X98935000Y-44190000D01*
%TO.C,U11*%
X97035000Y-63045000D02*
X98035000Y-63045000D01*
X97035000Y-64825000D02*
X98035000Y-64825000D01*
D10*
X98470000Y-64755000D02*
G75*
G02*
X98320000Y-64755000I-75000J0D01*
G01*
X98320000Y-64755000D02*
G75*
G02*
X98470000Y-64755000I75000J0D01*
G01*
%TO.C,J1*%
D11*
X103920000Y-40920000D02*
X105250000Y-40920000D01*
X103920000Y-42250000D02*
X103920000Y-40920000D01*
X106520000Y-40920000D02*
X109120000Y-40920000D01*
X106520000Y-43580000D02*
X106520000Y-40920000D01*
X106520000Y-43580000D02*
X109120000Y-43580000D01*
X109120000Y-43580000D02*
X109120000Y-40920000D01*
%TO.C,R19*%
X92620000Y-65946359D02*
X92620000Y-66253641D01*
X93380000Y-65946359D02*
X93380000Y-66253641D01*
%TO.C,U5*%
X87350000Y-54600000D02*
X87500000Y-54600000D01*
X87350000Y-59400000D02*
X87350000Y-54600000D01*
X87500000Y-59400000D02*
X87350000Y-59400000D01*
X90000000Y-54600000D02*
X90150000Y-54600000D01*
X90150000Y-54600000D02*
X90150000Y-59400000D01*
X90150000Y-59400000D02*
X90000000Y-59400000D01*
X90000000Y-53750000D02*
X90330000Y-53510000D01*
X90330000Y-53990000D01*
X90000000Y-53750000D01*
G36*
X90330000Y-53990000D02*
G01*
X90000000Y-53750000D01*
X90330000Y-53510000D01*
X90330000Y-53990000D01*
G37*
%TO.C,U9*%
X102100000Y-53400000D02*
X102250000Y-53400000D01*
X102100000Y-58200000D02*
X102100000Y-53400000D01*
X102250000Y-58200000D02*
X102100000Y-58200000D01*
X104750000Y-53400000D02*
X104900000Y-53400000D01*
X104900000Y-53400000D02*
X104900000Y-58200000D01*
X104900000Y-58200000D02*
X104750000Y-58200000D01*
X104750000Y-52550000D02*
X105080000Y-52310000D01*
X105080000Y-52790000D01*
X104750000Y-52550000D01*
G36*
X105080000Y-52790000D02*
G01*
X104750000Y-52550000D01*
X105080000Y-52310000D01*
X105080000Y-52790000D01*
G37*
%TO.C,C5*%
X101640000Y-45992164D02*
X101640000Y-46207836D01*
X102360000Y-45992164D02*
X102360000Y-46207836D01*
%TO.C,U1*%
X103050000Y-46100000D02*
X102910000Y-45910000D01*
X103190000Y-45910000D01*
X103050000Y-46100000D01*
G36*
X103050000Y-46100000D02*
G01*
X102910000Y-45910000D01*
X103190000Y-45910000D01*
X103050000Y-46100000D01*
G37*
%TO.C,C11*%
X90340000Y-60982164D02*
X90340000Y-61197836D01*
X91060000Y-60982164D02*
X91060000Y-61197836D01*
%TO.C,C18*%
X100240000Y-63492164D02*
X100240000Y-63707836D01*
X100960000Y-63492164D02*
X100960000Y-63707836D01*
%TO.C,D1*%
X89715000Y-44040000D02*
X89715000Y-45960000D01*
X89715000Y-45960000D02*
X92400000Y-45960000D01*
X92400000Y-44040000D02*
X89715000Y-44040000D01*
%TO.C,U8*%
X106440000Y-60490000D02*
X106490000Y-60490000D01*
X106440000Y-62310000D02*
X106440000Y-60490000D01*
X106490000Y-62310000D02*
X106440000Y-62310000D01*
X107610000Y-60490000D02*
X108390000Y-60490000D01*
X109510000Y-60490000D02*
X109560000Y-60490000D01*
X109560000Y-60490000D02*
X109560000Y-62310000D01*
X109560000Y-62310000D02*
X109510000Y-62310000D01*
X106490000Y-62850000D02*
X106160000Y-63090000D01*
X106160000Y-62610000D01*
X106490000Y-62850000D01*
G36*
X106490000Y-62850000D02*
G01*
X106160000Y-63090000D01*
X106160000Y-62610000D01*
X106490000Y-62850000D01*
G37*
%TO.C,J2*%
X80670000Y-40920000D02*
X82000000Y-40920000D01*
X80670000Y-42250000D02*
X80670000Y-40920000D01*
X83270000Y-40920000D02*
X98570000Y-40920000D01*
X83270000Y-43580000D02*
X83270000Y-40920000D01*
X83270000Y-43580000D02*
X98570000Y-43580000D01*
X98570000Y-43580000D02*
X98570000Y-40920000D01*
%TO.C,J5*%
X80780000Y-65580000D02*
X91220000Y-65580000D01*
X80780000Y-67900000D02*
X80780000Y-65580000D01*
X80780000Y-80820000D02*
X80780000Y-68500000D01*
X81400000Y-65580000D02*
X81400000Y-80820000D01*
X82500000Y-65580000D02*
X82500000Y-80820000D01*
X91220000Y-65580000D02*
X91220000Y-80820000D01*
X91220000Y-80820000D02*
X80780000Y-80820000D01*
X80780000Y-68200000D02*
X80170000Y-68640000D01*
X80170000Y-67760000D01*
X80780000Y-68200000D01*
G36*
X80780000Y-68200000D02*
G01*
X80170000Y-68640000D01*
X80170000Y-67760000D01*
X80780000Y-68200000D01*
G37*
%TO.C,C17*%
X104507836Y-61540000D02*
X104292164Y-61540000D01*
X104507836Y-62260000D02*
X104292164Y-62260000D01*
%TO.C,C20*%
X97587836Y-62040000D02*
X97372164Y-62040000D01*
X97587836Y-62760000D02*
X97372164Y-62760000D01*
%TO.C,U6*%
X91640000Y-58840000D02*
X92640000Y-58840000D01*
X91640000Y-60360000D02*
X91640000Y-58840000D01*
X91690000Y-60360000D02*
X91640000Y-60360000D01*
X93590000Y-60360000D02*
X92810000Y-60360000D01*
X93760000Y-58840000D02*
X94760000Y-58840000D01*
X94760000Y-58840000D02*
X94760000Y-60360000D01*
X94760000Y-60360000D02*
X94710000Y-60360000D01*
X92820000Y-60900000D02*
X93150000Y-60660000D01*
X93150000Y-61140000D01*
X92820000Y-60900000D01*
G36*
X93150000Y-61140000D02*
G01*
X92820000Y-60900000D01*
X93150000Y-60660000D01*
X93150000Y-61140000D01*
G37*
%TO.C,C12*%
X89112164Y-63980000D02*
X89327836Y-63980000D01*
X89112164Y-64700000D02*
X89327836Y-64700000D01*
%TO.C,C3*%
X94892164Y-54002500D02*
X95107836Y-54002500D01*
X94892164Y-54722500D02*
X95107836Y-54722500D01*
%TO.C,U10*%
X98902500Y-57640000D02*
X100422500Y-57640000D01*
X98902500Y-57690000D02*
X98902500Y-57640000D01*
X98902500Y-59590000D02*
X98902500Y-58810000D01*
X98902500Y-60760000D02*
X98902500Y-60710000D01*
X100422500Y-57640000D02*
X100422500Y-58640000D01*
X100422500Y-59760000D02*
X100422500Y-60760000D01*
X100422500Y-60760000D02*
X98902500Y-60760000D01*
X98362500Y-58820000D02*
X98602500Y-59150000D01*
X98122500Y-59150000D01*
X98362500Y-58820000D01*
G36*
X98602500Y-59150000D02*
G01*
X98122500Y-59150000D01*
X98362500Y-58820000D01*
X98602500Y-59150000D01*
G37*
%TO.C,R17*%
X104246359Y-60420000D02*
X104553641Y-60420000D01*
X104246359Y-61180000D02*
X104553641Y-61180000D01*
%TO.C,C4*%
X99207836Y-46840000D02*
X98992164Y-46840000D01*
X99207836Y-47560000D02*
X98992164Y-47560000D01*
%TO.C,R13*%
X96270000Y-55163641D02*
X96270000Y-54856359D01*
X97030000Y-55163641D02*
X97030000Y-54856359D01*
%TO.C,R12*%
X83246359Y-45370000D02*
X83553641Y-45370000D01*
X83246359Y-46130000D02*
X83553641Y-46130000D01*
%TO.C,R8*%
X102246359Y-48620000D02*
X102553641Y-48620000D01*
X102246359Y-49380000D02*
X102553641Y-49380000D01*
%TO.C,R15*%
X90420000Y-63846359D02*
X90420000Y-64153641D01*
X91180000Y-63846359D02*
X91180000Y-64153641D01*
%TO.C,R5*%
X104746359Y-49720000D02*
X105053641Y-49720000D01*
X104746359Y-50480000D02*
X105053641Y-50480000D01*
%TO.C,U4*%
X81000000Y-60080000D02*
X81050000Y-60080000D01*
X81000000Y-61900000D02*
X81000000Y-60080000D01*
X81050000Y-61900000D02*
X81000000Y-61900000D01*
X82170000Y-60080000D02*
X82950000Y-60080000D01*
X84070000Y-60080000D02*
X84120000Y-60080000D01*
X84120000Y-60080000D02*
X84120000Y-61900000D01*
X84120000Y-61900000D02*
X84070000Y-61900000D01*
X81050000Y-62440000D02*
X80720000Y-62680000D01*
X80720000Y-62200000D01*
X81050000Y-62440000D01*
G36*
X81050000Y-62440000D02*
G01*
X80720000Y-62680000D01*
X80720000Y-62200000D01*
X81050000Y-62440000D01*
G37*
%TO.C,R16*%
X97470000Y-55203641D02*
X97470000Y-54896359D01*
X98230000Y-55203641D02*
X98230000Y-54896359D01*
%TO.C,R1*%
X80670000Y-51346359D02*
X80670000Y-51653641D01*
X81430000Y-51346359D02*
X81430000Y-51653641D01*
%TO.C,R2*%
X87620000Y-48246359D02*
X87620000Y-48553641D01*
X88380000Y-48246359D02*
X88380000Y-48553641D01*
%TO.C,U3*%
D12*
X81808400Y-47929100D02*
X81808400Y-52170900D01*
X87091600Y-52170900D02*
X87091600Y-47929100D01*
D13*
X81386803Y-53050000D02*
G75*
G02*
X81113197Y-53050000I-136803J0D01*
G01*
X81113197Y-53050000D02*
G75*
G02*
X81386803Y-53050000I136803J0D01*
G01*
%TO.C,C2*%
D11*
X92142164Y-54002500D02*
X92357836Y-54002500D01*
X92142164Y-54722500D02*
X92357836Y-54722500D01*
%TO.C,C8*%
X80940000Y-46607836D02*
X80940000Y-46392164D01*
X81660000Y-46607836D02*
X81660000Y-46392164D01*
%TO.C,C14*%
X94240000Y-63907836D02*
X94240000Y-63692164D01*
X94960000Y-63907836D02*
X94960000Y-63692164D01*
%TO.C,R3*%
X87620000Y-50396359D02*
X87620000Y-50703641D01*
X88380000Y-50396359D02*
X88380000Y-50703641D01*
%TO.C,R6*%
X102553641Y-47520000D02*
X102246359Y-47520000D01*
X102553641Y-48280000D02*
X102246359Y-48280000D01*
%TO.C,C1*%
X91140000Y-48092164D02*
X91140000Y-48307836D01*
X91860000Y-48092164D02*
X91860000Y-48307836D01*
%TO.C,R14*%
X92446359Y-61820000D02*
X92753641Y-61820000D01*
X92446359Y-62580000D02*
X92753641Y-62580000D01*
%TO.C,R9*%
X94620000Y-46153641D02*
X94620000Y-45846359D01*
X95380000Y-46153641D02*
X95380000Y-45846359D01*
%TO.C,U7*%
X93035000Y-63035000D02*
X92035000Y-63035000D01*
X93035000Y-64815000D02*
X92035000Y-64815000D01*
D10*
X91750000Y-63105000D02*
G75*
G02*
X91600000Y-63105000I-75000J0D01*
G01*
X91600000Y-63105000D02*
G75*
G02*
X91750000Y-63105000I75000J0D01*
G01*
%TD*%
M02*
