%TF.GenerationSoftware,KiCad,Pcbnew,10.0.6*%
%TF.CreationDate,2026-10-06T17:11:12-04:00*%
%TF.ProjectId,launch-relay,6c61756e-6368-42d7-9265-6c61792e6b69,rev?*%
%TF.SameCoordinates,Original*%
%TF.FileFunction,Copper,L2,Inr*%
%TF.FilePolarity,Positive*%
%FSLAX46Y46*%
G04 Gerber Fmt 4.6, Leading zero omitted, Abs format (unit mm)*
G04 Created by KiCad (PCBNEW 10.0.6) date 2026-10-06 17:11:12*
%MOMM*%
%LPD*%
G01*
G04 APERTURE LIST*
G04 Aperture macros list*
%AMRoundRect*
0 Rectangle with rounded corners*
0 $1 Rounding radius*
0 $2 $3 $4 $5 $6 $7 $8 $9 X,Y pos of 4 corners*
0 Add a 4 corners polygon primitive as box body*
4,1,4,$2,$3,$4,$5,$6,$7,$8,$9,$2,$3,0*
0 Add four circle primitives for the rounded corners*
1,1,$1+$1,$2,$3*
1,1,$1+$1,$4,$5*
1,1,$1+$1,$6,$7*
1,1,$1+$1,$8,$9*
0 Add four rect primitives between the rounded corners*
20,1,$1+$1,$2,$3,$4,$5,0*
20,1,$1+$1,$4,$5,$6,$7,0*
20,1,$1+$1,$6,$7,$8,$9,0*
20,1,$1+$1,$8,$9,$2,$3,0*%
G04 Aperture macros list end*
%TA.AperFunction,ComponentPad*%
%ADD10RoundRect,0.250001X0.949999X-0.949999X0.949999X0.949999X-0.949999X0.949999X-0.949999X-0.949999X0*%
%TD*%
%TA.AperFunction,ComponentPad*%
%ADD11C,2.400000*%
%TD*%
%TA.AperFunction,ComponentPad*%
%ADD12R,1.700000X1.700000*%
%TD*%
%TA.AperFunction,ComponentPad*%
%ADD13C,1.700000*%
%TD*%
%TA.AperFunction,ComponentPad*%
%ADD14RoundRect,0.250001X-0.949999X0.949999X-0.949999X-0.949999X0.949999X-0.949999X0.949999X0.949999X0*%
%TD*%
%TA.AperFunction,ComponentPad*%
%ADD15C,1.288000*%
%TD*%
%TA.AperFunction,ViaPad*%
%ADD16C,0.600000*%
%TD*%
%TA.AperFunction,ViaPad*%
%ADD17C,0.900000*%
%TD*%
G04 APERTURE END LIST*
D10*
%TO.N,/Circuit Switch2/V_BATT*%
%TO.C,J6*%
X103800000Y-78200000D03*
D11*
%TO.N,/Circuit Switch2/BATT_GND_IN*%
X103800000Y-73200000D03*
%TO.N,/Circuit Switch2/BATT_GND*%
X103800000Y-68200000D03*
%TD*%
D12*
%TO.N,+3V0*%
%TO.C,J1*%
X105250000Y-42250000D03*
D13*
%TO.N,Net-(J1-Pin_2)*%
X107790000Y-42250000D03*
%TD*%
D12*
%TO.N,GND*%
%TO.C,J2*%
X82000000Y-42250000D03*
D13*
%TO.N,/DEBUG_JTMS-SWDIO*%
X84540000Y-42250000D03*
%TO.N,/DEBUG_JTCK-SWCLK*%
X87080000Y-42250000D03*
%TO.N,GND*%
X89620000Y-42250000D03*
%TO.N,/USART1_TX*%
X92160000Y-42250000D03*
%TO.N,/USART1_RX*%
X94700000Y-42250000D03*
%TO.N,/DUMP*%
X97240000Y-42250000D03*
%TD*%
D14*
%TO.N,/Circuit Switch1/BATT_GND*%
%TO.C,J5*%
X86300000Y-68200000D03*
D11*
%TO.N,/Circuit Switch1/BATT_GND_IN*%
X86300000Y-73200000D03*
%TO.N,/Circuit Switch1/V_BATT*%
X86300000Y-78200000D03*
%TD*%
D15*
%TO.N,GND*%
%TO.C,BT1*%
X81540000Y-54750000D03*
%TO.N,Net-(J1-Pin_2)*%
X108460000Y-53735000D03*
X108460000Y-55765000D03*
%TD*%
D16*
%TO.N,+3V0*%
X105400000Y-51200000D03*
X81120000Y-47700000D03*
X98000000Y-47800000D03*
X93400000Y-54000000D03*
X86600000Y-54800000D03*
X84800000Y-44400000D03*
X82270000Y-46230000D03*
X90800000Y-48400000D03*
X99780000Y-53830000D03*
X103600000Y-42600000D03*
X95400000Y-55200000D03*
X81000000Y-50200000D03*
X102800000Y-46800000D03*
X101200000Y-48000000D03*
%TO.N,/Circuit Switch1/BATT_GND*%
X83150000Y-58000000D03*
D17*
X90184310Y-66943246D03*
X88923874Y-68600000D03*
D16*
X93800000Y-64700000D03*
D17*
X91463874Y-68600000D03*
X88896518Y-66962277D03*
D16*
X89710000Y-57350000D03*
X87200000Y-60000000D03*
D17*
X87169429Y-66338428D03*
D16*
X91510000Y-60660000D03*
D17*
X91453071Y-66949589D03*
D16*
X82600000Y-63400000D03*
X91600000Y-65000000D03*
X87930000Y-64180000D03*
D17*
X90171622Y-68589293D03*
X85243488Y-66311302D03*
D16*
%TO.N,/Circuit Switch1/5.0V_BATT*%
X94600000Y-62600000D03*
X92400000Y-58200000D03*
X81610000Y-59852500D03*
X81600000Y-58700000D03*
X89700000Y-61700000D03*
X93110000Y-62890000D03*
%TO.N,/Circuit Switch2/5.0V_BATT*%
X107400000Y-59200000D03*
X100600000Y-59200000D03*
X97200000Y-61600000D03*
X97200000Y-65200000D03*
X107050000Y-60262500D03*
X101500000Y-65100000D03*
X105600000Y-61000000D03*
%TO.N,/Circuit Switch2/BATT_GND*%
X102000000Y-58000000D03*
X108800000Y-59200000D03*
D17*
X98800000Y-70600000D03*
D16*
X102700000Y-65200000D03*
X100000000Y-57400000D03*
D17*
X101800000Y-67400000D03*
D16*
X108206250Y-61006250D03*
D17*
X98800000Y-69000000D03*
D16*
X105400000Y-62700000D03*
D17*
X97400000Y-69000000D03*
D16*
X100800000Y-62400000D03*
D17*
X101800000Y-69000000D03*
X100000000Y-70600000D03*
X97400000Y-70600000D03*
X100000000Y-69000000D03*
D16*
X98600000Y-61800000D03*
%TO.N,GND*%
X101800000Y-51800000D03*
X92400000Y-53400000D03*
X94200000Y-49600000D03*
X98187500Y-45150000D03*
X87000000Y-45000000D03*
X90400000Y-45000000D03*
X96200000Y-49600000D03*
X101800000Y-42000000D03*
X94200000Y-51600000D03*
X103000000Y-45800000D03*
X88115000Y-53850000D03*
X90800000Y-47600000D03*
X98900000Y-48300000D03*
X96200000Y-51600000D03*
X94000000Y-55000000D03*
X86355000Y-52774150D03*
X81800000Y-45400000D03*
X95250000Y-50550000D03*
%TO.N,/DUMP*%
X97240000Y-46200000D03*
%TO.N,/USART1_TX*%
X95921092Y-46478908D03*
%TO.N,/USART1_RX*%
X95499999Y-47200000D03*
%TO.N,/SPI3_MISO*%
X90000000Y-50800000D03*
X91800000Y-49800000D03*
D17*
%TO.N,/Circuit Switch2/BATT_GND_IN*%
X101800000Y-76000000D03*
X100200000Y-72200000D03*
X98600000Y-76000000D03*
X98600000Y-74000000D03*
X100200000Y-76000000D03*
X103000000Y-75200000D03*
X100200000Y-74000000D03*
X97000000Y-72200000D03*
X97000000Y-74000000D03*
X101800000Y-72200000D03*
X98600000Y-72200000D03*
X104600000Y-75200000D03*
X97000000Y-76000000D03*
X101800000Y-74000000D03*
D16*
%TO.N,Net-(U11-Q)*%
X96775398Y-63215639D03*
%TO.N,Net-(Q1-G)*%
X92800000Y-67400000D03*
D17*
%TO.N,/Circuit Switch1/BATT_GND_IN*%
X85400000Y-71400000D03*
X91000000Y-71800000D03*
X89000000Y-71800000D03*
X91000000Y-73400000D03*
X92800000Y-73400000D03*
X92800000Y-70200000D03*
X92800000Y-75000000D03*
X92800000Y-71800000D03*
X89000000Y-73400000D03*
X85400000Y-75000000D03*
X91000000Y-70200000D03*
X87000000Y-75000000D03*
X89000000Y-75000000D03*
X91000000Y-75000000D03*
X89000000Y-70200000D03*
X87000000Y-71400000D03*
%TD*%
%TA.AperFunction,Conductor*%
%TO.N,/Circuit Switch1/BATT_GND_IN*%
G36*
X84754310Y-69619685D02*
G01*
X84774952Y-69636318D01*
X84881345Y-69742711D01*
X84881347Y-69742712D01*
X84881348Y-69742713D01*
X85030662Y-69834812D01*
X85030664Y-69834813D01*
X85030666Y-69834814D01*
X85197203Y-69889999D01*
X85299992Y-69900500D01*
X85299997Y-69900500D01*
X87300003Y-69900500D01*
X87300008Y-69900500D01*
X87402797Y-69889999D01*
X87569334Y-69834814D01*
X87718655Y-69742711D01*
X87825048Y-69636318D01*
X87886371Y-69602834D01*
X87912729Y-69600000D01*
X93676000Y-69600000D01*
X93743039Y-69619685D01*
X93788794Y-69672489D01*
X93800000Y-69724000D01*
X93800000Y-75476000D01*
X93780315Y-75543039D01*
X93727511Y-75588794D01*
X93676000Y-75600000D01*
X84524000Y-75600000D01*
X84456961Y-75580315D01*
X84411206Y-75527511D01*
X84400000Y-75476000D01*
X84400000Y-69724000D01*
X84419685Y-69656961D01*
X84472489Y-69611206D01*
X84524000Y-69600000D01*
X84687271Y-69600000D01*
X84754310Y-69619685D01*
G37*
%TD.AperFunction*%
%TD*%
%TA.AperFunction,Conductor*%
%TO.N,/Circuit Switch2/BATT_GND_IN*%
G36*
X105393106Y-71205023D02*
G01*
X105408104Y-71209427D01*
X105466855Y-71247172D01*
X105468042Y-71248541D01*
X105495518Y-71303402D01*
X105497163Y-71310960D01*
X105500000Y-71337331D01*
X105500000Y-76358170D01*
X105494975Y-76393114D01*
X105490570Y-76408112D01*
X105452827Y-76466855D01*
X105451458Y-76468042D01*
X105396597Y-76495518D01*
X105389039Y-76497163D01*
X105362668Y-76500000D01*
X104814387Y-76500000D01*
X104808067Y-76499839D01*
X104772673Y-76498032D01*
X104755236Y-76499500D01*
X102844268Y-76499500D01*
X102837503Y-76497513D01*
X102791932Y-76499839D01*
X102785613Y-76500000D01*
X96141830Y-76500000D01*
X96106889Y-76494975D01*
X96091890Y-76490570D01*
X96033144Y-76452827D01*
X96031957Y-76451458D01*
X96004477Y-76396583D01*
X96002832Y-76389021D01*
X96000000Y-76362668D01*
X96000000Y-71829500D01*
X96019685Y-71762461D01*
X96072489Y-71716706D01*
X96124000Y-71705500D01*
X100800000Y-71705500D01*
X100871940Y-71700355D01*
X101009992Y-71659819D01*
X101131032Y-71582031D01*
X101225254Y-71473294D01*
X101285024Y-71342416D01*
X101290209Y-71306353D01*
X101319234Y-71242798D01*
X101378012Y-71205023D01*
X101412947Y-71200000D01*
X105358170Y-71200000D01*
X105393106Y-71205023D01*
G37*
%TD.AperFunction*%
%TD*%
%TA.AperFunction,Conductor*%
%TO.N,/Circuit Switch1/BATT_GND*%
G36*
X92000000Y-67318639D02*
G01*
X91999500Y-67321153D01*
X91999500Y-67478846D01*
X92000000Y-67481359D01*
X92000000Y-69094500D01*
X87912727Y-69094500D01*
X87858678Y-69097397D01*
X87858677Y-69097397D01*
X87832344Y-69100229D01*
X87832317Y-69100232D01*
X87778927Y-69108884D01*
X87778921Y-69108885D01*
X87644125Y-69159160D01*
X87644118Y-69159163D01*
X87589285Y-69189103D01*
X87588176Y-69189626D01*
X87582790Y-69192649D01*
X87467611Y-69278871D01*
X87467605Y-69278877D01*
X87413239Y-69333241D01*
X87390656Y-69351096D01*
X87366580Y-69365946D01*
X87340491Y-69378112D01*
X87309238Y-69388469D01*
X87282866Y-69394119D01*
X87280966Y-69394313D01*
X87280560Y-69394355D01*
X87267927Y-69395000D01*
X85332073Y-69395000D01*
X85319459Y-69394357D01*
X85317151Y-69394121D01*
X85290760Y-69388469D01*
X85259509Y-69378113D01*
X85233417Y-69365946D01*
X85209340Y-69351095D01*
X85186756Y-69333238D01*
X85132407Y-69278889D01*
X85132375Y-69278858D01*
X85109296Y-69258128D01*
X85092122Y-69242702D01*
X85071480Y-69226069D01*
X85027607Y-69194433D01*
X85027608Y-69194433D01*
X85027606Y-69194432D01*
X85027604Y-69194431D01*
X84896736Y-69134664D01*
X84896731Y-69134662D01*
X84896730Y-69134662D01*
X84829691Y-69114977D01*
X84829693Y-69114977D01*
X84829688Y-69114976D01*
X84767618Y-69106052D01*
X84687271Y-69094500D01*
X84687269Y-69094500D01*
X84524010Y-69094500D01*
X84524000Y-69094500D01*
X84523991Y-69094500D01*
X84523990Y-69094501D01*
X84416549Y-69106052D01*
X84416537Y-69106054D01*
X84400000Y-69109651D01*
X84400000Y-65600000D01*
X92000000Y-65600000D01*
X92000000Y-67318639D01*
G37*
%TD.AperFunction*%
%TD*%
%TA.AperFunction,Conductor*%
%TO.N,/Circuit Switch2/BATT_GND*%
G36*
X105500000Y-69600000D02*
G01*
X100800000Y-69600000D01*
X100800000Y-71200000D01*
X96000000Y-71200000D01*
X96000000Y-67600000D01*
X99800000Y-67600000D01*
X100600000Y-66800000D01*
X105500000Y-66800000D01*
X105500000Y-69600000D01*
G37*
%TD.AperFunction*%
%TD*%
%TA.AperFunction,Conductor*%
%TO.N,GND*%
G36*
X81141837Y-54897122D02*
G01*
X81197770Y-54938994D01*
X81205889Y-54951303D01*
X81227918Y-54989458D01*
X81227921Y-54989462D01*
X81227923Y-54989465D01*
X81300535Y-55062077D01*
X81338697Y-55084110D01*
X81386911Y-55134677D01*
X81400133Y-55203284D01*
X81374165Y-55268148D01*
X81364376Y-55279177D01*
X80925762Y-55717789D01*
X80925762Y-55717790D01*
X80925762Y-55717791D01*
X80940411Y-55728434D01*
X81100856Y-55810186D01*
X81100859Y-55810187D01*
X81100861Y-55810187D01*
X81100862Y-55810188D01*
X81231298Y-55852569D01*
X81288973Y-55892006D01*
X81316172Y-55956365D01*
X81304258Y-56025211D01*
X81257014Y-56076687D01*
X81192980Y-56094500D01*
X80637835Y-56094500D01*
X80637832Y-56094500D01*
X80636021Y-56094597D01*
X80631126Y-56094859D01*
X80563131Y-56078785D01*
X80514619Y-56028501D01*
X80500500Y-55971036D01*
X80500500Y-55505137D01*
X80505522Y-55470204D01*
X80512934Y-55444959D01*
X80544228Y-55392217D01*
X81010824Y-54925621D01*
X81072145Y-54892138D01*
X81141837Y-54897122D01*
G37*
%TD.AperFunction*%
%TA.AperFunction,Conductor*%
G36*
X107997782Y-35800579D02*
G01*
X108001100Y-35800697D01*
X108002207Y-35800737D01*
X108006624Y-35800973D01*
X108200146Y-35814814D01*
X108208916Y-35815756D01*
X108217713Y-35817021D01*
X108226370Y-35818584D01*
X108409465Y-35858413D01*
X108418038Y-35860600D01*
X108426506Y-35863087D01*
X108434896Y-35865878D01*
X108610475Y-35931366D01*
X108618640Y-35934749D01*
X108626666Y-35938414D01*
X108634570Y-35942369D01*
X108747495Y-36004032D01*
X108799013Y-36032163D01*
X108806630Y-36036682D01*
X108814078Y-36041469D01*
X108821344Y-36046515D01*
X108971312Y-36158779D01*
X108978204Y-36164333D01*
X108984893Y-36170129D01*
X108991372Y-36176161D01*
X109123837Y-36308626D01*
X109129869Y-36315105D01*
X109135665Y-36321794D01*
X109141219Y-36328686D01*
X109253483Y-36478654D01*
X109258529Y-36485920D01*
X109263316Y-36493368D01*
X109267835Y-36500985D01*
X109357620Y-36665413D01*
X109361577Y-36673317D01*
X109365256Y-36681372D01*
X109368640Y-36689542D01*
X109434111Y-36865080D01*
X109436906Y-36873478D01*
X109439398Y-36881965D01*
X109441587Y-36890542D01*
X109481407Y-37073595D01*
X109482978Y-37082297D01*
X109484238Y-37091056D01*
X109485185Y-37099865D01*
X109499026Y-37293371D01*
X109499263Y-37297791D01*
X109499421Y-37302214D01*
X109499500Y-37306641D01*
X109499500Y-52838740D01*
X109494476Y-52873678D01*
X109491289Y-52884531D01*
X109453514Y-52943308D01*
X109389957Y-52972331D01*
X109320807Y-52962390D01*
X109313829Y-52959203D01*
X109277659Y-52934091D01*
X109205590Y-52862022D01*
X109205585Y-52862018D01*
X109173545Y-52838740D01*
X109067743Y-52761870D01*
X109067410Y-52761586D01*
X109059842Y-52756130D01*
X109059478Y-52755947D01*
X108899336Y-52674350D01*
X108899332Y-52674349D01*
X108899329Y-52674347D01*
X108854902Y-52659911D01*
X108854902Y-52659912D01*
X108728004Y-52618679D01*
X108550084Y-52590500D01*
X108550079Y-52590500D01*
X108550074Y-52590500D01*
X108369926Y-52590500D01*
X108369921Y-52590500D01*
X108369916Y-52590500D01*
X108192000Y-52618679D01*
X108191998Y-52618679D01*
X108191995Y-52618680D01*
X108020661Y-52674351D01*
X107871318Y-52750445D01*
X107860143Y-52756140D01*
X107714431Y-52862005D01*
X107714402Y-52862027D01*
X107587027Y-52989402D01*
X107587005Y-52989431D01*
X107481140Y-53135143D01*
X107481138Y-53135147D01*
X107399351Y-53295661D01*
X107348932Y-53450833D01*
X107343680Y-53466996D01*
X107315500Y-53644914D01*
X107315500Y-53825084D01*
X107330717Y-53921158D01*
X107343680Y-54003004D01*
X107363333Y-54063489D01*
X107375318Y-54100373D01*
X107399351Y-54174340D01*
X107468911Y-54310858D01*
X107481134Y-54334846D01*
X107481136Y-54334849D01*
X107481138Y-54334852D01*
X107485088Y-54340289D01*
X107587005Y-54480568D01*
X107587027Y-54480596D01*
X107714400Y-54607969D01*
X107714408Y-54607976D01*
X107714409Y-54607977D01*
X107714414Y-54607981D01*
X107757386Y-54639202D01*
X107782697Y-54663801D01*
X107791172Y-54674792D01*
X107816520Y-54739902D01*
X107802644Y-54808380D01*
X107802640Y-54808387D01*
X107799379Y-54814566D01*
X107762601Y-54857007D01*
X107714421Y-54892012D01*
X107714409Y-54892021D01*
X107714400Y-54892029D01*
X107587027Y-55019402D01*
X107587005Y-55019431D01*
X107481140Y-55165143D01*
X107481138Y-55165147D01*
X107399351Y-55325661D01*
X107343680Y-55496995D01*
X107343679Y-55496998D01*
X107343679Y-55497000D01*
X107315500Y-55674914D01*
X107315500Y-55855084D01*
X107330708Y-55951102D01*
X107321754Y-56020395D01*
X107276758Y-56073847D01*
X107210006Y-56094487D01*
X107208235Y-56094500D01*
X95910922Y-56094500D01*
X95843883Y-56074815D01*
X95798128Y-56022011D01*
X95788184Y-55952853D01*
X95817209Y-55889297D01*
X95842031Y-55867398D01*
X95868030Y-55850025D01*
X95910289Y-55821789D01*
X96021789Y-55710289D01*
X96109394Y-55579179D01*
X96169737Y-55433497D01*
X96200500Y-55278842D01*
X96200500Y-55121158D01*
X96200500Y-55121155D01*
X96200500Y-55120973D01*
X96200065Y-55118972D01*
X96183061Y-55033489D01*
X96169737Y-54966503D01*
X96133427Y-54878842D01*
X96109397Y-54820827D01*
X96109390Y-54820814D01*
X96021789Y-54689711D01*
X96021786Y-54689707D01*
X96021781Y-54689701D01*
X95910297Y-54578217D01*
X95910290Y-54578211D01*
X95779191Y-54490613D01*
X95779190Y-54490612D01*
X95779185Y-54490609D01*
X95779172Y-54490602D01*
X95779165Y-54490598D01*
X95633502Y-54430264D01*
X95633471Y-54430257D01*
X95478847Y-54399500D01*
X95478845Y-54399500D01*
X95478842Y-54399500D01*
X95321158Y-54399500D01*
X95321155Y-54399500D01*
X95321153Y-54399500D01*
X95166527Y-54430257D01*
X95166496Y-54430264D01*
X95020833Y-54490598D01*
X95020824Y-54490603D01*
X95020807Y-54490613D01*
X94889709Y-54578211D01*
X94889701Y-54578217D01*
X94778217Y-54689701D01*
X94778212Y-54689707D01*
X94778211Y-54689708D01*
X94690613Y-54820807D01*
X94690603Y-54820824D01*
X94690598Y-54820833D01*
X94630264Y-54966496D01*
X94630257Y-54966527D01*
X94599500Y-55121150D01*
X94599500Y-55121153D01*
X94599500Y-55278846D01*
X94599500Y-55278848D01*
X94599499Y-55278848D01*
X94630257Y-55433471D01*
X94630264Y-55433502D01*
X94690598Y-55579165D01*
X94690603Y-55579174D01*
X94690613Y-55579191D01*
X94778211Y-55710290D01*
X94778212Y-55710291D01*
X94778217Y-55710297D01*
X94889701Y-55821781D01*
X94889707Y-55821786D01*
X94889708Y-55821787D01*
X94957969Y-55867398D01*
X95002774Y-55921010D01*
X95011481Y-55990335D01*
X94981326Y-56053363D01*
X94921883Y-56090082D01*
X94889078Y-56094500D01*
X81887021Y-56094500D01*
X81819982Y-56074815D01*
X81774227Y-56022011D01*
X81764283Y-55952853D01*
X81793308Y-55889297D01*
X81848703Y-55852569D01*
X81979112Y-55810196D01*
X81979140Y-55810187D01*
X81979143Y-55810186D01*
X82139586Y-55728435D01*
X82154236Y-55717791D01*
X82154236Y-55717790D01*
X81715622Y-55279175D01*
X81682138Y-55217854D01*
X81687122Y-55148162D01*
X81728994Y-55092229D01*
X81741297Y-55084113D01*
X81779465Y-55062077D01*
X81852077Y-54989465D01*
X81874110Y-54951302D01*
X81924675Y-54903089D01*
X81993282Y-54889865D01*
X82058147Y-54915833D01*
X82069177Y-54925623D01*
X82507790Y-55364236D01*
X82507791Y-55364236D01*
X82518435Y-55349586D01*
X82600186Y-55189143D01*
X82600187Y-55189140D01*
X82655829Y-55017891D01*
X82655829Y-55017888D01*
X82684000Y-54840033D01*
X82684000Y-54721150D01*
X85799500Y-54721150D01*
X85799500Y-54878848D01*
X85830257Y-55033471D01*
X85830261Y-55033489D01*
X85830263Y-55033500D01*
X85890598Y-55179165D01*
X85890602Y-55179172D01*
X85890608Y-55179184D01*
X85890613Y-55179191D01*
X85978211Y-55310290D01*
X85978212Y-55310291D01*
X85978217Y-55310297D01*
X86089701Y-55421781D01*
X86089707Y-55421786D01*
X86089711Y-55421789D01*
X86220814Y-55509390D01*
X86220827Y-55509397D01*
X86366498Y-55569735D01*
X86366503Y-55569737D01*
X86513513Y-55598979D01*
X86516247Y-55599703D01*
X86521155Y-55600500D01*
X86678844Y-55600500D01*
X86682964Y-55600500D01*
X86690814Y-55598118D01*
X86833497Y-55569737D01*
X86979179Y-55509394D01*
X87110289Y-55421789D01*
X87221789Y-55310289D01*
X87309394Y-55179179D01*
X87315206Y-55165147D01*
X87355603Y-55067621D01*
X87355605Y-55067614D01*
X87369737Y-55033497D01*
X87369739Y-55033489D01*
X87369740Y-55033487D01*
X87397878Y-54892022D01*
X87400500Y-54878842D01*
X87400500Y-54721158D01*
X87400500Y-54721155D01*
X87400500Y-54720971D01*
X87400064Y-54718966D01*
X87382467Y-54630500D01*
X87369737Y-54566503D01*
X87369735Y-54566498D01*
X87309397Y-54420827D01*
X87309390Y-54420814D01*
X87221789Y-54289711D01*
X87221786Y-54289707D01*
X87221781Y-54289701D01*
X87110297Y-54178217D01*
X87110291Y-54178212D01*
X87110290Y-54178211D01*
X86979191Y-54090613D01*
X86979190Y-54090612D01*
X86979185Y-54090609D01*
X86979172Y-54090602D01*
X86979165Y-54090598D01*
X86950797Y-54078848D01*
X92599499Y-54078848D01*
X92630257Y-54233471D01*
X92630264Y-54233502D01*
X92690598Y-54379165D01*
X92690603Y-54379174D01*
X92690613Y-54379191D01*
X92778211Y-54510290D01*
X92778212Y-54510291D01*
X92778217Y-54510297D01*
X92889701Y-54621781D01*
X92889707Y-54621786D01*
X92889711Y-54621789D01*
X93020814Y-54709390D01*
X93020827Y-54709397D01*
X93118853Y-54750000D01*
X93166503Y-54769737D01*
X93293453Y-54794989D01*
X93313524Y-54798981D01*
X93316250Y-54799704D01*
X93321155Y-54800500D01*
X93478844Y-54800500D01*
X93482964Y-54800500D01*
X93490814Y-54798118D01*
X93633497Y-54769737D01*
X93750790Y-54721153D01*
X93772628Y-54712107D01*
X93775416Y-54711135D01*
X93776862Y-54710466D01*
X93781530Y-54708419D01*
X93790791Y-54704583D01*
X93799675Y-54695698D01*
X93910289Y-54621789D01*
X94021789Y-54510289D01*
X94109394Y-54379179D01*
X94169737Y-54233497D01*
X94200500Y-54078842D01*
X94200500Y-53921158D01*
X94200500Y-53921155D01*
X94200500Y-53921153D01*
X94200500Y-53921152D01*
X94198052Y-53908848D01*
X98979499Y-53908848D01*
X99010257Y-54063471D01*
X99010264Y-54063502D01*
X99070598Y-54209165D01*
X99070603Y-54209174D01*
X99070613Y-54209191D01*
X99158211Y-54340290D01*
X99158212Y-54340291D01*
X99158217Y-54340297D01*
X99269701Y-54451781D01*
X99269707Y-54451786D01*
X99269711Y-54451789D01*
X99400814Y-54539390D01*
X99400827Y-54539397D01*
X99494534Y-54578211D01*
X99546503Y-54599737D01*
X99546505Y-54599737D01*
X99546510Y-54599739D01*
X99657325Y-54621781D01*
X99693513Y-54628979D01*
X99696247Y-54629703D01*
X99701155Y-54630500D01*
X99858844Y-54630500D01*
X99862964Y-54630500D01*
X99870814Y-54628118D01*
X100013497Y-54599737D01*
X100159179Y-54539394D01*
X100290289Y-54451789D01*
X100401789Y-54340289D01*
X100489394Y-54209179D01*
X100549737Y-54063497D01*
X100580500Y-53908842D01*
X100580500Y-53751158D01*
X100580500Y-53751155D01*
X100580500Y-53750971D01*
X100580064Y-53748966D01*
X100549739Y-53596510D01*
X100549736Y-53596501D01*
X100505501Y-53489708D01*
X100496094Y-53466996D01*
X100489397Y-53450827D01*
X100489390Y-53450814D01*
X100401789Y-53319711D01*
X100401786Y-53319707D01*
X100401781Y-53319701D01*
X100290297Y-53208217D01*
X100290291Y-53208212D01*
X100290290Y-53208211D01*
X100159191Y-53120613D01*
X100159190Y-53120612D01*
X100159185Y-53120609D01*
X100159172Y-53120602D01*
X100159165Y-53120598D01*
X100013502Y-53060264D01*
X100013471Y-53060257D01*
X99858847Y-53029500D01*
X99858845Y-53029500D01*
X99858842Y-53029500D01*
X99701158Y-53029500D01*
X99701155Y-53029500D01*
X99701153Y-53029500D01*
X99546527Y-53060257D01*
X99546496Y-53060264D01*
X99400833Y-53120598D01*
X99400824Y-53120603D01*
X99400807Y-53120613D01*
X99269708Y-53208211D01*
X99269707Y-53208212D01*
X99269701Y-53208217D01*
X99158217Y-53319701D01*
X99158212Y-53319707D01*
X99158211Y-53319708D01*
X99070613Y-53450807D01*
X99070603Y-53450824D01*
X99070598Y-53450833D01*
X99010264Y-53596496D01*
X99010257Y-53596527D01*
X98979500Y-53751150D01*
X98979500Y-53751153D01*
X98979500Y-53908846D01*
X98979500Y-53908848D01*
X98979499Y-53908848D01*
X94198052Y-53908848D01*
X94170718Y-53771434D01*
X94170002Y-53767471D01*
X94169736Y-53766500D01*
X94163380Y-53751155D01*
X94163379Y-53751153D01*
X94109400Y-53620833D01*
X94109395Y-53620824D01*
X94109390Y-53620814D01*
X94021789Y-53489711D01*
X94021786Y-53489707D01*
X94021781Y-53489701D01*
X93910297Y-53378217D01*
X93910291Y-53378212D01*
X93910290Y-53378211D01*
X93779191Y-53290613D01*
X93779190Y-53290612D01*
X93779185Y-53290609D01*
X93779172Y-53290602D01*
X93779165Y-53290598D01*
X93633502Y-53230264D01*
X93633471Y-53230257D01*
X93478847Y-53199500D01*
X93478845Y-53199500D01*
X93478842Y-53199500D01*
X93321158Y-53199500D01*
X93321155Y-53199500D01*
X93321153Y-53199500D01*
X93166527Y-53230257D01*
X93166496Y-53230264D01*
X93020833Y-53290598D01*
X93020824Y-53290603D01*
X93020807Y-53290613D01*
X92889708Y-53378211D01*
X92889707Y-53378212D01*
X92889701Y-53378217D01*
X92778217Y-53489701D01*
X92778212Y-53489707D01*
X92778211Y-53489708D01*
X92690613Y-53620807D01*
X92690603Y-53620824D01*
X92690598Y-53620833D01*
X92630264Y-53766496D01*
X92630257Y-53766527D01*
X92599500Y-53921150D01*
X92599500Y-53921152D01*
X92599500Y-53921153D01*
X92599500Y-54078846D01*
X92599500Y-54078848D01*
X92599499Y-54078848D01*
X86950797Y-54078848D01*
X86833501Y-54030264D01*
X86833489Y-54030261D01*
X86833483Y-54030259D01*
X86833471Y-54030257D01*
X86678847Y-53999500D01*
X86678845Y-53999500D01*
X86678842Y-53999500D01*
X86521158Y-53999500D01*
X86521155Y-53999500D01*
X86521153Y-53999500D01*
X86366527Y-54030257D01*
X86366496Y-54030264D01*
X86220833Y-54090598D01*
X86220824Y-54090603D01*
X86220807Y-54090613D01*
X86089708Y-54178211D01*
X86089707Y-54178212D01*
X86089701Y-54178217D01*
X85978217Y-54289701D01*
X85978212Y-54289707D01*
X85978211Y-54289708D01*
X85890613Y-54420807D01*
X85890603Y-54420824D01*
X85890598Y-54420833D01*
X85830264Y-54566496D01*
X85830257Y-54566527D01*
X85799500Y-54721150D01*
X82684000Y-54721150D01*
X82684000Y-54659966D01*
X82655829Y-54482111D01*
X82655829Y-54482108D01*
X82641473Y-54437925D01*
X82600188Y-54310861D01*
X82600187Y-54310859D01*
X82600186Y-54310856D01*
X82518434Y-54150411D01*
X82507790Y-54135762D01*
X82507789Y-54135761D01*
X82069176Y-54574375D01*
X82007853Y-54607860D01*
X81938161Y-54602876D01*
X81882228Y-54561004D01*
X81874108Y-54548694D01*
X81852077Y-54510535D01*
X81779465Y-54437923D01*
X81779463Y-54437922D01*
X81779461Y-54437920D01*
X81741303Y-54415889D01*
X81693088Y-54365321D01*
X81679867Y-54296713D01*
X81705836Y-54231849D01*
X81715618Y-54220828D01*
X82154237Y-53782209D01*
X82154237Y-53782208D01*
X82146912Y-53776886D01*
X82139588Y-53771565D01*
X81979143Y-53689813D01*
X81979140Y-53689812D01*
X81979139Y-53689811D01*
X81979136Y-53689810D01*
X81807890Y-53634170D01*
X81718961Y-53620085D01*
X81630034Y-53606000D01*
X81630033Y-53606000D01*
X81449967Y-53606000D01*
X81449966Y-53606000D01*
X81281752Y-53632643D01*
X81281744Y-53632643D01*
X81281745Y-53632644D01*
X81272104Y-53634170D01*
X81100886Y-53689802D01*
X81100857Y-53689812D01*
X80940777Y-53771377D01*
X80940443Y-53771545D01*
X80940402Y-53771569D01*
X80925762Y-53782206D01*
X80925762Y-53782208D01*
X81364376Y-54220822D01*
X81397861Y-54282145D01*
X81392877Y-54351837D01*
X81351005Y-54407770D01*
X81338697Y-54415889D01*
X81300538Y-54437920D01*
X81300532Y-54437925D01*
X81227925Y-54510532D01*
X81227920Y-54510538D01*
X81205889Y-54548697D01*
X81155321Y-54596912D01*
X81086713Y-54610133D01*
X81021849Y-54584164D01*
X81010822Y-54574376D01*
X80549425Y-54112979D01*
X80528273Y-54084723D01*
X80522117Y-54073448D01*
X80522116Y-54073447D01*
X80520183Y-54070439D01*
X80500500Y-54003402D01*
X80500500Y-51062963D01*
X80505522Y-51028030D01*
X80509433Y-51014711D01*
X80547206Y-50955934D01*
X80610758Y-50926909D01*
X80615955Y-50926162D01*
X80681046Y-50934339D01*
X80766503Y-50969737D01*
X80913513Y-50998979D01*
X80916247Y-50999703D01*
X80921155Y-51000500D01*
X81078844Y-51000500D01*
X81082964Y-51000500D01*
X81090814Y-50998118D01*
X81233497Y-50969737D01*
X81379179Y-50909394D01*
X81424894Y-50878848D01*
X89199499Y-50878848D01*
X89230257Y-51033471D01*
X89230264Y-51033502D01*
X89290598Y-51179165D01*
X89290603Y-51179174D01*
X89290613Y-51179191D01*
X89378211Y-51310290D01*
X89378212Y-51310291D01*
X89378217Y-51310297D01*
X89489701Y-51421781D01*
X89489707Y-51421786D01*
X89489711Y-51421789D01*
X89620814Y-51509390D01*
X89620827Y-51509397D01*
X89766498Y-51569735D01*
X89766503Y-51569737D01*
X89913513Y-51598979D01*
X89916247Y-51599703D01*
X89921155Y-51600500D01*
X90078844Y-51600500D01*
X90082964Y-51600500D01*
X90090814Y-51598118D01*
X90233497Y-51569737D01*
X90379179Y-51509394D01*
X90510289Y-51421789D01*
X90621789Y-51310289D01*
X90642797Y-51278848D01*
X104599499Y-51278848D01*
X104630257Y-51433471D01*
X104630264Y-51433502D01*
X104690598Y-51579165D01*
X104690603Y-51579174D01*
X104690613Y-51579191D01*
X104778211Y-51710290D01*
X104778212Y-51710291D01*
X104778217Y-51710297D01*
X104889701Y-51821781D01*
X104889707Y-51821786D01*
X104889711Y-51821789D01*
X105020814Y-51909390D01*
X105020827Y-51909397D01*
X105166498Y-51969735D01*
X105166503Y-51969737D01*
X105313513Y-51998979D01*
X105316247Y-51999703D01*
X105321155Y-52000500D01*
X105478844Y-52000500D01*
X105482964Y-52000500D01*
X105490814Y-51998118D01*
X105633497Y-51969737D01*
X105779179Y-51909394D01*
X105910289Y-51821789D01*
X106021789Y-51710289D01*
X106109394Y-51579179D01*
X106169737Y-51433497D01*
X106200500Y-51278842D01*
X106200500Y-51121158D01*
X106200500Y-51121155D01*
X106200500Y-51121154D01*
X106200500Y-51120973D01*
X106200065Y-51118972D01*
X106176499Y-51000499D01*
X106176499Y-51000496D01*
X106170380Y-50969736D01*
X106169737Y-50966503D01*
X106169735Y-50966498D01*
X106109397Y-50820827D01*
X106109390Y-50820814D01*
X106021789Y-50689711D01*
X106021786Y-50689707D01*
X106021781Y-50689701D01*
X105910297Y-50578217D01*
X105910291Y-50578212D01*
X105910290Y-50578211D01*
X105779191Y-50490613D01*
X105779190Y-50490612D01*
X105779185Y-50490609D01*
X105779172Y-50490602D01*
X105779170Y-50490601D01*
X105779165Y-50490598D01*
X105633502Y-50430264D01*
X105633471Y-50430257D01*
X105478847Y-50399500D01*
X105478845Y-50399500D01*
X105478842Y-50399500D01*
X105321158Y-50399500D01*
X105321155Y-50399500D01*
X105321153Y-50399500D01*
X105166527Y-50430257D01*
X105166496Y-50430264D01*
X105020833Y-50490598D01*
X105020829Y-50490601D01*
X105020807Y-50490613D01*
X104889708Y-50578211D01*
X104889707Y-50578212D01*
X104889701Y-50578217D01*
X104778217Y-50689701D01*
X104778212Y-50689707D01*
X104778211Y-50689708D01*
X104690613Y-50820807D01*
X104690603Y-50820824D01*
X104690598Y-50820833D01*
X104630264Y-50966496D01*
X104630257Y-50966527D01*
X104599500Y-51121150D01*
X104599500Y-51121153D01*
X104599500Y-51278846D01*
X104599500Y-51278848D01*
X104599499Y-51278848D01*
X90642797Y-51278848D01*
X90709394Y-51179179D01*
X90733427Y-51121158D01*
X90733429Y-51121154D01*
X90733429Y-51121153D01*
X90755608Y-51067608D01*
X90756960Y-51064344D01*
X90756960Y-51064341D01*
X90769737Y-51033497D01*
X90800500Y-50878842D01*
X90800500Y-50721158D01*
X90800500Y-50721155D01*
X90800500Y-50720973D01*
X90800065Y-50718972D01*
X90776499Y-50600499D01*
X90769737Y-50566503D01*
X90738298Y-50490602D01*
X90709397Y-50420827D01*
X90709390Y-50420814D01*
X90621789Y-50289711D01*
X90621786Y-50289707D01*
X90621781Y-50289701D01*
X90510297Y-50178217D01*
X90510291Y-50178212D01*
X90510290Y-50178211D01*
X90379191Y-50090613D01*
X90379190Y-50090612D01*
X90379185Y-50090609D01*
X90379172Y-50090602D01*
X90379165Y-50090598D01*
X90233502Y-50030264D01*
X90233471Y-50030257D01*
X90078847Y-49999500D01*
X90078845Y-49999500D01*
X90078842Y-49999500D01*
X89921158Y-49999500D01*
X89921155Y-49999500D01*
X89921153Y-49999500D01*
X89766527Y-50030257D01*
X89766496Y-50030264D01*
X89620833Y-50090598D01*
X89620824Y-50090603D01*
X89620807Y-50090613D01*
X89489708Y-50178211D01*
X89489707Y-50178212D01*
X89489701Y-50178217D01*
X89378217Y-50289701D01*
X89378212Y-50289707D01*
X89378211Y-50289708D01*
X89290613Y-50420807D01*
X89290603Y-50420824D01*
X89290598Y-50420833D01*
X89230264Y-50566496D01*
X89230257Y-50566527D01*
X89199500Y-50721150D01*
X89199500Y-50721153D01*
X89199500Y-50878846D01*
X89199500Y-50878848D01*
X89199499Y-50878848D01*
X81424894Y-50878848D01*
X81510289Y-50821789D01*
X81621789Y-50710289D01*
X81643275Y-50678132D01*
X81664633Y-50646170D01*
X81681420Y-50621044D01*
X81695149Y-50600499D01*
X81706453Y-50583579D01*
X81708466Y-50580831D01*
X81709979Y-50578425D01*
X81711716Y-50573572D01*
X81769737Y-50433497D01*
X81800500Y-50278842D01*
X81800500Y-50121158D01*
X81800500Y-50121155D01*
X81800500Y-50120973D01*
X81800065Y-50118972D01*
X81782419Y-50030261D01*
X81782419Y-50030260D01*
X81769738Y-49966510D01*
X81769737Y-49966503D01*
X81733427Y-49878842D01*
X81709397Y-49820827D01*
X81709390Y-49820814D01*
X81621789Y-49689711D01*
X81621786Y-49689707D01*
X81621781Y-49689701D01*
X81510297Y-49578217D01*
X81510291Y-49578212D01*
X81510285Y-49578208D01*
X81379191Y-49490613D01*
X81379190Y-49490612D01*
X81379185Y-49490609D01*
X81379172Y-49490602D01*
X81379170Y-49490601D01*
X81379165Y-49490598D01*
X81233502Y-49430264D01*
X81233471Y-49430257D01*
X81078847Y-49399500D01*
X81078845Y-49399500D01*
X81078842Y-49399500D01*
X80921158Y-49399500D01*
X80921155Y-49399500D01*
X80921153Y-49399500D01*
X80823662Y-49418892D01*
X80778490Y-49427878D01*
X80778483Y-49427878D01*
X80778484Y-49427879D01*
X80766508Y-49430261D01*
X80766507Y-49430261D01*
X80766506Y-49430261D01*
X80766503Y-49430262D01*
X80688424Y-49462603D01*
X80654230Y-49471331D01*
X80640430Y-49472815D01*
X80571670Y-49460411D01*
X80520532Y-49412802D01*
X80520527Y-49412793D01*
X80517855Y-49408289D01*
X80500500Y-49345022D01*
X80500500Y-48498633D01*
X80505521Y-48463705D01*
X80506075Y-48461816D01*
X80509358Y-48450635D01*
X80547128Y-48391858D01*
X80610682Y-48362829D01*
X80672705Y-48369775D01*
X80680424Y-48372734D01*
X80704940Y-48385419D01*
X80740812Y-48409389D01*
X80740827Y-48409397D01*
X80886498Y-48469735D01*
X80886503Y-48469737D01*
X81033513Y-48498979D01*
X81036247Y-48499703D01*
X81041155Y-48500500D01*
X81198844Y-48500500D01*
X81202964Y-48500500D01*
X81210814Y-48498118D01*
X81307692Y-48478848D01*
X89999499Y-48478848D01*
X90030257Y-48633471D01*
X90030264Y-48633502D01*
X90090598Y-48779165D01*
X90090602Y-48779172D01*
X90090608Y-48779184D01*
X90090613Y-48779191D01*
X90178211Y-48910290D01*
X90178212Y-48910291D01*
X90178217Y-48910297D01*
X90289701Y-49021781D01*
X90289707Y-49021786D01*
X90289711Y-49021789D01*
X90420814Y-49109390D01*
X90420827Y-49109397D01*
X90566498Y-49169735D01*
X90566503Y-49169737D01*
X90713513Y-49198979D01*
X90716247Y-49199703D01*
X90721155Y-49200500D01*
X90721156Y-49200500D01*
X90721158Y-49200500D01*
X90878837Y-49200500D01*
X90878843Y-49200500D01*
X90899203Y-49196449D01*
X90981749Y-49180029D01*
X91016982Y-49178140D01*
X91028253Y-49179148D01*
X91093271Y-49204729D01*
X91134138Y-49261400D01*
X91137880Y-49331163D01*
X91136117Y-49338626D01*
X91118543Y-49379007D01*
X91090610Y-49420812D01*
X91090602Y-49420826D01*
X91090597Y-49420837D01*
X91030264Y-49566496D01*
X91030257Y-49566527D01*
X90999500Y-49721150D01*
X90999500Y-49878848D01*
X91030257Y-50033471D01*
X91030264Y-50033502D01*
X91090598Y-50179165D01*
X91090603Y-50179174D01*
X91090613Y-50179191D01*
X91178211Y-50310290D01*
X91178212Y-50310291D01*
X91178217Y-50310297D01*
X91289701Y-50421781D01*
X91289707Y-50421786D01*
X91289711Y-50421789D01*
X91420814Y-50509390D01*
X91420827Y-50509397D01*
X91420829Y-50509397D01*
X91420833Y-50509400D01*
X91558678Y-50566497D01*
X91566495Y-50569734D01*
X91566506Y-50569738D01*
X91636181Y-50583597D01*
X91713513Y-50598979D01*
X91716247Y-50599703D01*
X91721155Y-50600500D01*
X91878844Y-50600500D01*
X91882964Y-50600500D01*
X91890814Y-50598118D01*
X92033497Y-50569737D01*
X92179179Y-50509394D01*
X92310289Y-50421789D01*
X92421789Y-50310289D01*
X92509394Y-50179179D01*
X92509793Y-50178217D01*
X92533429Y-50121153D01*
X92569737Y-50033497D01*
X92600500Y-49878842D01*
X92600500Y-49721158D01*
X92600500Y-49721155D01*
X92600500Y-49720971D01*
X92600064Y-49718966D01*
X92572066Y-49578210D01*
X92572065Y-49578208D01*
X92569737Y-49566503D01*
X92569734Y-49566496D01*
X92538298Y-49490602D01*
X92509397Y-49420827D01*
X92509390Y-49420814D01*
X92421789Y-49289711D01*
X92421786Y-49289707D01*
X92421781Y-49289701D01*
X92310297Y-49178217D01*
X92310291Y-49178212D01*
X92310290Y-49178211D01*
X92179191Y-49090613D01*
X92179190Y-49090612D01*
X92179185Y-49090609D01*
X92179172Y-49090602D01*
X92179165Y-49090598D01*
X92033502Y-49030264D01*
X92033471Y-49030257D01*
X91878847Y-48999500D01*
X91878845Y-48999500D01*
X91878842Y-48999500D01*
X91721158Y-48999500D01*
X91721155Y-48999500D01*
X91721152Y-48999500D01*
X91618253Y-49019968D01*
X91583012Y-49021858D01*
X91571746Y-49020850D01*
X91506727Y-48995269D01*
X91465860Y-48938598D01*
X91462116Y-48868843D01*
X91463882Y-48861369D01*
X91481454Y-48820993D01*
X91506447Y-48783588D01*
X91508467Y-48780829D01*
X91509978Y-48778426D01*
X91511710Y-48773585D01*
X91569737Y-48633497D01*
X91600500Y-48478842D01*
X91600500Y-48321158D01*
X91600500Y-48321155D01*
X91600500Y-48320973D01*
X91600065Y-48318971D01*
X91578447Y-48210291D01*
X91569737Y-48166503D01*
X91533569Y-48079185D01*
X91509397Y-48020827D01*
X91509390Y-48020814D01*
X91421789Y-47889711D01*
X91421786Y-47889707D01*
X91421781Y-47889701D01*
X91310297Y-47778217D01*
X91310291Y-47778212D01*
X91310290Y-47778211D01*
X91179191Y-47690613D01*
X91179190Y-47690612D01*
X91179185Y-47690609D01*
X91179172Y-47690602D01*
X91179165Y-47690598D01*
X91033502Y-47630264D01*
X91033471Y-47630257D01*
X90878847Y-47599500D01*
X90878845Y-47599500D01*
X90878842Y-47599500D01*
X90721158Y-47599500D01*
X90721155Y-47599500D01*
X90721153Y-47599500D01*
X90566527Y-47630257D01*
X90566496Y-47630264D01*
X90420833Y-47690598D01*
X90420824Y-47690603D01*
X90420807Y-47690613D01*
X90289708Y-47778211D01*
X90289707Y-47778212D01*
X90289701Y-47778217D01*
X90178217Y-47889701D01*
X90178212Y-47889707D01*
X90090613Y-48020807D01*
X90090603Y-48020824D01*
X90090598Y-48020833D01*
X90030264Y-48166496D01*
X90030257Y-48166527D01*
X89999500Y-48321150D01*
X89999500Y-48321153D01*
X89999500Y-48478846D01*
X89999500Y-48478848D01*
X89999499Y-48478848D01*
X81307692Y-48478848D01*
X81353497Y-48469737D01*
X81469262Y-48421786D01*
X81492634Y-48412104D01*
X81495413Y-48411136D01*
X81496854Y-48410469D01*
X81501530Y-48408419D01*
X81510791Y-48404583D01*
X81519675Y-48395698D01*
X81630289Y-48321789D01*
X81641790Y-48310288D01*
X81724694Y-48227385D01*
X81724700Y-48227379D01*
X81741788Y-48210291D01*
X81741789Y-48210289D01*
X81829394Y-48079179D01*
X81889737Y-47933497D01*
X81920500Y-47778842D01*
X81920500Y-47621158D01*
X81920500Y-47621155D01*
X81920500Y-47620973D01*
X81920065Y-47618971D01*
X81898269Y-47509396D01*
X81898268Y-47509395D01*
X81889737Y-47466503D01*
X81876067Y-47433501D01*
X81870812Y-47420813D01*
X81829402Y-47320840D01*
X81829397Y-47320827D01*
X81829390Y-47320814D01*
X81801349Y-47278848D01*
X94699498Y-47278848D01*
X94730256Y-47433471D01*
X94730263Y-47433502D01*
X94790597Y-47579165D01*
X94790602Y-47579174D01*
X94790612Y-47579191D01*
X94878210Y-47710290D01*
X94878211Y-47710291D01*
X94878216Y-47710297D01*
X94989700Y-47821781D01*
X94989706Y-47821786D01*
X94989710Y-47821789D01*
X95120813Y-47909390D01*
X95120826Y-47909397D01*
X95266497Y-47969735D01*
X95266502Y-47969737D01*
X95413512Y-47998979D01*
X95416246Y-47999703D01*
X95421154Y-48000500D01*
X95578843Y-48000500D01*
X95582963Y-48000500D01*
X95590813Y-47998118D01*
X95733496Y-47969737D01*
X95879178Y-47909394D01*
X96010288Y-47821789D01*
X96121788Y-47710289D01*
X96209393Y-47579179D01*
X96269736Y-47433497D01*
X96300499Y-47278842D01*
X96300499Y-47272257D01*
X96305521Y-47237324D01*
X96307596Y-47230257D01*
X96311433Y-47217189D01*
X96341948Y-47165232D01*
X96346656Y-47160439D01*
X96366223Y-47144233D01*
X96431381Y-47100697D01*
X96542881Y-46989197D01*
X96599089Y-46905075D01*
X96622670Y-46878823D01*
X96634667Y-46868797D01*
X96651926Y-46861286D01*
X96666565Y-46849455D01*
X96698703Y-46840919D01*
X96700507Y-46840692D01*
X96761382Y-46848335D01*
X96768579Y-46851167D01*
X96792065Y-46863453D01*
X96796638Y-46866509D01*
X96796643Y-46866511D01*
X96860821Y-46909394D01*
X96860823Y-46909395D01*
X96860827Y-46909397D01*
X96985335Y-46960969D01*
X97006503Y-46969737D01*
X97006505Y-46969737D01*
X97006510Y-46969739D01*
X97153512Y-46998979D01*
X97156247Y-46999703D01*
X97161155Y-47000500D01*
X97161156Y-47000500D01*
X97161158Y-47000500D01*
X97318844Y-47000500D01*
X97335566Y-46997173D01*
X97370803Y-46995283D01*
X97382076Y-46996291D01*
X97447093Y-47021872D01*
X97487960Y-47078543D01*
X97491702Y-47148308D01*
X97491165Y-47150581D01*
X97458168Y-47209752D01*
X97378212Y-47289707D01*
X97378209Y-47289711D01*
X97290613Y-47420807D01*
X97290610Y-47420813D01*
X97290598Y-47420833D01*
X97230264Y-47566496D01*
X97230257Y-47566527D01*
X97199500Y-47721150D01*
X97199500Y-47721153D01*
X97199500Y-47878846D01*
X97199500Y-47878848D01*
X97199499Y-47878848D01*
X97230257Y-48033471D01*
X97230264Y-48033502D01*
X97290598Y-48179165D01*
X97290603Y-48179174D01*
X97290613Y-48179191D01*
X97378212Y-48310291D01*
X97378217Y-48310297D01*
X97489701Y-48421781D01*
X97489707Y-48421786D01*
X97489711Y-48421789D01*
X97620814Y-48509390D01*
X97620827Y-48509397D01*
X97766498Y-48569735D01*
X97766503Y-48569737D01*
X97913513Y-48598979D01*
X97916247Y-48599703D01*
X97921155Y-48600500D01*
X98078844Y-48600500D01*
X98082964Y-48600500D01*
X98090814Y-48598118D01*
X98233497Y-48569737D01*
X98377011Y-48510292D01*
X98379172Y-48509397D01*
X98379172Y-48509396D01*
X98379179Y-48509394D01*
X98510289Y-48421789D01*
X98621789Y-48310289D01*
X98621790Y-48310288D01*
X98621791Y-48310287D01*
X98709390Y-48179185D01*
X98709390Y-48179184D01*
X98709394Y-48179179D01*
X98750952Y-48078848D01*
X100399499Y-48078848D01*
X100430257Y-48233471D01*
X100430264Y-48233502D01*
X100490598Y-48379165D01*
X100490603Y-48379174D01*
X100490613Y-48379191D01*
X100578211Y-48510290D01*
X100578212Y-48510291D01*
X100578217Y-48510297D01*
X100689701Y-48621781D01*
X100689707Y-48621786D01*
X100689711Y-48621789D01*
X100820814Y-48709390D01*
X100820827Y-48709397D01*
X100966498Y-48769735D01*
X100966503Y-48769737D01*
X101113513Y-48798979D01*
X101116247Y-48799703D01*
X101121155Y-48800500D01*
X101278844Y-48800500D01*
X101282964Y-48800500D01*
X101290814Y-48798118D01*
X101433497Y-48769737D01*
X101579179Y-48709394D01*
X101710289Y-48621789D01*
X101821789Y-48510289D01*
X101909394Y-48379179D01*
X101969737Y-48233497D01*
X102000500Y-48078842D01*
X102000500Y-47921158D01*
X102000500Y-47921155D01*
X102000500Y-47920971D01*
X102000064Y-47918966D01*
X101994244Y-47889707D01*
X101969738Y-47766505D01*
X101969736Y-47766501D01*
X101950955Y-47721159D01*
X101950955Y-47721158D01*
X101909400Y-47620833D01*
X101909395Y-47620824D01*
X101909390Y-47620814D01*
X101821789Y-47489711D01*
X101821786Y-47489707D01*
X101821781Y-47489701D01*
X101710297Y-47378217D01*
X101710291Y-47378212D01*
X101710290Y-47378211D01*
X101579191Y-47290613D01*
X101579190Y-47290612D01*
X101579185Y-47290609D01*
X101579172Y-47290602D01*
X101579165Y-47290598D01*
X101433502Y-47230264D01*
X101433471Y-47230257D01*
X101278847Y-47199500D01*
X101278845Y-47199500D01*
X101278842Y-47199500D01*
X101121158Y-47199500D01*
X101121155Y-47199500D01*
X101121153Y-47199500D01*
X100966527Y-47230257D01*
X100966496Y-47230264D01*
X100820833Y-47290598D01*
X100820824Y-47290603D01*
X100820807Y-47290613D01*
X100689708Y-47378211D01*
X100689707Y-47378212D01*
X100689701Y-47378217D01*
X100578217Y-47489701D01*
X100578212Y-47489707D01*
X100578211Y-47489708D01*
X100490613Y-47620807D01*
X100490603Y-47620824D01*
X100490598Y-47620833D01*
X100430264Y-47766496D01*
X100430257Y-47766527D01*
X100399500Y-47921150D01*
X100399500Y-47921153D01*
X100399500Y-48078846D01*
X100399500Y-48078848D01*
X100399499Y-48078848D01*
X98750952Y-48078848D01*
X98769737Y-48033497D01*
X98789628Y-47933501D01*
X98798107Y-47890875D01*
X98798109Y-47890867D01*
X98799294Y-47884907D01*
X98799295Y-47884907D01*
X98799296Y-47884891D01*
X98800500Y-47878844D01*
X98800500Y-47721155D01*
X98800500Y-47720973D01*
X98800065Y-47718972D01*
X98798339Y-47710297D01*
X98782419Y-47630261D01*
X98780542Y-47620827D01*
X98776025Y-47598114D01*
X98769737Y-47566503D01*
X98737929Y-47489711D01*
X98709397Y-47420827D01*
X98709390Y-47420814D01*
X98621789Y-47289711D01*
X98621786Y-47289707D01*
X98621781Y-47289701D01*
X98510297Y-47178217D01*
X98510291Y-47178212D01*
X98510290Y-47178211D01*
X98379191Y-47090613D01*
X98379190Y-47090612D01*
X98379185Y-47090609D01*
X98379172Y-47090602D01*
X98379165Y-47090598D01*
X98233502Y-47030264D01*
X98233471Y-47030257D01*
X98078847Y-46999500D01*
X98078845Y-46999500D01*
X98078842Y-46999500D01*
X97921158Y-46999500D01*
X97921157Y-46999500D01*
X97904424Y-47002828D01*
X97892298Y-47001742D01*
X97869183Y-47004715D01*
X97857386Y-47003659D01*
X97840795Y-46997130D01*
X97834833Y-46996597D01*
X97830106Y-46992925D01*
X97792369Y-46978076D01*
X97751504Y-46921403D01*
X97747177Y-46878848D01*
X101999499Y-46878848D01*
X102030257Y-47033471D01*
X102030264Y-47033502D01*
X102090598Y-47179165D01*
X102090603Y-47179174D01*
X102090613Y-47179191D01*
X102178211Y-47310290D01*
X102178212Y-47310291D01*
X102178217Y-47310297D01*
X102289701Y-47421781D01*
X102289707Y-47421786D01*
X102289711Y-47421789D01*
X102420814Y-47509390D01*
X102420827Y-47509397D01*
X102420829Y-47509397D01*
X102420833Y-47509400D01*
X102558678Y-47566497D01*
X102566495Y-47569734D01*
X102566506Y-47569738D01*
X102713512Y-47598979D01*
X102716247Y-47599703D01*
X102721155Y-47600500D01*
X102878844Y-47600500D01*
X102882964Y-47600500D01*
X102890814Y-47598118D01*
X103033497Y-47569737D01*
X103179179Y-47509394D01*
X103310289Y-47421789D01*
X103421789Y-47310289D01*
X103509394Y-47179179D01*
X103509793Y-47178217D01*
X103546079Y-47090613D01*
X103569737Y-47033497D01*
X103600500Y-46878842D01*
X103600500Y-46721158D01*
X103600500Y-46721155D01*
X103600500Y-46720973D01*
X103600065Y-46718972D01*
X103598338Y-46710289D01*
X103578224Y-46609172D01*
X103578224Y-46609169D01*
X103569738Y-46566509D01*
X103569737Y-46566503D01*
X103527068Y-46463489D01*
X103509397Y-46420827D01*
X103509390Y-46420814D01*
X103421789Y-46289711D01*
X103421786Y-46289707D01*
X103421781Y-46289701D01*
X103310297Y-46178217D01*
X103310291Y-46178212D01*
X103310290Y-46178211D01*
X103179191Y-46090613D01*
X103179190Y-46090612D01*
X103179185Y-46090609D01*
X103179172Y-46090602D01*
X103179165Y-46090598D01*
X103033502Y-46030264D01*
X103033471Y-46030257D01*
X102878847Y-45999500D01*
X102878845Y-45999500D01*
X102878842Y-45999500D01*
X102721158Y-45999500D01*
X102721155Y-45999500D01*
X102721153Y-45999500D01*
X102566527Y-46030257D01*
X102566496Y-46030264D01*
X102420833Y-46090598D01*
X102420824Y-46090603D01*
X102420807Y-46090613D01*
X102289708Y-46178211D01*
X102289707Y-46178212D01*
X102289701Y-46178217D01*
X102178217Y-46289701D01*
X102178212Y-46289707D01*
X102178211Y-46289708D01*
X102090613Y-46420807D01*
X102090603Y-46420824D01*
X102090598Y-46420833D01*
X102030264Y-46566496D01*
X102030257Y-46566527D01*
X101999500Y-46721150D01*
X101999500Y-46721153D01*
X101999500Y-46878846D01*
X101999500Y-46878848D01*
X101999499Y-46878848D01*
X97747177Y-46878848D01*
X97745595Y-46863284D01*
X97745779Y-46861944D01*
X97774400Y-46798206D01*
X97780931Y-46791145D01*
X97861789Y-46710289D01*
X97949394Y-46579179D01*
X97949793Y-46578217D01*
X97976527Y-46513674D01*
X98009737Y-46433497D01*
X98040500Y-46278842D01*
X98040500Y-46121158D01*
X98040500Y-46121155D01*
X98040500Y-46120973D01*
X98040065Y-46118972D01*
X98036238Y-46099735D01*
X98022419Y-46030261D01*
X98009737Y-45966503D01*
X98009735Y-45966498D01*
X97949397Y-45820827D01*
X97949390Y-45820814D01*
X97861789Y-45689711D01*
X97861786Y-45689707D01*
X97861781Y-45689701D01*
X97750297Y-45578217D01*
X97750291Y-45578212D01*
X97750290Y-45578211D01*
X97619191Y-45490613D01*
X97619190Y-45490612D01*
X97619185Y-45490609D01*
X97619172Y-45490602D01*
X97619165Y-45490598D01*
X97473502Y-45430264D01*
X97473471Y-45430257D01*
X97318847Y-45399500D01*
X97318845Y-45399500D01*
X97318842Y-45399500D01*
X97161158Y-45399500D01*
X97161155Y-45399500D01*
X97161153Y-45399500D01*
X97006527Y-45430257D01*
X97006496Y-45430264D01*
X96860833Y-45490598D01*
X96860824Y-45490603D01*
X96860807Y-45490613D01*
X96729708Y-45578211D01*
X96729707Y-45578212D01*
X96729701Y-45578217D01*
X96618217Y-45689701D01*
X96618212Y-45689707D01*
X96618205Y-45689717D01*
X96562005Y-45773825D01*
X96538423Y-45800079D01*
X96526429Y-45810103D01*
X96462365Y-45837990D01*
X96462324Y-45837995D01*
X96460528Y-45838220D01*
X96399726Y-45830576D01*
X96392526Y-45827744D01*
X96369033Y-45815458D01*
X96300282Y-45769520D01*
X96300277Y-45769517D01*
X96300270Y-45769512D01*
X96300258Y-45769506D01*
X96154594Y-45709172D01*
X96154563Y-45709165D01*
X95999939Y-45678408D01*
X95999937Y-45678408D01*
X95999934Y-45678408D01*
X95842250Y-45678408D01*
X95842247Y-45678408D01*
X95842245Y-45678408D01*
X95687619Y-45709165D01*
X95687588Y-45709172D01*
X95541925Y-45769506D01*
X95541916Y-45769511D01*
X95541899Y-45769521D01*
X95410800Y-45857119D01*
X95410797Y-45857122D01*
X95299309Y-45968609D01*
X95299304Y-45968615D01*
X95299303Y-45968616D01*
X95211705Y-46099715D01*
X95211695Y-46099732D01*
X95211690Y-46099741D01*
X95151356Y-46245404D01*
X95151349Y-46245435D01*
X95120592Y-46400058D01*
X95120592Y-46406648D01*
X95115568Y-46441585D01*
X95109656Y-46461718D01*
X95079142Y-46513674D01*
X95074435Y-46518466D01*
X95054865Y-46534674D01*
X94989707Y-46578211D01*
X94989704Y-46578214D01*
X94989700Y-46578217D01*
X94878216Y-46689701D01*
X94878211Y-46689707D01*
X94878210Y-46689708D01*
X94790612Y-46820807D01*
X94790602Y-46820824D01*
X94790597Y-46820833D01*
X94730263Y-46966496D01*
X94730256Y-46966527D01*
X94699499Y-47121150D01*
X94699499Y-47121153D01*
X94699499Y-47278846D01*
X94699499Y-47278848D01*
X94699498Y-47278848D01*
X81801349Y-47278848D01*
X81741789Y-47189711D01*
X81741786Y-47189707D01*
X81741781Y-47189701D01*
X81630297Y-47078217D01*
X81630291Y-47078212D01*
X81630290Y-47078211D01*
X81560674Y-47031695D01*
X81499185Y-46990609D01*
X81499172Y-46990602D01*
X81499165Y-46990598D01*
X81353502Y-46930264D01*
X81353471Y-46930257D01*
X81198847Y-46899500D01*
X81198845Y-46899500D01*
X81198842Y-46899500D01*
X81041158Y-46899500D01*
X81041155Y-46899500D01*
X81041153Y-46899500D01*
X80886527Y-46930257D01*
X80886496Y-46930264D01*
X80740833Y-46990598D01*
X80740813Y-46990609D01*
X80720926Y-47003898D01*
X80708215Y-47012390D01*
X80676370Y-47027626D01*
X80663372Y-47031695D01*
X80593514Y-47032938D01*
X80534073Y-46996214D01*
X80505399Y-46940786D01*
X80503572Y-46932731D01*
X80500500Y-46905303D01*
X80500500Y-46308848D01*
X81469499Y-46308848D01*
X81500257Y-46463471D01*
X81500264Y-46463502D01*
X81560598Y-46609165D01*
X81560601Y-46609169D01*
X81560602Y-46609172D01*
X81560609Y-46609185D01*
X81560612Y-46609190D01*
X81560613Y-46609191D01*
X81648211Y-46740290D01*
X81648212Y-46740291D01*
X81648217Y-46740297D01*
X81759701Y-46851781D01*
X81759707Y-46851786D01*
X81759711Y-46851789D01*
X81890814Y-46939390D01*
X81890827Y-46939397D01*
X82014466Y-46990609D01*
X82014467Y-46990609D01*
X82014468Y-46990610D01*
X82028922Y-46996597D01*
X82036503Y-46999737D01*
X82183512Y-47028979D01*
X82186247Y-47029703D01*
X82191155Y-47030500D01*
X82348844Y-47030500D01*
X82352642Y-47030500D01*
X82359384Y-47028411D01*
X82360056Y-47028268D01*
X82503497Y-46999737D01*
X82622541Y-46950427D01*
X82649172Y-46939397D01*
X82649172Y-46939396D01*
X82649179Y-46939394D01*
X82780289Y-46851789D01*
X82891789Y-46740289D01*
X82979394Y-46609179D01*
X83039737Y-46463497D01*
X83045705Y-46433497D01*
X83070499Y-46308846D01*
X83070500Y-46308844D01*
X83070500Y-46150973D01*
X83070065Y-46148972D01*
X83064097Y-46118972D01*
X83058455Y-46090606D01*
X83039737Y-45996503D01*
X82982003Y-45857119D01*
X82982003Y-45857118D01*
X82979402Y-45850837D01*
X82979397Y-45850828D01*
X82979395Y-45850824D01*
X82979390Y-45850814D01*
X82891789Y-45719711D01*
X82891786Y-45719707D01*
X82891781Y-45719701D01*
X82780297Y-45608217D01*
X82780291Y-45608212D01*
X82780290Y-45608211D01*
X82649191Y-45520613D01*
X82649190Y-45520612D01*
X82649185Y-45520609D01*
X82649172Y-45520602D01*
X82649165Y-45520598D01*
X82503502Y-45460264D01*
X82503471Y-45460257D01*
X82348847Y-45429500D01*
X82348845Y-45429500D01*
X82348842Y-45429500D01*
X82191158Y-45429500D01*
X82191155Y-45429500D01*
X82191153Y-45429500D01*
X82036527Y-45460257D01*
X82036496Y-45460264D01*
X81890833Y-45520598D01*
X81890824Y-45520603D01*
X81890807Y-45520613D01*
X81759708Y-45608211D01*
X81759707Y-45608212D01*
X81759701Y-45608217D01*
X81648217Y-45719701D01*
X81648212Y-45719707D01*
X81648211Y-45719708D01*
X81560613Y-45850807D01*
X81560603Y-45850824D01*
X81560598Y-45850833D01*
X81500264Y-45996496D01*
X81500257Y-45996527D01*
X81469500Y-46151150D01*
X81469500Y-46151153D01*
X81469500Y-46308846D01*
X81469500Y-46308848D01*
X81469499Y-46308848D01*
X80500500Y-46308848D01*
X80500500Y-43457098D01*
X80505521Y-43422171D01*
X80508707Y-43411318D01*
X80546477Y-43352537D01*
X80610031Y-43323508D01*
X80679186Y-43333446D01*
X80682293Y-43334865D01*
X80730044Y-43373345D01*
X80792808Y-43457185D01*
X80792810Y-43457188D01*
X80792813Y-43457191D01*
X80817669Y-43475798D01*
X80907906Y-43543350D01*
X80907913Y-43543354D01*
X81042620Y-43593596D01*
X81042627Y-43593598D01*
X81047212Y-43594091D01*
X81102138Y-43599998D01*
X81102155Y-43599999D01*
X81102172Y-43600000D01*
X81750000Y-43600000D01*
X81750000Y-42862250D01*
X81769685Y-42795211D01*
X81822489Y-42749456D01*
X81891647Y-42739512D01*
X81906093Y-42742475D01*
X81934174Y-42750000D01*
X82065825Y-42750000D01*
X82065826Y-42750000D01*
X82093905Y-42742476D01*
X82163755Y-42744137D01*
X82221618Y-42783299D01*
X82249123Y-42847527D01*
X82250000Y-42862250D01*
X82250000Y-43600000D01*
X82897828Y-43600000D01*
X82897836Y-43600000D01*
X82897847Y-43599999D01*
X82933560Y-43596158D01*
X82957372Y-43593598D01*
X82957379Y-43593596D01*
X83092086Y-43543354D01*
X83092093Y-43543350D01*
X83207187Y-43457190D01*
X83207190Y-43457187D01*
X83293350Y-43342093D01*
X83293354Y-43342086D01*
X83336192Y-43227231D01*
X83353103Y-43196260D01*
X83361422Y-43185147D01*
X83417352Y-43143276D01*
X83487042Y-43138289D01*
X83491525Y-43139264D01*
X83552850Y-43172746D01*
X83660216Y-43280112D01*
X83832183Y-43405052D01*
X83832471Y-43405197D01*
X84021588Y-43501557D01*
X84213378Y-43563873D01*
X84228162Y-43569750D01*
X84228168Y-43569752D01*
X84228168Y-43569754D01*
X84250245Y-43580217D01*
X84302393Y-43626715D01*
X84321125Y-43694026D01*
X84303325Y-43756299D01*
X84298536Y-43764241D01*
X84280029Y-43787891D01*
X84178212Y-43889707D01*
X84178209Y-43889711D01*
X84090613Y-44020807D01*
X84090603Y-44020824D01*
X84090598Y-44020833D01*
X84030264Y-44166496D01*
X84030257Y-44166527D01*
X83999500Y-44321150D01*
X83999500Y-44321153D01*
X83999500Y-44478846D01*
X83999500Y-44478848D01*
X83999499Y-44478848D01*
X84030257Y-44633471D01*
X84030264Y-44633502D01*
X84090598Y-44779165D01*
X84090603Y-44779174D01*
X84090613Y-44779191D01*
X84178211Y-44910290D01*
X84178212Y-44910291D01*
X84178217Y-44910297D01*
X84289701Y-45021781D01*
X84289707Y-45021786D01*
X84289711Y-45021789D01*
X84420814Y-45109390D01*
X84420827Y-45109397D01*
X84566498Y-45169735D01*
X84566503Y-45169737D01*
X84713513Y-45198979D01*
X84716247Y-45199703D01*
X84721155Y-45200500D01*
X84878844Y-45200500D01*
X84882964Y-45200500D01*
X84890814Y-45198118D01*
X85033497Y-45169737D01*
X85179179Y-45109394D01*
X85310289Y-45021789D01*
X85421789Y-44910289D01*
X85509394Y-44779179D01*
X85569737Y-44633497D01*
X85600500Y-44478842D01*
X85600500Y-44321158D01*
X85600500Y-44321155D01*
X85600500Y-44320973D01*
X85600065Y-44318972D01*
X85570397Y-44169824D01*
X85569994Y-44167467D01*
X85569738Y-44166508D01*
X85569737Y-44166506D01*
X85569737Y-44166503D01*
X85569735Y-44166498D01*
X85509397Y-44020827D01*
X85509390Y-44020814D01*
X85421789Y-43889711D01*
X85421786Y-43889707D01*
X85421781Y-43889701D01*
X85310297Y-43778217D01*
X85310291Y-43778212D01*
X85310290Y-43778211D01*
X85179181Y-43690606D01*
X85172875Y-43687994D01*
X85142533Y-43669991D01*
X85133607Y-43662798D01*
X85093761Y-43605410D01*
X85091265Y-43535585D01*
X85126590Y-43475800D01*
X85134731Y-43468166D01*
X85163245Y-43448141D01*
X85247816Y-43405051D01*
X85290588Y-43373976D01*
X85302999Y-43364959D01*
X85334138Y-43342335D01*
X85419786Y-43280109D01*
X85419788Y-43280106D01*
X85419792Y-43280104D01*
X85419795Y-43280100D01*
X85419847Y-43280063D01*
X85420592Y-43279303D01*
X85569290Y-43130605D01*
X85570065Y-43129845D01*
X85570124Y-43129765D01*
X85689315Y-42965712D01*
X85689319Y-42965707D01*
X85697907Y-42953885D01*
X85697908Y-42953883D01*
X85703065Y-42946784D01*
X85713229Y-42934531D01*
X85720647Y-42926678D01*
X85780985Y-42891457D01*
X85850791Y-42894447D01*
X85904503Y-42930612D01*
X85910707Y-42937771D01*
X85922729Y-42954193D01*
X85924949Y-42957817D01*
X85924951Y-42957820D01*
X86049890Y-43129786D01*
X86049892Y-43129788D01*
X86200216Y-43280112D01*
X86372183Y-43405052D01*
X86372471Y-43405197D01*
X86561588Y-43501557D01*
X86763757Y-43567246D01*
X86973713Y-43600500D01*
X86973714Y-43600500D01*
X87186286Y-43600500D01*
X87186287Y-43600500D01*
X87396243Y-43567246D01*
X87598412Y-43501557D01*
X87787816Y-43405051D01*
X87842572Y-43365269D01*
X87842999Y-43364959D01*
X87874138Y-43342335D01*
X87959786Y-43280109D01*
X87959788Y-43280106D01*
X87959792Y-43280104D01*
X87959795Y-43280100D01*
X87959847Y-43280063D01*
X87960592Y-43279303D01*
X88109290Y-43130605D01*
X88110066Y-43129844D01*
X88110120Y-43129771D01*
X88195883Y-43011727D01*
X88195884Y-43011725D01*
X88195890Y-43011717D01*
X88235051Y-42957816D01*
X88235057Y-42957804D01*
X88235800Y-42956593D01*
X88251370Y-42936249D01*
X88256693Y-42930612D01*
X88260918Y-42926137D01*
X88321253Y-42890909D01*
X88391059Y-42893892D01*
X88444789Y-42930067D01*
X88450890Y-42937108D01*
X88462900Y-42953514D01*
X88465367Y-42957540D01*
X88504727Y-43011715D01*
X88504728Y-43011716D01*
X89010297Y-42506147D01*
X89071619Y-42472663D01*
X89141311Y-42477647D01*
X89197244Y-42519519D01*
X89205363Y-42531828D01*
X89219896Y-42557000D01*
X89219899Y-42557004D01*
X89219901Y-42557007D01*
X89312993Y-42650099D01*
X89338169Y-42664634D01*
X89386384Y-42715202D01*
X89399606Y-42783809D01*
X89373638Y-42848673D01*
X89363849Y-42859702D01*
X88858282Y-43365268D01*
X88858282Y-43365269D01*
X88858282Y-43365270D01*
X88912449Y-43404624D01*
X89101782Y-43501095D01*
X89101784Y-43501096D01*
X89303866Y-43566756D01*
X89303867Y-43566756D01*
X89303870Y-43566757D01*
X89513754Y-43600000D01*
X89726245Y-43600000D01*
X89726246Y-43600000D01*
X89851159Y-43580215D01*
X89926487Y-43568284D01*
X89926493Y-43568283D01*
X89936127Y-43566757D01*
X89936130Y-43566757D01*
X90138217Y-43501095D01*
X90327554Y-43404622D01*
X90329976Y-43402862D01*
X90349121Y-43388953D01*
X90375858Y-43379412D01*
X90381717Y-43365269D01*
X89876149Y-42859702D01*
X89842664Y-42798379D01*
X89847648Y-42728688D01*
X89889519Y-42672754D01*
X89901822Y-42664639D01*
X89927007Y-42650099D01*
X90020099Y-42557007D01*
X90034634Y-42531830D01*
X90085199Y-42483616D01*
X90153805Y-42470391D01*
X90218671Y-42496358D01*
X90229702Y-42506149D01*
X90735269Y-43011717D01*
X90735269Y-43011716D01*
X90735270Y-43011717D01*
X90735270Y-43011716D01*
X90748738Y-43006137D01*
X90754955Y-42984968D01*
X90758954Y-42979119D01*
X90768699Y-42965707D01*
X90774622Y-42957555D01*
X90774630Y-42957540D01*
X90775155Y-42956684D01*
X90777129Y-42954103D01*
X90777487Y-42953612D01*
X90777499Y-42953620D01*
X90790733Y-42936327D01*
X90800363Y-42926131D01*
X90860703Y-42890907D01*
X90930508Y-42893897D01*
X90984227Y-42930066D01*
X90990297Y-42937071D01*
X91001752Y-42954056D01*
X91002401Y-42953659D01*
X91004944Y-42957809D01*
X91004947Y-42957813D01*
X91004949Y-42957817D01*
X91129890Y-43129786D01*
X91129892Y-43129788D01*
X91280216Y-43280112D01*
X91452183Y-43405052D01*
X91452471Y-43405197D01*
X91641588Y-43501557D01*
X91843757Y-43567246D01*
X92053713Y-43600500D01*
X92053714Y-43600500D01*
X92266286Y-43600500D01*
X92266287Y-43600500D01*
X92476243Y-43567246D01*
X92678412Y-43501557D01*
X92867816Y-43405051D01*
X92922572Y-43365269D01*
X92922999Y-43364959D01*
X92954138Y-43342335D01*
X93039786Y-43280109D01*
X93039788Y-43280106D01*
X93039792Y-43280104D01*
X93039795Y-43280100D01*
X93039847Y-43280063D01*
X93040592Y-43279303D01*
X93189290Y-43130605D01*
X93190065Y-43129845D01*
X93190124Y-43129765D01*
X93309315Y-42965712D01*
X93309319Y-42965707D01*
X93317907Y-42953885D01*
X93317908Y-42953883D01*
X93323065Y-42946784D01*
X93333229Y-42934531D01*
X93340647Y-42926678D01*
X93400985Y-42891457D01*
X93470791Y-42894447D01*
X93524503Y-42930612D01*
X93530707Y-42937771D01*
X93542729Y-42954193D01*
X93544949Y-42957817D01*
X93544951Y-42957820D01*
X93669890Y-43129786D01*
X93669892Y-43129788D01*
X93820216Y-43280112D01*
X93992183Y-43405052D01*
X93992471Y-43405197D01*
X94181588Y-43501557D01*
X94383757Y-43567246D01*
X94593713Y-43600500D01*
X94593714Y-43600500D01*
X94806286Y-43600500D01*
X94806287Y-43600500D01*
X95016243Y-43567246D01*
X95218412Y-43501557D01*
X95407816Y-43405051D01*
X95462572Y-43365269D01*
X95462999Y-43364959D01*
X95494138Y-43342335D01*
X95579786Y-43280109D01*
X95579788Y-43280106D01*
X95579792Y-43280104D01*
X95579795Y-43280100D01*
X95579847Y-43280063D01*
X95580592Y-43279303D01*
X95729290Y-43130605D01*
X95730065Y-43129845D01*
X95730124Y-43129765D01*
X95849315Y-42965712D01*
X95849319Y-42965707D01*
X95857907Y-42953885D01*
X95857908Y-42953883D01*
X95863065Y-42946784D01*
X95873229Y-42934531D01*
X95880647Y-42926678D01*
X95940985Y-42891457D01*
X96010791Y-42894447D01*
X96064503Y-42930612D01*
X96070707Y-42937771D01*
X96082729Y-42954193D01*
X96084949Y-42957817D01*
X96084951Y-42957820D01*
X96209890Y-43129786D01*
X96209892Y-43129788D01*
X96360216Y-43280112D01*
X96532183Y-43405052D01*
X96532471Y-43405197D01*
X96721588Y-43501557D01*
X96923757Y-43567246D01*
X97133713Y-43600500D01*
X97133714Y-43600500D01*
X97346286Y-43600500D01*
X97346287Y-43600500D01*
X97556243Y-43567246D01*
X97758412Y-43501557D01*
X97947816Y-43405051D01*
X98002572Y-43365269D01*
X98002999Y-43364959D01*
X98034138Y-43342335D01*
X98119786Y-43280109D01*
X98119788Y-43280106D01*
X98119792Y-43280104D01*
X98119795Y-43280100D01*
X98119847Y-43280063D01*
X98120592Y-43279303D01*
X98269290Y-43130605D01*
X98270065Y-43129845D01*
X98270124Y-43129765D01*
X98392908Y-42960766D01*
X98395768Y-42956829D01*
X98395772Y-42956824D01*
X98415445Y-42929744D01*
X98423730Y-42901529D01*
X98491557Y-42768412D01*
X98520658Y-42678848D01*
X102799499Y-42678848D01*
X102830257Y-42833471D01*
X102830264Y-42833502D01*
X102890598Y-42979165D01*
X102890603Y-42979174D01*
X102890613Y-42979191D01*
X102978211Y-43110290D01*
X102978212Y-43110291D01*
X102978217Y-43110297D01*
X103089701Y-43221781D01*
X103089707Y-43221786D01*
X103089711Y-43221789D01*
X103220814Y-43309390D01*
X103220827Y-43309397D01*
X103366498Y-43369735D01*
X103366503Y-43369737D01*
X103513513Y-43398979D01*
X103516247Y-43399703D01*
X103521155Y-43400500D01*
X103678844Y-43400500D01*
X103682964Y-43400500D01*
X103690814Y-43398118D01*
X103833497Y-43369737D01*
X103837349Y-43368141D01*
X103871549Y-43359409D01*
X103887097Y-43357737D01*
X103955854Y-43370144D01*
X103955855Y-43370144D01*
X103963510Y-43373976D01*
X104007269Y-43410547D01*
X104042448Y-43457539D01*
X104042452Y-43457544D01*
X104042455Y-43457547D01*
X104157664Y-43543793D01*
X104157671Y-43543797D01*
X104207155Y-43562253D01*
X104242513Y-43588721D01*
X104299444Y-43594835D01*
X104299443Y-43594839D01*
X104299458Y-43594836D01*
X104352127Y-43600500D01*
X106147872Y-43600499D01*
X106207483Y-43594091D01*
X106342331Y-43543796D01*
X106457546Y-43457546D01*
X106543796Y-43342331D01*
X106543888Y-43342086D01*
X106586580Y-43227620D01*
X106603490Y-43196649D01*
X106611811Y-43185533D01*
X106667741Y-43143663D01*
X106737424Y-43138675D01*
X106741909Y-43139650D01*
X106803234Y-43173130D01*
X106910216Y-43280112D01*
X107082183Y-43405052D01*
X107082471Y-43405197D01*
X107271588Y-43501557D01*
X107473757Y-43567246D01*
X107683713Y-43600500D01*
X107683714Y-43600500D01*
X107896286Y-43600500D01*
X107896287Y-43600500D01*
X108106243Y-43567246D01*
X108308412Y-43501557D01*
X108497816Y-43405051D01*
X108552572Y-43365269D01*
X108552999Y-43364959D01*
X108584138Y-43342335D01*
X108669786Y-43280109D01*
X108669788Y-43280106D01*
X108669792Y-43280104D01*
X108669795Y-43280100D01*
X108669847Y-43280063D01*
X108670592Y-43279303D01*
X108819290Y-43130605D01*
X108820065Y-43129845D01*
X108820124Y-43129765D01*
X108942908Y-42960766D01*
X108945768Y-42956829D01*
X108945772Y-42956824D01*
X108965445Y-42929744D01*
X108973730Y-42901529D01*
X109041557Y-42768412D01*
X109107246Y-42566243D01*
X109140500Y-42356287D01*
X109140500Y-42143713D01*
X109107246Y-41933757D01*
X109041557Y-41731588D01*
X108945186Y-41542448D01*
X108945052Y-41542183D01*
X108820112Y-41370216D01*
X108669788Y-41219892D01*
X108669786Y-41219890D01*
X108497820Y-41094951D01*
X108395487Y-41042810D01*
X108325911Y-41007359D01*
X108320571Y-41003479D01*
X108296254Y-40993406D01*
X108289734Y-40992374D01*
X108179772Y-40956645D01*
X108115074Y-40935623D01*
X108110552Y-40933770D01*
X108101362Y-40931600D01*
X108096599Y-40931226D01*
X107944957Y-40907208D01*
X107925489Y-40904124D01*
X107896290Y-40899500D01*
X107896287Y-40899500D01*
X107683713Y-40899500D01*
X107683709Y-40899500D01*
X107644776Y-40905666D01*
X107635042Y-40907208D01*
X107609308Y-40911284D01*
X107473763Y-40932752D01*
X107271582Y-40998445D01*
X107082182Y-41094949D01*
X107082179Y-41094950D01*
X107082179Y-41094951D01*
X107081589Y-41095380D01*
X106910218Y-41219886D01*
X106809281Y-41320823D01*
X106781024Y-41341975D01*
X106768841Y-41348627D01*
X106700568Y-41363477D01*
X106635104Y-41339058D01*
X106635105Y-41339058D01*
X106633412Y-41337791D01*
X106631414Y-41336295D01*
X106589563Y-41280376D01*
X106584109Y-41265755D01*
X106543797Y-41157671D01*
X106543793Y-41157664D01*
X106471228Y-41060730D01*
X106457548Y-41042456D01*
X106457542Y-41042450D01*
X106390649Y-40992374D01*
X106342335Y-40956206D01*
X106342332Y-40956204D01*
X106342330Y-40956203D01*
X106342328Y-40956202D01*
X106292844Y-40937746D01*
X106257497Y-40911284D01*
X106155583Y-40900328D01*
X106150742Y-40899500D01*
X106147881Y-40899500D01*
X106147873Y-40899500D01*
X106147864Y-40899500D01*
X104352129Y-40899500D01*
X104352123Y-40899500D01*
X104350192Y-40899659D01*
X104348545Y-40899885D01*
X104292516Y-40905908D01*
X104207152Y-40937747D01*
X104157666Y-40956204D01*
X104157665Y-40956205D01*
X104042456Y-41042450D01*
X104042450Y-41042456D01*
X103956205Y-41157665D01*
X103956203Y-41157668D01*
X103905907Y-41292516D01*
X103899501Y-41352116D01*
X103899500Y-41352139D01*
X103899500Y-41674467D01*
X103894475Y-41709408D01*
X103890564Y-41722725D01*
X103852787Y-41781501D01*
X103789237Y-41810522D01*
X103778339Y-41812089D01*
X103736499Y-41810968D01*
X103678847Y-41799500D01*
X103678845Y-41799500D01*
X103678842Y-41799500D01*
X103521158Y-41799500D01*
X103521155Y-41799500D01*
X103521153Y-41799500D01*
X103366527Y-41830257D01*
X103366496Y-41830264D01*
X103220833Y-41890598D01*
X103220824Y-41890603D01*
X103220807Y-41890613D01*
X103089708Y-41978211D01*
X103089707Y-41978212D01*
X103089701Y-41978217D01*
X102978217Y-42089701D01*
X102978212Y-42089707D01*
X102978211Y-42089708D01*
X102890613Y-42220807D01*
X102890603Y-42220824D01*
X102890598Y-42220833D01*
X102830264Y-42366496D01*
X102830257Y-42366527D01*
X102799500Y-42521150D01*
X102799500Y-42521153D01*
X102799500Y-42678846D01*
X102799500Y-42678848D01*
X102799499Y-42678848D01*
X98520658Y-42678848D01*
X98557246Y-42566243D01*
X98590500Y-42356287D01*
X98590500Y-42143713D01*
X98557246Y-41933757D01*
X98491557Y-41731588D01*
X98395186Y-41542448D01*
X98395052Y-41542183D01*
X98270112Y-41370216D01*
X98119788Y-41219892D01*
X98119786Y-41219890D01*
X97947820Y-41094951D01*
X97845487Y-41042810D01*
X97775911Y-41007359D01*
X97770571Y-41003479D01*
X97746254Y-40993406D01*
X97739734Y-40992374D01*
X97629772Y-40956645D01*
X97565074Y-40935623D01*
X97560552Y-40933770D01*
X97551362Y-40931600D01*
X97546599Y-40931226D01*
X97394957Y-40907208D01*
X97375489Y-40904124D01*
X97346290Y-40899500D01*
X97346287Y-40899500D01*
X97133713Y-40899500D01*
X97133709Y-40899500D01*
X97094776Y-40905666D01*
X97085042Y-40907208D01*
X97059308Y-40911284D01*
X96923763Y-40932752D01*
X96721582Y-40998445D01*
X96532182Y-41094949D01*
X96532179Y-41094950D01*
X96532179Y-41094951D01*
X96531589Y-41095380D01*
X96360210Y-41219892D01*
X96209892Y-41370210D01*
X96209890Y-41370213D01*
X96084949Y-41542182D01*
X96084948Y-41542183D01*
X96084945Y-41542188D01*
X96084634Y-41542696D01*
X96083499Y-41544177D01*
X96082085Y-41546125D01*
X96082036Y-41546089D01*
X96069060Y-41563041D01*
X96059353Y-41573319D01*
X95999011Y-41608542D01*
X95929205Y-41605550D01*
X95875488Y-41569378D01*
X95869285Y-41562219D01*
X95857274Y-41545811D01*
X95855053Y-41542187D01*
X95855051Y-41542184D01*
X95855050Y-41542182D01*
X95730109Y-41370213D01*
X95579786Y-41219890D01*
X95407820Y-41094951D01*
X95305487Y-41042810D01*
X95235911Y-41007359D01*
X95230571Y-41003479D01*
X95206254Y-40993406D01*
X95199734Y-40992374D01*
X95089772Y-40956645D01*
X95025074Y-40935623D01*
X95020552Y-40933770D01*
X95011362Y-40931600D01*
X95006599Y-40931226D01*
X94854957Y-40907208D01*
X94835489Y-40904124D01*
X94806290Y-40899500D01*
X94806287Y-40899500D01*
X94593713Y-40899500D01*
X94593709Y-40899500D01*
X94554776Y-40905666D01*
X94545042Y-40907208D01*
X94519308Y-40911284D01*
X94383763Y-40932752D01*
X94181582Y-40998445D01*
X93992182Y-41094949D01*
X93992179Y-41094950D01*
X93992179Y-41094951D01*
X93991589Y-41095380D01*
X93820210Y-41219892D01*
X93669892Y-41370210D01*
X93669890Y-41370213D01*
X93544949Y-41542182D01*
X93544948Y-41542183D01*
X93544945Y-41542188D01*
X93544634Y-41542696D01*
X93543499Y-41544177D01*
X93542085Y-41546125D01*
X93542036Y-41546089D01*
X93529060Y-41563041D01*
X93519353Y-41573319D01*
X93459011Y-41608542D01*
X93389205Y-41605550D01*
X93335488Y-41569378D01*
X93329285Y-41562219D01*
X93317274Y-41545811D01*
X93315053Y-41542187D01*
X93315051Y-41542184D01*
X93315050Y-41542182D01*
X93190109Y-41370213D01*
X93039786Y-41219890D01*
X92867820Y-41094951D01*
X92765487Y-41042810D01*
X92695911Y-41007359D01*
X92690571Y-41003479D01*
X92666254Y-40993406D01*
X92659734Y-40992374D01*
X92549772Y-40956645D01*
X92485074Y-40935623D01*
X92480552Y-40933770D01*
X92471362Y-40931600D01*
X92466599Y-40931226D01*
X92314957Y-40907208D01*
X92295489Y-40904124D01*
X92266290Y-40899500D01*
X92266287Y-40899500D01*
X92053713Y-40899500D01*
X92053709Y-40899500D01*
X92014776Y-40905666D01*
X92005042Y-40907208D01*
X91979308Y-40911284D01*
X91843763Y-40932752D01*
X91641582Y-40998445D01*
X91452182Y-41094949D01*
X91452179Y-41094950D01*
X91452179Y-41094951D01*
X91451589Y-41095380D01*
X91280210Y-41219892D01*
X91129886Y-41370216D01*
X91004943Y-41542187D01*
X91004188Y-41543421D01*
X90988613Y-41563768D01*
X90979070Y-41573872D01*
X90918728Y-41609094D01*
X90848922Y-41606100D01*
X90795211Y-41569934D01*
X90789107Y-41562890D01*
X90777086Y-41546467D01*
X90774628Y-41542457D01*
X90774626Y-41542452D01*
X90735270Y-41488282D01*
X90735268Y-41488282D01*
X90229702Y-41993849D01*
X90168379Y-42027334D01*
X90098687Y-42022350D01*
X90042754Y-41980478D01*
X90034634Y-41968169D01*
X90020099Y-41942993D01*
X89927007Y-41849901D01*
X89927004Y-41849899D01*
X89927000Y-41849896D01*
X89901828Y-41835363D01*
X89853613Y-41784796D01*
X89840391Y-41716189D01*
X89866359Y-41651324D01*
X89876135Y-41640310D01*
X90381716Y-41134728D01*
X90327550Y-41095375D01*
X90259556Y-41060730D01*
X90138214Y-40998902D01*
X89936130Y-40933242D01*
X89726251Y-40900000D01*
X89726246Y-40900000D01*
X89513754Y-40900000D01*
X89513749Y-40900000D01*
X89313513Y-40931715D01*
X89313505Y-40931715D01*
X89313506Y-40931716D01*
X89303865Y-40933242D01*
X89101784Y-40998903D01*
X88912438Y-41095380D01*
X88858282Y-41134727D01*
X88858282Y-41134728D01*
X89363850Y-41640296D01*
X89397335Y-41701619D01*
X89392351Y-41771311D01*
X89350479Y-41827244D01*
X89338173Y-41835362D01*
X89312996Y-41849898D01*
X89312990Y-41849903D01*
X89219903Y-41942990D01*
X89219898Y-41942996D01*
X89205362Y-41968173D01*
X89154793Y-42016387D01*
X89086185Y-42029607D01*
X89021322Y-42003637D01*
X89010296Y-41993850D01*
X88504728Y-41488282D01*
X88504727Y-41488282D01*
X88465379Y-41542440D01*
X88463368Y-41545458D01*
X88463066Y-41545256D01*
X88449233Y-41563707D01*
X88439622Y-41573881D01*
X88379276Y-41609096D01*
X88309471Y-41606096D01*
X88255760Y-41569921D01*
X88249682Y-41562905D01*
X88237425Y-41546091D01*
X88235568Y-41543034D01*
X88235100Y-41542249D01*
X88110112Y-41370216D01*
X87959788Y-41219892D01*
X87959786Y-41219890D01*
X87787820Y-41094951D01*
X87685487Y-41042810D01*
X87615911Y-41007359D01*
X87610571Y-41003479D01*
X87586254Y-40993406D01*
X87579734Y-40992374D01*
X87469772Y-40956645D01*
X87405074Y-40935623D01*
X87400552Y-40933770D01*
X87391362Y-40931600D01*
X87386599Y-40931226D01*
X87234957Y-40907208D01*
X87215489Y-40904124D01*
X87186290Y-40899500D01*
X87186287Y-40899500D01*
X86973713Y-40899500D01*
X86973709Y-40899500D01*
X86934776Y-40905666D01*
X86925042Y-40907208D01*
X86899308Y-40911284D01*
X86763763Y-40932752D01*
X86561582Y-40998445D01*
X86372182Y-41094949D01*
X86372179Y-41094950D01*
X86372179Y-41094951D01*
X86371589Y-41095380D01*
X86200210Y-41219892D01*
X86049892Y-41370210D01*
X86049890Y-41370213D01*
X85924949Y-41542182D01*
X85924948Y-41542183D01*
X85924945Y-41542188D01*
X85924634Y-41542696D01*
X85923499Y-41544177D01*
X85922085Y-41546125D01*
X85922036Y-41546089D01*
X85909060Y-41563041D01*
X85899353Y-41573319D01*
X85839011Y-41608542D01*
X85769205Y-41605550D01*
X85715488Y-41569378D01*
X85709285Y-41562219D01*
X85697274Y-41545811D01*
X85695053Y-41542187D01*
X85695051Y-41542184D01*
X85695050Y-41542182D01*
X85570109Y-41370213D01*
X85419786Y-41219890D01*
X85247820Y-41094951D01*
X85145487Y-41042810D01*
X85075911Y-41007359D01*
X85070571Y-41003479D01*
X85046254Y-40993406D01*
X85039734Y-40992374D01*
X84929772Y-40956645D01*
X84865074Y-40935623D01*
X84860552Y-40933770D01*
X84851362Y-40931600D01*
X84846599Y-40931226D01*
X84694957Y-40907208D01*
X84675489Y-40904124D01*
X84646290Y-40899500D01*
X84646287Y-40899500D01*
X84433713Y-40899500D01*
X84433709Y-40899500D01*
X84394776Y-40905666D01*
X84385042Y-40907208D01*
X84359308Y-40911284D01*
X84223763Y-40932752D01*
X84021582Y-40998445D01*
X83832182Y-41094949D01*
X83832179Y-41094950D01*
X83832179Y-41094951D01*
X83831589Y-41095380D01*
X83660218Y-41219886D01*
X83558893Y-41321211D01*
X83530636Y-41342363D01*
X83518453Y-41349015D01*
X83450180Y-41363865D01*
X83384716Y-41339446D01*
X83384717Y-41339446D01*
X83383024Y-41338179D01*
X83381026Y-41336683D01*
X83339175Y-41280765D01*
X83339030Y-41280376D01*
X83293354Y-41157913D01*
X83293350Y-41157906D01*
X83207190Y-41042812D01*
X83207187Y-41042809D01*
X83207185Y-41042807D01*
X83139815Y-40992374D01*
X83092093Y-40956649D01*
X83092088Y-40956646D01*
X83092089Y-40956646D01*
X82957377Y-40906402D01*
X82957370Y-40906400D01*
X82897852Y-40900000D01*
X82897844Y-40900000D01*
X82250000Y-40900000D01*
X82250000Y-41637749D01*
X82230315Y-41704788D01*
X82177511Y-41750543D01*
X82108353Y-41760487D01*
X82093908Y-41757524D01*
X82065828Y-41750000D01*
X82065826Y-41750000D01*
X81934174Y-41750000D01*
X81934171Y-41750000D01*
X81906092Y-41757524D01*
X81836242Y-41755861D01*
X81778380Y-41716698D01*
X81750877Y-41652469D01*
X81750000Y-41637749D01*
X81750000Y-40900000D01*
X81102155Y-40900000D01*
X81102146Y-40900000D01*
X81042628Y-40906400D01*
X81042621Y-40906402D01*
X80907910Y-40956646D01*
X80907907Y-40956648D01*
X80792809Y-41042810D01*
X80734452Y-41120766D01*
X80709490Y-41145727D01*
X80700433Y-41152506D01*
X80634966Y-41176919D01*
X80566695Y-41162062D01*
X80517293Y-41112653D01*
X80517291Y-41112650D01*
X80515662Y-41109666D01*
X80500500Y-41050250D01*
X80500500Y-37897642D01*
X81449500Y-37897642D01*
X81449500Y-38102356D01*
X81481521Y-38304530D01*
X81544780Y-38499221D01*
X81544786Y-38499234D01*
X81637708Y-38681601D01*
X81637709Y-38681602D01*
X81637715Y-38681613D01*
X81758028Y-38847213D01*
X81902786Y-38991971D01*
X82057748Y-39104555D01*
X82057749Y-39104557D01*
X82064626Y-39109552D01*
X82068390Y-39112287D01*
X82184607Y-39171503D01*
X82244327Y-39201932D01*
X82245930Y-39202870D01*
X82249629Y-39204662D01*
X82251637Y-39205660D01*
X82255403Y-39206722D01*
X82295488Y-39219746D01*
X82355135Y-39239126D01*
X82355136Y-39239127D01*
X82398612Y-39253253D01*
X82445465Y-39268477D01*
X82546557Y-39284488D01*
X82647648Y-39300500D01*
X82647649Y-39300500D01*
X82852351Y-39300500D01*
X82852352Y-39300500D01*
X83054534Y-39268477D01*
X83249219Y-39205220D01*
X83431610Y-39112287D01*
X83524590Y-39044732D01*
X83597213Y-38991971D01*
X83597213Y-38991969D01*
X83597272Y-38991927D01*
X83598031Y-38991153D01*
X83741153Y-38848031D01*
X83741928Y-38847271D01*
X83741981Y-38847199D01*
X83794730Y-38774593D01*
X83794732Y-38774591D01*
X83818172Y-38742327D01*
X83862287Y-38681610D01*
X83955220Y-38499219D01*
X84018477Y-38304534D01*
X84050500Y-38102352D01*
X84050500Y-37897648D01*
X84050499Y-37897642D01*
X105699500Y-37897642D01*
X105699500Y-38102356D01*
X105731521Y-38304530D01*
X105794780Y-38499221D01*
X105794786Y-38499234D01*
X105887708Y-38681601D01*
X105887709Y-38681602D01*
X105887715Y-38681613D01*
X106008028Y-38847213D01*
X106152786Y-38991971D01*
X106307748Y-39104555D01*
X106307749Y-39104557D01*
X106314626Y-39109552D01*
X106318390Y-39112287D01*
X106434607Y-39171503D01*
X106494327Y-39201932D01*
X106495930Y-39202870D01*
X106499629Y-39204662D01*
X106501637Y-39205660D01*
X106505403Y-39206722D01*
X106545488Y-39219746D01*
X106605135Y-39239126D01*
X106605136Y-39239127D01*
X106648612Y-39253253D01*
X106695465Y-39268477D01*
X106796557Y-39284488D01*
X106897648Y-39300500D01*
X106897649Y-39300500D01*
X107102351Y-39300500D01*
X107102352Y-39300500D01*
X107304534Y-39268477D01*
X107499219Y-39205220D01*
X107681610Y-39112287D01*
X107774590Y-39044732D01*
X107847213Y-38991971D01*
X107847213Y-38991969D01*
X107847272Y-38991927D01*
X107848031Y-38991153D01*
X107991153Y-38848031D01*
X107991928Y-38847271D01*
X107991981Y-38847199D01*
X108044730Y-38774593D01*
X108044732Y-38774591D01*
X108068172Y-38742327D01*
X108112287Y-38681610D01*
X108205220Y-38499219D01*
X108268477Y-38304534D01*
X108300500Y-38102352D01*
X108300500Y-37897648D01*
X108268477Y-37695466D01*
X108268476Y-37695462D01*
X108268476Y-37695461D01*
X108206722Y-37505403D01*
X108205659Y-37501637D01*
X108204662Y-37499629D01*
X108202870Y-37495930D01*
X108201932Y-37494327D01*
X108171503Y-37434607D01*
X108112286Y-37318388D01*
X108100537Y-37302218D01*
X108098926Y-37300000D01*
X107991971Y-37152786D01*
X107847213Y-37008028D01*
X107847212Y-37008027D01*
X107847211Y-37008026D01*
X107689507Y-36893450D01*
X107689168Y-36893161D01*
X107681603Y-36887707D01*
X107681188Y-36887498D01*
X107624654Y-36858691D01*
X107624653Y-36858691D01*
X107499223Y-36794781D01*
X107304534Y-36731522D01*
X107304532Y-36731521D01*
X107304530Y-36731521D01*
X107304529Y-36731520D01*
X107129995Y-36703878D01*
X107113409Y-36701251D01*
X107102354Y-36699500D01*
X107102352Y-36699500D01*
X106897648Y-36699500D01*
X106897647Y-36699500D01*
X106873327Y-36703351D01*
X106873326Y-36703350D01*
X106695468Y-36731521D01*
X106500777Y-36794780D01*
X106500764Y-36794786D01*
X106318397Y-36887708D01*
X106318385Y-36887715D01*
X106152787Y-37008027D01*
X106152784Y-37008029D01*
X106008029Y-37152784D01*
X106008027Y-37152787D01*
X105887715Y-37318385D01*
X105887708Y-37318397D01*
X105794786Y-37500764D01*
X105794780Y-37500777D01*
X105731521Y-37695468D01*
X105699500Y-37897642D01*
X84050499Y-37897642D01*
X84018477Y-37695466D01*
X84018476Y-37695462D01*
X84018476Y-37695461D01*
X83956722Y-37505403D01*
X83955659Y-37501637D01*
X83954662Y-37499629D01*
X83952870Y-37495930D01*
X83951932Y-37494327D01*
X83921503Y-37434607D01*
X83862286Y-37318388D01*
X83850537Y-37302218D01*
X83848926Y-37300000D01*
X83741971Y-37152786D01*
X83597213Y-37008028D01*
X83597212Y-37008027D01*
X83597211Y-37008026D01*
X83439507Y-36893450D01*
X83439168Y-36893161D01*
X83431603Y-36887707D01*
X83431188Y-36887498D01*
X83374654Y-36858691D01*
X83374653Y-36858691D01*
X83249223Y-36794781D01*
X83054534Y-36731522D01*
X83054532Y-36731521D01*
X83054530Y-36731521D01*
X83054529Y-36731520D01*
X82879995Y-36703878D01*
X82863409Y-36701251D01*
X82852354Y-36699500D01*
X82852352Y-36699500D01*
X82647648Y-36699500D01*
X82647647Y-36699500D01*
X82623327Y-36703351D01*
X82623326Y-36703350D01*
X82445468Y-36731521D01*
X82250777Y-36794780D01*
X82250764Y-36794786D01*
X82068397Y-36887708D01*
X82068385Y-36887715D01*
X81902787Y-37008027D01*
X81902784Y-37008029D01*
X81758029Y-37152784D01*
X81758027Y-37152787D01*
X81637715Y-37318385D01*
X81637708Y-37318397D01*
X81544786Y-37500764D01*
X81544780Y-37500777D01*
X81481521Y-37695468D01*
X81449500Y-37897642D01*
X80500500Y-37897642D01*
X80500500Y-37306642D01*
X80500579Y-37302218D01*
X80500737Y-37297792D01*
X80500974Y-37293371D01*
X80514069Y-37110271D01*
X80519274Y-37083319D01*
X80519629Y-37068818D01*
X80558415Y-36890521D01*
X80560602Y-36881956D01*
X80563089Y-36873486D01*
X80565884Y-36865088D01*
X80568270Y-36858691D01*
X80631371Y-36689508D01*
X80634749Y-36681357D01*
X80638419Y-36673322D01*
X80642373Y-36665423D01*
X80732175Y-36500961D01*
X80736677Y-36493374D01*
X80741469Y-36485918D01*
X80746510Y-36478660D01*
X80858797Y-36328662D01*
X80864338Y-36321787D01*
X80870122Y-36315112D01*
X80876139Y-36308648D01*
X81008648Y-36176139D01*
X81015112Y-36170122D01*
X81021787Y-36164338D01*
X81028662Y-36158797D01*
X81178669Y-36046503D01*
X81185918Y-36041469D01*
X81193374Y-36036677D01*
X81200961Y-36032175D01*
X81365433Y-35942367D01*
X81373332Y-35938414D01*
X81381360Y-35934747D01*
X81389508Y-35931371D01*
X81565096Y-35865881D01*
X81573486Y-35863089D01*
X81581956Y-35860602D01*
X81590521Y-35858415D01*
X81773625Y-35818584D01*
X81782292Y-35817019D01*
X81791077Y-35815756D01*
X81799840Y-35814815D01*
X81993375Y-35800973D01*
X81997792Y-35800737D01*
X81998530Y-35800710D01*
X82002219Y-35800579D01*
X82006643Y-35800500D01*
X107993357Y-35800500D01*
X107997782Y-35800579D01*
G37*
%TD.AperFunction*%
%TD*%
%TA.AperFunction,Conductor*%
%TO.N,/Circuit Switch2/BATT_GND*%
G36*
X107642172Y-56605022D02*
G01*
X107649055Y-56607042D01*
X107667995Y-56612604D01*
X107711107Y-56636603D01*
X107711726Y-56635831D01*
X107714406Y-56637975D01*
X107714433Y-56637995D01*
X107761907Y-56672487D01*
X107761911Y-56672489D01*
X107860151Y-56743864D01*
X107965078Y-56797327D01*
X108020663Y-56825650D01*
X108020669Y-56825652D01*
X108079747Y-56844846D01*
X108150763Y-56867921D01*
X108191995Y-56881319D01*
X108191996Y-56881319D01*
X108191999Y-56881320D01*
X108316228Y-56900995D01*
X108369921Y-56909500D01*
X108369926Y-56909500D01*
X108550078Y-56909500D01*
X108550079Y-56909500D01*
X108728004Y-56881319D01*
X108899336Y-56825650D01*
X109059849Y-56743864D01*
X109203320Y-56639626D01*
X109216759Y-56631125D01*
X109245989Y-56615164D01*
X109305411Y-56600000D01*
X109357670Y-56600000D01*
X109392606Y-56605023D01*
X109407604Y-56609427D01*
X109466355Y-56647172D01*
X109467542Y-56648541D01*
X109495018Y-56703402D01*
X109496663Y-56710960D01*
X109499500Y-56737331D01*
X109499500Y-84293357D01*
X109499421Y-84297784D01*
X109499263Y-84302207D01*
X109499026Y-84306627D01*
X109485185Y-84500133D01*
X109484238Y-84508942D01*
X109482978Y-84517701D01*
X109481407Y-84526403D01*
X109441587Y-84709456D01*
X109439398Y-84718033D01*
X109436906Y-84726520D01*
X109434111Y-84734918D01*
X109368640Y-84910456D01*
X109365250Y-84918641D01*
X109361580Y-84926676D01*
X109357620Y-84934585D01*
X109267835Y-85099013D01*
X109263316Y-85106630D01*
X109258529Y-85114078D01*
X109253483Y-85121344D01*
X109141219Y-85271312D01*
X109135665Y-85278204D01*
X109129869Y-85284893D01*
X109123837Y-85291372D01*
X108991372Y-85423837D01*
X108984893Y-85429869D01*
X108978204Y-85435665D01*
X108971312Y-85441219D01*
X108821344Y-85553483D01*
X108814078Y-85558529D01*
X108806630Y-85563316D01*
X108799013Y-85567835D01*
X108634585Y-85657620D01*
X108626676Y-85661580D01*
X108618641Y-85665250D01*
X108610456Y-85668640D01*
X108434918Y-85734111D01*
X108426520Y-85736906D01*
X108418033Y-85739398D01*
X108409456Y-85741587D01*
X108226403Y-85781407D01*
X108217699Y-85782978D01*
X108208939Y-85784238D01*
X108200132Y-85785185D01*
X108023779Y-85797799D01*
X108015674Y-85798378D01*
X108006618Y-85799026D01*
X108002234Y-85799261D01*
X107997929Y-85799415D01*
X107997810Y-85799420D01*
X107993356Y-85799500D01*
X95828541Y-85799500D01*
X95761502Y-85779815D01*
X95715747Y-85727011D01*
X95704857Y-85666650D01*
X95705500Y-85657670D01*
X95705500Y-83647642D01*
X106099500Y-83647642D01*
X106099500Y-83852356D01*
X106131521Y-84054530D01*
X106194780Y-84249221D01*
X106194786Y-84249234D01*
X106287708Y-84431601D01*
X106287713Y-84431610D01*
X106287715Y-84431613D01*
X106408028Y-84597213D01*
X106552786Y-84741971D01*
X106707748Y-84854555D01*
X106707749Y-84854557D01*
X106718383Y-84862282D01*
X106718390Y-84862287D01*
X106821070Y-84914605D01*
X106894329Y-84951933D01*
X106895927Y-84952869D01*
X106899615Y-84954655D01*
X106901640Y-84955661D01*
X106905406Y-84956723D01*
X106947956Y-84970547D01*
X107005135Y-84989126D01*
X107005136Y-84989127D01*
X107048612Y-85003253D01*
X107095465Y-85018477D01*
X107196557Y-85034488D01*
X107297648Y-85050500D01*
X107297649Y-85050500D01*
X107502351Y-85050500D01*
X107502352Y-85050500D01*
X107704534Y-85018477D01*
X107899219Y-84955220D01*
X108081610Y-84862287D01*
X108174590Y-84794732D01*
X108247213Y-84741971D01*
X108247213Y-84741969D01*
X108247272Y-84741927D01*
X108248031Y-84741153D01*
X108391148Y-84598036D01*
X108391927Y-84597273D01*
X108391972Y-84597211D01*
X108498016Y-84451252D01*
X108512287Y-84431610D01*
X108605220Y-84249219D01*
X108668477Y-84054534D01*
X108700500Y-83852352D01*
X108700500Y-83647648D01*
X108668477Y-83445466D01*
X108668476Y-83445462D01*
X108668476Y-83445461D01*
X108606722Y-83255403D01*
X108605659Y-83251637D01*
X108604662Y-83249629D01*
X108602870Y-83245930D01*
X108601932Y-83244327D01*
X108571503Y-83184607D01*
X108512287Y-83068390D01*
X108504556Y-83057749D01*
X108391971Y-82902786D01*
X108247213Y-82758028D01*
X108247212Y-82758027D01*
X108247211Y-82758026D01*
X108089507Y-82643450D01*
X108089168Y-82643161D01*
X108081603Y-82637707D01*
X108081188Y-82637498D01*
X108024654Y-82608691D01*
X108024653Y-82608691D01*
X107899223Y-82544781D01*
X107704534Y-82481522D01*
X107704532Y-82481521D01*
X107704530Y-82481521D01*
X107704529Y-82481520D01*
X107529995Y-82453878D01*
X107513409Y-82451251D01*
X107502354Y-82449500D01*
X107502352Y-82449500D01*
X107297648Y-82449500D01*
X107297647Y-82449500D01*
X107273327Y-82453351D01*
X107273326Y-82453350D01*
X107095468Y-82481521D01*
X106900777Y-82544780D01*
X106900764Y-82544786D01*
X106718397Y-82637708D01*
X106718385Y-82637715D01*
X106552787Y-82758027D01*
X106552784Y-82758029D01*
X106408029Y-82902784D01*
X106408027Y-82902787D01*
X106287715Y-83068385D01*
X106287708Y-83068397D01*
X106194786Y-83250764D01*
X106194780Y-83250777D01*
X106131521Y-83445468D01*
X106099500Y-83647642D01*
X95705500Y-83647642D01*
X95705500Y-78537331D01*
X95702600Y-78483261D01*
X95699763Y-78456890D01*
X95691099Y-78403455D01*
X95689454Y-78395897D01*
X95678268Y-78364205D01*
X95647502Y-78277037D01*
X95620029Y-78222183D01*
X95620025Y-78222175D01*
X95549969Y-78117389D01*
X95548782Y-78116020D01*
X95440088Y-78021879D01*
X95440087Y-78021878D01*
X95440083Y-78021875D01*
X95381343Y-77984137D01*
X95381338Y-77984134D01*
X95381337Y-77984134D01*
X95250525Y-77924405D01*
X95250520Y-77924403D01*
X95250519Y-77924403D01*
X95245883Y-77923042D01*
X95235527Y-77920001D01*
X95197588Y-77911747D01*
X95165045Y-77904667D01*
X95130110Y-77899645D01*
X95058172Y-77894500D01*
X95058170Y-77894500D01*
X94829500Y-77894500D01*
X94762461Y-77874815D01*
X94716706Y-77822011D01*
X94705500Y-77770500D01*
X94705500Y-76107013D01*
X94705499Y-76106996D01*
X94693947Y-75999554D01*
X94693947Y-75999551D01*
X94682741Y-75948039D01*
X94648613Y-75845500D01*
X94570825Y-75724461D01*
X94527931Y-75674958D01*
X94526532Y-75673224D01*
X94525074Y-75671660D01*
X94525069Y-75671655D01*
X94525067Y-75671653D01*
X94416329Y-75577433D01*
X94416326Y-75577431D01*
X94377989Y-75559924D01*
X94325185Y-75514169D01*
X94305500Y-75447130D01*
X94305500Y-71829501D01*
X95494500Y-71829501D01*
X95494500Y-76362673D01*
X95497391Y-76416649D01*
X95497394Y-76416681D01*
X95500222Y-76443010D01*
X95508882Y-76496457D01*
X95508886Y-76496483D01*
X95510529Y-76504033D01*
X95510529Y-76504035D01*
X95552481Y-76622923D01*
X95552482Y-76622926D01*
X95552484Y-76622929D01*
X95579964Y-76677804D01*
X95650030Y-76782610D01*
X95651217Y-76783979D01*
X95759905Y-76878116D01*
X95818651Y-76915859D01*
X95927435Y-76965534D01*
X95949446Y-76975585D01*
X95949447Y-76975585D01*
X95949448Y-76975586D01*
X95964447Y-76979991D01*
X96034931Y-76995327D01*
X96069872Y-77000352D01*
X96141830Y-77005500D01*
X101982055Y-77005500D01*
X102049094Y-77025185D01*
X102094849Y-77077989D01*
X102105413Y-77142102D01*
X102099500Y-77199974D01*
X102099500Y-79200024D01*
X102110174Y-79304502D01*
X102112415Y-79310083D01*
X102165184Y-79469331D01*
X102165190Y-79469343D01*
X102228558Y-79572076D01*
X102257286Y-79618651D01*
X102257289Y-79618655D01*
X102257291Y-79618657D01*
X102257293Y-79618660D01*
X102381338Y-79742705D01*
X102381341Y-79742707D01*
X102381344Y-79742710D01*
X102381348Y-79742713D01*
X102530662Y-79834812D01*
X102530664Y-79834813D01*
X102530666Y-79834814D01*
X102697203Y-79889999D01*
X102799992Y-79900500D01*
X102799997Y-79900500D01*
X104800003Y-79900500D01*
X104800008Y-79900500D01*
X104902797Y-79889999D01*
X105069334Y-79834814D01*
X105218655Y-79742711D01*
X105342711Y-79618655D01*
X105434814Y-79469334D01*
X105489999Y-79302797D01*
X105500500Y-79200008D01*
X105500500Y-77199992D01*
X105489999Y-77097203D01*
X105489997Y-77097199D01*
X105489780Y-77095068D01*
X105502549Y-77026375D01*
X105550429Y-76975490D01*
X105571859Y-76965538D01*
X105622963Y-76947501D01*
X105677824Y-76920025D01*
X105782610Y-76849969D01*
X105783979Y-76848782D01*
X105878110Y-76740104D01*
X105915853Y-76681361D01*
X105975583Y-76550563D01*
X105979988Y-76535565D01*
X105995328Y-76465066D01*
X106000353Y-76430122D01*
X106005500Y-76358170D01*
X106005500Y-71337331D01*
X106005357Y-71334671D01*
X106002600Y-71283269D01*
X106002600Y-71283261D01*
X105999763Y-71256890D01*
X105991099Y-71203455D01*
X105989454Y-71195897D01*
X105978268Y-71164205D01*
X105947502Y-71077037D01*
X105920029Y-71022183D01*
X105920025Y-71022175D01*
X105849969Y-70917389D01*
X105848782Y-70916020D01*
X105740088Y-70821879D01*
X105740087Y-70821878D01*
X105740083Y-70821875D01*
X105681343Y-70784137D01*
X105681338Y-70784134D01*
X105681337Y-70784134D01*
X105550525Y-70724405D01*
X105550520Y-70724403D01*
X105550519Y-70724403D01*
X105545883Y-70723042D01*
X105535527Y-70720001D01*
X105497588Y-70711747D01*
X105465045Y-70704667D01*
X105430110Y-70699645D01*
X105358172Y-70694500D01*
X105358170Y-70694500D01*
X101412947Y-70694500D01*
X101412946Y-70694500D01*
X101341003Y-70699645D01*
X101306069Y-70704667D01*
X101235592Y-70720000D01*
X101104716Y-70779771D01*
X101104709Y-70779775D01*
X101045942Y-70817543D01*
X101045931Y-70817551D01*
X100937209Y-70911758D01*
X100937203Y-70911765D01*
X100859419Y-71032798D01*
X100859410Y-71032814D01*
X100830389Y-71096360D01*
X100830152Y-71097036D01*
X100829681Y-71098774D01*
X100826113Y-71110928D01*
X100800000Y-71151565D01*
X100800000Y-69600000D01*
X102831960Y-69600000D01*
X102853505Y-69616532D01*
X102853507Y-69616533D01*
X103046485Y-69727949D01*
X103046497Y-69727954D01*
X103252381Y-69813236D01*
X103398557Y-69852403D01*
X103467616Y-69870907D01*
X103467620Y-69870907D01*
X103467632Y-69870911D01*
X103467645Y-69870914D01*
X103688575Y-69900000D01*
X103911418Y-69900000D01*
X103911425Y-69900000D01*
X104132354Y-69870914D01*
X104132367Y-69870911D01*
X104347618Y-69813236D01*
X104553502Y-69727954D01*
X104553514Y-69727949D01*
X104746498Y-69616530D01*
X104768039Y-69600000D01*
X105500000Y-69600000D01*
X105500000Y-66800000D01*
X104768042Y-66800000D01*
X104746504Y-66783473D01*
X104746491Y-66783464D01*
X104553520Y-66672054D01*
X104553508Y-66672047D01*
X104460216Y-66633403D01*
X104347618Y-66586763D01*
X104347611Y-66586761D01*
X104132382Y-66529091D01*
X104132367Y-66529088D01*
X104132354Y-66529085D01*
X104132350Y-66529084D01*
X104132344Y-66529083D01*
X103911426Y-66500000D01*
X103911425Y-66500000D01*
X103688575Y-66500000D01*
X103688574Y-66500000D01*
X103467654Y-66529083D01*
X103467641Y-66529086D01*
X103467616Y-66529091D01*
X103252387Y-66586761D01*
X103252383Y-66586762D01*
X103252381Y-66586763D01*
X103252379Y-66586764D01*
X103046490Y-66672047D01*
X103046471Y-66672058D01*
X102853508Y-66783463D01*
X102831957Y-66800000D01*
X100600000Y-66800000D01*
X99800000Y-67600000D01*
X96000000Y-67600000D01*
X96000000Y-71200000D01*
X96123991Y-71200000D01*
X96123990Y-71200001D01*
X96016549Y-71211552D01*
X96016537Y-71211554D01*
X95965027Y-71222760D01*
X95862502Y-71256883D01*
X95862496Y-71256886D01*
X95741462Y-71334671D01*
X95741451Y-71334679D01*
X95688659Y-71380423D01*
X95594433Y-71489164D01*
X95594430Y-71489168D01*
X95534664Y-71620034D01*
X95514976Y-71687082D01*
X95494500Y-71829501D01*
X94305500Y-71829501D01*
X94305500Y-69746265D01*
X94325185Y-69679226D01*
X94362458Y-69641951D01*
X94458543Y-69580201D01*
X94511347Y-69534446D01*
X94605567Y-69425712D01*
X94665338Y-69294835D01*
X94685023Y-69227796D01*
X94685024Y-69227792D01*
X94705500Y-69085376D01*
X94705500Y-68029500D01*
X94725185Y-67962461D01*
X94777989Y-67916706D01*
X94829500Y-67905500D01*
X95062668Y-67905500D01*
X95116738Y-67902600D01*
X95143109Y-67899763D01*
X95196544Y-67891099D01*
X95204102Y-67889454D01*
X95295280Y-67857272D01*
X95322961Y-67847502D01*
X95328023Y-67844967D01*
X95377824Y-67820025D01*
X95482610Y-67749969D01*
X95483979Y-67748782D01*
X95578110Y-67640104D01*
X95615853Y-67581361D01*
X95675583Y-67450563D01*
X95679988Y-67435565D01*
X95695328Y-67365066D01*
X95700353Y-67330122D01*
X95705500Y-67258170D01*
X95705500Y-65278848D01*
X96399499Y-65278848D01*
X96430257Y-65433471D01*
X96430264Y-65433502D01*
X96490598Y-65579165D01*
X96490603Y-65579174D01*
X96490613Y-65579191D01*
X96578211Y-65710290D01*
X96578212Y-65710291D01*
X96578217Y-65710297D01*
X96689701Y-65821781D01*
X96689707Y-65821786D01*
X96689711Y-65821789D01*
X96820814Y-65909390D01*
X96820827Y-65909397D01*
X96966498Y-65969735D01*
X96966503Y-65969737D01*
X97113513Y-65998979D01*
X97116247Y-65999703D01*
X97121155Y-66000500D01*
X97278844Y-66000500D01*
X97282964Y-66000500D01*
X97290814Y-65998118D01*
X97433497Y-65969737D01*
X97579179Y-65909394D01*
X97710289Y-65821789D01*
X97821789Y-65710289D01*
X97909394Y-65579179D01*
X97969737Y-65433497D01*
X98000500Y-65278842D01*
X98000500Y-65178848D01*
X100699499Y-65178848D01*
X100730257Y-65333471D01*
X100730264Y-65333502D01*
X100790598Y-65479165D01*
X100790603Y-65479174D01*
X100790613Y-65479191D01*
X100878211Y-65610290D01*
X100878212Y-65610291D01*
X100878217Y-65610297D01*
X100989701Y-65721781D01*
X100989707Y-65721786D01*
X100989711Y-65721789D01*
X101120814Y-65809390D01*
X101120827Y-65809397D01*
X101266498Y-65869735D01*
X101266503Y-65869737D01*
X101413513Y-65898979D01*
X101416247Y-65899703D01*
X101421155Y-65900500D01*
X101578844Y-65900500D01*
X101582964Y-65900500D01*
X101590814Y-65898118D01*
X101733497Y-65869737D01*
X101879179Y-65809394D01*
X102010289Y-65721789D01*
X102121789Y-65610289D01*
X102209394Y-65479179D01*
X102269737Y-65333497D01*
X102300500Y-65178842D01*
X102300500Y-65021158D01*
X102300500Y-65021155D01*
X102300500Y-65020973D01*
X102300065Y-65018972D01*
X102290290Y-64969831D01*
X102270395Y-64869815D01*
X102269983Y-64867403D01*
X102269737Y-64866504D01*
X102250817Y-64820827D01*
X102233427Y-64778842D01*
X102209397Y-64720827D01*
X102209390Y-64720814D01*
X102121789Y-64589711D01*
X102121786Y-64589707D01*
X102121781Y-64589701D01*
X102010297Y-64478217D01*
X102010291Y-64478212D01*
X102010290Y-64478211D01*
X101879191Y-64390613D01*
X101879190Y-64390612D01*
X101879185Y-64390609D01*
X101879172Y-64390602D01*
X101879165Y-64390598D01*
X101733502Y-64330264D01*
X101733471Y-64330257D01*
X101578847Y-64299500D01*
X101578845Y-64299500D01*
X101578842Y-64299500D01*
X101421158Y-64299500D01*
X101421155Y-64299500D01*
X101421153Y-64299500D01*
X101266527Y-64330257D01*
X101266496Y-64330264D01*
X101120833Y-64390598D01*
X101120824Y-64390603D01*
X101120807Y-64390613D01*
X100989708Y-64478211D01*
X100989707Y-64478212D01*
X100989701Y-64478217D01*
X100878217Y-64589701D01*
X100878212Y-64589707D01*
X100878211Y-64589708D01*
X100790613Y-64720807D01*
X100790603Y-64720824D01*
X100790598Y-64720833D01*
X100730264Y-64866496D01*
X100730257Y-64866527D01*
X100699500Y-65021150D01*
X100699500Y-65021153D01*
X100699500Y-65178846D01*
X100699500Y-65178848D01*
X100699499Y-65178848D01*
X98000500Y-65178848D01*
X98000500Y-65121158D01*
X98000500Y-65121155D01*
X97984810Y-65042280D01*
X97984209Y-65039255D01*
X97984207Y-65039246D01*
X97984207Y-65039245D01*
X97978904Y-65012590D01*
X97970394Y-64969808D01*
X97969983Y-64967400D01*
X97969737Y-64966504D01*
X97928314Y-64866498D01*
X97928313Y-64866496D01*
X97909399Y-64820833D01*
X97909397Y-64820827D01*
X97909390Y-64820814D01*
X97821789Y-64689711D01*
X97821786Y-64689707D01*
X97821781Y-64689701D01*
X97710297Y-64578217D01*
X97710291Y-64578212D01*
X97710290Y-64578211D01*
X97579191Y-64490613D01*
X97579190Y-64490612D01*
X97579185Y-64490609D01*
X97579172Y-64490602D01*
X97579165Y-64490598D01*
X97433502Y-64430264D01*
X97433471Y-64430257D01*
X97278847Y-64399500D01*
X97278845Y-64399500D01*
X97278842Y-64399500D01*
X97121158Y-64399500D01*
X97121155Y-64399500D01*
X97121153Y-64399500D01*
X96966527Y-64430257D01*
X96966496Y-64430264D01*
X96820833Y-64490598D01*
X96820824Y-64490603D01*
X96820807Y-64490613D01*
X96689708Y-64578211D01*
X96689707Y-64578212D01*
X96689701Y-64578217D01*
X96578217Y-64689701D01*
X96578212Y-64689707D01*
X96578211Y-64689708D01*
X96490613Y-64820807D01*
X96490603Y-64820824D01*
X96490598Y-64820833D01*
X96430264Y-64966496D01*
X96430257Y-64966527D01*
X96399500Y-65121150D01*
X96399500Y-65121153D01*
X96399500Y-65278846D01*
X96399500Y-65278848D01*
X96399499Y-65278848D01*
X95705500Y-65278848D01*
X95705500Y-63407727D01*
X95702355Y-63351428D01*
X95699279Y-63323981D01*
X95699276Y-63323965D01*
X95699275Y-63323954D01*
X95694295Y-63294487D01*
X95974897Y-63294487D01*
X96005655Y-63449110D01*
X96005662Y-63449141D01*
X96065996Y-63594804D01*
X96066001Y-63594813D01*
X96066011Y-63594830D01*
X96153609Y-63725929D01*
X96153610Y-63725930D01*
X96153615Y-63725936D01*
X96265099Y-63837420D01*
X96265105Y-63837425D01*
X96265109Y-63837428D01*
X96396212Y-63925029D01*
X96396225Y-63925036D01*
X96541896Y-63985374D01*
X96541901Y-63985376D01*
X96688911Y-64014618D01*
X96691645Y-64015342D01*
X96696553Y-64016139D01*
X96854242Y-64016139D01*
X96858362Y-64016139D01*
X96866212Y-64013757D01*
X97008895Y-63985376D01*
X97154577Y-63925033D01*
X97285687Y-63837428D01*
X97397187Y-63725928D01*
X97484792Y-63594818D01*
X97545135Y-63449136D01*
X97575898Y-63294481D01*
X97575898Y-63136797D01*
X97575898Y-63136794D01*
X97575898Y-63136612D01*
X97575463Y-63134611D01*
X97545796Y-62985469D01*
X97545381Y-62983042D01*
X97545135Y-62982143D01*
X97543844Y-62979027D01*
X97539626Y-62968842D01*
X97484795Y-62836466D01*
X97484788Y-62836453D01*
X97397187Y-62705350D01*
X97397184Y-62705346D01*
X97397179Y-62705340D01*
X97299927Y-62608088D01*
X97278779Y-62579839D01*
X97272252Y-62567887D01*
X97257397Y-62499615D01*
X97281810Y-62434149D01*
X97330571Y-62395209D01*
X97338111Y-62391846D01*
X97364425Y-62383475D01*
X97433497Y-62369737D01*
X97579179Y-62309394D01*
X97710289Y-62221789D01*
X97821789Y-62110289D01*
X97909394Y-61979179D01*
X97969737Y-61833497D01*
X98000500Y-61678842D01*
X98000500Y-61521158D01*
X98000500Y-61521155D01*
X98000500Y-61520974D01*
X98000066Y-61518977D01*
X97998337Y-61510282D01*
X97998337Y-61510281D01*
X97972261Y-61379191D01*
X97969737Y-61366503D01*
X97969735Y-61366498D01*
X97909397Y-61220827D01*
X97909390Y-61220814D01*
X97821789Y-61089711D01*
X97821786Y-61089707D01*
X97821781Y-61089701D01*
X97810928Y-61078848D01*
X104799499Y-61078848D01*
X104830257Y-61233471D01*
X104830264Y-61233502D01*
X104890598Y-61379165D01*
X104890603Y-61379174D01*
X104890613Y-61379191D01*
X104978206Y-61510282D01*
X104978211Y-61510290D01*
X104978217Y-61510297D01*
X105089701Y-61621781D01*
X105089707Y-61621786D01*
X105089711Y-61621789D01*
X105220814Y-61709390D01*
X105220827Y-61709397D01*
X105366498Y-61769735D01*
X105366503Y-61769737D01*
X105509163Y-61798114D01*
X105513512Y-61798979D01*
X105516247Y-61799703D01*
X105521155Y-61800500D01*
X105678844Y-61800500D01*
X105682964Y-61800500D01*
X105690814Y-61798118D01*
X105833497Y-61769737D01*
X105979179Y-61709394D01*
X106110289Y-61621789D01*
X106221789Y-61510289D01*
X106309394Y-61379179D01*
X106369737Y-61233497D01*
X106400500Y-61078842D01*
X106400500Y-61041088D01*
X106401119Y-61038977D01*
X106405523Y-61006154D01*
X106409360Y-60993086D01*
X106418999Y-60978086D01*
X106420185Y-60974049D01*
X106423365Y-60971293D01*
X106447134Y-60934308D01*
X106510689Y-60905282D01*
X106572712Y-60912233D01*
X106580433Y-60915192D01*
X106604941Y-60927874D01*
X106670821Y-60971894D01*
X106670823Y-60971895D01*
X106670827Y-60971897D01*
X106794828Y-61023259D01*
X106816503Y-61032237D01*
X106816505Y-61032237D01*
X106816510Y-61032239D01*
X106942630Y-61057325D01*
X106963513Y-61061479D01*
X106966247Y-61062203D01*
X106971155Y-61063000D01*
X107128844Y-61063000D01*
X107132964Y-61063000D01*
X107140814Y-61060618D01*
X107283497Y-61032237D01*
X107396166Y-60985567D01*
X107422634Y-60974604D01*
X107425425Y-60973631D01*
X107426868Y-60972964D01*
X107431528Y-60970921D01*
X107440787Y-60967085D01*
X107449671Y-60958201D01*
X107560289Y-60884289D01*
X107671789Y-60772789D01*
X107759394Y-60641679D01*
X107819737Y-60495997D01*
X107850500Y-60341342D01*
X107850500Y-60183658D01*
X107850500Y-60183655D01*
X107850500Y-60183473D01*
X107850065Y-60181472D01*
X107820398Y-60032330D01*
X107819984Y-60029906D01*
X107819737Y-60029006D01*
X107819737Y-60029003D01*
X107817905Y-60024580D01*
X107809178Y-59990387D01*
X107807507Y-59974847D01*
X107819910Y-59906090D01*
X107823200Y-59899516D01*
X107865192Y-59851921D01*
X107910289Y-59821789D01*
X108021789Y-59710289D01*
X108109394Y-59579179D01*
X108169737Y-59433497D01*
X108200500Y-59278842D01*
X108200500Y-59121158D01*
X108200500Y-59121155D01*
X108200500Y-59120973D01*
X108200065Y-59118972D01*
X108170397Y-58969824D01*
X108169994Y-58967467D01*
X108169738Y-58966508D01*
X108169737Y-58966506D01*
X108169737Y-58966503D01*
X108169735Y-58966498D01*
X108109397Y-58820827D01*
X108109390Y-58820814D01*
X108021789Y-58689711D01*
X108021786Y-58689707D01*
X108021781Y-58689701D01*
X107910297Y-58578217D01*
X107910291Y-58578212D01*
X107910290Y-58578211D01*
X107779191Y-58490613D01*
X107779190Y-58490612D01*
X107779185Y-58490609D01*
X107779172Y-58490602D01*
X107779165Y-58490598D01*
X107633502Y-58430264D01*
X107633471Y-58430257D01*
X107478847Y-58399500D01*
X107478845Y-58399500D01*
X107478842Y-58399500D01*
X107321158Y-58399500D01*
X107321155Y-58399500D01*
X107321153Y-58399500D01*
X107166527Y-58430257D01*
X107166496Y-58430264D01*
X107020833Y-58490598D01*
X107020824Y-58490603D01*
X107020807Y-58490613D01*
X106889708Y-58578211D01*
X106889707Y-58578212D01*
X106889701Y-58578217D01*
X106778217Y-58689701D01*
X106778212Y-58689707D01*
X106778211Y-58689708D01*
X106690613Y-58820807D01*
X106690603Y-58820824D01*
X106690598Y-58820833D01*
X106630264Y-58966496D01*
X106630257Y-58966527D01*
X106599500Y-59121150D01*
X106599500Y-59278850D01*
X106630256Y-59433475D01*
X106630258Y-59433483D01*
X106630260Y-59433488D01*
X106630263Y-59433497D01*
X106632095Y-59437920D01*
X106640821Y-59472119D01*
X106642491Y-59487663D01*
X106630086Y-59556411D01*
X106626798Y-59562980D01*
X106584803Y-59610581D01*
X106539715Y-59640707D01*
X106539702Y-59640716D01*
X106428217Y-59752201D01*
X106428212Y-59752207D01*
X106428211Y-59752208D01*
X106340613Y-59883307D01*
X106340603Y-59883324D01*
X106340598Y-59883333D01*
X106280264Y-60028996D01*
X106280257Y-60029027D01*
X106249500Y-60183650D01*
X106249500Y-60221410D01*
X106244474Y-60256355D01*
X106240636Y-60269422D01*
X106202857Y-60328197D01*
X106139299Y-60357216D01*
X106077291Y-60350267D01*
X106069577Y-60347311D01*
X106045059Y-60334624D01*
X105979190Y-60290612D01*
X105979185Y-60290609D01*
X105979184Y-60290608D01*
X105979176Y-60290603D01*
X105979166Y-60290598D01*
X105833502Y-60230264D01*
X105833471Y-60230257D01*
X105678847Y-60199500D01*
X105678845Y-60199500D01*
X105678842Y-60199500D01*
X105521158Y-60199500D01*
X105521155Y-60199500D01*
X105521153Y-60199500D01*
X105366527Y-60230257D01*
X105366496Y-60230264D01*
X105220833Y-60290598D01*
X105220824Y-60290603D01*
X105220807Y-60290613D01*
X105089708Y-60378211D01*
X105089707Y-60378212D01*
X105089701Y-60378217D01*
X104978217Y-60489701D01*
X104978212Y-60489707D01*
X104978211Y-60489708D01*
X104890613Y-60620807D01*
X104890603Y-60620824D01*
X104890598Y-60620833D01*
X104830264Y-60766496D01*
X104830257Y-60766527D01*
X104799500Y-60921150D01*
X104799500Y-60921153D01*
X104799500Y-61078846D01*
X104799500Y-61078848D01*
X104799499Y-61078848D01*
X97810928Y-61078848D01*
X97710297Y-60978217D01*
X97710291Y-60978212D01*
X97710290Y-60978211D01*
X97579191Y-60890613D01*
X97579190Y-60890612D01*
X97579185Y-60890609D01*
X97579172Y-60890602D01*
X97579165Y-60890598D01*
X97433502Y-60830264D01*
X97433471Y-60830257D01*
X97278847Y-60799500D01*
X97278845Y-60799500D01*
X97278842Y-60799500D01*
X97121158Y-60799500D01*
X97121155Y-60799500D01*
X97121153Y-60799500D01*
X96966527Y-60830257D01*
X96966496Y-60830264D01*
X96820833Y-60890598D01*
X96820824Y-60890603D01*
X96820807Y-60890613D01*
X96689708Y-60978211D01*
X96689707Y-60978212D01*
X96689701Y-60978217D01*
X96578217Y-61089701D01*
X96578212Y-61089707D01*
X96578211Y-61089708D01*
X96490613Y-61220807D01*
X96490603Y-61220824D01*
X96490598Y-61220833D01*
X96430264Y-61366496D01*
X96430257Y-61366527D01*
X96399500Y-61521150D01*
X96399500Y-61521153D01*
X96399500Y-61678846D01*
X96399500Y-61678848D01*
X96399499Y-61678848D01*
X96430257Y-61833471D01*
X96430264Y-61833502D01*
X96490598Y-61979165D01*
X96490603Y-61979174D01*
X96490613Y-61979191D01*
X96578211Y-62110290D01*
X96578212Y-62110291D01*
X96578217Y-62110297D01*
X96675469Y-62207549D01*
X96696620Y-62235802D01*
X96703147Y-62247755D01*
X96717999Y-62316028D01*
X96693583Y-62381492D01*
X96644818Y-62420432D01*
X96637279Y-62423794D01*
X96610968Y-62432162D01*
X96541910Y-62445899D01*
X96541905Y-62445900D01*
X96541903Y-62445900D01*
X96541873Y-62445911D01*
X96396231Y-62506237D01*
X96396222Y-62506242D01*
X96396205Y-62506252D01*
X96265106Y-62593850D01*
X96265105Y-62593851D01*
X96265099Y-62593856D01*
X96153615Y-62705340D01*
X96153610Y-62705346D01*
X96153609Y-62705347D01*
X96066011Y-62836446D01*
X96066001Y-62836463D01*
X96065996Y-62836472D01*
X96005662Y-62982135D01*
X96005655Y-62982166D01*
X95974898Y-63136789D01*
X95974898Y-63136792D01*
X95974898Y-63294485D01*
X95974898Y-63294487D01*
X95974897Y-63294487D01*
X95694295Y-63294487D01*
X95689884Y-63268384D01*
X95689883Y-63268378D01*
X95689309Y-63265851D01*
X95688056Y-63260330D01*
X95644055Y-63139919D01*
X95642437Y-63136792D01*
X95615387Y-63084513D01*
X95546950Y-62985469D01*
X95542500Y-62979028D01*
X95530313Y-62968842D01*
X95444479Y-62897102D01*
X95405664Y-62839006D01*
X95400000Y-62801958D01*
X95400000Y-62693049D01*
X95400150Y-62686956D01*
X95400500Y-62679841D01*
X95400500Y-62520172D01*
X95400149Y-62513019D01*
X95400000Y-62506942D01*
X95400000Y-62399100D01*
X95419685Y-62332061D01*
X95456970Y-62294779D01*
X95477668Y-62281479D01*
X95484359Y-62277180D01*
X95578589Y-62168450D01*
X95616368Y-62109675D01*
X95676148Y-61978803D01*
X95679986Y-61965736D01*
X95695325Y-61895244D01*
X95700351Y-61860299D01*
X95705500Y-61788335D01*
X95705500Y-59278848D01*
X99799499Y-59278848D01*
X99830257Y-59433471D01*
X99830264Y-59433502D01*
X99890598Y-59579165D01*
X99890603Y-59579174D01*
X99890613Y-59579191D01*
X99978211Y-59710290D01*
X99978212Y-59710291D01*
X99978217Y-59710297D01*
X100089701Y-59821781D01*
X100089707Y-59821786D01*
X100089711Y-59821789D01*
X100220814Y-59909390D01*
X100220827Y-59909397D01*
X100366498Y-59969735D01*
X100366503Y-59969737D01*
X100513513Y-59998979D01*
X100516247Y-59999703D01*
X100521155Y-60000500D01*
X100678844Y-60000500D01*
X100682964Y-60000500D01*
X100690814Y-59998118D01*
X100833497Y-59969737D01*
X100946166Y-59923067D01*
X100972634Y-59912104D01*
X100975425Y-59911131D01*
X100976868Y-59910464D01*
X100981528Y-59908421D01*
X100990787Y-59904585D01*
X100999671Y-59895701D01*
X101110289Y-59821789D01*
X101221789Y-59710289D01*
X101309394Y-59579179D01*
X101369737Y-59433497D01*
X101400500Y-59278842D01*
X101400500Y-59121158D01*
X101400500Y-59121155D01*
X101400500Y-59120973D01*
X101400065Y-59118972D01*
X101370397Y-58969824D01*
X101369994Y-58967467D01*
X101369738Y-58966508D01*
X101369737Y-58966506D01*
X101369737Y-58966503D01*
X101369735Y-58966498D01*
X101309397Y-58820827D01*
X101309390Y-58820814D01*
X101221789Y-58689711D01*
X101221786Y-58689707D01*
X101221781Y-58689701D01*
X101110297Y-58578217D01*
X101110291Y-58578212D01*
X101110290Y-58578211D01*
X100979191Y-58490613D01*
X100979190Y-58490612D01*
X100979185Y-58490609D01*
X100979172Y-58490602D01*
X100979165Y-58490598D01*
X100833502Y-58430264D01*
X100833471Y-58430257D01*
X100678847Y-58399500D01*
X100678845Y-58399500D01*
X100678842Y-58399500D01*
X100521158Y-58399500D01*
X100521155Y-58399500D01*
X100521153Y-58399500D01*
X100366527Y-58430257D01*
X100366496Y-58430264D01*
X100220833Y-58490598D01*
X100220824Y-58490603D01*
X100220807Y-58490613D01*
X100089708Y-58578211D01*
X100089707Y-58578212D01*
X100089701Y-58578217D01*
X99978217Y-58689701D01*
X99978212Y-58689707D01*
X99978211Y-58689708D01*
X99890613Y-58820807D01*
X99890603Y-58820824D01*
X99890598Y-58820833D01*
X99830264Y-58966496D01*
X99830257Y-58966527D01*
X99799500Y-59121150D01*
X99799500Y-59121153D01*
X99799500Y-59278846D01*
X99799500Y-59278848D01*
X99799499Y-59278848D01*
X95705500Y-59278848D01*
X95705500Y-56737331D01*
X95705141Y-56730642D01*
X95721205Y-56662646D01*
X95771482Y-56614128D01*
X95828963Y-56600000D01*
X107607240Y-56600000D01*
X107642172Y-56605022D01*
G37*
%TD.AperFunction*%
%TD*%
%TA.AperFunction,Conductor*%
%TO.N,/Circuit Switch1/BATT_GND*%
G36*
X95093106Y-56605023D02*
G01*
X95108104Y-56609427D01*
X95166855Y-56647172D01*
X95168042Y-56648541D01*
X95195518Y-56703402D01*
X95197163Y-56710960D01*
X95200000Y-56737331D01*
X95200000Y-61788335D01*
X95194974Y-61823280D01*
X95191136Y-61836347D01*
X95153357Y-61895122D01*
X95089799Y-61924141D01*
X95027800Y-61917195D01*
X95020087Y-61914240D01*
X94995558Y-61901549D01*
X94979186Y-61890609D01*
X94979181Y-61890607D01*
X94979173Y-61890602D01*
X94979169Y-61890600D01*
X94833502Y-61830264D01*
X94833471Y-61830257D01*
X94678847Y-61799500D01*
X94678845Y-61799500D01*
X94678842Y-61799500D01*
X94521158Y-61799500D01*
X94521155Y-61799500D01*
X94521153Y-61799500D01*
X94366527Y-61830257D01*
X94366496Y-61830264D01*
X94220833Y-61890598D01*
X94220824Y-61890603D01*
X94220807Y-61890613D01*
X94089708Y-61978211D01*
X94089707Y-61978212D01*
X94089701Y-61978217D01*
X93978217Y-62089701D01*
X93978212Y-62089707D01*
X93978211Y-62089708D01*
X93890606Y-62220818D01*
X93890605Y-62220820D01*
X93875389Y-62257553D01*
X93857378Y-62287906D01*
X93848671Y-62298710D01*
X93791277Y-62338557D01*
X93721463Y-62341051D01*
X93716388Y-62339756D01*
X93659365Y-62307286D01*
X93620296Y-62268216D01*
X93620291Y-62268212D01*
X93620290Y-62268211D01*
X93489191Y-62180613D01*
X93489190Y-62180612D01*
X93489185Y-62180609D01*
X93489172Y-62180602D01*
X93489165Y-62180598D01*
X93343502Y-62120264D01*
X93343471Y-62120257D01*
X93188847Y-62089500D01*
X93188845Y-62089500D01*
X93188842Y-62089500D01*
X93031158Y-62089500D01*
X93031155Y-62089500D01*
X93031153Y-62089500D01*
X92876527Y-62120257D01*
X92876496Y-62120264D01*
X92730833Y-62180598D01*
X92730824Y-62180603D01*
X92730807Y-62180613D01*
X92599708Y-62268211D01*
X92599707Y-62268212D01*
X92599701Y-62268217D01*
X92488217Y-62379701D01*
X92488212Y-62379707D01*
X92488211Y-62379708D01*
X92400613Y-62510807D01*
X92400603Y-62510824D01*
X92400598Y-62510833D01*
X92340264Y-62656496D01*
X92340257Y-62656527D01*
X92309500Y-62811150D01*
X92309500Y-62811153D01*
X92309500Y-62968846D01*
X92309500Y-62968848D01*
X92309499Y-62968848D01*
X92340257Y-63123471D01*
X92340264Y-63123502D01*
X92400598Y-63269165D01*
X92400602Y-63269172D01*
X92400608Y-63269184D01*
X92400613Y-63269191D01*
X92488211Y-63400290D01*
X92488212Y-63400291D01*
X92488217Y-63400297D01*
X92599701Y-63511781D01*
X92599707Y-63511786D01*
X92599711Y-63511789D01*
X92730814Y-63599390D01*
X92730827Y-63599397D01*
X92876498Y-63659735D01*
X92876503Y-63659737D01*
X93023513Y-63688979D01*
X93026247Y-63689703D01*
X93031155Y-63690500D01*
X93188844Y-63690500D01*
X93192964Y-63690500D01*
X93200814Y-63688118D01*
X93343497Y-63659737D01*
X93489179Y-63599394D01*
X93620289Y-63511789D01*
X93731789Y-63400289D01*
X93819394Y-63269179D01*
X93834611Y-63232440D01*
X93852615Y-63202097D01*
X93861325Y-63191287D01*
X93918717Y-63151441D01*
X93988534Y-63148946D01*
X93993609Y-63150241D01*
X94050632Y-63182711D01*
X94089702Y-63221782D01*
X94089707Y-63221786D01*
X94089711Y-63221789D01*
X94220814Y-63309390D01*
X94220827Y-63309397D01*
X94366498Y-63369735D01*
X94366503Y-63369737D01*
X94487646Y-63393834D01*
X94513513Y-63398979D01*
X94516247Y-63399703D01*
X94521155Y-63400500D01*
X94678844Y-63400500D01*
X94682964Y-63400500D01*
X94690814Y-63398118D01*
X94833497Y-63369737D01*
X94979179Y-63309394D01*
X94992284Y-63300636D01*
X95024126Y-63285402D01*
X95037124Y-63281332D01*
X95106982Y-63280089D01*
X95166424Y-63316811D01*
X95195095Y-63372222D01*
X95196924Y-63380280D01*
X95200000Y-63407727D01*
X95200000Y-67258170D01*
X95194975Y-67293114D01*
X95190570Y-67308112D01*
X95152827Y-67366855D01*
X95151458Y-67368042D01*
X95096597Y-67395518D01*
X95089039Y-67397163D01*
X95062668Y-67400000D01*
X94200000Y-67400000D01*
X94200000Y-69085376D01*
X94180315Y-69152415D01*
X94127511Y-69198170D01*
X94058353Y-69208114D01*
X94025383Y-69195972D01*
X94024404Y-69198117D01*
X93885465Y-69134664D01*
X93885460Y-69134662D01*
X93885459Y-69134662D01*
X93818420Y-69114977D01*
X93818422Y-69114977D01*
X93818417Y-69114976D01*
X93756347Y-69106052D01*
X93676000Y-69094500D01*
X93675998Y-69094500D01*
X92000000Y-69094500D01*
X92000000Y-67481366D01*
X92030257Y-67633471D01*
X92030264Y-67633502D01*
X92090598Y-67779165D01*
X92090603Y-67779174D01*
X92090613Y-67779191D01*
X92178211Y-67910290D01*
X92178212Y-67910291D01*
X92178217Y-67910297D01*
X92289701Y-68021781D01*
X92289707Y-68021786D01*
X92289711Y-68021789D01*
X92420814Y-68109390D01*
X92420827Y-68109397D01*
X92566498Y-68169735D01*
X92566503Y-68169737D01*
X92713513Y-68198979D01*
X92716247Y-68199703D01*
X92721155Y-68200500D01*
X92878844Y-68200500D01*
X92882964Y-68200500D01*
X92890814Y-68198118D01*
X93033497Y-68169737D01*
X93179179Y-68109394D01*
X93310289Y-68021789D01*
X93421789Y-67910289D01*
X93509394Y-67779179D01*
X93569737Y-67633497D01*
X93600500Y-67478842D01*
X93600500Y-67321158D01*
X93600500Y-67321155D01*
X93600500Y-67320973D01*
X93600065Y-67318972D01*
X93597905Y-67308112D01*
X93576405Y-67200027D01*
X93576404Y-67200023D01*
X93569738Y-67166507D01*
X93569734Y-67166496D01*
X93541074Y-67097303D01*
X93509397Y-67020827D01*
X93509390Y-67020814D01*
X93421789Y-66889711D01*
X93421786Y-66889707D01*
X93421781Y-66889701D01*
X93310297Y-66778217D01*
X93310291Y-66778212D01*
X93310290Y-66778211D01*
X93179191Y-66690613D01*
X93179190Y-66690612D01*
X93179185Y-66690609D01*
X93179172Y-66690602D01*
X93179165Y-66690598D01*
X93033502Y-66630264D01*
X93033471Y-66630257D01*
X92878847Y-66599500D01*
X92878845Y-66599500D01*
X92878842Y-66599500D01*
X92721158Y-66599500D01*
X92721155Y-66599500D01*
X92721153Y-66599500D01*
X92566527Y-66630257D01*
X92566496Y-66630264D01*
X92420833Y-66690598D01*
X92420824Y-66690603D01*
X92420807Y-66690613D01*
X92289708Y-66778211D01*
X92289707Y-66778212D01*
X92289701Y-66778217D01*
X92178217Y-66889701D01*
X92178212Y-66889707D01*
X92178211Y-66889708D01*
X92090613Y-67020807D01*
X92090603Y-67020824D01*
X92090598Y-67020833D01*
X92030264Y-67166496D01*
X92030257Y-67166527D01*
X92000000Y-67318636D01*
X92000000Y-65600000D01*
X84400000Y-65600000D01*
X84400000Y-69109651D01*
X84416537Y-69106054D01*
X84365027Y-69117260D01*
X84262502Y-69151383D01*
X84262496Y-69151386D01*
X84141462Y-69229171D01*
X84141451Y-69229179D01*
X84088659Y-69274923D01*
X83994433Y-69383664D01*
X83994430Y-69383668D01*
X83934664Y-69514534D01*
X83934662Y-69514541D01*
X83914977Y-69581580D01*
X83914976Y-69581584D01*
X83894500Y-69724000D01*
X83894500Y-75476000D01*
X83894501Y-75476009D01*
X83906052Y-75583450D01*
X83906054Y-75583462D01*
X83917260Y-75634972D01*
X83951383Y-75737497D01*
X83951386Y-75737503D01*
X84029171Y-75858537D01*
X84029179Y-75858548D01*
X84074923Y-75911340D01*
X84074926Y-75911343D01*
X84074930Y-75911347D01*
X84183664Y-76005567D01*
X84183667Y-76005568D01*
X84183668Y-76005569D01*
X84277925Y-76048616D01*
X84314541Y-76065338D01*
X84381580Y-76085023D01*
X84381584Y-76085024D01*
X84524000Y-76105500D01*
X93675990Y-76105500D01*
X93676000Y-76105500D01*
X93783456Y-76093947D01*
X93834967Y-76082741D01*
X93869197Y-76071347D01*
X93937497Y-76048616D01*
X93937499Y-76048614D01*
X93937504Y-76048613D01*
X94008961Y-76002689D01*
X94075999Y-75983005D01*
X94143039Y-76002689D01*
X94188794Y-76055493D01*
X94200000Y-76107005D01*
X94200000Y-78400000D01*
X95058170Y-78400000D01*
X95093106Y-78405023D01*
X95108104Y-78409427D01*
X95166855Y-78447172D01*
X95168042Y-78448541D01*
X95195518Y-78503402D01*
X95197163Y-78510960D01*
X95200000Y-78537331D01*
X95200000Y-85657670D01*
X95194975Y-85692614D01*
X95190570Y-85707612D01*
X95152827Y-85766355D01*
X95151458Y-85767542D01*
X95096597Y-85795018D01*
X95089039Y-85796663D01*
X95062668Y-85799500D01*
X82006643Y-85799500D01*
X82002218Y-85799421D01*
X81997792Y-85799262D01*
X81993374Y-85799026D01*
X81986118Y-85798507D01*
X81973622Y-85797613D01*
X81973621Y-85797612D01*
X81799866Y-85785185D01*
X81791059Y-85784238D01*
X81782299Y-85782978D01*
X81773595Y-85781407D01*
X81590542Y-85741587D01*
X81581965Y-85739398D01*
X81573478Y-85736906D01*
X81565080Y-85734111D01*
X81389542Y-85668640D01*
X81381372Y-85665256D01*
X81373317Y-85661577D01*
X81365413Y-85657620D01*
X81200985Y-85567835D01*
X81193368Y-85563316D01*
X81185920Y-85558529D01*
X81178654Y-85553483D01*
X81028686Y-85441219D01*
X81021794Y-85435665D01*
X81015105Y-85429869D01*
X81008626Y-85423837D01*
X80876161Y-85291372D01*
X80870129Y-85284893D01*
X80864333Y-85278204D01*
X80858779Y-85271312D01*
X80746515Y-85121344D01*
X80741469Y-85114078D01*
X80736682Y-85106630D01*
X80732163Y-85099013D01*
X80705673Y-85050500D01*
X80653646Y-84955220D01*
X80642374Y-84934578D01*
X80638412Y-84926662D01*
X80634750Y-84918643D01*
X80631363Y-84910467D01*
X80610510Y-84854557D01*
X80565878Y-84734896D01*
X80563090Y-84726517D01*
X80560595Y-84718017D01*
X80558412Y-84709460D01*
X80518587Y-84526385D01*
X80517021Y-84517708D01*
X80515757Y-84508917D01*
X80514814Y-84500151D01*
X80500973Y-84306624D01*
X80500737Y-84302206D01*
X80500579Y-84297780D01*
X80500500Y-84293356D01*
X80500500Y-83647642D01*
X81199500Y-83647642D01*
X81199500Y-83852356D01*
X81231521Y-84054530D01*
X81294780Y-84249221D01*
X81294786Y-84249234D01*
X81387708Y-84431601D01*
X81387713Y-84431610D01*
X81387715Y-84431613D01*
X81508028Y-84597213D01*
X81652786Y-84741971D01*
X81807748Y-84854555D01*
X81807749Y-84854557D01*
X81818383Y-84862282D01*
X81818390Y-84862287D01*
X81921070Y-84914605D01*
X81994329Y-84951933D01*
X81995927Y-84952869D01*
X81999615Y-84954655D01*
X82001640Y-84955661D01*
X82005406Y-84956723D01*
X82047956Y-84970547D01*
X82105135Y-84989126D01*
X82105136Y-84989127D01*
X82148612Y-85003253D01*
X82195465Y-85018477D01*
X82296557Y-85034488D01*
X82397648Y-85050500D01*
X82397649Y-85050500D01*
X82602351Y-85050500D01*
X82602352Y-85050500D01*
X82804534Y-85018477D01*
X82999219Y-84955220D01*
X83181610Y-84862287D01*
X83274590Y-84794732D01*
X83347213Y-84741971D01*
X83347213Y-84741969D01*
X83347272Y-84741927D01*
X83348031Y-84741153D01*
X83491148Y-84598036D01*
X83491927Y-84597273D01*
X83491972Y-84597211D01*
X83598016Y-84451252D01*
X83612287Y-84431610D01*
X83705220Y-84249219D01*
X83768477Y-84054534D01*
X83800500Y-83852352D01*
X83800500Y-83647648D01*
X83768477Y-83445466D01*
X83768476Y-83445462D01*
X83768476Y-83445461D01*
X83706722Y-83255403D01*
X83705659Y-83251637D01*
X83704662Y-83249629D01*
X83702870Y-83245930D01*
X83701932Y-83244327D01*
X83671503Y-83184607D01*
X83612287Y-83068390D01*
X83604556Y-83057749D01*
X83491971Y-82902786D01*
X83347213Y-82758028D01*
X83347212Y-82758027D01*
X83347211Y-82758026D01*
X83189507Y-82643450D01*
X83189168Y-82643161D01*
X83181603Y-82637707D01*
X83181188Y-82637498D01*
X83124654Y-82608691D01*
X83124653Y-82608691D01*
X82999223Y-82544781D01*
X82804534Y-82481522D01*
X82804532Y-82481521D01*
X82804530Y-82481521D01*
X82804529Y-82481520D01*
X82629995Y-82453878D01*
X82613409Y-82451251D01*
X82602354Y-82449500D01*
X82602352Y-82449500D01*
X82397648Y-82449500D01*
X82397647Y-82449500D01*
X82373327Y-82453351D01*
X82373326Y-82453350D01*
X82195468Y-82481521D01*
X82000777Y-82544780D01*
X82000764Y-82544786D01*
X81818397Y-82637708D01*
X81818385Y-82637715D01*
X81652787Y-82758027D01*
X81652784Y-82758029D01*
X81508029Y-82902784D01*
X81508027Y-82902787D01*
X81387715Y-83068385D01*
X81387708Y-83068397D01*
X81294786Y-83250764D01*
X81294780Y-83250777D01*
X81231521Y-83445468D01*
X81199500Y-83647642D01*
X80500500Y-83647642D01*
X80500500Y-78088541D01*
X84599500Y-78088541D01*
X84599500Y-78311457D01*
X84599503Y-78311482D01*
X84628594Y-78532454D01*
X84628708Y-78533146D01*
X84629443Y-78535624D01*
X84686289Y-78747779D01*
X84686297Y-78747799D01*
X84771595Y-78953726D01*
X84881212Y-79143589D01*
X84882233Y-79145486D01*
X84883067Y-79146873D01*
X84884571Y-79148754D01*
X85018751Y-79323622D01*
X85018757Y-79323629D01*
X85176370Y-79481242D01*
X85176376Y-79481247D01*
X85353226Y-79616948D01*
X85546274Y-79728405D01*
X85752219Y-79813710D01*
X85967537Y-79871404D01*
X86188543Y-79900500D01*
X86188550Y-79900500D01*
X86411450Y-79900500D01*
X86411457Y-79900500D01*
X86632463Y-79871404D01*
X86847781Y-79813710D01*
X87053726Y-79728405D01*
X87246774Y-79616948D01*
X87423624Y-79481247D01*
X87581247Y-79323624D01*
X87716948Y-79146774D01*
X87828405Y-78953726D01*
X87913710Y-78747781D01*
X87971404Y-78532463D01*
X88000500Y-78311457D01*
X88000500Y-78088543D01*
X87971404Y-77867537D01*
X87913710Y-77652219D01*
X87828405Y-77446274D01*
X87716948Y-77253226D01*
X87581247Y-77076376D01*
X87581242Y-77076370D01*
X87423629Y-76918757D01*
X87423622Y-76918751D01*
X87423612Y-76918743D01*
X87423603Y-76918736D01*
X87248754Y-76784571D01*
X87246873Y-76783067D01*
X87245486Y-76782233D01*
X87243589Y-76781212D01*
X87053726Y-76671595D01*
X87053722Y-76671593D01*
X86851833Y-76587968D01*
X86850016Y-76587138D01*
X86849536Y-76586956D01*
X86848015Y-76586352D01*
X86632467Y-76528597D01*
X86632465Y-76528596D01*
X86632463Y-76528596D01*
X86632457Y-76528595D01*
X86632452Y-76528594D01*
X86632447Y-76528593D01*
X86413335Y-76499747D01*
X86411654Y-76499500D01*
X86411463Y-76499500D01*
X86411457Y-76499500D01*
X86188543Y-76499500D01*
X86188537Y-76499500D01*
X86188535Y-76499500D01*
X86182415Y-76500253D01*
X86181509Y-76500425D01*
X85967568Y-76528591D01*
X85967536Y-76528595D01*
X85965729Y-76529022D01*
X85963946Y-76529558D01*
X85752222Y-76586288D01*
X85752199Y-76586297D01*
X85546272Y-76671595D01*
X85353237Y-76783044D01*
X85353212Y-76783061D01*
X85353210Y-76783062D01*
X85176395Y-76918736D01*
X85176379Y-76918749D01*
X85176369Y-76918758D01*
X85176361Y-76918765D01*
X85018765Y-77076361D01*
X85018758Y-77076369D01*
X85018749Y-77076379D01*
X85018736Y-77076395D01*
X84883062Y-77253210D01*
X84883061Y-77253212D01*
X84883044Y-77253237D01*
X84771595Y-77446272D01*
X84686297Y-77652199D01*
X84686288Y-77652222D01*
X84628600Y-77867518D01*
X84628595Y-77867543D01*
X84628592Y-77867556D01*
X84599503Y-78088516D01*
X84599500Y-78088541D01*
X80500500Y-78088541D01*
X80500500Y-61778848D01*
X88899499Y-61778848D01*
X88930257Y-61933471D01*
X88930264Y-61933502D01*
X88990598Y-62079165D01*
X88990603Y-62079174D01*
X88990613Y-62079191D01*
X89078211Y-62210290D01*
X89078212Y-62210291D01*
X89078217Y-62210297D01*
X89189701Y-62321781D01*
X89189707Y-62321786D01*
X89189711Y-62321789D01*
X89320814Y-62409390D01*
X89320827Y-62409397D01*
X89466498Y-62469735D01*
X89466503Y-62469737D01*
X89613513Y-62498979D01*
X89616247Y-62499703D01*
X89621155Y-62500500D01*
X89778844Y-62500500D01*
X89782964Y-62500500D01*
X89790814Y-62498118D01*
X89933497Y-62469737D01*
X90079179Y-62409394D01*
X90210289Y-62321789D01*
X90321789Y-62210289D01*
X90409394Y-62079179D01*
X90469737Y-61933497D01*
X90500500Y-61778842D01*
X90500500Y-61621158D01*
X90500500Y-61621155D01*
X90500500Y-61620973D01*
X90500065Y-61618972D01*
X90470397Y-61469824D01*
X90469994Y-61467467D01*
X90469738Y-61466508D01*
X90469737Y-61466506D01*
X90469737Y-61466503D01*
X90469735Y-61466498D01*
X90409397Y-61320827D01*
X90409390Y-61320814D01*
X90321789Y-61189711D01*
X90321786Y-61189707D01*
X90321781Y-61189701D01*
X90210297Y-61078217D01*
X90210291Y-61078212D01*
X90210290Y-61078211D01*
X90079191Y-60990613D01*
X90079190Y-60990612D01*
X90079185Y-60990609D01*
X90079172Y-60990602D01*
X90079165Y-60990598D01*
X89933502Y-60930264D01*
X89933471Y-60930257D01*
X89778847Y-60899500D01*
X89778845Y-60899500D01*
X89778842Y-60899500D01*
X89621158Y-60899500D01*
X89621155Y-60899500D01*
X89621153Y-60899500D01*
X89466527Y-60930257D01*
X89466496Y-60930264D01*
X89320833Y-60990598D01*
X89320824Y-60990603D01*
X89320807Y-60990613D01*
X89189708Y-61078211D01*
X89189707Y-61078212D01*
X89189701Y-61078217D01*
X89078217Y-61189701D01*
X89078212Y-61189707D01*
X89078211Y-61189708D01*
X88990613Y-61320807D01*
X88990603Y-61320824D01*
X88990598Y-61320833D01*
X88930264Y-61466496D01*
X88930257Y-61466527D01*
X88899500Y-61621150D01*
X88899500Y-61621153D01*
X88899500Y-61778846D01*
X88899500Y-61778848D01*
X88899499Y-61778848D01*
X80500500Y-61778848D01*
X80500500Y-58778848D01*
X80799499Y-58778848D01*
X80830257Y-58933471D01*
X80830264Y-58933502D01*
X80890598Y-59079165D01*
X80890602Y-59079172D01*
X80890609Y-59079185D01*
X80890613Y-59079191D01*
X80890619Y-59079201D01*
X80971345Y-59200016D01*
X80986576Y-59231849D01*
X80991248Y-59246768D01*
X80992498Y-59316627D01*
X80992497Y-59316629D01*
X80988894Y-59329763D01*
X80972415Y-59365849D01*
X80900602Y-59473325D01*
X80900600Y-59473329D01*
X80840264Y-59618996D01*
X80840257Y-59619027D01*
X80809500Y-59773650D01*
X80809500Y-59773653D01*
X80809500Y-59931346D01*
X80809500Y-59931348D01*
X80809499Y-59931348D01*
X80840257Y-60085971D01*
X80840264Y-60086002D01*
X80900598Y-60231665D01*
X80900603Y-60231674D01*
X80900613Y-60231691D01*
X80988211Y-60362790D01*
X80988212Y-60362791D01*
X80988217Y-60362797D01*
X81099701Y-60474281D01*
X81099707Y-60474286D01*
X81099711Y-60474289D01*
X81230814Y-60561890D01*
X81230827Y-60561897D01*
X81376498Y-60622235D01*
X81376503Y-60622237D01*
X81523513Y-60651479D01*
X81526247Y-60652203D01*
X81531155Y-60653000D01*
X81688844Y-60653000D01*
X81692964Y-60653000D01*
X81700814Y-60650618D01*
X81843497Y-60622237D01*
X81989179Y-60561894D01*
X82120289Y-60474289D01*
X82231789Y-60362789D01*
X82319394Y-60231679D01*
X82379737Y-60085997D01*
X82410500Y-59931342D01*
X82410500Y-59773658D01*
X82410500Y-59773655D01*
X82410500Y-59773473D01*
X82410065Y-59771472D01*
X82380397Y-59622324D01*
X82379994Y-59619967D01*
X82379738Y-59619008D01*
X82379737Y-59619006D01*
X82379737Y-59619003D01*
X82379735Y-59618998D01*
X82319397Y-59473327D01*
X82319390Y-59473314D01*
X82238649Y-59352478D01*
X82223418Y-59320640D01*
X82218747Y-59305720D01*
X82217499Y-59235875D01*
X82221103Y-59222736D01*
X82237579Y-59186656D01*
X82306447Y-59083588D01*
X82308464Y-59080833D01*
X82309979Y-59078425D01*
X82311710Y-59073585D01*
X82369737Y-58933497D01*
X82400500Y-58778842D01*
X82400500Y-58621158D01*
X82400500Y-58621155D01*
X82400500Y-58620973D01*
X82400065Y-58618972D01*
X82392151Y-58579185D01*
X82370395Y-58469815D01*
X82369984Y-58467406D01*
X82369737Y-58466508D01*
X82369737Y-58466503D01*
X82356062Y-58433489D01*
X82309397Y-58320827D01*
X82309390Y-58320814D01*
X82281349Y-58278848D01*
X91599499Y-58278848D01*
X91630257Y-58433471D01*
X91630261Y-58433488D01*
X91630263Y-58433500D01*
X91690598Y-58579165D01*
X91690603Y-58579174D01*
X91690613Y-58579191D01*
X91778211Y-58710290D01*
X91778212Y-58710291D01*
X91778217Y-58710297D01*
X91889701Y-58821781D01*
X91889707Y-58821786D01*
X91889711Y-58821789D01*
X92020814Y-58909390D01*
X92020827Y-58909397D01*
X92166498Y-58969735D01*
X92166503Y-58969737D01*
X92313513Y-58998979D01*
X92316247Y-58999703D01*
X92321155Y-59000500D01*
X92478844Y-59000500D01*
X92482964Y-59000500D01*
X92490814Y-58998118D01*
X92633497Y-58969737D01*
X92779179Y-58909394D01*
X92910289Y-58821789D01*
X93021789Y-58710289D01*
X93109394Y-58579179D01*
X93169737Y-58433497D01*
X93200500Y-58278842D01*
X93200500Y-58121158D01*
X93200500Y-58121155D01*
X93200500Y-58120973D01*
X93200065Y-58118972D01*
X93191957Y-58078213D01*
X93174531Y-57990606D01*
X93169737Y-57966503D01*
X93169735Y-57966498D01*
X93109397Y-57820827D01*
X93109390Y-57820814D01*
X93021789Y-57689711D01*
X93021786Y-57689707D01*
X93021781Y-57689701D01*
X92910297Y-57578217D01*
X92910291Y-57578212D01*
X92910290Y-57578211D01*
X92779191Y-57490613D01*
X92779190Y-57490612D01*
X92779185Y-57490609D01*
X92779172Y-57490602D01*
X92779165Y-57490598D01*
X92633502Y-57430264D01*
X92633471Y-57430257D01*
X92478847Y-57399500D01*
X92478845Y-57399500D01*
X92478842Y-57399500D01*
X92321158Y-57399500D01*
X92321155Y-57399500D01*
X92321153Y-57399500D01*
X92166527Y-57430257D01*
X92166496Y-57430264D01*
X92020833Y-57490598D01*
X92020824Y-57490603D01*
X92020807Y-57490613D01*
X91889708Y-57578211D01*
X91889707Y-57578212D01*
X91889701Y-57578217D01*
X91778217Y-57689701D01*
X91778212Y-57689707D01*
X91778211Y-57689708D01*
X91690613Y-57820807D01*
X91690603Y-57820824D01*
X91690598Y-57820833D01*
X91630264Y-57966496D01*
X91630257Y-57966527D01*
X91599500Y-58121150D01*
X91599500Y-58121153D01*
X91599500Y-58278846D01*
X91599500Y-58278848D01*
X91599499Y-58278848D01*
X82281349Y-58278848D01*
X82221790Y-58189712D01*
X82221784Y-58189705D01*
X82110292Y-58078213D01*
X82110291Y-58078212D01*
X82110290Y-58078211D01*
X81979191Y-57990613D01*
X81979190Y-57990612D01*
X81979185Y-57990609D01*
X81979172Y-57990602D01*
X81979165Y-57990598D01*
X81833502Y-57930264D01*
X81833471Y-57930257D01*
X81678847Y-57899500D01*
X81678845Y-57899500D01*
X81678842Y-57899500D01*
X81521158Y-57899500D01*
X81521155Y-57899500D01*
X81521153Y-57899500D01*
X81366527Y-57930257D01*
X81366496Y-57930264D01*
X81220833Y-57990598D01*
X81220824Y-57990603D01*
X81220807Y-57990613D01*
X81089708Y-58078211D01*
X81089707Y-58078212D01*
X81089701Y-58078217D01*
X80978217Y-58189701D01*
X80978212Y-58189707D01*
X80978211Y-58189708D01*
X80890613Y-58320807D01*
X80890603Y-58320824D01*
X80890598Y-58320833D01*
X80830264Y-58466496D01*
X80830257Y-58466527D01*
X80799500Y-58621150D01*
X80799500Y-58621153D01*
X80799500Y-58778846D01*
X80799500Y-58778848D01*
X80799499Y-58778848D01*
X80500500Y-58778848D01*
X80500500Y-56741829D01*
X80505523Y-56706893D01*
X80509927Y-56691895D01*
X80547672Y-56633144D01*
X80549041Y-56631957D01*
X80603920Y-56604477D01*
X80611479Y-56602833D01*
X80637832Y-56600000D01*
X95058170Y-56600000D01*
X95093106Y-56605023D01*
G37*
%TD.AperFunction*%
%TD*%
M02*
