%TF.GenerationSoftware,KiCad,Pcbnew,10.0.6*%
%TF.CreationDate,2026-10-06T17:11:12-04:00*%
%TF.ProjectId,launch-relay,6c61756e-6368-42d7-9265-6c61792e6b69,rev?*%
%TF.SameCoordinates,Original*%
%TF.FileFunction,Soldermask,Top*%
%TF.FilePolarity,Negative*%
%FSLAX46Y46*%
G04 Gerber Fmt 4.6, Leading zero omitted, Abs format (unit mm)*
G04 Created by KiCad (PCBNEW 10.0.6) date 2026-10-06 17:11:12*
%MOMM*%
%LPD*%
G01*
G04 APERTURE LIST*
G04 Aperture macros list*
%AMRoundRect*
0 Rectangle with rounded corners*
0 $1 Rounding radius*
0 $2 $3 $4 $5 $6 $7 $8 $9 X,Y pos of 4 corners*
0 Add a 4 corners polygon primitive as box body*
4,1,4,$2,$3,$4,$5,$6,$7,$8,$9,$2,$3,0*
0 Add four circle primitives for the rounded corners*
1,1,$1+$1,$2,$3*
1,1,$1+$1,$4,$5*
1,1,$1+$1,$6,$7*
1,1,$1+$1,$8,$9*
0 Add four rect primitives between the rounded corners*
20,1,$1+$1,$2,$3,$4,$5,0*
20,1,$1+$1,$4,$5,$6,$7,0*
20,1,$1+$1,$6,$7,$8,$9,0*
20,1,$1+$1,$8,$9,$2,$3,0*%
%AMRotRect*
0 Rectangle, with rotation*
0 The origin of the aperture is its center*
0 $1 length*
0 $2 width*
0 $3 Rotation angle, in degrees counterclockwise*
0 Add horizontal line*
21,1,$1,$2,0,0,$3*%
%AMFreePoly0*
4,1,10,0.278926,0.026100,0.101026,-0.151800,-0.152974,-0.151800,-0.152974,-0.076784,-0.153027,-0.076784,-0.153027,0.076784,-0.152974,0.076784,-0.152974,0.076800,0.278926,0.076900,0.278926,0.026100,0.278926,0.026100,$1*%
%AMFreePoly1*
4,1,6,0.278850,-0.035880,0.278850,-0.086680,-0.152950,-0.086680,-0.153050,0.142020,0.100950,0.142020,0.278850,-0.035880,0.278850,-0.035880,$1*%
%AMFreePoly2*
4,1,6,0.163535,-0.074256,-0.268265,-0.074256,-0.268265,-0.023456,-0.090365,0.154444,0.163635,0.154444,0.163535,-0.074256,0.163535,-0.074256,$1*%
%AMFreePoly3*
4,1,6,0.164154,-0.151851,-0.089846,-0.151851,-0.267746,0.026049,-0.267746,0.076849,0.164054,0.076849,0.164154,-0.151851,0.164154,-0.151851,$1*%
G04 Aperture macros list end*
%ADD10C,0.000000*%
%ADD11C,2.200000*%
%ADD12RoundRect,0.135000X-0.185000X0.135000X-0.185000X-0.135000X0.185000X-0.135000X0.185000X0.135000X0*%
%ADD13FreePoly0,0.000000*%
%ADD14FreePoly1,0.000000*%
%ADD15RotRect,0.254000X0.254000X45.000000*%
%ADD16FreePoly2,0.000000*%
%ADD17FreePoly3,0.000000*%
%ADD18RoundRect,0.140000X0.170000X-0.140000X0.170000X0.140000X-0.170000X0.140000X-0.170000X-0.140000X0*%
%ADD19RoundRect,0.140000X-0.140000X-0.170000X0.140000X-0.170000X0.140000X0.170000X-0.140000X0.170000X0*%
%ADD20RoundRect,0.135000X0.185000X-0.135000X0.185000X0.135000X-0.185000X0.135000X-0.185000X-0.135000X0*%
%ADD21RoundRect,0.135000X-0.135000X-0.185000X0.135000X-0.185000X0.135000X0.185000X-0.135000X0.185000X0*%
%ADD22RoundRect,0.140000X0.140000X0.170000X-0.140000X0.170000X-0.140000X-0.170000X0.140000X-0.170000X0*%
%ADD23RoundRect,0.062500X0.062500X-0.375000X0.062500X0.375000X-0.062500X0.375000X-0.062500X-0.375000X0*%
%ADD24RoundRect,0.062500X0.375000X-0.062500X0.375000X0.062500X-0.375000X0.062500X-0.375000X-0.062500X0*%
%ADD25R,3.450000X3.450000*%
%ADD26RoundRect,0.250001X0.949999X-0.949999X0.949999X0.949999X-0.949999X0.949999X-0.949999X-0.949999X0*%
%ADD27C,2.400000*%
%ADD28RoundRect,0.243750X0.243750X0.456250X-0.243750X0.456250X-0.243750X-0.456250X0.243750X-0.456250X0*%
%ADD29RoundRect,0.050000X0.215000X-0.050000X0.215000X0.050000X-0.215000X0.050000X-0.215000X-0.050000X0*%
%ADD30R,1.700000X1.700000*%
%ADD31C,1.700000*%
%ADD32R,0.640000X2.000000*%
%ADD33RoundRect,0.140000X-0.170000X0.140000X-0.170000X-0.140000X0.170000X-0.140000X0.170000X0.140000X0*%
%ADD34RoundRect,0.090000X-0.000010X-0.000010X0.000010X-0.000010X0.000010X0.000010X-0.000010X0.000010X0*%
%ADD35RoundRect,0.243750X-0.243750X-0.456250X0.243750X-0.456250X0.243750X0.456250X-0.243750X0.456250X0*%
%ADD36FreePoly0,180.000000*%
%ADD37FreePoly1,180.000000*%
%ADD38RotRect,0.254000X0.254000X225.000000*%
%ADD39FreePoly2,180.000000*%
%ADD40FreePoly3,180.000000*%
%ADD41RoundRect,0.150000X0.150000X-0.512500X0.150000X0.512500X-0.150000X0.512500X-0.150000X-0.512500X0*%
%ADD42RoundRect,0.250001X-0.949999X0.949999X-0.949999X-0.949999X0.949999X-0.949999X0.949999X0.949999X0*%
%ADD43RoundRect,0.150000X0.150000X-0.587500X0.150000X0.587500X-0.150000X0.587500X-0.150000X-0.587500X0*%
%ADD44RoundRect,0.150000X-0.587500X-0.150000X0.587500X-0.150000X0.587500X0.150000X-0.587500X0.150000X0*%
%ADD45R,0.558800X1.460500*%
%ADD46RoundRect,0.135000X0.135000X0.185000X-0.135000X0.185000X-0.135000X-0.185000X0.135000X-0.185000X0*%
%ADD47RoundRect,0.050000X-0.215000X0.050000X-0.215000X-0.050000X0.215000X-0.050000X0.215000X0.050000X0*%
%ADD48C,1.492000*%
G04 APERTURE END LIST*
D10*
%TO.C,U12*%
G36*
X89274931Y-62548551D02*
G01*
X89048154Y-62775328D01*
X88821377Y-62548551D01*
X89048154Y-62321774D01*
X89274931Y-62548551D01*
G37*
G36*
X88924054Y-62278951D02*
G01*
X88721154Y-62481851D01*
X88392154Y-62481851D01*
X88392154Y-62153251D01*
X88924054Y-62153151D01*
X88924054Y-62278951D01*
G37*
G36*
X88924054Y-62818151D02*
G01*
X88924054Y-62943951D01*
X88392254Y-62943951D01*
X88392154Y-62615251D01*
X88721154Y-62615251D01*
X88924054Y-62818151D01*
G37*
G36*
X89704154Y-62481851D02*
G01*
X89375154Y-62481851D01*
X89172254Y-62278951D01*
X89172254Y-62153151D01*
X89704054Y-62153151D01*
X89704154Y-62481851D01*
G37*
G36*
X89704054Y-62943951D02*
G01*
X89172254Y-62943951D01*
X89172254Y-62818151D01*
X89375154Y-62615251D01*
X89704154Y-62615251D01*
X89704054Y-62943951D01*
G37*
%TO.C,U13*%
G36*
X102726777Y-64300000D02*
G01*
X102500000Y-64526777D01*
X102273223Y-64300000D01*
X102500000Y-64073223D01*
X102726777Y-64300000D01*
G37*
G36*
X102375900Y-64030400D02*
G01*
X102173000Y-64233300D01*
X101844000Y-64233300D01*
X101844100Y-63904600D01*
X102375900Y-63904600D01*
X102375900Y-64030400D01*
G37*
G36*
X102375900Y-64569600D02*
G01*
X102375900Y-64695400D01*
X101844100Y-64695400D01*
X101844000Y-64366700D01*
X102173000Y-64366700D01*
X102375900Y-64569600D01*
G37*
G36*
X103156000Y-64233300D02*
G01*
X102827000Y-64233300D01*
X102624100Y-64030400D01*
X102624100Y-63904600D01*
X103155900Y-63904600D01*
X103156000Y-64233300D01*
G37*
G36*
X103156000Y-64695300D02*
G01*
X102624100Y-64695400D01*
X102624100Y-64569600D01*
X102827000Y-64366700D01*
X103156000Y-64366700D01*
X103156000Y-64695300D01*
G37*
%TD*%
D11*
%TO.C,H4*%
X107400000Y-83750000D03*
%TD*%
%TO.C,H3*%
X82500000Y-83750000D03*
%TD*%
%TO.C,H2*%
X107000000Y-38000000D03*
%TD*%
%TO.C,H1*%
X82750000Y-38000000D03*
%TD*%
D12*
%TO.C,R4*%
X99000000Y-52300000D03*
X99000000Y-53320000D03*
%TD*%
D13*
%TO.C,U12*%
X88595128Y-62280051D03*
D14*
X88595204Y-62807271D03*
D15*
X89048154Y-62548551D03*
D16*
X89490519Y-62819695D03*
D17*
X89490000Y-62280000D03*
%TD*%
D18*
%TO.C,C19*%
X101171276Y-58107512D03*
X101171276Y-57147512D03*
%TD*%
D19*
%TO.C,C7*%
X85470000Y-44500000D03*
X86430000Y-44500000D03*
%TD*%
%TO.C,C6*%
X101720000Y-42800000D03*
X102680000Y-42800000D03*
%TD*%
D20*
%TO.C,R18*%
X99400000Y-64110000D03*
X99400000Y-63090000D03*
%TD*%
D19*
%TO.C,C9*%
X82060000Y-64210000D03*
X83020000Y-64210000D03*
%TD*%
D21*
%TO.C,R7*%
X101890000Y-50100000D03*
X102910000Y-50100000D03*
%TD*%
D22*
%TO.C,C13*%
X91750000Y-57040000D03*
X90790000Y-57040000D03*
%TD*%
D23*
%TO.C,U2*%
X93500000Y-52987500D03*
X94000000Y-52987500D03*
X94500000Y-52987500D03*
X95000000Y-52987500D03*
X95500000Y-52987500D03*
X96000000Y-52987500D03*
X96500000Y-52987500D03*
X97000000Y-52987500D03*
D24*
X97687500Y-52300000D03*
X97687500Y-51800000D03*
X97687500Y-51300000D03*
X97687500Y-50800000D03*
X97687500Y-50300000D03*
X97687500Y-49800000D03*
X97687500Y-49300000D03*
X97687500Y-48800000D03*
D23*
X97000000Y-48112500D03*
X96500000Y-48112500D03*
X96000000Y-48112500D03*
X95500000Y-48112500D03*
X95000000Y-48112500D03*
X94500000Y-48112500D03*
X94000000Y-48112500D03*
X93500000Y-48112500D03*
D24*
X92812500Y-48800000D03*
X92812500Y-49300000D03*
X92812500Y-49800000D03*
X92812500Y-50300000D03*
X92812500Y-50800000D03*
X92812500Y-51300000D03*
X92812500Y-51800000D03*
X92812500Y-52300000D03*
D25*
X95250000Y-50550000D03*
%TD*%
D19*
%TO.C,C10*%
X81410000Y-57830000D03*
X82370000Y-57830000D03*
%TD*%
%TO.C,C16*%
X107720000Y-58600000D03*
X108680000Y-58600000D03*
%TD*%
D21*
%TO.C,R11*%
X84790000Y-54450000D03*
X85810000Y-54450000D03*
%TD*%
D19*
%TO.C,C15*%
X108120000Y-64200000D03*
X109080000Y-64200000D03*
%TD*%
D26*
%TO.C,J6*%
X103800000Y-78200000D03*
D27*
X103800000Y-73200000D03*
X103800000Y-68200000D03*
%TD*%
D20*
%TO.C,R10*%
X93750000Y-46510000D03*
X93750000Y-45490000D03*
%TD*%
D28*
%TO.C,D2*%
X98187500Y-45150000D03*
X96312500Y-45150000D03*
%TD*%
D29*
%TO.C,U11*%
X97870000Y-64460000D03*
X97870000Y-64110000D03*
X97870000Y-63760000D03*
X97870000Y-63410000D03*
X97200000Y-63410000D03*
X97200000Y-63760000D03*
X97200000Y-64110000D03*
X97200000Y-64460000D03*
%TD*%
D30*
%TO.C,J1*%
X105250000Y-42250000D03*
D31*
X107790000Y-42250000D03*
%TD*%
D12*
%TO.C,R19*%
X93000000Y-65590000D03*
X93000000Y-66610000D03*
%TD*%
D32*
%TO.C,U5*%
X89385000Y-53850000D03*
X88115000Y-53850000D03*
X88115000Y-60150000D03*
X89385000Y-60150000D03*
%TD*%
%TO.C,U9*%
X104135000Y-52650000D03*
X102865000Y-52650000D03*
X102865000Y-58950000D03*
X104135000Y-58950000D03*
%TD*%
D33*
%TO.C,C5*%
X102000000Y-45620000D03*
X102000000Y-46580000D03*
%TD*%
D34*
%TO.C,U1*%
X103350000Y-46500000D03*
X103750000Y-46500000D03*
X104150000Y-46500000D03*
X104150000Y-46900000D03*
X103750000Y-46900000D03*
X103350000Y-46900000D03*
%TD*%
D33*
%TO.C,C11*%
X90700000Y-60610000D03*
X90700000Y-61570000D03*
%TD*%
%TO.C,C18*%
X100600000Y-63120000D03*
X100600000Y-64080000D03*
%TD*%
D35*
%TO.C,D1*%
X90462500Y-45000000D03*
X92337500Y-45000000D03*
%TD*%
D36*
%TO.C,U13*%
X102953026Y-64568500D03*
D37*
X102952950Y-64041280D03*
D38*
X102500000Y-64300000D03*
D39*
X102057635Y-64028856D03*
D40*
X102058154Y-64568551D03*
%TD*%
D41*
%TO.C,U8*%
X107050000Y-62537500D03*
X108000000Y-62537500D03*
X108950000Y-62537500D03*
X108950000Y-60262500D03*
X107050000Y-60262500D03*
%TD*%
D30*
%TO.C,J2*%
X82000000Y-42250000D03*
D31*
X84540000Y-42250000D03*
X87080000Y-42250000D03*
X89620000Y-42250000D03*
X92160000Y-42250000D03*
X94700000Y-42250000D03*
X97240000Y-42250000D03*
%TD*%
D42*
%TO.C,J5*%
X86300000Y-68200000D03*
D27*
X86300000Y-73200000D03*
X86300000Y-78200000D03*
%TD*%
D22*
%TO.C,C17*%
X104880000Y-61900000D03*
X103920000Y-61900000D03*
%TD*%
%TO.C,C20*%
X97960000Y-62400000D03*
X97000000Y-62400000D03*
%TD*%
D43*
%TO.C,U6*%
X92250000Y-60537500D03*
X94150000Y-60537500D03*
X93200000Y-58662500D03*
%TD*%
D19*
%TO.C,C12*%
X88740000Y-64340000D03*
X89700000Y-64340000D03*
%TD*%
%TO.C,C3*%
X94520000Y-54362500D03*
X95480000Y-54362500D03*
%TD*%
D44*
%TO.C,U10*%
X98725000Y-58250000D03*
X98725000Y-60150000D03*
X100600000Y-59200000D03*
%TD*%
D21*
%TO.C,R17*%
X103890000Y-60800000D03*
X104910000Y-60800000D03*
%TD*%
D22*
%TO.C,C4*%
X99580000Y-47200000D03*
X98620000Y-47200000D03*
%TD*%
D20*
%TO.C,R13*%
X96650000Y-55520000D03*
X96650000Y-54500000D03*
%TD*%
D21*
%TO.C,R12*%
X82890000Y-45750000D03*
X83910000Y-45750000D03*
%TD*%
%TO.C,R8*%
X101890000Y-49000000D03*
X102910000Y-49000000D03*
%TD*%
D12*
%TO.C,R15*%
X90800000Y-63490000D03*
X90800000Y-64510000D03*
%TD*%
D21*
%TO.C,R5*%
X104390000Y-50100000D03*
X105410000Y-50100000D03*
%TD*%
D41*
%TO.C,U4*%
X81610000Y-62127500D03*
X82560000Y-62127500D03*
X83510000Y-62127500D03*
X83510000Y-59852500D03*
X81610000Y-59852500D03*
%TD*%
D20*
%TO.C,R16*%
X97850000Y-55560000D03*
X97850000Y-54540000D03*
%TD*%
D12*
%TO.C,R1*%
X81050000Y-50990000D03*
X81050000Y-52010000D03*
%TD*%
%TO.C,R2*%
X88000000Y-47890000D03*
X88000000Y-48910000D03*
%TD*%
D45*
%TO.C,U3*%
X82545000Y-52774150D03*
X83815000Y-52774150D03*
X85085000Y-52774150D03*
X86355000Y-52774150D03*
X86355000Y-47325850D03*
X85085000Y-47325850D03*
X83815000Y-47325850D03*
X82545000Y-47325850D03*
%TD*%
D19*
%TO.C,C2*%
X91770000Y-54362500D03*
X92730000Y-54362500D03*
%TD*%
D18*
%TO.C,C8*%
X81300000Y-46980000D03*
X81300000Y-46020000D03*
%TD*%
%TO.C,C14*%
X94600000Y-64280000D03*
X94600000Y-63320000D03*
%TD*%
D12*
%TO.C,R3*%
X88000000Y-50040000D03*
X88000000Y-51060000D03*
%TD*%
D46*
%TO.C,R6*%
X102910000Y-47900000D03*
X101890000Y-47900000D03*
%TD*%
D33*
%TO.C,C1*%
X91500000Y-47720000D03*
X91500000Y-48680000D03*
%TD*%
D21*
%TO.C,R14*%
X92090000Y-62200000D03*
X93110000Y-62200000D03*
%TD*%
D20*
%TO.C,R9*%
X95000000Y-46510000D03*
X95000000Y-45490000D03*
%TD*%
D47*
%TO.C,U7*%
X92200000Y-63400000D03*
X92200000Y-63750000D03*
X92200000Y-64100000D03*
X92200000Y-64450000D03*
X92870000Y-64450000D03*
X92870000Y-64100000D03*
X92870000Y-63750000D03*
X92870000Y-63400000D03*
%TD*%
D48*
%TO.C,BT1*%
X81540000Y-54750000D03*
X108460000Y-53735000D03*
X108460000Y-55765000D03*
%TD*%
M02*
