M48
; DRILL file KiCad 10.0.6 date 2026-10-06T17:11:16
; FORMAT={-:-/ absolute / metric / decimal}
; #@! TF.CreationDate,2026-10-06T17:11:16-04:00
; #@! TF.GenerationSoftware,Kicad,Pcbnew,10.0.6
; #@! TF.FileFunction,Plated,1,4,PTH
FMAT,2
METRIC
; #@! TA.AperFunction,Plated,PTH,ViaDrill
T1C0.300
; #@! TA.AperFunction,Plated,PTH,ViaDrill
T2C0.500
; #@! TA.AperFunction,Plated,PTH,ComponentDrill
T3C0.780
; #@! TA.AperFunction,Plated,PTH,ComponentDrill
T4C1.000
; #@! TA.AperFunction,Plated,PTH,ComponentDrill
T5C1.200
%
G90
G05
T1
X81.0Y-50.2
X81.12Y-47.7
X81.6Y-58.7
X81.61Y-59.852
X81.8Y-45.4
X82.27Y-46.23
X82.6Y-63.4
X83.15Y-58.0
X84.8Y-44.4
X86.355Y-52.774
X86.6Y-54.8
X87.0Y-45.0
X87.2Y-60.0
X87.93Y-64.18
X88.115Y-53.85
X89.7Y-61.7
X89.71Y-57.35
X90.0Y-50.8
X90.4Y-45.0
X90.8Y-47.6
X90.8Y-48.4
X91.51Y-60.66
X91.6Y-65.0
X91.8Y-49.8
X92.4Y-53.4
X92.4Y-58.2
X92.8Y-67.4
X93.11Y-62.89
X93.4Y-54.0
X93.8Y-64.7
X94.0Y-55.0
X94.2Y-49.6
X94.2Y-51.6
X94.6Y-62.6
X95.25Y-50.55
X95.4Y-55.2
X95.5Y-47.2
X95.921Y-46.479
X96.2Y-49.6
X96.2Y-51.6
X96.775Y-63.216
X97.2Y-61.6
X97.2Y-65.2
X97.24Y-46.2
X98.0Y-47.8
X98.188Y-45.15
X98.6Y-61.8
X98.9Y-48.3
X99.78Y-53.83
X100.0Y-57.4
X100.6Y-59.2
X100.8Y-62.4
X101.2Y-48.0
X101.5Y-65.1
X101.8Y-42.0
X101.8Y-51.8
X102.0Y-58.0
X102.7Y-65.2
X102.8Y-46.8
X103.0Y-45.8
X103.6Y-42.6
X105.4Y-51.2
X105.4Y-62.7
X105.6Y-61.0
X107.05Y-60.262
X107.4Y-59.2
X108.206Y-61.006
X108.8Y-59.2
T2
X85.243Y-66.311
X85.4Y-71.4
X85.4Y-75.0
X87.0Y-71.4
X87.0Y-75.0
X87.169Y-66.338
X88.897Y-66.962
X88.924Y-68.6
X89.0Y-70.2
X89.0Y-71.8
X89.0Y-73.4
X89.0Y-75.0
X90.172Y-68.589
X90.184Y-66.943
X91.0Y-70.2
X91.0Y-71.8
X91.0Y-73.4
X91.0Y-75.0
X91.453Y-66.95
X91.464Y-68.6
X92.8Y-70.2
X92.8Y-71.8
X92.8Y-73.4
X92.8Y-75.0
X97.0Y-72.2
X97.0Y-74.0
X97.0Y-76.0
X97.4Y-69.0
X97.4Y-70.6
X98.6Y-72.2
X98.6Y-74.0
X98.6Y-76.0
X98.8Y-69.0
X98.8Y-70.6
X100.0Y-69.0
X100.0Y-70.6
X100.2Y-72.2
X100.2Y-74.0
X100.2Y-76.0
X101.8Y-67.4
X101.8Y-69.0
X101.8Y-72.2
X101.8Y-74.0
X101.8Y-76.0
X103.0Y-75.2
X104.6Y-75.2
T3
X81.54Y-54.75
X108.46Y-53.735
X108.46Y-55.765
T4
X82.0Y-42.25
X84.54Y-42.25
X87.08Y-42.25
X89.62Y-42.25
X92.16Y-42.25
X94.7Y-42.25
X97.24Y-42.25
X105.25Y-42.25
X107.79Y-42.25
T5
X86.3Y-68.2
X86.3Y-73.2
X86.3Y-78.2
X103.8Y-68.2
X103.8Y-73.2
X103.8Y-78.2
M30
