%TF.GenerationSoftware,KiCad,Pcbnew,10.0.6*%
%TF.CreationDate,2026-10-06T14:53:07-04:00*%
%TF.ProjectId,launch-relay,6c61756e-6368-42d7-9265-6c61792e6b69,rev?*%
%TF.SameCoordinates,Original*%
%TF.FileFunction,Legend,Bot*%
%TF.FilePolarity,Positive*%
%FSLAX46Y46*%
G04 Gerber Fmt 4.6, Leading zero omitted, Abs format (unit mm)*
G04 Created by KiCad (PCBNEW 10.0.6) date 2026-10-06 14:53:07*
%MOMM*%
%LPD*%
G01*
G04 APERTURE LIST*
%ADD10C,0.100000*%
%ADD11C,0.150000*%
%ADD12C,0.200000*%
%ADD13C,0.254000*%
%ADD14C,0.000000*%
%ADD15C,0.120000*%
%ADD16C,0.127000*%
G04 APERTURE END LIST*
D10*
X80900000Y-41248014D02*
X88100000Y-41248014D01*
X88100000Y-43300000D01*
X80900000Y-43300000D01*
X80900000Y-41248014D01*
D11*
X82439411Y-43517438D02*
X82534649Y-43469819D01*
X82534649Y-43469819D02*
X82677506Y-43469819D01*
X82677506Y-43469819D02*
X82820363Y-43517438D01*
X82820363Y-43517438D02*
X82915601Y-43612676D01*
X82915601Y-43612676D02*
X82963220Y-43707914D01*
X82963220Y-43707914D02*
X83010839Y-43898390D01*
X83010839Y-43898390D02*
X83010839Y-44041247D01*
X83010839Y-44041247D02*
X82963220Y-44231723D01*
X82963220Y-44231723D02*
X82915601Y-44326961D01*
X82915601Y-44326961D02*
X82820363Y-44422200D01*
X82820363Y-44422200D02*
X82677506Y-44469819D01*
X82677506Y-44469819D02*
X82582268Y-44469819D01*
X82582268Y-44469819D02*
X82439411Y-44422200D01*
X82439411Y-44422200D02*
X82391792Y-44374580D01*
X82391792Y-44374580D02*
X82391792Y-44041247D01*
X82391792Y-44041247D02*
X82582268Y-44041247D01*
X81963220Y-44469819D02*
X81963220Y-43469819D01*
X81963220Y-43469819D02*
X81391792Y-44469819D01*
X81391792Y-44469819D02*
X81391792Y-43469819D01*
X80915601Y-44469819D02*
X80915601Y-43469819D01*
X80915601Y-43469819D02*
X80677506Y-43469819D01*
X80677506Y-43469819D02*
X80534649Y-43517438D01*
X80534649Y-43517438D02*
X80439411Y-43612676D01*
X80439411Y-43612676D02*
X80391792Y-43707914D01*
X80391792Y-43707914D02*
X80344173Y-43898390D01*
X80344173Y-43898390D02*
X80344173Y-44041247D01*
X80344173Y-44041247D02*
X80391792Y-44231723D01*
X80391792Y-44231723D02*
X80439411Y-44326961D01*
X80439411Y-44326961D02*
X80534649Y-44422200D01*
X80534649Y-44422200D02*
X80677506Y-44469819D01*
X80677506Y-44469819D02*
X80915601Y-44469819D01*
X86533592Y-41070214D02*
X86390735Y-41117833D01*
X86390735Y-41117833D02*
X86152640Y-41117833D01*
X86152640Y-41117833D02*
X86057402Y-41070214D01*
X86057402Y-41070214D02*
X86009783Y-41022594D01*
X86009783Y-41022594D02*
X85962164Y-40927356D01*
X85962164Y-40927356D02*
X85962164Y-40832118D01*
X85962164Y-40832118D02*
X86009783Y-40736880D01*
X86009783Y-40736880D02*
X86057402Y-40689261D01*
X86057402Y-40689261D02*
X86152640Y-40641642D01*
X86152640Y-40641642D02*
X86343116Y-40594023D01*
X86343116Y-40594023D02*
X86438354Y-40546404D01*
X86438354Y-40546404D02*
X86485973Y-40498785D01*
X86485973Y-40498785D02*
X86533592Y-40403547D01*
X86533592Y-40403547D02*
X86533592Y-40308309D01*
X86533592Y-40308309D02*
X86485973Y-40213071D01*
X86485973Y-40213071D02*
X86438354Y-40165452D01*
X86438354Y-40165452D02*
X86343116Y-40117833D01*
X86343116Y-40117833D02*
X86105021Y-40117833D01*
X86105021Y-40117833D02*
X85962164Y-40165452D01*
X85628830Y-40117833D02*
X85390735Y-41117833D01*
X85390735Y-41117833D02*
X85200259Y-40403547D01*
X85200259Y-40403547D02*
X85009783Y-41117833D01*
X85009783Y-41117833D02*
X84771688Y-40117833D01*
X84390735Y-41117833D02*
X84390735Y-40117833D01*
X84390735Y-40117833D02*
X84152640Y-40117833D01*
X84152640Y-40117833D02*
X84009783Y-40165452D01*
X84009783Y-40165452D02*
X83914545Y-40260690D01*
X83914545Y-40260690D02*
X83866926Y-40355928D01*
X83866926Y-40355928D02*
X83819307Y-40546404D01*
X83819307Y-40546404D02*
X83819307Y-40689261D01*
X83819307Y-40689261D02*
X83866926Y-40879737D01*
X83866926Y-40879737D02*
X83914545Y-40974975D01*
X83914545Y-40974975D02*
X84009783Y-41070214D01*
X84009783Y-41070214D02*
X84152640Y-41117833D01*
X84152640Y-41117833D02*
X84390735Y-41117833D01*
X83390735Y-41117833D02*
X83390735Y-40117833D01*
X82724069Y-40117833D02*
X82533593Y-40117833D01*
X82533593Y-40117833D02*
X82438355Y-40165452D01*
X82438355Y-40165452D02*
X82343117Y-40260690D01*
X82343117Y-40260690D02*
X82295498Y-40451166D01*
X82295498Y-40451166D02*
X82295498Y-40784499D01*
X82295498Y-40784499D02*
X82343117Y-40974975D01*
X82343117Y-40974975D02*
X82438355Y-41070214D01*
X82438355Y-41070214D02*
X82533593Y-41117833D01*
X82533593Y-41117833D02*
X82724069Y-41117833D01*
X82724069Y-41117833D02*
X82819307Y-41070214D01*
X82819307Y-41070214D02*
X82914545Y-40974975D01*
X82914545Y-40974975D02*
X82962164Y-40784499D01*
X82962164Y-40784499D02*
X82962164Y-40451166D01*
X82962164Y-40451166D02*
X82914545Y-40260690D01*
X82914545Y-40260690D02*
X82819307Y-40165452D01*
X82819307Y-40165452D02*
X82724069Y-40117833D01*
X89510839Y-44422200D02*
X89367982Y-44469819D01*
X89367982Y-44469819D02*
X89129887Y-44469819D01*
X89129887Y-44469819D02*
X89034649Y-44422200D01*
X89034649Y-44422200D02*
X88987030Y-44374580D01*
X88987030Y-44374580D02*
X88939411Y-44279342D01*
X88939411Y-44279342D02*
X88939411Y-44184104D01*
X88939411Y-44184104D02*
X88987030Y-44088866D01*
X88987030Y-44088866D02*
X89034649Y-44041247D01*
X89034649Y-44041247D02*
X89129887Y-43993628D01*
X89129887Y-43993628D02*
X89320363Y-43946009D01*
X89320363Y-43946009D02*
X89415601Y-43898390D01*
X89415601Y-43898390D02*
X89463220Y-43850771D01*
X89463220Y-43850771D02*
X89510839Y-43755533D01*
X89510839Y-43755533D02*
X89510839Y-43660295D01*
X89510839Y-43660295D02*
X89463220Y-43565057D01*
X89463220Y-43565057D02*
X89415601Y-43517438D01*
X89415601Y-43517438D02*
X89320363Y-43469819D01*
X89320363Y-43469819D02*
X89082268Y-43469819D01*
X89082268Y-43469819D02*
X88939411Y-43517438D01*
X88606077Y-43469819D02*
X88367982Y-44469819D01*
X88367982Y-44469819D02*
X88177506Y-43755533D01*
X88177506Y-43755533D02*
X87987030Y-44469819D01*
X87987030Y-44469819D02*
X87748935Y-43469819D01*
X86796554Y-44374580D02*
X86844173Y-44422200D01*
X86844173Y-44422200D02*
X86987030Y-44469819D01*
X86987030Y-44469819D02*
X87082268Y-44469819D01*
X87082268Y-44469819D02*
X87225125Y-44422200D01*
X87225125Y-44422200D02*
X87320363Y-44326961D01*
X87320363Y-44326961D02*
X87367982Y-44231723D01*
X87367982Y-44231723D02*
X87415601Y-44041247D01*
X87415601Y-44041247D02*
X87415601Y-43898390D01*
X87415601Y-43898390D02*
X87367982Y-43707914D01*
X87367982Y-43707914D02*
X87320363Y-43612676D01*
X87320363Y-43612676D02*
X87225125Y-43517438D01*
X87225125Y-43517438D02*
X87082268Y-43469819D01*
X87082268Y-43469819D02*
X86987030Y-43469819D01*
X86987030Y-43469819D02*
X86844173Y-43517438D01*
X86844173Y-43517438D02*
X86796554Y-43565057D01*
X85891792Y-44469819D02*
X86367982Y-44469819D01*
X86367982Y-44469819D02*
X86367982Y-43469819D01*
X85558458Y-44469819D02*
X85558458Y-43469819D01*
X84987030Y-44469819D02*
X85415601Y-43898390D01*
X84987030Y-43469819D02*
X85558458Y-44041247D01*
X90339411Y-40217438D02*
X90434649Y-40169819D01*
X90434649Y-40169819D02*
X90577506Y-40169819D01*
X90577506Y-40169819D02*
X90720363Y-40217438D01*
X90720363Y-40217438D02*
X90815601Y-40312676D01*
X90815601Y-40312676D02*
X90863220Y-40407914D01*
X90863220Y-40407914D02*
X90910839Y-40598390D01*
X90910839Y-40598390D02*
X90910839Y-40741247D01*
X90910839Y-40741247D02*
X90863220Y-40931723D01*
X90863220Y-40931723D02*
X90815601Y-41026961D01*
X90815601Y-41026961D02*
X90720363Y-41122200D01*
X90720363Y-41122200D02*
X90577506Y-41169819D01*
X90577506Y-41169819D02*
X90482268Y-41169819D01*
X90482268Y-41169819D02*
X90339411Y-41122200D01*
X90339411Y-41122200D02*
X90291792Y-41074580D01*
X90291792Y-41074580D02*
X90291792Y-40741247D01*
X90291792Y-40741247D02*
X90482268Y-40741247D01*
X89863220Y-41169819D02*
X89863220Y-40169819D01*
X89863220Y-40169819D02*
X89291792Y-41169819D01*
X89291792Y-41169819D02*
X89291792Y-40169819D01*
X88815601Y-41169819D02*
X88815601Y-40169819D01*
X88815601Y-40169819D02*
X88577506Y-40169819D01*
X88577506Y-40169819D02*
X88434649Y-40217438D01*
X88434649Y-40217438D02*
X88339411Y-40312676D01*
X88339411Y-40312676D02*
X88291792Y-40407914D01*
X88291792Y-40407914D02*
X88244173Y-40598390D01*
X88244173Y-40598390D02*
X88244173Y-40741247D01*
X88244173Y-40741247D02*
X88291792Y-40931723D01*
X88291792Y-40931723D02*
X88339411Y-41026961D01*
X88339411Y-41026961D02*
X88434649Y-41122200D01*
X88434649Y-41122200D02*
X88577506Y-41169819D01*
X88577506Y-41169819D02*
X88815601Y-41169819D01*
X93206077Y-40169819D02*
X92634649Y-40169819D01*
X92920363Y-41169819D02*
X92920363Y-40169819D01*
X92396553Y-40169819D02*
X91729887Y-41169819D01*
X91729887Y-40169819D02*
X92396553Y-41169819D01*
X94991792Y-41169819D02*
X95325125Y-40693628D01*
X95563220Y-41169819D02*
X95563220Y-40169819D01*
X95563220Y-40169819D02*
X95182268Y-40169819D01*
X95182268Y-40169819D02*
X95087030Y-40217438D01*
X95087030Y-40217438D02*
X95039411Y-40265057D01*
X95039411Y-40265057D02*
X94991792Y-40360295D01*
X94991792Y-40360295D02*
X94991792Y-40503152D01*
X94991792Y-40503152D02*
X95039411Y-40598390D01*
X95039411Y-40598390D02*
X95087030Y-40646009D01*
X95087030Y-40646009D02*
X95182268Y-40693628D01*
X95182268Y-40693628D02*
X95563220Y-40693628D01*
X94658458Y-40169819D02*
X93991792Y-41169819D01*
X93991792Y-40169819D02*
X94658458Y-41169819D01*
X102063220Y-42469819D02*
X102063220Y-41469819D01*
X102063220Y-41469819D02*
X101825125Y-41469819D01*
X101825125Y-41469819D02*
X101682268Y-41517438D01*
X101682268Y-41517438D02*
X101587030Y-41612676D01*
X101587030Y-41612676D02*
X101539411Y-41707914D01*
X101539411Y-41707914D02*
X101491792Y-41898390D01*
X101491792Y-41898390D02*
X101491792Y-42041247D01*
X101491792Y-42041247D02*
X101539411Y-42231723D01*
X101539411Y-42231723D02*
X101587030Y-42326961D01*
X101587030Y-42326961D02*
X101682268Y-42422200D01*
X101682268Y-42422200D02*
X101825125Y-42469819D01*
X101825125Y-42469819D02*
X102063220Y-42469819D01*
X101063220Y-41469819D02*
X101063220Y-42279342D01*
X101063220Y-42279342D02*
X101015601Y-42374580D01*
X101015601Y-42374580D02*
X100967982Y-42422200D01*
X100967982Y-42422200D02*
X100872744Y-42469819D01*
X100872744Y-42469819D02*
X100682268Y-42469819D01*
X100682268Y-42469819D02*
X100587030Y-42422200D01*
X100587030Y-42422200D02*
X100539411Y-42374580D01*
X100539411Y-42374580D02*
X100491792Y-42279342D01*
X100491792Y-42279342D02*
X100491792Y-41469819D01*
X100015601Y-42469819D02*
X100015601Y-41469819D01*
X100015601Y-41469819D02*
X99682268Y-42184104D01*
X99682268Y-42184104D02*
X99348935Y-41469819D01*
X99348935Y-41469819D02*
X99348935Y-42469819D01*
X98872744Y-42469819D02*
X98872744Y-41469819D01*
X98872744Y-41469819D02*
X98491792Y-41469819D01*
X98491792Y-41469819D02*
X98396554Y-41517438D01*
X98396554Y-41517438D02*
X98348935Y-41565057D01*
X98348935Y-41565057D02*
X98301316Y-41660295D01*
X98301316Y-41660295D02*
X98301316Y-41803152D01*
X98301316Y-41803152D02*
X98348935Y-41898390D01*
X98348935Y-41898390D02*
X98396554Y-41946009D01*
X98396554Y-41946009D02*
X98491792Y-41993628D01*
X98491792Y-41993628D02*
X98872744Y-41993628D01*
D12*
X82093971Y-79796993D02*
X82093971Y-80511279D01*
X82093971Y-80511279D02*
X83593971Y-80511279D01*
X82522542Y-79368421D02*
X82522542Y-78654136D01*
X82093971Y-79511278D02*
X83593971Y-79011278D01*
X83593971Y-79011278D02*
X82093971Y-78511278D01*
X83593971Y-78011279D02*
X82379685Y-78011279D01*
X82379685Y-78011279D02*
X82236828Y-77939850D01*
X82236828Y-77939850D02*
X82165400Y-77868422D01*
X82165400Y-77868422D02*
X82093971Y-77725564D01*
X82093971Y-77725564D02*
X82093971Y-77439850D01*
X82093971Y-77439850D02*
X82165400Y-77296993D01*
X82165400Y-77296993D02*
X82236828Y-77225564D01*
X82236828Y-77225564D02*
X82379685Y-77154136D01*
X82379685Y-77154136D02*
X83593971Y-77154136D01*
X82093971Y-76439850D02*
X83593971Y-76439850D01*
X83593971Y-76439850D02*
X82093971Y-75582707D01*
X82093971Y-75582707D02*
X83593971Y-75582707D01*
X82236828Y-74011278D02*
X82165400Y-74082706D01*
X82165400Y-74082706D02*
X82093971Y-74296992D01*
X82093971Y-74296992D02*
X82093971Y-74439849D01*
X82093971Y-74439849D02*
X82165400Y-74654135D01*
X82165400Y-74654135D02*
X82308257Y-74796992D01*
X82308257Y-74796992D02*
X82451114Y-74868421D01*
X82451114Y-74868421D02*
X82736828Y-74939849D01*
X82736828Y-74939849D02*
X82951114Y-74939849D01*
X82951114Y-74939849D02*
X83236828Y-74868421D01*
X83236828Y-74868421D02*
X83379685Y-74796992D01*
X83379685Y-74796992D02*
X83522542Y-74654135D01*
X83522542Y-74654135D02*
X83593971Y-74439849D01*
X83593971Y-74439849D02*
X83593971Y-74296992D01*
X83593971Y-74296992D02*
X83522542Y-74082706D01*
X83522542Y-74082706D02*
X83451114Y-74011278D01*
X82093971Y-73368421D02*
X83593971Y-73368421D01*
X82879685Y-73368421D02*
X82879685Y-72511278D01*
X82093971Y-72511278D02*
X83593971Y-72511278D01*
X82093971Y-69796992D02*
X82808257Y-70296992D01*
X82093971Y-70654135D02*
X83593971Y-70654135D01*
X83593971Y-70654135D02*
X83593971Y-70082706D01*
X83593971Y-70082706D02*
X83522542Y-69939849D01*
X83522542Y-69939849D02*
X83451114Y-69868420D01*
X83451114Y-69868420D02*
X83308257Y-69796992D01*
X83308257Y-69796992D02*
X83093971Y-69796992D01*
X83093971Y-69796992D02*
X82951114Y-69868420D01*
X82951114Y-69868420D02*
X82879685Y-69939849D01*
X82879685Y-69939849D02*
X82808257Y-70082706D01*
X82808257Y-70082706D02*
X82808257Y-70654135D01*
X82879685Y-69154135D02*
X82879685Y-68654135D01*
X82093971Y-68439849D02*
X82093971Y-69154135D01*
X82093971Y-69154135D02*
X83593971Y-69154135D01*
X83593971Y-69154135D02*
X83593971Y-68439849D01*
X82093971Y-67082706D02*
X82093971Y-67796992D01*
X82093971Y-67796992D02*
X83593971Y-67796992D01*
X82522542Y-66654134D02*
X82522542Y-65939849D01*
X82093971Y-66796991D02*
X83593971Y-66296991D01*
X83593971Y-66296991D02*
X82093971Y-65796991D01*
X82808257Y-65011277D02*
X82093971Y-65011277D01*
X83593971Y-65511277D02*
X82808257Y-65011277D01*
X82808257Y-65011277D02*
X83593971Y-64511277D01*
D11*
X105442857Y-71754819D02*
X105776190Y-71278628D01*
X106014285Y-71754819D02*
X106014285Y-70754819D01*
X106014285Y-70754819D02*
X105633333Y-70754819D01*
X105633333Y-70754819D02*
X105538095Y-70802438D01*
X105538095Y-70802438D02*
X105490476Y-70850057D01*
X105490476Y-70850057D02*
X105442857Y-70945295D01*
X105442857Y-70945295D02*
X105442857Y-71088152D01*
X105442857Y-71088152D02*
X105490476Y-71183390D01*
X105490476Y-71183390D02*
X105538095Y-71231009D01*
X105538095Y-71231009D02*
X105633333Y-71278628D01*
X105633333Y-71278628D02*
X106014285Y-71278628D01*
X105061904Y-70850057D02*
X105014285Y-70802438D01*
X105014285Y-70802438D02*
X104919047Y-70754819D01*
X104919047Y-70754819D02*
X104680952Y-70754819D01*
X104680952Y-70754819D02*
X104585714Y-70802438D01*
X104585714Y-70802438D02*
X104538095Y-70850057D01*
X104538095Y-70850057D02*
X104490476Y-70945295D01*
X104490476Y-70945295D02*
X104490476Y-71040533D01*
X104490476Y-71040533D02*
X104538095Y-71183390D01*
X104538095Y-71183390D02*
X105109523Y-71754819D01*
X105109523Y-71754819D02*
X104490476Y-71754819D01*
X103871428Y-70754819D02*
X103776190Y-70754819D01*
X103776190Y-70754819D02*
X103680952Y-70802438D01*
X103680952Y-70802438D02*
X103633333Y-70850057D01*
X103633333Y-70850057D02*
X103585714Y-70945295D01*
X103585714Y-70945295D02*
X103538095Y-71135771D01*
X103538095Y-71135771D02*
X103538095Y-71373866D01*
X103538095Y-71373866D02*
X103585714Y-71564342D01*
X103585714Y-71564342D02*
X103633333Y-71659580D01*
X103633333Y-71659580D02*
X103680952Y-71707200D01*
X103680952Y-71707200D02*
X103776190Y-71754819D01*
X103776190Y-71754819D02*
X103871428Y-71754819D01*
X103871428Y-71754819D02*
X103966666Y-71707200D01*
X103966666Y-71707200D02*
X104014285Y-71659580D01*
X104014285Y-71659580D02*
X104061904Y-71564342D01*
X104061904Y-71564342D02*
X104109523Y-71373866D01*
X104109523Y-71373866D02*
X104109523Y-71135771D01*
X104109523Y-71135771D02*
X104061904Y-70945295D01*
X104061904Y-70945295D02*
X104014285Y-70850057D01*
X104014285Y-70850057D02*
X103966666Y-70802438D01*
X103966666Y-70802438D02*
X103871428Y-70754819D01*
D13*
X94720952Y-68895270D02*
X94841904Y-68834794D01*
X94841904Y-68834794D02*
X94962857Y-68713842D01*
X94962857Y-68713842D02*
X95144285Y-68532413D01*
X95144285Y-68532413D02*
X95265238Y-68471937D01*
X95265238Y-68471937D02*
X95386190Y-68471937D01*
X95325714Y-68774318D02*
X95446666Y-68713842D01*
X95446666Y-68713842D02*
X95567619Y-68592889D01*
X95567619Y-68592889D02*
X95628095Y-68350984D01*
X95628095Y-68350984D02*
X95628095Y-67927651D01*
X95628095Y-67927651D02*
X95567619Y-67685746D01*
X95567619Y-67685746D02*
X95446666Y-67564794D01*
X95446666Y-67564794D02*
X95325714Y-67504318D01*
X95325714Y-67504318D02*
X95083809Y-67504318D01*
X95083809Y-67504318D02*
X94962857Y-67564794D01*
X94962857Y-67564794D02*
X94841904Y-67685746D01*
X94841904Y-67685746D02*
X94781428Y-67927651D01*
X94781428Y-67927651D02*
X94781428Y-68350984D01*
X94781428Y-68350984D02*
X94841904Y-68592889D01*
X94841904Y-68592889D02*
X94962857Y-68713842D01*
X94962857Y-68713842D02*
X95083809Y-68774318D01*
X95083809Y-68774318D02*
X95325714Y-68774318D01*
X93571904Y-68774318D02*
X94297619Y-68774318D01*
X93934762Y-68774318D02*
X93934762Y-67504318D01*
X93934762Y-67504318D02*
X94055714Y-67685746D01*
X94055714Y-67685746D02*
X94176666Y-67806699D01*
X94176666Y-67806699D02*
X94297619Y-67867175D01*
D11*
X105785714Y-45731009D02*
X105642857Y-45778628D01*
X105642857Y-45778628D02*
X105595238Y-45826247D01*
X105595238Y-45826247D02*
X105547619Y-45921485D01*
X105547619Y-45921485D02*
X105547619Y-46064342D01*
X105547619Y-46064342D02*
X105595238Y-46159580D01*
X105595238Y-46159580D02*
X105642857Y-46207200D01*
X105642857Y-46207200D02*
X105738095Y-46254819D01*
X105738095Y-46254819D02*
X106119047Y-46254819D01*
X106119047Y-46254819D02*
X106119047Y-45254819D01*
X106119047Y-45254819D02*
X105785714Y-45254819D01*
X105785714Y-45254819D02*
X105690476Y-45302438D01*
X105690476Y-45302438D02*
X105642857Y-45350057D01*
X105642857Y-45350057D02*
X105595238Y-45445295D01*
X105595238Y-45445295D02*
X105595238Y-45540533D01*
X105595238Y-45540533D02*
X105642857Y-45635771D01*
X105642857Y-45635771D02*
X105690476Y-45683390D01*
X105690476Y-45683390D02*
X105785714Y-45731009D01*
X105785714Y-45731009D02*
X106119047Y-45731009D01*
X105261904Y-45254819D02*
X104690476Y-45254819D01*
X104976190Y-46254819D02*
X104976190Y-45254819D01*
X103833333Y-46254819D02*
X104404761Y-46254819D01*
X104119047Y-46254819D02*
X104119047Y-45254819D01*
X104119047Y-45254819D02*
X104214285Y-45397676D01*
X104214285Y-45397676D02*
X104309523Y-45492914D01*
X104309523Y-45492914D02*
X104404761Y-45540533D01*
D14*
%TO.C,G\u002A\u002A\u002A*%
G36*
X90840623Y-80456093D02*
G01*
X90840623Y-81102754D01*
X90572065Y-81102754D01*
X90303506Y-81102754D01*
X90303506Y-81003812D01*
X90303506Y-80904869D01*
X90473122Y-80904869D01*
X90642738Y-80904869D01*
X90642738Y-80357151D01*
X90642738Y-79809432D01*
X90741681Y-79809432D01*
X90840623Y-79809432D01*
X90840623Y-80456093D01*
G37*
G36*
X95144630Y-79908375D02*
G01*
X95144630Y-80007318D01*
X95038620Y-80007318D01*
X94932610Y-80007318D01*
X94932610Y-80555036D01*
X94932610Y-81102754D01*
X94833667Y-81102754D01*
X94734725Y-81102754D01*
X94734725Y-80555036D01*
X94734725Y-80007318D01*
X94632248Y-80007318D01*
X94529772Y-80007318D01*
X94529772Y-79908375D01*
X94529772Y-79809432D01*
X94837201Y-79809432D01*
X95144630Y-79809432D01*
X95144630Y-79908375D01*
G37*
G36*
X92501447Y-80081525D02*
G01*
X92501447Y-80353617D01*
X92618058Y-80353617D01*
X92734669Y-80353617D01*
X92734669Y-80081525D01*
X92734669Y-79809432D01*
X92833612Y-79809432D01*
X92932554Y-79809432D01*
X92932554Y-80456093D01*
X92932554Y-81102754D01*
X92833612Y-81102754D01*
X92734669Y-81102754D01*
X92734669Y-80830662D01*
X92734669Y-80558570D01*
X92618058Y-80558570D01*
X92501447Y-80558570D01*
X92501447Y-80830662D01*
X92501447Y-81102754D01*
X92402504Y-81102754D01*
X92303562Y-81102754D01*
X92303562Y-80456093D01*
X92303562Y-79809432D01*
X92402504Y-79809432D01*
X92501447Y-79809432D01*
X92501447Y-80081525D01*
G37*
G36*
X90748338Y-75726413D02*
G01*
X90758458Y-75753380D01*
X90769282Y-75794223D01*
X90774070Y-75815307D01*
X90783674Y-75862819D01*
X90791446Y-75910655D01*
X90797601Y-75961116D01*
X90802353Y-76016502D01*
X90805916Y-76079111D01*
X90808504Y-76151245D01*
X90810331Y-76235203D01*
X90813972Y-76452599D01*
X90869701Y-76530450D01*
X90925431Y-76608301D01*
X90925431Y-76675078D01*
X90925431Y-76741855D01*
X90871706Y-76757465D01*
X90865444Y-76759340D01*
X90840687Y-76767937D01*
X90822487Y-76776134D01*
X90814412Y-76782378D01*
X90811684Y-76784859D01*
X90797538Y-76788724D01*
X90774835Y-76791180D01*
X90747240Y-76792227D01*
X90718415Y-76791866D01*
X90692022Y-76790098D01*
X90671725Y-76786924D01*
X90661186Y-76782344D01*
X90659835Y-76781093D01*
X90646961Y-76774072D01*
X90625251Y-76765295D01*
X90598567Y-76756364D01*
X90543795Y-76739720D01*
X90543795Y-76676571D01*
X90543795Y-76613422D01*
X90599496Y-76534702D01*
X90655196Y-76455982D01*
X90659009Y-76254563D01*
X90659302Y-76239726D01*
X90661299Y-76163379D01*
X90663981Y-76098149D01*
X90667502Y-76041481D01*
X90672016Y-75990816D01*
X90677677Y-75943600D01*
X90683584Y-75903073D01*
X90692421Y-75850997D01*
X90701772Y-75804187D01*
X90711146Y-75764839D01*
X90720054Y-75735155D01*
X90728009Y-75717332D01*
X90730360Y-75714395D01*
X90738959Y-75713395D01*
X90748338Y-75726413D01*
G37*
G36*
X89923740Y-79835935D02*
G01*
X89933684Y-79869188D01*
X89954005Y-79936390D01*
X89973640Y-80000362D01*
X89992172Y-80059813D01*
X90009186Y-80113454D01*
X90024267Y-80159993D01*
X90036998Y-80198141D01*
X90046964Y-80226607D01*
X90053749Y-80244100D01*
X90056937Y-80249331D01*
X90058676Y-80245182D01*
X90064258Y-80229136D01*
X90072988Y-80202830D01*
X90084269Y-80168145D01*
X90097505Y-80126962D01*
X90112100Y-80081162D01*
X90127456Y-80032626D01*
X90142977Y-79983234D01*
X90158067Y-79934868D01*
X90172129Y-79889409D01*
X90184566Y-79848737D01*
X90194782Y-79814733D01*
X90194857Y-79814485D01*
X90197641Y-79809817D01*
X90204009Y-79806517D01*
X90216071Y-79804353D01*
X90235936Y-79803094D01*
X90265714Y-79802509D01*
X90307516Y-79802365D01*
X90329199Y-79802430D01*
X90363817Y-79802833D01*
X90391526Y-79803543D01*
X90409918Y-79804490D01*
X90416583Y-79805601D01*
X90415394Y-79809468D01*
X90410044Y-79825472D01*
X90400768Y-79852754D01*
X90387980Y-79890111D01*
X90372094Y-79936341D01*
X90353524Y-79990240D01*
X90332682Y-80050605D01*
X90309982Y-80116235D01*
X90285838Y-80185925D01*
X90155092Y-80563013D01*
X90155092Y-80832884D01*
X90155092Y-81102754D01*
X90056149Y-81102754D01*
X89957207Y-81102754D01*
X89957207Y-80834127D01*
X89957207Y-80565499D01*
X89828910Y-80196300D01*
X89814116Y-80153707D01*
X89790832Y-80086589D01*
X89769164Y-80024030D01*
X89749545Y-79967285D01*
X89732408Y-79917611D01*
X89718186Y-79876263D01*
X89707312Y-79844497D01*
X89700219Y-79823568D01*
X89697340Y-79814733D01*
X89697018Y-79813303D01*
X89697599Y-79809005D01*
X89702441Y-79806004D01*
X89713517Y-79804068D01*
X89732803Y-79802969D01*
X89762274Y-79802478D01*
X89803903Y-79802365D01*
X89913739Y-79802365D01*
X89923740Y-79835935D01*
G37*
G36*
X88829967Y-80894586D02*
G01*
X88806419Y-80942409D01*
X88778433Y-80988645D01*
X88736778Y-81035702D01*
X88687582Y-81073706D01*
X88633088Y-81100973D01*
X88575543Y-81115813D01*
X88534644Y-81119025D01*
X88470056Y-81113986D01*
X88409482Y-81097083D01*
X88354403Y-81069336D01*
X88306306Y-81031766D01*
X88266674Y-80985396D01*
X88236991Y-80931245D01*
X88218741Y-80870335D01*
X88218657Y-80869871D01*
X88216993Y-80853028D01*
X88215549Y-80823884D01*
X88214324Y-80784093D01*
X88213317Y-80735307D01*
X88212526Y-80679177D01*
X88211949Y-80617355D01*
X88211623Y-80558207D01*
X88417669Y-80558207D01*
X88417792Y-80633959D01*
X88418246Y-80698493D01*
X88419023Y-80751227D01*
X88420116Y-80791577D01*
X88421517Y-80818961D01*
X88423218Y-80832796D01*
X88425852Y-80840338D01*
X88438467Y-80863071D01*
X88455312Y-80883583D01*
X88465646Y-80893051D01*
X88480521Y-80902845D01*
X88498204Y-80907862D01*
X88524355Y-80910294D01*
X88539197Y-80910954D01*
X88560928Y-80910040D01*
X88577378Y-80905117D01*
X88594320Y-80894917D01*
X88599432Y-80891361D01*
X88608869Y-80884348D01*
X88616840Y-80876875D01*
X88623461Y-80867804D01*
X88628849Y-80855993D01*
X88633121Y-80840304D01*
X88636394Y-80819598D01*
X88638784Y-80792733D01*
X88640409Y-80758572D01*
X88641386Y-80715974D01*
X88641831Y-80663800D01*
X88641861Y-80600910D01*
X88641594Y-80526165D01*
X88641146Y-80438425D01*
X88639149Y-80060323D01*
X88622180Y-80036530D01*
X88611979Y-80024905D01*
X88586577Y-80005742D01*
X88557299Y-79991787D01*
X88530070Y-79986271D01*
X88510659Y-79989243D01*
X88482106Y-80001328D01*
X88455487Y-80019773D01*
X88436229Y-80041389D01*
X88420061Y-80067390D01*
X88418054Y-80436777D01*
X88417885Y-80471820D01*
X88417669Y-80558207D01*
X88211623Y-80558207D01*
X88211586Y-80551494D01*
X88211435Y-80483245D01*
X88211496Y-80414262D01*
X88211765Y-80346195D01*
X88212243Y-80280696D01*
X88212928Y-80219419D01*
X88213819Y-80164015D01*
X88214914Y-80116135D01*
X88216212Y-80077433D01*
X88217711Y-80049560D01*
X88219411Y-80034168D01*
X88232134Y-79991143D01*
X88260254Y-79935794D01*
X88298968Y-79886579D01*
X88346399Y-79845365D01*
X88400671Y-79814025D01*
X88459909Y-79794428D01*
X88492086Y-79790115D01*
X88541687Y-79790307D01*
X88592431Y-79796968D01*
X88638044Y-79809564D01*
X88672129Y-79825393D01*
X88720628Y-79858752D01*
X88763226Y-79900971D01*
X88797178Y-79949168D01*
X88819740Y-80000460D01*
X88822294Y-80009099D01*
X88824858Y-80019291D01*
X88827001Y-80030711D01*
X88828753Y-80044533D01*
X88830144Y-80061930D01*
X88831205Y-80084075D01*
X88831966Y-80112141D01*
X88832458Y-80147303D01*
X88832712Y-80190732D01*
X88832757Y-80243603D01*
X88832625Y-80307089D01*
X88832345Y-80382362D01*
X88831949Y-80470597D01*
X88831340Y-80600910D01*
X88829967Y-80894586D01*
G37*
G36*
X93417100Y-79798869D02*
G01*
X93450076Y-79799420D01*
X93473963Y-79801029D01*
X93492273Y-79804208D01*
X93508518Y-79809468D01*
X93526211Y-79817318D01*
X93532966Y-79820621D01*
X93588637Y-79855592D01*
X93635464Y-79899460D01*
X93671829Y-79950420D01*
X93696115Y-80006669D01*
X93698708Y-80015517D01*
X93701316Y-80025872D01*
X93703493Y-80037353D01*
X93705271Y-80051144D01*
X93706681Y-80068427D01*
X93707754Y-80090385D01*
X93708522Y-80118200D01*
X93709016Y-80153054D01*
X93709266Y-80196130D01*
X93709305Y-80248611D01*
X93709163Y-80311678D01*
X93708872Y-80386515D01*
X93708462Y-80474304D01*
X93706428Y-80894589D01*
X93682735Y-80942703D01*
X93651844Y-80992795D01*
X93609663Y-81038928D01*
X93560150Y-81075912D01*
X93505553Y-81102091D01*
X93448119Y-81115805D01*
X93437332Y-81116947D01*
X93367713Y-81117019D01*
X93303202Y-81104252D01*
X93244684Y-81079127D01*
X93193043Y-81042124D01*
X93149165Y-80993724D01*
X93113934Y-80934408D01*
X93111118Y-80928447D01*
X93103919Y-80912451D01*
X93098688Y-80898051D01*
X93095056Y-80882623D01*
X93092652Y-80863547D01*
X93091110Y-80838203D01*
X93090058Y-80803968D01*
X93089129Y-80758222D01*
X93086688Y-80629243D01*
X93189838Y-80629243D01*
X93292989Y-80629243D01*
X93292989Y-80726688D01*
X93293055Y-80751333D01*
X93293639Y-80784856D01*
X93295141Y-80809018D01*
X93297935Y-80826854D01*
X93302393Y-80841393D01*
X93308890Y-80855667D01*
X93320639Y-80873392D01*
X93345784Y-80896643D01*
X93375605Y-80912891D01*
X93405332Y-80919004D01*
X93424103Y-80916150D01*
X93453022Y-80904089D01*
X93479968Y-80885539D01*
X93499442Y-80863730D01*
X93515610Y-80837729D01*
X93517829Y-80484363D01*
X93517881Y-80475903D01*
X93518206Y-80405470D01*
X93518333Y-80338424D01*
X93518273Y-80276302D01*
X93518034Y-80220637D01*
X93517625Y-80172966D01*
X93517056Y-80134823D01*
X93516337Y-80107743D01*
X93515475Y-80093263D01*
X93514618Y-80087441D01*
X93502804Y-80052515D01*
X93481884Y-80023041D01*
X93454442Y-80001177D01*
X93423066Y-79989080D01*
X93390342Y-79988907D01*
X93362160Y-79998442D01*
X93330264Y-80020923D01*
X93307625Y-80052219D01*
X93302204Y-80064782D01*
X93297544Y-80081201D01*
X93294734Y-80101750D01*
X93293355Y-80129761D01*
X93292989Y-80168564D01*
X93292989Y-80254674D01*
X93190512Y-80254674D01*
X93088036Y-80254674D01*
X93088120Y-80157498D01*
X93088207Y-80140642D01*
X93089810Y-80089689D01*
X93093915Y-80048533D01*
X93101147Y-80013882D01*
X93112136Y-79982444D01*
X93127509Y-79950925D01*
X93130647Y-79945422D01*
X93156720Y-79909890D01*
X93191362Y-79874388D01*
X93230405Y-79842786D01*
X93269683Y-79818951D01*
X93281593Y-79813255D01*
X93297975Y-79806599D01*
X93314379Y-79802377D01*
X93334333Y-79800041D01*
X93361363Y-79799042D01*
X93398999Y-79798831D01*
X93417100Y-79798869D01*
G37*
G36*
X89318393Y-79798872D02*
G01*
X89351245Y-79799431D01*
X89375050Y-79801047D01*
X89393305Y-79804230D01*
X89409508Y-79809484D01*
X89427157Y-79817318D01*
X89433912Y-79820621D01*
X89489583Y-79855592D01*
X89536410Y-79899460D01*
X89572775Y-79950420D01*
X89597061Y-80006669D01*
X89599647Y-80015492D01*
X89602256Y-80025846D01*
X89604435Y-80037325D01*
X89606214Y-80051111D01*
X89607625Y-80068386D01*
X89608699Y-80090334D01*
X89609467Y-80118136D01*
X89609961Y-80152977D01*
X89610212Y-80196038D01*
X89610251Y-80248502D01*
X89610109Y-80311553D01*
X89609818Y-80386372D01*
X89609408Y-80474143D01*
X89607374Y-80894268D01*
X89583854Y-80942369D01*
X89552672Y-80993031D01*
X89510532Y-81039035D01*
X89461035Y-81075952D01*
X89406455Y-81102101D01*
X89349065Y-81115805D01*
X89338278Y-81116947D01*
X89268659Y-81117019D01*
X89204148Y-81104252D01*
X89145630Y-81079127D01*
X89093989Y-81042124D01*
X89050111Y-80993724D01*
X89014880Y-80934408D01*
X89012064Y-80928447D01*
X89004865Y-80912451D01*
X88999634Y-80898051D01*
X88996002Y-80882623D01*
X88993598Y-80863547D01*
X88992056Y-80838203D01*
X88991004Y-80803968D01*
X88990075Y-80758222D01*
X88987634Y-80629243D01*
X89090784Y-80629243D01*
X89193935Y-80629243D01*
X89193935Y-80726688D01*
X89194001Y-80751333D01*
X89194585Y-80784856D01*
X89196087Y-80809018D01*
X89198881Y-80826854D01*
X89203339Y-80841393D01*
X89209836Y-80855667D01*
X89221585Y-80873392D01*
X89246730Y-80896643D01*
X89276551Y-80912891D01*
X89306278Y-80919004D01*
X89325049Y-80916150D01*
X89353968Y-80904089D01*
X89380914Y-80885539D01*
X89400388Y-80863730D01*
X89416556Y-80837729D01*
X89418798Y-80491430D01*
X89418831Y-80486282D01*
X89419363Y-80398796D01*
X89419688Y-80324232D01*
X89419728Y-80261441D01*
X89419404Y-80209274D01*
X89418638Y-80166582D01*
X89417352Y-80132216D01*
X89415466Y-80105026D01*
X89412904Y-80083862D01*
X89409585Y-80067577D01*
X89405432Y-80055021D01*
X89400367Y-80045044D01*
X89394310Y-80036497D01*
X89387184Y-80028231D01*
X89385041Y-80025899D01*
X89353403Y-80000375D01*
X89319536Y-79988783D01*
X89283783Y-79991174D01*
X89246485Y-80007599D01*
X89242100Y-80010431D01*
X89222870Y-80027325D01*
X89209148Y-80049414D01*
X89200223Y-80078869D01*
X89195389Y-80117862D01*
X89193935Y-80168564D01*
X89193935Y-80254674D01*
X89091458Y-80254674D01*
X88988982Y-80254674D01*
X88989066Y-80157498D01*
X88989075Y-80152871D01*
X88990243Y-80099453D01*
X88993757Y-80056544D01*
X89000192Y-80020872D01*
X89010123Y-79989168D01*
X89024125Y-79958161D01*
X89048848Y-79920335D01*
X89083159Y-79882380D01*
X89122808Y-79848527D01*
X89163660Y-79822791D01*
X89183308Y-79813075D01*
X89199828Y-79806260D01*
X89216126Y-79802061D01*
X89235790Y-79799845D01*
X89262410Y-79798979D01*
X89299575Y-79798831D01*
X89318393Y-79798872D01*
G37*
G36*
X87773842Y-79791691D02*
G01*
X87837929Y-79805043D01*
X87893896Y-79829962D01*
X87941687Y-79866410D01*
X87981248Y-79914348D01*
X88012526Y-79973737D01*
X88016298Y-79983006D01*
X88022860Y-80001640D01*
X88027117Y-80020047D01*
X88029556Y-80041815D01*
X88030662Y-80070534D01*
X88030920Y-80109794D01*
X88030903Y-80121123D01*
X88030404Y-80157995D01*
X88028860Y-80185380D01*
X88025794Y-80206977D01*
X88020730Y-80226486D01*
X88013193Y-80247607D01*
X88010629Y-80254163D01*
X88000295Y-80278429D01*
X87988695Y-80301477D01*
X87974817Y-80324510D01*
X87957652Y-80348734D01*
X87936190Y-80375353D01*
X87909423Y-80405571D01*
X87876340Y-80440594D01*
X87835932Y-80481624D01*
X87787189Y-80529868D01*
X87729101Y-80586529D01*
X87709191Y-80606111D01*
X87673164Y-80643699D01*
X87646493Y-80675780D01*
X87627916Y-80704495D01*
X87616171Y-80731989D01*
X87609995Y-80760403D01*
X87608127Y-80791881D01*
X87609130Y-80813209D01*
X87619166Y-80856598D01*
X87639192Y-80891942D01*
X87668253Y-80917853D01*
X87705389Y-80932942D01*
X87706606Y-80933209D01*
X87742709Y-80934311D01*
X87776110Y-80922499D01*
X87805773Y-80898867D01*
X87830662Y-80864504D01*
X87849742Y-80820503D01*
X87861977Y-80767955D01*
X87867058Y-80734072D01*
X87906804Y-80737941D01*
X87934307Y-80740490D01*
X87968626Y-80743492D01*
X88002158Y-80746280D01*
X88057765Y-80750750D01*
X88052908Y-80794240D01*
X88052199Y-80800253D01*
X88037704Y-80871336D01*
X88013283Y-80935652D01*
X87979903Y-80992076D01*
X87938533Y-81039483D01*
X87890138Y-81076746D01*
X87835686Y-81102740D01*
X87776144Y-81116339D01*
X87759582Y-81117964D01*
X87686927Y-81118322D01*
X87621448Y-81107030D01*
X87563594Y-81084313D01*
X87513815Y-81050394D01*
X87472561Y-81005495D01*
X87440284Y-80949840D01*
X87426645Y-80915283D01*
X87410657Y-80846557D01*
X87408330Y-80776497D01*
X87419644Y-80706538D01*
X87444579Y-80638119D01*
X87458892Y-80609200D01*
X87485834Y-80562230D01*
X87516448Y-80518860D01*
X87552890Y-80476448D01*
X87597317Y-80432351D01*
X87651882Y-80383924D01*
X87657175Y-80379397D01*
X87702577Y-80339031D01*
X87738256Y-80303800D01*
X87766186Y-80271441D01*
X87788339Y-80239690D01*
X87806688Y-80206283D01*
X87816328Y-80184628D01*
X87822550Y-80163467D01*
X87825520Y-80139170D01*
X87826311Y-80106260D01*
X87826302Y-80101948D01*
X87823697Y-80060404D01*
X87815641Y-80028912D01*
X87800881Y-80004282D01*
X87778169Y-79983321D01*
X87756664Y-79973019D01*
X87725934Y-79968569D01*
X87694731Y-79972182D01*
X87669023Y-79983832D01*
X87653948Y-79998851D01*
X87635651Y-80026673D01*
X87621051Y-80059263D01*
X87612882Y-80091384D01*
X87611031Y-80103778D01*
X87607899Y-80112767D01*
X87601457Y-80117919D01*
X87589586Y-80119500D01*
X87570167Y-80117772D01*
X87541078Y-80113003D01*
X87500200Y-80105455D01*
X87420034Y-80090515D01*
X87420034Y-80067214D01*
X87421300Y-80053255D01*
X87426135Y-80028049D01*
X87433348Y-80001133D01*
X87444599Y-79970051D01*
X87475283Y-79913175D01*
X87515435Y-79866399D01*
X87564305Y-79830214D01*
X87621145Y-79805111D01*
X87685203Y-79791580D01*
X87755732Y-79790111D01*
X87773842Y-79791691D01*
G37*
G36*
X92133366Y-80686709D02*
G01*
X92132675Y-80740254D01*
X92131584Y-80784596D01*
X92130004Y-80820970D01*
X92127844Y-80850610D01*
X92125014Y-80874750D01*
X92121425Y-80894627D01*
X92116986Y-80911474D01*
X92111607Y-80926526D01*
X92105197Y-80941018D01*
X92097668Y-80956185D01*
X92079518Y-80983851D01*
X92052352Y-81015162D01*
X92020261Y-81045920D01*
X91987056Y-81072477D01*
X91956551Y-81091186D01*
X91939025Y-81098574D01*
X91904589Y-81109303D01*
X91871743Y-81115766D01*
X91859304Y-81117043D01*
X91789810Y-81116933D01*
X91725302Y-81104330D01*
X91666794Y-81079638D01*
X91615294Y-81043263D01*
X91571815Y-80995609D01*
X91562395Y-80982944D01*
X91552585Y-80969562D01*
X91544247Y-80957011D01*
X91537260Y-80944140D01*
X91531507Y-80929797D01*
X91526867Y-80912832D01*
X91523221Y-80892094D01*
X91520451Y-80866430D01*
X91518436Y-80834691D01*
X91517059Y-80795724D01*
X91516199Y-80748379D01*
X91515738Y-80691505D01*
X91515556Y-80623949D01*
X91515535Y-80544561D01*
X91515554Y-80454099D01*
X91716984Y-80454099D01*
X91716991Y-80495691D01*
X91717059Y-80572499D01*
X91717229Y-80636923D01*
X91717537Y-80690150D01*
X91718019Y-80733361D01*
X91718712Y-80767743D01*
X91719653Y-80794477D01*
X91720879Y-80814750D01*
X91722424Y-80829744D01*
X91724328Y-80840643D01*
X91726625Y-80848632D01*
X91729352Y-80854895D01*
X91730252Y-80856608D01*
X91744136Y-80876790D01*
X91759924Y-80892468D01*
X91793104Y-80908974D01*
X91829483Y-80913625D01*
X91865288Y-80906642D01*
X91897309Y-80888659D01*
X91922335Y-80860314D01*
X91923805Y-80857843D01*
X91926558Y-80852293D01*
X91928859Y-80845342D01*
X91930742Y-80835832D01*
X91932239Y-80822607D01*
X91933385Y-80804508D01*
X91934212Y-80780378D01*
X91934754Y-80749058D01*
X91935045Y-80709393D01*
X91935119Y-80660223D01*
X91935007Y-80600392D01*
X91934745Y-80528741D01*
X91934365Y-80444114D01*
X91932527Y-80050499D01*
X91908039Y-80025238D01*
X91894706Y-80013264D01*
X91861287Y-79994893D01*
X91825464Y-79988602D01*
X91790063Y-79994619D01*
X91757911Y-80013169D01*
X91755277Y-80015383D01*
X91747014Y-80022593D01*
X91740033Y-80029953D01*
X91734228Y-80038627D01*
X91729489Y-80049783D01*
X91725708Y-80064584D01*
X91722777Y-80084197D01*
X91720589Y-80109786D01*
X91719035Y-80142518D01*
X91718006Y-80183557D01*
X91717394Y-80234070D01*
X91717092Y-80295221D01*
X91716992Y-80368175D01*
X91716984Y-80454099D01*
X91515554Y-80454099D01*
X91515554Y-80452190D01*
X91515554Y-80017180D01*
X91542121Y-79963427D01*
X91565616Y-79923311D01*
X91607302Y-79874154D01*
X91657016Y-79835373D01*
X91713120Y-79807712D01*
X91773979Y-79791918D01*
X91837955Y-79788734D01*
X91903412Y-79798908D01*
X91937406Y-79810222D01*
X91991486Y-79839029D01*
X92039465Y-79878152D01*
X92079367Y-79925493D01*
X92109217Y-79978954D01*
X92127039Y-80036435D01*
X92127345Y-80038373D01*
X92128723Y-80055711D01*
X92129985Y-80085650D01*
X92131109Y-80126926D01*
X92132075Y-80178275D01*
X92132862Y-80238432D01*
X92133450Y-80306132D01*
X92133818Y-80380112D01*
X92133946Y-80459107D01*
X92133911Y-80547068D01*
X92133748Y-80622725D01*
X92133524Y-80660223D01*
X92133366Y-80686709D01*
G37*
G36*
X92675731Y-78230812D02*
G01*
X92693404Y-78246160D01*
X92694046Y-78246951D01*
X92703504Y-78260253D01*
X92718650Y-78283203D01*
X92738059Y-78313575D01*
X92760307Y-78349145D01*
X92783972Y-78387688D01*
X92793437Y-78403191D01*
X92825636Y-78454687D01*
X92853068Y-78495907D01*
X92877204Y-78528601D01*
X92899516Y-78554518D01*
X92921475Y-78575407D01*
X92944553Y-78593017D01*
X92970221Y-78609098D01*
X92990088Y-78621285D01*
X93029265Y-78650085D01*
X93059609Y-78679478D01*
X93078723Y-78707291D01*
X93081152Y-78712397D01*
X93089844Y-78731014D01*
X93101716Y-78756705D01*
X93114934Y-78785509D01*
X93117083Y-78790174D01*
X93155702Y-78863053D01*
X93199251Y-78924992D01*
X93249634Y-78978718D01*
X93298974Y-79025457D01*
X93340500Y-79067063D01*
X93371082Y-79100658D01*
X93390927Y-79126459D01*
X93398413Y-79137983D01*
X93404400Y-79149791D01*
X93403275Y-79156886D01*
X93395577Y-79163563D01*
X93388351Y-79167100D01*
X93365806Y-79171722D01*
X93334042Y-79173372D01*
X93331065Y-79173370D01*
X93306581Y-79173697D01*
X93292603Y-79176637D01*
X93287051Y-79185029D01*
X93287848Y-79201710D01*
X93292914Y-79229517D01*
X93297040Y-79247566D01*
X93307642Y-79274257D01*
X93324484Y-79296228D01*
X93350027Y-79316307D01*
X93386733Y-79337323D01*
X93422868Y-79357559D01*
X93472276Y-79389394D01*
X93520310Y-79424661D01*
X93564699Y-79461446D01*
X93603171Y-79497837D01*
X93633453Y-79531921D01*
X93653273Y-79561782D01*
X93667845Y-79590345D01*
X93088179Y-79590345D01*
X93082343Y-79590345D01*
X92979027Y-79590333D01*
X92888899Y-79590287D01*
X92811062Y-79590187D01*
X92744615Y-79590012D01*
X92688662Y-79589742D01*
X92642302Y-79589357D01*
X92604637Y-79588837D01*
X92574770Y-79588163D01*
X92551800Y-79587314D01*
X92534829Y-79586270D01*
X92522960Y-79585012D01*
X92515292Y-79583518D01*
X92510927Y-79581770D01*
X92508968Y-79579747D01*
X92508514Y-79577429D01*
X92506375Y-79566023D01*
X92499991Y-79545414D01*
X92490846Y-79521030D01*
X92481476Y-79496044D01*
X92475246Y-79470855D01*
X92474790Y-79447388D01*
X92480546Y-79422222D01*
X92492957Y-79391937D01*
X92512461Y-79353113D01*
X92527970Y-79322524D01*
X92542480Y-79289642D01*
X92549212Y-79266258D01*
X92548296Y-79251122D01*
X92539859Y-79242987D01*
X92524030Y-79240603D01*
X92511497Y-79240074D01*
X92503964Y-79236197D01*
X92504773Y-79226468D01*
X92520098Y-79169036D01*
X92530330Y-79118428D01*
X92534504Y-79075741D01*
X92532682Y-79038515D01*
X92524927Y-79004288D01*
X92511301Y-78970600D01*
X92505467Y-78958190D01*
X92500341Y-78945423D01*
X92496501Y-78931843D01*
X92493672Y-78915231D01*
X92491579Y-78893367D01*
X92489947Y-78864031D01*
X92488503Y-78825005D01*
X92486970Y-78774068D01*
X92485793Y-78734585D01*
X92484315Y-78692531D01*
X92482694Y-78660612D01*
X92480656Y-78636541D01*
X92477927Y-78618034D01*
X92474233Y-78602805D01*
X92469299Y-78588568D01*
X92462852Y-78573038D01*
X92454474Y-78551633D01*
X92443872Y-78508930D01*
X92444286Y-78473623D01*
X92455545Y-78446272D01*
X92477479Y-78427441D01*
X92509919Y-78417691D01*
X92540317Y-78413634D01*
X92544455Y-78370420D01*
X92545831Y-78358515D01*
X92551912Y-78331406D01*
X92563247Y-78307791D01*
X92582009Y-78283895D01*
X92610368Y-78255947D01*
X92635293Y-78236173D01*
X92656966Y-78227411D01*
X92675731Y-78230812D01*
G37*
G36*
X94479503Y-80671624D02*
G01*
X94492333Y-80747530D01*
X94504416Y-80819101D01*
X94515548Y-80885137D01*
X94525525Y-80944438D01*
X94534144Y-80995805D01*
X94541202Y-81038038D01*
X94546495Y-81069936D01*
X94549820Y-81090300D01*
X94550974Y-81097931D01*
X94549791Y-81098663D01*
X94538014Y-81100277D01*
X94515626Y-81101575D01*
X94485116Y-81102440D01*
X94448974Y-81102754D01*
X94415026Y-81102652D01*
X94384741Y-81102109D01*
X94364620Y-81100867D01*
X94352482Y-81098669D01*
X94346146Y-81095261D01*
X94343432Y-81090387D01*
X94341922Y-81083256D01*
X94338413Y-81063491D01*
X94333564Y-81034287D01*
X94327799Y-80998223D01*
X94321546Y-80957874D01*
X94316837Y-80927252D01*
X94310902Y-80889283D01*
X94305789Y-80857275D01*
X94301926Y-80833899D01*
X94299741Y-80821828D01*
X94299225Y-80819585D01*
X94296913Y-80813937D01*
X94291794Y-80810109D01*
X94281605Y-80807748D01*
X94264078Y-80806500D01*
X94236948Y-80806011D01*
X94197949Y-80805926D01*
X94169180Y-80806002D01*
X94138263Y-80806505D01*
X94117711Y-80807716D01*
X94105299Y-80809905D01*
X94098804Y-80813341D01*
X94096003Y-80818294D01*
X94094484Y-80825416D01*
X94090988Y-80845178D01*
X94086176Y-80874383D01*
X94080470Y-80910452D01*
X94074294Y-80950807D01*
X94069647Y-80981400D01*
X94063762Y-81019378D01*
X94058668Y-81051396D01*
X94054792Y-81074778D01*
X94052562Y-81086853D01*
X94051741Y-81090114D01*
X94049136Y-81095349D01*
X94043459Y-81098894D01*
X94032498Y-81101077D01*
X94014039Y-81102229D01*
X93985871Y-81102678D01*
X93945780Y-81102754D01*
X93842636Y-81102754D01*
X93845715Y-81083319D01*
X93847273Y-81073864D01*
X93851002Y-81051430D01*
X93856726Y-81017089D01*
X93864273Y-80971865D01*
X93873472Y-80916782D01*
X93884151Y-80852867D01*
X93896139Y-80781143D01*
X93909265Y-80702635D01*
X93923358Y-80618369D01*
X93923903Y-80615108D01*
X94126068Y-80615108D01*
X94197736Y-80615108D01*
X94269404Y-80615108D01*
X94265503Y-80595673D01*
X94265150Y-80593750D01*
X94262727Y-80578458D01*
X94258732Y-80551632D01*
X94253445Y-80515211D01*
X94247146Y-80471132D01*
X94240113Y-80421333D01*
X94232627Y-80367752D01*
X94230332Y-80351291D01*
X94222979Y-80299342D01*
X94216148Y-80252216D01*
X94210117Y-80211748D01*
X94205163Y-80179776D01*
X94201562Y-80158136D01*
X94199591Y-80148664D01*
X94199059Y-80148610D01*
X94196418Y-80157459D01*
X94192210Y-80178101D01*
X94186715Y-80208934D01*
X94180209Y-80248355D01*
X94172971Y-80294761D01*
X94165278Y-80346550D01*
X94163354Y-80359808D01*
X94155567Y-80413437D01*
X94148308Y-80463379D01*
X94141876Y-80507574D01*
X94136572Y-80543961D01*
X94132696Y-80570481D01*
X94130548Y-80585072D01*
X94126068Y-80615108D01*
X93923903Y-80615108D01*
X93938246Y-80529368D01*
X93953759Y-80436658D01*
X94058724Y-79809432D01*
X94195171Y-79809432D01*
X94223567Y-79809440D01*
X94263411Y-79809583D01*
X94292114Y-79810073D01*
X94311580Y-79811129D01*
X94323717Y-79812967D01*
X94330432Y-79815802D01*
X94333631Y-79819853D01*
X94335221Y-79825334D01*
X94335293Y-79825672D01*
X94337231Y-79836285D01*
X94341269Y-79859361D01*
X94347205Y-79893700D01*
X94354833Y-79938102D01*
X94363952Y-79991367D01*
X94374357Y-80052296D01*
X94385845Y-80119688D01*
X94398213Y-80192344D01*
X94411257Y-80269063D01*
X94424774Y-80348647D01*
X94438561Y-80429894D01*
X94452413Y-80511606D01*
X94466129Y-80592583D01*
X94469940Y-80615108D01*
X94479503Y-80671624D01*
G37*
G36*
X90633286Y-78508911D02*
G01*
X90633046Y-78614869D01*
X90632753Y-78709502D01*
X90632375Y-78793523D01*
X90631881Y-78867646D01*
X90631238Y-78932586D01*
X90630577Y-78978022D01*
X90630416Y-78989055D01*
X90629383Y-79037768D01*
X90628106Y-79079439D01*
X90626555Y-79114781D01*
X90624697Y-79144508D01*
X90622501Y-79169333D01*
X90619935Y-79189971D01*
X90616968Y-79207136D01*
X90613567Y-79221540D01*
X90609702Y-79233899D01*
X90605339Y-79244925D01*
X90600449Y-79255333D01*
X90594998Y-79265836D01*
X90588956Y-79277148D01*
X90582290Y-79289983D01*
X90566463Y-79318806D01*
X90518177Y-79386850D01*
X90457662Y-79449455D01*
X90385808Y-79505773D01*
X90303506Y-79554959D01*
X90236366Y-79589855D01*
X88830727Y-79590100D01*
X87425087Y-79590345D01*
X87429409Y-79548999D01*
X87433152Y-79524458D01*
X87443204Y-79481249D01*
X87457227Y-79434303D01*
X87473617Y-79388822D01*
X87490771Y-79350008D01*
X87495385Y-79341077D01*
X87540394Y-79270900D01*
X87596685Y-79208125D01*
X87663006Y-79153799D01*
X87738104Y-79108967D01*
X87820727Y-79074674D01*
X87911631Y-79050224D01*
X88010134Y-79036007D01*
X88108767Y-79033761D01*
X88205744Y-79043304D01*
X88299277Y-79064452D01*
X88387581Y-79097025D01*
X88468868Y-79140839D01*
X88487060Y-79151778D01*
X88504349Y-79159387D01*
X88511351Y-79157514D01*
X88513095Y-79150061D01*
X88517179Y-79130912D01*
X88522773Y-79103774D01*
X88529203Y-79071881D01*
X88538200Y-79030410D01*
X88554237Y-78974455D01*
X89640173Y-78974455D01*
X89643546Y-78980129D01*
X89659874Y-78982554D01*
X89662253Y-78982594D01*
X89684748Y-78988861D01*
X89698459Y-79006003D01*
X89703619Y-79034297D01*
X89703772Y-79038390D01*
X89705874Y-79063617D01*
X89709254Y-79085030D01*
X89711495Y-79092473D01*
X89713831Y-79091741D01*
X89716111Y-79079282D01*
X89718699Y-79053900D01*
X89718998Y-79050667D01*
X89722298Y-79024710D01*
X89726359Y-79004629D01*
X89730373Y-78994541D01*
X89731752Y-78993419D01*
X89744990Y-78987587D01*
X89764262Y-78982767D01*
X89791124Y-78978022D01*
X89763103Y-78965879D01*
X89750080Y-78959940D01*
X89736478Y-78951198D01*
X89728380Y-78939494D01*
X89723610Y-78921115D01*
X89719991Y-78892351D01*
X89717277Y-78870881D01*
X89714453Y-78855388D01*
X89712284Y-78850552D01*
X89709992Y-78857491D01*
X89706286Y-78874787D01*
X89702141Y-78898335D01*
X89700522Y-78908019D01*
X89694727Y-78934328D01*
X89687337Y-78950521D01*
X89676382Y-78959706D01*
X89659890Y-78964993D01*
X89649751Y-78967932D01*
X89640173Y-78974455D01*
X88554237Y-78974455D01*
X88572827Y-78909589D01*
X88618614Y-78793577D01*
X88674738Y-78683863D01*
X88740373Y-78581936D01*
X88814695Y-78489287D01*
X88832796Y-78471253D01*
X90123704Y-78471253D01*
X90167602Y-78479890D01*
X90181397Y-78482962D01*
X90206058Y-78491405D01*
X90218154Y-78500959D01*
X90219368Y-78504000D01*
X90223097Y-78520513D01*
X90226793Y-78545556D01*
X90229808Y-78575016D01*
X90230884Y-78587104D01*
X90233928Y-78613100D01*
X90237165Y-78631834D01*
X90240055Y-78639884D01*
X90241638Y-78638304D01*
X90244628Y-78626063D01*
X90247682Y-78604312D01*
X90250340Y-78575917D01*
X90250570Y-78572920D01*
X90254460Y-78536956D01*
X90259486Y-78511665D01*
X90265313Y-78498774D01*
X90273035Y-78493923D01*
X90292004Y-78486629D01*
X90315879Y-78480347D01*
X90356511Y-78471854D01*
X90328242Y-78463413D01*
X90325651Y-78462633D01*
X90299863Y-78453593D01*
X90281362Y-78442957D01*
X90268621Y-78428220D01*
X90260116Y-78406873D01*
X90254322Y-78376411D01*
X90249713Y-78334325D01*
X90249537Y-78332480D01*
X90245908Y-78306952D01*
X90241541Y-78291739D01*
X90237304Y-78287729D01*
X90234063Y-78295812D01*
X90232685Y-78316875D01*
X90231694Y-78332547D01*
X90228204Y-78359625D01*
X90223092Y-78388053D01*
X90219070Y-78405787D01*
X90212049Y-78425678D01*
X90201262Y-78439044D01*
X90183436Y-78449362D01*
X90155300Y-78460112D01*
X90123704Y-78471253D01*
X88832796Y-78471253D01*
X88896880Y-78407406D01*
X88949894Y-78364729D01*
X89031707Y-78311054D01*
X89123445Y-78262701D01*
X89222960Y-78220656D01*
X89328103Y-78185908D01*
X89436725Y-78159443D01*
X89483754Y-78150252D01*
X89531895Y-78141691D01*
X89575794Y-78135181D01*
X89618515Y-78130454D01*
X89663117Y-78127240D01*
X89712664Y-78125267D01*
X89770215Y-78124267D01*
X89838833Y-78123968D01*
X90027888Y-78123873D01*
X90031110Y-78102671D01*
X90033088Y-78088858D01*
X90036527Y-78063835D01*
X90040835Y-78031878D01*
X90045513Y-77996661D01*
X90052723Y-77946008D01*
X90067323Y-77859830D01*
X90084344Y-77775817D01*
X90103199Y-77696360D01*
X90123302Y-77623853D01*
X90144067Y-77560686D01*
X90164909Y-77509253D01*
X90204749Y-77435747D01*
X90255219Y-77366112D01*
X90316821Y-77300361D01*
X90390550Y-77237433D01*
X90477401Y-77176268D01*
X90501710Y-77160978D01*
X90535002Y-77141211D01*
X90566989Y-77123371D01*
X90595018Y-77108874D01*
X90616435Y-77099136D01*
X90628584Y-77095576D01*
X90628757Y-77095693D01*
X90629864Y-77102755D01*
X90630848Y-77120917D01*
X90631711Y-77150433D01*
X90632455Y-77191555D01*
X90633080Y-77244535D01*
X90633589Y-77309628D01*
X90633982Y-77387085D01*
X90634261Y-77477159D01*
X90634427Y-77580103D01*
X90634481Y-77696171D01*
X90634425Y-77825614D01*
X90634260Y-77968686D01*
X90633987Y-78125640D01*
X90633735Y-78260165D01*
X90633506Y-78390914D01*
X90633355Y-78471854D01*
X90633286Y-78508911D01*
G37*
G36*
X92588073Y-77512548D02*
G01*
X92645476Y-77599213D01*
X92696395Y-77684939D01*
X92728556Y-77742696D01*
X92779317Y-77737603D01*
X92792453Y-77736373D01*
X92880847Y-77731861D01*
X92976881Y-77732638D01*
X93075943Y-77738449D01*
X93173426Y-77749043D01*
X93264719Y-77764167D01*
X93337643Y-77780566D01*
X93455383Y-77816084D01*
X93563844Y-77861347D01*
X93664245Y-77917070D01*
X93757808Y-77983971D01*
X93845752Y-78062765D01*
X93929299Y-78154169D01*
X93942633Y-78170362D01*
X94010375Y-78260639D01*
X94066623Y-78350279D01*
X94111010Y-78438469D01*
X94143170Y-78524394D01*
X94162735Y-78607242D01*
X94169338Y-78686199D01*
X94169338Y-78748466D01*
X94202908Y-78752912D01*
X94218362Y-78755080D01*
X94298702Y-78769589D01*
X94381579Y-78789295D01*
X94459107Y-78812369D01*
X94485592Y-78821518D01*
X94573740Y-78857056D01*
X94654299Y-78898564D01*
X94730240Y-78947917D01*
X94804538Y-79006986D01*
X94880166Y-79077646D01*
X94892190Y-79089741D01*
X94959867Y-79162616D01*
X95016359Y-79232913D01*
X95063352Y-79302886D01*
X95102534Y-79374791D01*
X95103264Y-79376296D01*
X95122966Y-79420338D01*
X95140132Y-79465085D01*
X95153704Y-79507257D01*
X95162624Y-79543577D01*
X95165832Y-79570768D01*
X95165832Y-79590345D01*
X94484807Y-79590345D01*
X93803782Y-79590345D01*
X93850612Y-79496703D01*
X93893478Y-79402842D01*
X93930731Y-79299174D01*
X93958847Y-79191040D01*
X93960252Y-79184169D01*
X93966850Y-79139899D01*
X93971594Y-79086916D01*
X93974419Y-79028998D01*
X93975260Y-78969923D01*
X93974052Y-78913470D01*
X93970728Y-78863416D01*
X93965222Y-78823539D01*
X93951029Y-78762464D01*
X93914790Y-78653359D01*
X93865957Y-78548368D01*
X93805385Y-78448557D01*
X93733930Y-78354993D01*
X93652448Y-78268743D01*
X93561795Y-78190873D01*
X93462825Y-78122451D01*
X93356396Y-78064543D01*
X93310956Y-78043787D01*
X93244082Y-78017267D01*
X93176761Y-77996166D01*
X93102170Y-77978164D01*
X93068530Y-77972050D01*
X92999835Y-77964411D01*
X92924845Y-77961157D01*
X92848156Y-77962294D01*
X92774367Y-77967826D01*
X92708076Y-77977758D01*
X92682503Y-77983144D01*
X92567424Y-78015450D01*
X92502575Y-78042016D01*
X92459232Y-78059772D01*
X92357223Y-78116489D01*
X92260691Y-78185983D01*
X92168934Y-78268633D01*
X92135473Y-78303389D01*
X92057070Y-78398153D01*
X91990347Y-78500202D01*
X91935023Y-78610065D01*
X91890819Y-78728269D01*
X91857453Y-78855342D01*
X91857419Y-78855503D01*
X91849394Y-78904611D01*
X91843818Y-78962478D01*
X91840857Y-79022632D01*
X91840724Y-79025329D01*
X91840146Y-79089392D01*
X91842119Y-79150893D01*
X91846678Y-79206058D01*
X91853856Y-79251113D01*
X91853937Y-79251481D01*
X91868097Y-79306264D01*
X91886824Y-79364562D01*
X91908714Y-79422889D01*
X91932366Y-79477757D01*
X91956377Y-79525679D01*
X91979345Y-79563166D01*
X91979961Y-79564043D01*
X91988908Y-79578060D01*
X91992599Y-79586319D01*
X91991701Y-79586623D01*
X91980106Y-79587390D01*
X91956163Y-79588031D01*
X91921189Y-79588539D01*
X91876497Y-79588904D01*
X91823404Y-79589117D01*
X91763224Y-79589171D01*
X91697272Y-79589055D01*
X91626864Y-79588762D01*
X91261130Y-79586811D01*
X91179856Y-79546672D01*
X91143386Y-79527634D01*
X91063042Y-79476739D01*
X90995252Y-79419599D01*
X90939828Y-79356014D01*
X90896585Y-79285784D01*
X90865336Y-79208709D01*
X90864254Y-79204909D01*
X90861719Y-79192726D01*
X90859365Y-79176094D01*
X90857181Y-79154445D01*
X90855154Y-79127208D01*
X90853274Y-79093813D01*
X90851528Y-79053691D01*
X90850386Y-79020358D01*
X91215926Y-79020358D01*
X91227882Y-79024032D01*
X91253890Y-79027188D01*
X91263316Y-79028218D01*
X91301273Y-79035526D01*
X91333539Y-79046681D01*
X91357302Y-79060504D01*
X91369747Y-79075812D01*
X91370233Y-79077317D01*
X91373299Y-79092606D01*
X91377001Y-79118186D01*
X91380917Y-79150880D01*
X91384622Y-79187507D01*
X91385418Y-79196112D01*
X91390127Y-79244968D01*
X91394055Y-79279898D01*
X91397455Y-79301047D01*
X91400581Y-79308561D01*
X91403686Y-79302585D01*
X91407024Y-79283265D01*
X91410849Y-79250747D01*
X91415415Y-79205175D01*
X91419220Y-79166446D01*
X91423045Y-79130977D01*
X91426473Y-79105634D01*
X91429955Y-79088256D01*
X91433940Y-79076682D01*
X91438882Y-79068751D01*
X91445229Y-79062304D01*
X91454935Y-79054893D01*
X91479117Y-79043257D01*
X91512614Y-79034393D01*
X91557807Y-79027566D01*
X91600060Y-79022632D01*
X91552560Y-79006609D01*
X91527391Y-78997392D01*
X91498618Y-78985371D01*
X91476602Y-78974592D01*
X91464036Y-78966269D01*
X91452645Y-78954534D01*
X91443430Y-78938366D01*
X91435750Y-78915832D01*
X91428962Y-78884998D01*
X91422424Y-78843933D01*
X91415493Y-78790704D01*
X91413673Y-78776366D01*
X91409058Y-78744248D01*
X91404723Y-78719556D01*
X91401087Y-78704499D01*
X91398568Y-78701285D01*
X91397973Y-78702727D01*
X91394957Y-78716444D01*
X91391700Y-78739227D01*
X91388808Y-78766979D01*
X91385468Y-78798908D01*
X91379499Y-78841792D01*
X91372355Y-78882536D01*
X91364750Y-78917155D01*
X91357404Y-78941660D01*
X91345221Y-78957775D01*
X91321508Y-78974782D01*
X91289058Y-78990759D01*
X91250529Y-79004151D01*
X91233835Y-79009182D01*
X91217938Y-79015598D01*
X91215926Y-79020358D01*
X90850386Y-79020358D01*
X90849904Y-79006272D01*
X90848390Y-78950986D01*
X90846974Y-78887263D01*
X90845645Y-78814534D01*
X90844390Y-78732228D01*
X90843197Y-78639776D01*
X90842055Y-78536608D01*
X90840952Y-78422155D01*
X90839875Y-78295846D01*
X90838813Y-78157112D01*
X90837970Y-78036378D01*
X91120723Y-78036378D01*
X91121149Y-78040953D01*
X91134923Y-78042599D01*
X91152264Y-78045022D01*
X91168873Y-78052047D01*
X91174211Y-78057689D01*
X91181469Y-78075755D01*
X91186126Y-78105692D01*
X91188534Y-78124385D01*
X91192692Y-78140482D01*
X91196752Y-78142596D01*
X91199834Y-78130764D01*
X91201058Y-78105027D01*
X91201662Y-78092258D01*
X91209488Y-78064758D01*
X91226363Y-78048111D01*
X91252296Y-78042307D01*
X91275265Y-78042016D01*
X91243462Y-78026406D01*
X91234641Y-78022010D01*
X91221206Y-78013798D01*
X91213299Y-78003948D01*
X91208353Y-77988348D01*
X91203802Y-77962891D01*
X91199344Y-77938338D01*
X91194370Y-77918325D01*
X91190407Y-77911211D01*
X91187708Y-77917370D01*
X91186524Y-77937178D01*
X91186245Y-77946508D01*
X91180483Y-77984349D01*
X91167354Y-78010253D01*
X91146793Y-78024362D01*
X91133293Y-78029415D01*
X91120723Y-78036378D01*
X90837970Y-78036378D01*
X90837754Y-78005383D01*
X90836686Y-77840089D01*
X90834423Y-77477988D01*
X91530839Y-77477988D01*
X91535882Y-77480757D01*
X91551630Y-77483736D01*
X91575043Y-77486328D01*
X91600502Y-77489682D01*
X91632683Y-77497062D01*
X91661007Y-77506759D01*
X91682067Y-77517559D01*
X91692459Y-77528246D01*
X91693924Y-77535483D01*
X91696719Y-77555071D01*
X91700348Y-77584193D01*
X91704504Y-77620368D01*
X91708882Y-77661119D01*
X91712731Y-77695907D01*
X91717030Y-77729381D01*
X91720852Y-77753414D01*
X91723946Y-77766461D01*
X91726061Y-77766973D01*
X91726953Y-77762379D01*
X91729620Y-77743697D01*
X91733054Y-77715288D01*
X91736908Y-77680108D01*
X91740836Y-77641112D01*
X91742865Y-77621315D01*
X91747228Y-77585104D01*
X91751722Y-77554864D01*
X91755921Y-77533302D01*
X91759400Y-77523122D01*
X91763774Y-77519157D01*
X91782755Y-77509171D01*
X91810740Y-77499517D01*
X91844138Y-77491315D01*
X91879359Y-77485686D01*
X91922855Y-77480745D01*
X91863292Y-77460586D01*
X91827603Y-77447865D01*
X91800286Y-77435367D01*
X91781655Y-77421357D01*
X91769154Y-77403133D01*
X91760224Y-77377989D01*
X91752311Y-77343221D01*
X91750580Y-77334462D01*
X91743682Y-77294569D01*
X91737747Y-77253043D01*
X91733902Y-77217583D01*
X91733062Y-77208000D01*
X91730127Y-77182307D01*
X91726981Y-77163717D01*
X91724175Y-77155731D01*
X91721996Y-77159206D01*
X91718551Y-77174064D01*
X91714685Y-77198023D01*
X91710894Y-77228365D01*
X91708624Y-77247743D01*
X91703352Y-77287063D01*
X91697605Y-77324330D01*
X91692277Y-77353533D01*
X91684867Y-77381704D01*
X91672580Y-77407110D01*
X91654018Y-77426349D01*
X91626588Y-77441977D01*
X91587696Y-77456549D01*
X91583595Y-77457900D01*
X91558927Y-77466397D01*
X91540165Y-77473468D01*
X91531097Y-77477698D01*
X91530839Y-77477988D01*
X90834423Y-77477988D01*
X90831467Y-77005053D01*
X90859264Y-76990872D01*
X90888473Y-76977295D01*
X90944839Y-76955851D01*
X91010244Y-76935539D01*
X91081551Y-76917212D01*
X91155624Y-76901727D01*
X91229327Y-76889939D01*
X91242723Y-76888334D01*
X91292147Y-76884432D01*
X91350645Y-76882124D01*
X91414466Y-76881379D01*
X91479855Y-76882165D01*
X91543059Y-76884453D01*
X91600325Y-76888209D01*
X91647901Y-76893405D01*
X91702343Y-76902111D01*
X91831538Y-76931305D01*
X91952659Y-76971661D01*
X92066743Y-77023691D01*
X92174827Y-77087911D01*
X92277949Y-77164835D01*
X92377145Y-77254978D01*
X92401296Y-77279701D01*
X92463548Y-77349513D01*
X92526618Y-77428222D01*
X92564896Y-77480745D01*
X92588073Y-77512548D01*
G37*
%TO.C,Q2*%
D10*
X97495000Y-69118000D02*
X97495000Y-69118000D01*
X97495000Y-69218000D02*
X97495000Y-69218000D01*
X97495000Y-69118000D02*
G75*
G02*
X97495000Y-69218000I0J-50000D01*
G01*
X97495000Y-69218000D02*
G75*
G02*
X97495000Y-69118000I0J50000D01*
G01*
D14*
%TO.C,G\u002A\u002A\u002A*%
G36*
X108371855Y-77719619D02*
G01*
X108487273Y-77753857D01*
X108585515Y-77813638D01*
X108676963Y-77903770D01*
X108700544Y-77932540D01*
X108730805Y-77976453D01*
X108754372Y-78024350D01*
X108772066Y-78081379D01*
X108784705Y-78152689D01*
X108793109Y-78243426D01*
X108798097Y-78358740D01*
X108800489Y-78503778D01*
X108801104Y-78683688D01*
X108801104Y-79194090D01*
X108198573Y-79197332D01*
X107835344Y-79199286D01*
X106869583Y-79204483D01*
X106869583Y-79004133D01*
X106869583Y-78803783D01*
X107226778Y-78803783D01*
X107583974Y-78803783D01*
X107926302Y-78803783D01*
X108198573Y-78803783D01*
X108470844Y-78803783D01*
X108470844Y-78572959D01*
X108470843Y-78570344D01*
X108467643Y-78437364D01*
X108458417Y-78338984D01*
X108443400Y-78277726D01*
X108432426Y-78254600D01*
X108372692Y-78176751D01*
X108296055Y-78128494D01*
X108210549Y-78110428D01*
X108124205Y-78123148D01*
X108045058Y-78167254D01*
X107981139Y-78243342D01*
X107968112Y-78268678D01*
X107953736Y-78311439D01*
X107944029Y-78368236D01*
X107937676Y-78447732D01*
X107933364Y-78558590D01*
X107926302Y-78803783D01*
X107583974Y-78803783D01*
X107596115Y-78488535D01*
X107599548Y-78409713D01*
X107608749Y-78273452D01*
X107622484Y-78166377D01*
X107642763Y-78081206D01*
X107671597Y-78010656D01*
X107710997Y-77947447D01*
X107762973Y-77884295D01*
X107775172Y-77871042D01*
X107869844Y-77789302D01*
X107975763Y-77736570D01*
X108100610Y-77710060D01*
X108252067Y-77706988D01*
X108371855Y-77719619D01*
G37*
G36*
X107249357Y-75883455D02*
G01*
X107275828Y-75902559D01*
X107321544Y-75940626D01*
X107378537Y-75991091D01*
X107497183Y-76098862D01*
X107423197Y-76189152D01*
X107370042Y-76259135D01*
X107300615Y-76381712D01*
X107262085Y-76508812D01*
X107250094Y-76652089D01*
X107251143Y-76718565D01*
X107258460Y-76794220D01*
X107275830Y-76859660D01*
X107306815Y-76932491D01*
X107342588Y-76998920D01*
X107435896Y-77116195D01*
X107552165Y-77200805D01*
X107690587Y-77252248D01*
X107850356Y-77270023D01*
X107924573Y-77266939D01*
X108072356Y-77235762D01*
X108198784Y-77170757D01*
X108304424Y-77071577D01*
X108389844Y-76937870D01*
X108409206Y-76897510D01*
X108435330Y-76828076D01*
X108447704Y-76758557D01*
X108450828Y-76669122D01*
X108449238Y-76612990D01*
X108427075Y-76471787D01*
X108375533Y-76341136D01*
X108290439Y-76209067D01*
X108207243Y-76098874D01*
X108304016Y-75992337D01*
X108306973Y-75989098D01*
X108359417Y-75936617D01*
X108405429Y-75898800D01*
X108435351Y-75883641D01*
X108446110Y-75885885D01*
X108483744Y-75912569D01*
X108532380Y-75963186D01*
X108585701Y-76030068D01*
X108637391Y-76105549D01*
X108681133Y-76181963D01*
X108729304Y-76293573D01*
X108777236Y-76479680D01*
X108790351Y-76670272D01*
X108769529Y-76859251D01*
X108715647Y-77040516D01*
X108629583Y-77207965D01*
X108512216Y-77355500D01*
X108483707Y-77383280D01*
X108339912Y-77491266D01*
X108179008Y-77567342D01*
X108006788Y-77611516D01*
X107829042Y-77623793D01*
X107651562Y-77604179D01*
X107480140Y-77552681D01*
X107320567Y-77469305D01*
X107178634Y-77354058D01*
X107099888Y-77264456D01*
X107003515Y-77106409D01*
X106940739Y-76926852D01*
X106937918Y-76914884D01*
X106912391Y-76728187D01*
X106917908Y-76537121D01*
X106953317Y-76352812D01*
X107017465Y-76186386D01*
X107019630Y-76182183D01*
X107053048Y-76125019D01*
X107096693Y-76059507D01*
X107144216Y-75994067D01*
X107189270Y-75937121D01*
X107225508Y-75897092D01*
X107246582Y-75882401D01*
X107249357Y-75883455D01*
G37*
G36*
X107529654Y-70197056D02*
G01*
X107692878Y-70197777D01*
X107823237Y-70199976D01*
X107925615Y-70204430D01*
X108004894Y-70211918D01*
X108065956Y-70223217D01*
X108113686Y-70239106D01*
X108152964Y-70260362D01*
X108188675Y-70287764D01*
X108225700Y-70322088D01*
X108270311Y-70372658D01*
X108318643Y-70456268D01*
X108352852Y-70560962D01*
X108374734Y-70692734D01*
X108386085Y-70857577D01*
X108388182Y-71015390D01*
X108380973Y-71152397D01*
X108363551Y-71275659D01*
X108357790Y-71305599D01*
X108342852Y-71377783D01*
X108330524Y-71429933D01*
X108323026Y-71452363D01*
X108320824Y-71453729D01*
X108290201Y-71458822D01*
X108234578Y-71461437D01*
X108164792Y-71461792D01*
X108091677Y-71460107D01*
X108026071Y-71456602D01*
X107978808Y-71451498D01*
X107960724Y-71445013D01*
X107960854Y-71443558D01*
X107968780Y-71413522D01*
X107986529Y-71358030D01*
X108010672Y-71287865D01*
X108038716Y-71188471D01*
X108057633Y-71063760D01*
X108060586Y-70942736D01*
X108047425Y-70836340D01*
X108017999Y-70755513D01*
X107981139Y-70710083D01*
X107934303Y-70674746D01*
X107889447Y-70656705D01*
X107858296Y-70662772D01*
X107854739Y-70671099D01*
X107846147Y-70712467D01*
X107836487Y-70779174D01*
X107827255Y-70861652D01*
X107815939Y-70960951D01*
X107783980Y-71141635D01*
X107739493Y-71287678D01*
X107680847Y-71401847D01*
X107606413Y-71486910D01*
X107514560Y-71545636D01*
X107403658Y-71580793D01*
X107347905Y-71585382D01*
X107278734Y-71591076D01*
X107148738Y-71569540D01*
X107032479Y-71516639D01*
X106936490Y-71435442D01*
X106867304Y-71329013D01*
X106840797Y-71250607D01*
X106826900Y-71118935D01*
X106843425Y-70980627D01*
X106858811Y-70934833D01*
X107153030Y-70934833D01*
X107169036Y-71015743D01*
X107205659Y-71076846D01*
X107260528Y-71109672D01*
X107347905Y-71116910D01*
X107423482Y-71089362D01*
X107481817Y-71026504D01*
X107522259Y-70929052D01*
X107544159Y-70797722D01*
X107555925Y-70657368D01*
X107406006Y-70657368D01*
X107348188Y-70658344D01*
X107277171Y-70666784D01*
X107230641Y-70688665D01*
X107199000Y-70729665D01*
X107172654Y-70795462D01*
X107160009Y-70842584D01*
X107153030Y-70934833D01*
X106858811Y-70934833D01*
X106888856Y-70845405D01*
X106961680Y-70722989D01*
X107011731Y-70657368D01*
X106940657Y-70657368D01*
X106869583Y-70657368D01*
X106869583Y-70427187D01*
X106869583Y-70197006D01*
X107440675Y-70197006D01*
X107529654Y-70197056D01*
G37*
G36*
X107519896Y-74222711D02*
G01*
X107608105Y-74229362D01*
X107674230Y-74240969D01*
X107676494Y-74241619D01*
X107746554Y-74278560D01*
X107816421Y-74342302D01*
X107875700Y-74421422D01*
X107913996Y-74504493D01*
X107926945Y-74539509D01*
X107947041Y-74573421D01*
X107963580Y-74582984D01*
X107970450Y-74561977D01*
X107973996Y-74546704D01*
X108002867Y-74503348D01*
X108053041Y-74453247D01*
X108115143Y-74405106D01*
X108179798Y-74367627D01*
X108238867Y-74344329D01*
X108367059Y-74321466D01*
X108489640Y-74335409D01*
X108601087Y-74384183D01*
X108695879Y-74465811D01*
X108768495Y-74578316D01*
X108783460Y-74611015D01*
X108795853Y-74642699D01*
X108805323Y-74676945D01*
X108812353Y-74719107D01*
X108817426Y-74774536D01*
X108821024Y-74848585D01*
X108823630Y-74946606D01*
X108825726Y-75073952D01*
X108827796Y-75235974D01*
X108834471Y-75781403D01*
X108260679Y-75781403D01*
X107855363Y-75781403D01*
X107832965Y-75781399D01*
X107639825Y-75781041D01*
X107470056Y-75780195D01*
X107459354Y-75780142D01*
X107295462Y-75778759D01*
X107152057Y-75776951D01*
X107033047Y-75774776D01*
X106942342Y-75772293D01*
X106883851Y-75769558D01*
X106861483Y-75766630D01*
X106856154Y-75742558D01*
X106852776Y-75684484D01*
X106851381Y-75599000D01*
X106851775Y-75492490D01*
X106853760Y-75371341D01*
X106857142Y-75241937D01*
X106861723Y-75110665D01*
X106862097Y-75102170D01*
X107229867Y-75102170D01*
X107229867Y-75281009D01*
X107470056Y-75281009D01*
X107710245Y-75281009D01*
X108050513Y-75281009D01*
X108260679Y-75281009D01*
X108470844Y-75281009D01*
X108470549Y-75135895D01*
X108470383Y-75115786D01*
X108463294Y-75014841D01*
X108443209Y-74943377D01*
X108406594Y-74893194D01*
X108349915Y-74856093D01*
X108321569Y-74843388D01*
X108266494Y-74831778D01*
X108203361Y-74842463D01*
X108162870Y-74856978D01*
X108122376Y-74889209D01*
X108089387Y-74947127D01*
X108061722Y-75039104D01*
X108050953Y-75155911D01*
X108050513Y-75281009D01*
X107710245Y-75281009D01*
X107710245Y-75090216D01*
X107707040Y-74975089D01*
X107694489Y-74877771D01*
X107670332Y-74808292D01*
X107632349Y-74760570D01*
X107578323Y-74728525D01*
X107560688Y-74721773D01*
X107463645Y-74706386D01*
X107375246Y-74727352D01*
X107302200Y-74781832D01*
X107251216Y-74866985D01*
X107247615Y-74879054D01*
X107238550Y-74935525D01*
X107232236Y-75014276D01*
X107229867Y-75102170D01*
X106862097Y-75102170D01*
X106867308Y-74983908D01*
X106873701Y-74868054D01*
X106880707Y-74769487D01*
X106888128Y-74694592D01*
X106895768Y-74649755D01*
X106920310Y-74579316D01*
X106977869Y-74468540D01*
X107051294Y-74369014D01*
X107133189Y-74290164D01*
X107216158Y-74241417D01*
X107253420Y-74232362D01*
X107329488Y-74224223D01*
X107422669Y-74221002D01*
X107519896Y-74222711D01*
G37*
G36*
X108831128Y-71735749D02*
G01*
X108831128Y-71990160D01*
X108716037Y-72013885D01*
X108614595Y-72035031D01*
X108483955Y-72062770D01*
X108344698Y-72092777D01*
X108202131Y-72123868D01*
X108061559Y-72154859D01*
X107928291Y-72184566D01*
X107807632Y-72211805D01*
X107704889Y-72235392D01*
X107625368Y-72254144D01*
X107574378Y-72266877D01*
X107557224Y-72272406D01*
X107557986Y-72272893D01*
X107585388Y-72281487D01*
X107650017Y-72298605D01*
X107750297Y-72323859D01*
X107884653Y-72356862D01*
X108051512Y-72397225D01*
X108249296Y-72444563D01*
X108476432Y-72498487D01*
X108832295Y-72582684D01*
X108826708Y-72834828D01*
X108821120Y-73086971D01*
X108184900Y-73245865D01*
X108083566Y-73271284D01*
X107939487Y-73307835D01*
X107811868Y-73340701D01*
X107705192Y-73368702D01*
X107623938Y-73390657D01*
X107572588Y-73405384D01*
X107555623Y-73411704D01*
X107558461Y-73412769D01*
X107591263Y-73420867D01*
X107656752Y-73435547D01*
X107750047Y-73455760D01*
X107866263Y-73480455D01*
X108000518Y-73508581D01*
X108147929Y-73539090D01*
X108192073Y-73548179D01*
X108339385Y-73578602D01*
X108474255Y-73606592D01*
X108591327Y-73631029D01*
X108685247Y-73650791D01*
X108750659Y-73664758D01*
X108782209Y-73671810D01*
X108787006Y-73673028D01*
X108805534Y-73679677D01*
X108817978Y-73692728D01*
X108825548Y-73718907D01*
X108829455Y-73764941D01*
X108830912Y-73837553D01*
X108831128Y-73943472D01*
X108830945Y-74021922D01*
X108829646Y-74103414D01*
X108826362Y-74155153D01*
X108820242Y-74183169D01*
X108810438Y-74193492D01*
X108796100Y-74192154D01*
X108784376Y-74188954D01*
X108736404Y-74176483D01*
X108656329Y-74155953D01*
X108548323Y-74128425D01*
X108416557Y-74094959D01*
X108265202Y-74056616D01*
X108098429Y-74014455D01*
X107920411Y-73969538D01*
X107821904Y-73944687D01*
X107644648Y-73899865D01*
X107478408Y-73857700D01*
X107327819Y-73819375D01*
X107197515Y-73786073D01*
X107092132Y-73758977D01*
X107016304Y-73739270D01*
X106974666Y-73728136D01*
X106869583Y-73698646D01*
X106869583Y-73423851D01*
X106869583Y-73149056D01*
X107461323Y-73000584D01*
X107527051Y-72983966D01*
X107666837Y-72947717D01*
X107789949Y-72914551D01*
X107891943Y-72885744D01*
X107968374Y-72862571D01*
X108014797Y-72846310D01*
X108026768Y-72838236D01*
X108023968Y-72837063D01*
X107989872Y-72826477D01*
X107923338Y-72807688D01*
X107829476Y-72782079D01*
X107713397Y-72751032D01*
X107580211Y-72715931D01*
X107435029Y-72678158D01*
X106869583Y-72531955D01*
X106869583Y-72255953D01*
X106869583Y-71979952D01*
X106944642Y-71960250D01*
X106972320Y-71953114D01*
X107036913Y-71936609D01*
X107132417Y-71912281D01*
X107254597Y-71881205D01*
X107399220Y-71844456D01*
X107562054Y-71803113D01*
X107738863Y-71758249D01*
X107925415Y-71710943D01*
X108831128Y-71481338D01*
X108831128Y-71735749D01*
G37*
G36*
X106436754Y-68515965D02*
G01*
X106438429Y-68524997D01*
X106445651Y-68574258D01*
X106455653Y-68651614D01*
X106467342Y-68748399D01*
X106479626Y-68855950D01*
X106483909Y-68894437D01*
X106499246Y-69029672D01*
X106511485Y-69131015D01*
X106521438Y-69203236D01*
X106529919Y-69251105D01*
X106537740Y-69279392D01*
X106545714Y-69292865D01*
X106554653Y-69296297D01*
X106569007Y-69292525D01*
X106617103Y-69276568D01*
X106693345Y-69249866D01*
X106792387Y-69214323D01*
X106908880Y-69171845D01*
X107037477Y-69124336D01*
X107060691Y-69115706D01*
X107226433Y-69054097D01*
X107408817Y-68986304D01*
X107594302Y-68917359D01*
X107769347Y-68852296D01*
X107920411Y-68796149D01*
X108340742Y-68639923D01*
X108346410Y-68871370D01*
X108347390Y-68957469D01*
X108345911Y-69036525D01*
X108342132Y-69092668D01*
X108336402Y-69117356D01*
X108328854Y-69121186D01*
X108288196Y-69136465D01*
X108217836Y-69160616D01*
X108123401Y-69191768D01*
X108010522Y-69228047D01*
X107884826Y-69267581D01*
X107813685Y-69289981D01*
X107697952Y-69327621D01*
X107600040Y-69361003D01*
X107525076Y-69388301D01*
X107478186Y-69407688D01*
X107464495Y-69417338D01*
X107472301Y-69421320D01*
X107513128Y-69437261D01*
X107583434Y-69462629D01*
X107677637Y-69495461D01*
X107790155Y-69533799D01*
X107915407Y-69575682D01*
X108350750Y-69719957D01*
X108350750Y-69967601D01*
X108350750Y-70215246D01*
X108275690Y-70188103D01*
X108266195Y-70184639D01*
X108211322Y-70164231D01*
X108130899Y-70133979D01*
X108034179Y-70097372D01*
X107930419Y-70057900D01*
X107847150Y-70026191D01*
X107716633Y-69976609D01*
X107570813Y-69921313D01*
X107422128Y-69865018D01*
X107283020Y-69812444D01*
X106905835Y-69670047D01*
X106802642Y-69706337D01*
X106725369Y-69734566D01*
X106656489Y-69764295D01*
X106615049Y-69790969D01*
X106594805Y-69818862D01*
X106589515Y-69852248D01*
X106589721Y-69861333D01*
X106593218Y-69915053D01*
X106600131Y-69991382D01*
X106609283Y-70076911D01*
X106611409Y-70096600D01*
X106618570Y-70173015D01*
X106627641Y-70280323D01*
X106638108Y-70411978D01*
X106649460Y-70561432D01*
X106661183Y-70722139D01*
X106672765Y-70887550D01*
X106680632Y-71005848D01*
X106689724Y-71155810D01*
X106697236Y-71300403D01*
X106703316Y-71445303D01*
X106708108Y-71596185D01*
X106711760Y-71758723D01*
X106714417Y-71938591D01*
X106716226Y-72141466D01*
X106717332Y-72373020D01*
X106717883Y-72638929D01*
X106717998Y-72822697D01*
X106717675Y-73068241D01*
X106716535Y-73285124D01*
X106714327Y-73480154D01*
X106710798Y-73660141D01*
X106705696Y-73831895D01*
X106698771Y-74002224D01*
X106689769Y-74177939D01*
X106678440Y-74365849D01*
X106664531Y-74572764D01*
X106647792Y-74805492D01*
X106627969Y-75070844D01*
X106597742Y-75444053D01*
X106538927Y-76066063D01*
X106469384Y-76696298D01*
X106390348Y-77325160D01*
X106303053Y-77943048D01*
X106208736Y-78540363D01*
X106108631Y-79107506D01*
X106064956Y-79341174D01*
X105961872Y-79364455D01*
X105924080Y-79373095D01*
X105862963Y-79387511D01*
X105823760Y-79397344D01*
X105822667Y-79397641D01*
X105802685Y-79399963D01*
X105792550Y-79389246D01*
X105792125Y-79359013D01*
X105801272Y-79302791D01*
X105819852Y-79214106D01*
X105826411Y-79183400D01*
X105852785Y-79052759D01*
X105883893Y-78889659D01*
X105918793Y-78699640D01*
X105956545Y-78488240D01*
X105996207Y-78261001D01*
X106036839Y-78023460D01*
X106077500Y-77781159D01*
X106117248Y-77539636D01*
X106155142Y-77304431D01*
X106190241Y-77081084D01*
X106221605Y-76875134D01*
X106248292Y-76692120D01*
X106265370Y-76568569D01*
X106287741Y-76400071D01*
X106311496Y-76215226D01*
X106335662Y-76022037D01*
X106359265Y-75828504D01*
X106381331Y-75642628D01*
X106400887Y-75472411D01*
X106416958Y-75325852D01*
X106428571Y-75210954D01*
X106436203Y-75131093D01*
X106448204Y-75009374D01*
X106459997Y-74893559D01*
X106469873Y-74800631D01*
X106470810Y-74791940D01*
X106478367Y-74713775D01*
X106487737Y-74606288D01*
X106498164Y-74478706D01*
X106508891Y-74340254D01*
X106519160Y-74200158D01*
X106534907Y-73970772D01*
X106566346Y-73446072D01*
X106588899Y-72952417D01*
X106602595Y-72484175D01*
X106607464Y-72035716D01*
X106603534Y-71601411D01*
X106590835Y-71175628D01*
X106569396Y-70752737D01*
X106539247Y-70327108D01*
X106531099Y-70225575D01*
X106522063Y-70112389D01*
X106514371Y-70015433D01*
X106508651Y-69942597D01*
X106505527Y-69901773D01*
X106500976Y-69863299D01*
X106487611Y-69841726D01*
X106456744Y-69843536D01*
X106399007Y-69865542D01*
X106387011Y-69870296D01*
X106343502Y-69882609D01*
X106321676Y-69880554D01*
X106318331Y-69858155D01*
X106315006Y-69803537D01*
X106312250Y-69725387D01*
X106310447Y-69632157D01*
X106307574Y-69397568D01*
X106380992Y-69366892D01*
X106454410Y-69336216D01*
X106442443Y-69221181D01*
X106441059Y-69207826D01*
X106422809Y-69019831D01*
X106409256Y-68855931D01*
X106400561Y-68719236D01*
X106396884Y-68612858D01*
X106398389Y-68539909D01*
X106405235Y-68503500D01*
X106416373Y-68485157D01*
X106427375Y-68482429D01*
X106436754Y-68515965D01*
G37*
%TO.C,R20*%
D15*
X104324480Y-69820000D02*
X104017198Y-69820000D01*
X104324480Y-70580000D02*
X104017198Y-70580000D01*
%TO.C,Q1*%
D10*
X89000000Y-67095000D02*
X89000000Y-67095000D01*
X89000000Y-67195000D02*
X89000000Y-67195000D01*
X89000000Y-67095000D02*
G75*
G02*
X89000000Y-67195000I0J-50000D01*
G01*
X89000000Y-67195000D02*
G75*
G02*
X89000000Y-67095000I0J50000D01*
G01*
%TO.C,BT1*%
D16*
X80365000Y-50500000D02*
X81155000Y-50500000D01*
X80365000Y-51750000D02*
X80365000Y-50500000D01*
X80365000Y-57750000D02*
X80365000Y-59000000D01*
X80365000Y-59000000D02*
X81155000Y-59000000D01*
X80500000Y-45250000D02*
X82500000Y-45250000D01*
X81155000Y-47170000D02*
X81155000Y-50500000D01*
X81155000Y-50500000D02*
X81155000Y-51750000D01*
X81155000Y-51750000D02*
X80365000Y-51750000D01*
X81155000Y-51750000D02*
X81500000Y-51750000D01*
X81155000Y-57750000D02*
X80365000Y-57750000D01*
X81155000Y-62330000D02*
X81155000Y-57750000D01*
X81500000Y-51750000D02*
X81500000Y-53250000D01*
X81500000Y-51750000D02*
X87250000Y-51750000D01*
X81500000Y-57750000D02*
X81155000Y-57750000D01*
X81500000Y-57750000D02*
X81500000Y-56250000D01*
X85250000Y-47170000D02*
X81155000Y-47170000D01*
X85250000Y-62330000D02*
X81155000Y-62330000D01*
X87250000Y-51750000D02*
X87250000Y-57750000D01*
X87250000Y-57750000D02*
X81500000Y-57750000D01*
X92460000Y-45730000D02*
X92460000Y-43924000D01*
X97540000Y-45730000D02*
X92460000Y-45730000D01*
X97540000Y-45730000D02*
X97540000Y-43924000D01*
X104750000Y-47170000D02*
X108845000Y-47170000D01*
X104750000Y-62330000D02*
X108845000Y-62330000D01*
X107500000Y-45250000D02*
X108500000Y-45250000D01*
X108500000Y-45250000D02*
X108500000Y-44250000D01*
X108500000Y-45250000D02*
X108500000Y-46250000D01*
X108500000Y-45250000D02*
X109500000Y-45250000D01*
X108845000Y-47170000D02*
X108845000Y-52151500D01*
X108845000Y-51750000D02*
X109635000Y-51750000D01*
X108845000Y-57750000D02*
X109635000Y-57750000D01*
X108845000Y-62330000D02*
X108845000Y-57348500D01*
X109635000Y-50500000D02*
X108845000Y-50500000D01*
X109635000Y-51750000D02*
X109635000Y-50500000D01*
X109635000Y-57750000D02*
X109635000Y-59000000D01*
X109635000Y-59000000D02*
X108845000Y-59000000D01*
X85250000Y-62330000D02*
G75*
G02*
X88500000Y-63750000I-150000J-4772500D01*
G01*
X88500000Y-45750000D02*
G75*
G02*
X85250000Y-47170000I-3400000J3352500D01*
G01*
X88500000Y-45750000D02*
G75*
G02*
X92460000Y-43924000I5846790J-7472810D01*
G01*
X92460000Y-65576000D02*
G75*
G02*
X88500000Y-63750000I1886790J9298810D01*
G01*
X95000000Y-65770000D02*
G75*
G02*
X92460000Y-65576000I312504J20816385D01*
G01*
X97540000Y-43924000D02*
G75*
G02*
X101500000Y-45750000I-1886788J-9298805D01*
G01*
X97540000Y-65576000D02*
G75*
G02*
X95000000Y-65769999I-2852500J20622400D01*
G01*
X101500000Y-63750000D02*
G75*
G02*
X97540000Y-65576000I-5846788J7472805D01*
G01*
X101500000Y-63750000D02*
G75*
G02*
X104750000Y-62330000I3400003J-3352507D01*
G01*
X104750000Y-47170000D02*
G75*
G02*
X101500000Y-45750000I150003J4772507D01*
G01*
%TD*%
M02*
